<svg xmlns="http://www.w3.org/2000/svg" width="125.531" height="119.808" viewBox="0 0 125.531 119.808"><defs><style>.a{fill:none;}.a,.b,.c{stroke:#002581;stroke-miterlimit:10;stroke-width:2.5px;}.b{fill:#d3eef6;}.c{fill:#fff;}</style></defs><g transform="translate(-347.523 -1.274)"><path class="a" d="M455.654,41.738V5.288A2.584,2.584,0,0,0,453.3,2.524H367.277a2.584,2.584,0,0,0-2.354,2.764v36.45Z"/><path class="b" d="M470.563,79.59V62.428a4.135,4.135,0,0,0-1.243-2.95c-1.532-1.792-14.511-17.629-14.511-17.629H365.922s-12.979,15.837-14.511,17.629a4.135,4.135,0,0,0-1.243,2.95V79.59"/><rect class="a" width="123.03" height="13.862" rx="1.213" transform="translate(348.773 79.434)"/><path class="c" d="M359.03,93.568l-.55,25.128a1.174,1.174,0,0,1-1.185,1.136h-3.8a1.174,1.174,0,0,1-1.184-1.136l-.55-25.128"/><path class="c" d="M468.813,93.568l-.55,25.128a1.174,1.174,0,0,1-1.184,1.136h-3.8A1.174,1.174,0,0,1,462.1,118.7l-.55-25.128"/><path class="a" d="M408.354,41.738V36.269c0-3.02-2.094-5.468-4.677-5.468H374.3c-2.583,0-4.677,2.448-4.677,5.468v5.469"/><path class="a" d="M450.952,41.738V36.269c0-3.02-2.094-5.468-4.678-5.468H416.9c-2.583,0-4.677,2.448-4.677,5.468v5.469"/><line class="a" x2="120.395" transform="translate(350.168 62.428)"/></g></svg>