<svg xmlns="http://www.w3.org/2000/svg" xmlns:xlink="http://www.w3.org/1999/xlink" width="149.318" height="164.939" viewBox="0 0 149.318 164.939"><defs><style>.a{fill:#b7a2a2;}.a,.b,.c,.d{stroke-linecap:round;stroke-linejoin:round;}.b{fill:#a28181;}.c{fill:#856161;}.d{fill:#6e4c4c;}.e,.f{stroke:none;}.f{fill:#fff;}.g{filter:url(#g);}.h{filter:url(#e);}.i{filter:url(#c);}.j{filter:url(#a);}</style><filter id="a" x="0" y="96" width="149.317" height="68.94" filterUnits="userSpaceOnUse"><feOffset dy="3" input="SourceAlpha"/><feGaussianBlur stdDeviation="4" result="b"/><feFlood flood-opacity="0.149"/><feComposite operator="in" in2="b"/><feComposite in="SourceGraphic"/></filter><filter id="c" x="0" y="64" width="149.317" height="68.939" filterUnits="userSpaceOnUse"><feOffset dy="3" input="SourceAlpha"/><feGaussianBlur stdDeviation="4" result="d"/><feFlood flood-opacity="0.149"/><feComposite operator="in" in2="d"/><feComposite in="SourceGraphic"/></filter><filter id="e" x="0" y="32" width="149.317" height="68.939" filterUnits="userSpaceOnUse"><feOffset dy="3" input="SourceAlpha"/><feGaussianBlur stdDeviation="4" result="f"/><feFlood flood-opacity="0.149"/><feComposite operator="in" in2="f"/><feComposite in="SourceGraphic"/></filter><filter id="g" x="0" y="0" width="149.317" height="68.939" filterUnits="userSpaceOnUse"><feOffset dy="3" input="SourceAlpha"/><feGaussianBlur stdDeviation="4" result="h"/><feFlood flood-opacity="0.149"/><feComposite operator="in" in2="h"/><feComposite in="SourceGraphic"/></filter></defs><g transform="translate(-624 -2930)"><g class="j" transform="matrix(1, 0, 0, 1, 624, 2930)"><g class="a" transform="translate(0 96)"><path class="e" d="M73.93,9h58.055a2.526,2.526,0,0,1,.7.1,2.14,2.14,0,0,1,.588.268,1.5,1.5,0,0,1,.414.4,1.007,1.007,0,0,1,.179.489h0a30.336,30.336,0,0,1-3.429,16.462,42.05,42.05,0,0,1-12.091,13.948,62.673,62.673,0,0,1-19.115,9.673,80.2,80.2,0,0,1-24.068,3.6H13.883a2.385,2.385,0,0,1-.726-.11,1.864,1.864,0,0,1-.578-.3,1.321,1.321,0,0,1-.373-.443,1.037,1.037,0,0,1-.111-.542,36.681,36.681,0,0,1,5.965-17.5A49.734,49.734,0,0,1,31.725,21.286,67.728,67.728,0,0,1,50.936,12.26,81.155,81.155,0,0,1,73.93,9Z"/><path class="f" d="M 75.15718841552734 52.41640090942383 C 77.18183898925781 52.41640090942383 79.19048309326172 52.34311676025391 81.17920684814453 52.19709777832031 C 83.16725921630859 52.05112838745117 85.13471984863281 51.8325309753418 87.07772064208984 51.54191207885742 C 89.01937866210938 51.25149154663086 90.93596649169922 50.88924789428711 92.82359313964844 50.45587539672852 C 94.70932006835938 50.02294921875 96.56552124023438 49.51918411254883 98.38843536376953 48.94532775878906 C 99.26374816894531 48.66978454589844 100.1300582885742 48.37804794311523 100.9858932495117 48.07075881958008 C 101.8411178588867 47.76369476318359 102.6857986450195 47.44110488891602 103.5184555053711 47.10363006591797 C 104.3504409790039 46.76642227172852 105.1703567504883 46.41437149047852 105.9767456054688 46.04811096191406 C 106.7824172973633 45.68215942382813 107.5745162963867 45.30204010009766 108.3515701293945 44.90838241577148 C 109.1206512451172 44.51875686645508 109.8766326904297 44.11505889892578 110.6182022094727 43.69808578491211 C 111.3590621948242 43.28152847290039 112.0855102539063 42.85175704956055 112.7963104248047 42.40958786010742 C 113.5063705444336 41.9678840637207 114.2007522583008 41.51382827758789 114.8782424926758 41.04824447631836 C 115.5549697875977 40.58317184448242 116.2147903442383 40.10661315917969 116.8564682006836 39.61938858032227 C 117.4973983764648 39.13272094726563 118.1214981079102 38.63443374633789 118.727783203125 38.12548828125 C 119.3333358764648 37.61716842651367 119.9210739135742 37.09825134277344 120.4900360107422 36.56969833374023 C 121.0582504272461 36.04180908203125 121.6077117919922 35.50432968139648 122.1374130249023 34.95822906494141 C 122.6664428710938 34.412841796875 123.1757278442383 33.85886383056641 123.6643600463867 33.29727172851563 C 124.1569137573242 32.73114395141602 124.629508972168 32.15604782104492 125.081428527832 31.57305908203125 C 125.53271484375 30.99088859558105 125.9633941650391 30.40087699890137 126.3727722167969 29.80409812927246 C 126.7815551757813 29.20817756652832 127.1690673828125 28.60552597045898 127.53466796875 27.99722480773926 C 127.8997421264648 27.38981628417969 128.2428894042969 26.77678298950195 128.5635375976563 26.15918922424316 C 129.2242431640625 24.88653945922852 129.7897491455078 23.59816551208496 130.2599792480469 22.29653930664063 C 130.7287139892578 20.99902725219727 131.1027221679688 19.68843650817871 131.3819732666016 18.36720085144043 C 131.6603393554688 17.05022048950195 131.8445129394531 15.72274112701416 131.9345245361328 14.38714599609375 C 132.0242004394531 13.05592346191406 132.0203399658203 11.71670246124268 131.9228668212891 10.37182140350342 L 73.93685150146484 10.37182140350342 C 72.01216125488281 10.37182140350342 70.1019287109375 10.43805599212646 68.20895385742188 10.57010173797607 C 66.31535339355469 10.70218944549561 64.43840789794922 10.90017127990723 62.58089065551758 11.16368293762207 C 60.72216796875 11.42736530303955 58.88232040405273 11.75675201416016 57.06417083740234 12.151535987854 C 55.2442512512207 12.54670524597168 53.44548416137695 13.00752830505371 51.67074966430664 13.533766746521 C 50.81689834594727 13.78694438934326 49.96965789794922 14.05534744262695 49.13043594360352 14.33845806121826 C 48.29062271118164 14.62176609039307 47.45878219604492 14.91982364654541 46.63629913330078 15.23211574554443 C 45.81319046020508 15.54464912414551 44.99939727783203 15.87145805358887 44.19633865356445 16.21203422546387 C 43.39261627197266 16.55289649963379 42.59959030151367 16.90756988525391 41.81867980957031 17.27553749084473 C 41.04435729980469 17.64040184020996 40.28022003173828 18.01914978027344 39.52749633789063 18.41109657287598 C 38.77405166625977 18.80341911315918 38.03201293945313 19.20898818969727 37.30261993408203 19.62711143493652 C 36.57248306274414 20.04566192626953 35.85498046875 20.47681427001953 35.15138626098633 20.91987800598145 C 34.44702911376953 21.36342239379883 33.75656509399414 21.81892395019531 33.08126831054688 22.28569221496582 C 32.40520858764648 22.75299072265625 31.74292755126953 23.2325611114502 31.09550285339355 23.72355079650879 C 30.44730567932129 24.21512985229492 29.81396675109863 24.71818351745605 29.19656181335449 25.23185348510742 C 28.57838249206543 25.74615859985352 27.97615242004395 26.27113723754883 27.39096260070801 26.80592155456543 C 26.80501556396484 27.34140014648438 26.23612022399902 27.88673210144043 25.68539047241211 28.44105911254883 C 25.12871932983398 29.0013542175293 24.58936309814453 29.57209587097168 24.06817817687988 30.15227699279785 C 23.54626083374023 30.7332706451416 23.04254722595215 31.32375717163086 22.55790710449219 31.92272758483887 C 22.07256889343262 32.52256393432617 21.60633659362793 33.13092422485352 21.16009712219238 33.74680709838867 C 20.71319580078125 34.36360168457031 20.28632545471191 34.98794937133789 19.88037872314453 35.61883163452148 C 19.03999137878418 36.92487716674805 18.28909301757813 38.25534820556641 17.62886619567871 39.60808181762695 C 16.96650505065918 40.96518325805664 16.39533805847168 42.34481430053711 15.91660499572754 43.74474716186523 C 15.43627548217773 45.14934539794922 15.04895210266113 46.57450866699219 14.75591468811035 48.0179557800293 C 14.46187686920166 49.46635055541992 14.26274871826172 50.93326568603516 14.1598482131958 52.41640090942383 L 75.15718841552734 52.41640090942383 M 75.16646575927734 53.93961715698242 L 13.88335704803467 53.93961715698242 C 13.62332153320313 53.93961715698242 13.37818241119385 53.90056991577148 13.1575756072998 53.82998275756836 C 12.93700313568115 53.75940322875977 12.7409839630127 53.65729141235352 12.57912063598633 53.53115081787109 C 12.4173059463501 53.40504837036133 12.28964519500732 53.25493621826172 12.20571327209473 53.08831405639648 C 12.12181186676025 52.9217529296875 12.0816125869751 52.73870468139648 12.0946626663208 52.54664993286133 C 12.52202987670898 46.25696182250977 14.63474082946777 40.35078811645508 18.05945205688477 35.0500373840332 C 21.44119071960449 29.8157901763916 26.11116981506348 25.15794944763184 31.72541046142578 21.28648376464844 C 37.28716659545898 17.45121192932129 43.79593276977539 14.37363910675049 50.93622589111328 12.26032543182373 C 58.03953170776367 10.15796279907227 65.80097198486328 9.00007438659668 73.93013000488281 9.00007438659668 L 131.9852752685547 9.00007438659668 C 132.2316284179688 9.00007438659668 132.4690093994141 9.035112380981445 132.6873779296875 9.098484039306641 C 132.9057922363281 9.161866188049316 133.105224609375 9.253598213195801 133.2755737304688 9.36698055267334 C 133.4459991455078 9.480395317077637 133.5873107910156 9.615484237670898 133.6894836425781 9.765542984008789 C 133.7916870117188 9.915657997131348 133.8547210693359 10.08076477050781 133.868408203125 10.25414848327637 C 134.3233337402344 16.01775550842285 133.0896606445313 21.58540344238281 130.4395751953125 26.71591758728027 C 127.7561264038086 31.91097068786621 123.626708984375 36.64565277099609 118.3486480712891 40.66377258300781 C 113.0195999145508 44.72070693969727 106.5387573242188 48.03260803222656 99.23403930664063 50.33660888671875 C 91.88949584960938 52.65317535400391 83.74761962890625 53.93961715698242 75.16646575927734 53.93961715698242 Z"/></g></g><g class="i" transform="matrix(1, 0, 0, 1, 624, 2930)"><g class="b" transform="translate(0 64)"><path class="e" d="M73.93,9h58.055a2.526,2.526,0,0,1,.7.1,2.14,2.14,0,0,1,.588.268,1.5,1.5,0,0,1,.414.4,1.007,1.007,0,0,1,.179.489h0a30.336,30.336,0,0,1-3.429,16.462,42.05,42.05,0,0,1-12.091,13.948,62.673,62.673,0,0,1-19.115,9.673,80.2,80.2,0,0,1-24.067,3.6H13.883a2.385,2.385,0,0,1-.726-.11,1.864,1.864,0,0,1-.578-.3,1.321,1.321,0,0,1-.373-.443,1.037,1.037,0,0,1-.111-.542,36.681,36.681,0,0,1,5.965-17.5A49.734,49.734,0,0,1,31.725,21.286,67.728,67.728,0,0,1,50.936,12.26,81.155,81.155,0,0,1,73.93,9Z"/><path class="f" d="M 75.15745544433594 52.41623687744141 C 77.18209838867188 52.41623687744141 79.19071960449219 52.34295654296875 81.17943572998047 52.19693374633789 C 83.16747283935547 52.05096817016602 85.13492584228516 51.83236694335938 87.07791137695313 51.541748046875 C 89.01956939697266 51.25132751464844 90.93614196777344 50.88908767700195 92.82377624511719 50.45571899414063 C 94.70948028564453 50.02279281616211 96.56568908691406 49.5190315246582 98.38858032226563 48.94518280029297 C 99.26389312744141 48.66963958740234 100.1302108764648 48.37791061401367 100.9860305786133 48.07061767578125 C 101.8412551879883 47.76355361938477 102.6859283447266 47.44097137451172 103.5185852050781 47.10348892211914 C 104.3505783081055 46.76628494262695 105.1704864501953 46.41423416137695 105.9768600463867 46.0479736328125 C 106.7825317382813 45.6820182800293 107.5746459960938 45.30191421508789 108.3516845703125 44.90824890136719 C 109.1207733154297 44.51863098144531 109.8767318725586 44.11492538452148 110.6183166503906 43.69795989990234 C 111.3591690063477 43.28140258789063 112.0856246948242 42.85163497924805 112.7964248657227 42.40946960449219 C 113.5064697265625 41.96776580810547 114.2008514404297 41.51371765136719 114.8783340454102 41.04813766479492 C 115.5550765991211 40.58306884765625 116.2148742675781 40.10651016235352 116.8565368652344 39.6192741394043 C 117.4974746704102 39.13261413574219 118.1215744018555 38.63432312011719 118.7278671264648 38.12538909912109 C 119.3334121704102 37.6170654296875 119.9211502075195 37.09814453125 120.4900894165039 36.56959533691406 C 121.0583190917969 36.04170989990234 121.6077728271484 35.50423049926758 122.1374816894531 34.95813369750977 C 122.6664962768555 34.41275024414063 123.1757736206055 33.85877990722656 123.6643981933594 33.29718017578125 C 124.1569519042969 32.73106002807617 124.6295471191406 32.15596389770508 125.0814666748047 31.57297706604004 C 125.5327682495117 30.99081420898438 125.9634323120117 30.40080070495605 126.372802734375 29.80402565002441 C 126.7815933227539 29.20810890197754 127.1691055297852 28.60545921325684 127.5347137451172 27.99716377258301 C 127.8997573852539 27.3897533416748 128.2429351806641 26.77672386169434 128.5635681152344 26.15913581848145 C 129.2242584228516 24.88648414611816 129.7897644042969 23.59811592102051 130.2599792480469 22.29649543762207 C 130.7287139892578 20.99898529052734 131.1027221679688 19.68840217590332 131.3819885253906 18.36717224121094 C 131.6603393554688 17.05019760131836 131.8445281982422 15.7227258682251 131.9345397949219 14.38713932037354 C 132.0242156982422 13.05592155456543 132.0203552246094 11.71670627593994 131.9228973388672 10.37182998657227 L 73.93660736083984 10.37182998657227 C 72.01192474365234 10.37182998657227 70.10170745849609 10.43806552886963 68.208740234375 10.57011032104492 C 66.31514739990234 10.70219802856445 64.43820190429688 10.90017795562744 62.5806999206543 11.16368961334229 C 60.72198867797852 11.42737197875977 58.88214874267578 11.75675487518311 57.06399917602539 12.151535987854 C 55.24408721923828 12.54670143127441 53.44533538818359 13.0075216293335 51.67060852050781 13.53375434875488 C 50.81675338745117 13.78693294525146 49.96952056884766 14.05533599853516 49.13029098510742 14.33844566345215 C 48.29048919677734 14.62175559997559 47.45864868164063 14.9198112487793 46.63616943359375 15.23210430145264 C 45.81306076049805 15.54463577270508 44.99927520751953 15.87144565582275 44.19622421264648 16.21202278137207 C 43.39250564575195 16.55288505554199 42.5994758605957 16.90755653381348 41.81856918334961 17.27552604675293 C 41.04425430297852 17.64038848876953 40.28011703491211 18.01913642883301 39.52740097045898 18.41107940673828 C 38.77396392822266 18.80339813232422 38.03191757202148 19.20896148681641 37.30253219604492 19.62708282470703 C 36.57239532470703 20.04562950134277 35.85490417480469 20.47677993774414 35.15130615234375 20.91984176635742 C 34.44694519042969 21.36338043212891 33.75648880004883 21.81888389587402 33.08119201660156 22.28564834594727 C 32.40513610839844 22.7529468536377 31.74286079406738 23.23251724243164 31.09543991088867 23.72350883483887 C 30.44724655151367 24.21508598327637 29.81390571594238 24.7181339263916 29.19650650024414 25.23180198669434 C 28.57833480834961 25.74610900878906 27.97611045837402 26.27108573913574 27.39092254638672 26.80586242675781 C 26.80497932434082 27.34133720397949 26.2360897064209 27.88666915893555 25.68536376953125 28.44099235534668 C 25.12869071960449 29.00128746032715 24.58933639526367 29.5720272064209 24.06815147399902 30.15220642089844 C 23.54623603820801 30.73319816589355 23.04252243041992 31.32368278503418 22.55788230895996 31.92264938354492 C 22.07254219055176 32.52248001098633 21.60631370544434 33.1308479309082 21.16007232666016 33.74672317504883 C 20.71317100524902 34.3635139465332 20.28630065917969 34.98786544799805 19.8803539276123 35.61874389648438 C 19.03997611999512 36.92477416992188 18.28908348083496 38.2552490234375 17.62886238098145 39.60797500610352 C 16.96650505065918 40.96507263183594 16.39534187316895 42.34469985961914 15.91661262512207 43.74462890625 C 15.43628311157227 45.14921569824219 15.04896259307861 46.57436752319336 14.75592803955078 48.01781463623047 C 14.46189022064209 49.46619415283203 14.26276206970215 50.93310546875 14.15986156463623 52.41623687744141 L 75.15745544433594 52.41623687744141 M 75.16673278808594 53.939453125 L 13.8833532333374 53.939453125 C 13.62332153320313 53.939453125 13.37818813323975 53.90041351318359 13.15758037567139 53.8298225402832 C 12.93701076507568 53.75924301147461 12.74099445343018 53.65713119506836 12.57913208007813 53.5309944152832 C 12.41731834411621 53.40488815307617 12.28965854644775 53.25477600097656 12.20572662353516 53.08815383911133 C 12.121826171875 52.92158889770508 12.08162784576416 52.73854827880859 12.09467697143555 52.54648590087891 C 12.52204418182373 46.25682830810547 14.63474369049072 40.35068130493164 18.05944061279297 35.04994201660156 C 21.44116592407227 29.81572341918945 26.11112403869629 25.15789604187012 31.72533416748047 21.28644561767578 C 37.28707122802734 17.45118713378906 43.79581451416016 14.37362766265869 50.93608474731445 12.26032066345215 C 58.03935623168945 10.15796756744385 65.80076599121094 9.000082969665527 73.92989349365234 9.000082969665527 L 131.9852905273438 9.000082969665527 C 132.2316436767578 9.000082969665527 132.4690093994141 9.035121917724609 132.6873779296875 9.098492622375488 C 132.9058074951172 9.161874771118164 133.1052398681641 9.253605842590332 133.2755889892578 9.366988182067871 C 133.4460144042969 9.480401992797852 133.5873260498047 9.61548900604248 133.6894989013672 9.765546798706055 C 133.7917175292969 9.915660858154297 133.854736328125 10.08076572418213 133.8684234619141 10.25414657592773 C 134.3233489990234 16.01773452758789 133.0896911621094 21.58536148071289 130.4395904541016 26.71585845947266 C 127.7561645507813 31.910888671875 123.6267471313477 36.64555740356445 118.3487167358398 40.66365814208984 C 113.0196838378906 44.72057342529297 106.5388793945313 48.03246307373047 99.23419189453125 50.33645629882813 C 91.88967132568359 52.65301132202148 83.74784851074219 53.939453125 75.16673278808594 53.939453125 Z"/></g></g><g class="h" transform="matrix(1, 0, 0, 1, 624, 2930)"><g class="c" transform="translate(0 32)"><path class="e" d="M73.93,9h58.056a2.526,2.526,0,0,1,.7.1,2.141,2.141,0,0,1,.588.268,1.5,1.5,0,0,1,.414.4,1.007,1.007,0,0,1,.179.489,30.336,30.336,0,0,1-3.429,16.462,42.05,42.05,0,0,1-12.091,13.948,62.673,62.673,0,0,1-19.115,9.673,80.2,80.2,0,0,1-24.067,3.6H13.883a2.385,2.385,0,0,1-.726-.11,1.864,1.864,0,0,1-.578-.3,1.321,1.321,0,0,1-.373-.443,1.037,1.037,0,0,1-.111-.542,36.681,36.681,0,0,1,5.965-17.5A49.734,49.734,0,0,1,31.725,21.286,67.728,67.728,0,0,1,50.936,12.26,81.155,81.155,0,0,1,73.93,9Z"/><path class="f" d="M 75.15776062011719 52.41584396362305 C 77.18239593505859 52.41584396362305 79.19101715087891 52.34255599975586 81.17972564697266 52.19654083251953 C 83.16776275634766 52.05057525634766 85.13520050048828 51.83197021484375 87.07817840576172 51.54135131835938 C 89.01983642578125 51.25093841552734 90.93640899658203 50.88870239257813 92.82402801513672 50.45532989501953 C 94.70973205566406 50.02241516113281 96.56592559814453 49.51864242553711 98.38883972167969 48.94480133056641 C 99.26413726806641 48.66926193237305 100.1304550170898 48.37753295898438 100.9862747192383 48.07024002075195 C 101.8414916992188 47.76317596435547 102.686164855957 47.44059371948242 103.5188064575195 47.10311508178711 C 104.3507766723633 46.76590728759766 105.1707077026367 46.41386795043945 105.9770812988281 46.047607421875 C 106.7827529907227 45.68165588378906 107.5748596191406 45.30155181884766 108.3519058227539 44.90788650512695 C 109.1209945678711 44.51826858520508 109.8769454956055 44.11456298828125 110.618537902832 43.69760131835938 C 111.3593826293945 43.28104400634766 112.0858306884766 42.85127258300781 112.796630859375 42.40910720825195 C 113.5066833496094 41.9674072265625 114.2010498046875 41.51335906982422 114.878547668457 41.04777526855469 C 115.5552749633789 40.58271026611328 116.2150802612305 40.10615921020508 116.8567581176758 39.61893081665039 C 117.4976654052734 39.13225936889648 118.1217727661133 38.63398361206055 118.7280502319336 38.12504577636719 C 119.3336029052734 37.61672973632813 119.9213256835938 37.09781265258789 120.4902877807617 36.56926345825195 C 121.0585098266602 36.04137420654297 121.6079711914063 35.50390625 122.1376647949219 34.95780944824219 C 122.6666793823242 34.41242218017578 123.1759872436523 33.85845947265625 123.6645965576172 33.2968635559082 C 124.1571350097656 32.73073959350586 124.6297225952148 32.15564346313477 125.081657409668 31.57266235351563 C 125.5329513549805 30.99049758911133 125.9636306762695 30.40048980712891 126.3730010986328 29.80371284484863 C 126.7817840576172 29.20779609680176 127.1692962646484 28.60515213012695 127.5348892211914 27.99685478210449 C 127.8999481201172 27.38945007324219 128.2431182861328 26.77642250061035 128.5637512207031 26.15883636474609 C 129.2244567871094 24.88619232177734 129.7899627685547 23.59782791137695 130.2601928710938 22.29621124267578 C 130.7289123535156 20.99870491027832 131.1029357910156 19.6881275177002 131.3821716308594 18.36690139770508 C 131.6605377197266 17.04993057250977 131.8447113037109 15.7224645614624 131.9347076416016 14.38687992095947 C 132.0244293212891 13.0556697845459 132.0205383300781 11.71646118164063 131.9230651855469 10.37159061431885 L 73.93645477294922 10.37159061431885 C 72.01177978515625 10.37159061431885 70.10157012939453 10.43782615661621 68.20860290527344 10.5698709487915 C 66.31502532958984 10.70195770263672 64.43807983398438 10.89993858337402 62.58058166503906 11.16345024108887 C 60.72187042236328 11.42713069915771 58.88203430175781 11.75651550292969 57.06389236450195 12.15129470825195 C 55.24398040771484 12.54646110534668 53.44522857666016 13.00728034973145 51.67050170898438 13.53351211547852 C 50.816650390625 13.78668880462646 49.96942138671875 14.05508899688721 49.13019943237305 14.33819770812988 C 48.29039764404297 14.62150382995605 47.45855712890625 14.91956043243408 46.63607406616211 15.23184871673584 C 45.81297302246094 15.54438018798828 44.99918746948242 15.87118911743164 44.19614410400391 16.21176338195801 C 43.39241409301758 16.55262184143066 42.59939575195313 16.90729141235352 41.8184814453125 17.2752571105957 C 41.0441780090332 17.64012145996094 40.2800407409668 18.01886558532715 39.52732467651367 18.41081047058105 C 38.77389526367188 18.80313110351563 38.03185272216797 19.20869445800781 37.30246734619141 19.62681770324707 C 36.57233428955078 20.04536056518555 35.85484313964844 20.47651481628418 35.15124130249023 20.9195728302002 C 34.4468879699707 21.36311149597168 33.75643157958984 21.81861305236816 33.08113861083984 22.28537750244141 C 32.40508270263672 22.75267601013184 31.74280738830566 23.23224067687988 31.09538650512695 23.72323036193848 C 30.44719314575195 24.21480751037598 29.81385231018066 24.71785354614258 29.19645118713379 25.23151779174805 C 28.57827568054199 25.74581909179688 27.97605323791504 26.27079200744629 27.39086532592773 26.80557441711426 C 26.80492210388184 27.34104537963867 26.23603248596191 27.88637351989746 25.68530654907227 28.44069480895996 C 25.12863731384277 29.00098609924316 24.58927917480469 29.57172012329102 24.06809997558594 30.15189743041992 C 23.54618644714355 30.73288726806641 23.04247665405273 31.32337188720703 22.55784034729004 31.92233848571777 C 22.07250022888184 32.52217102050781 21.60626983642578 33.13052749633789 21.16003227233887 33.74640274047852 C 20.71313095092773 34.36319351196289 20.2862663269043 34.9875373840332 19.88032341003418 35.61841583251953 C 19.03994369506836 36.92444229125977 18.2890510559082 38.25490951538086 17.62882614135742 39.60763168334961 C 16.96646881103516 40.96472549438477 16.39530372619629 42.34434509277344 15.91657161712646 43.7442741394043 C 15.43624305725098 45.14885330200195 15.04891967773438 46.57400131225586 14.75588226318359 48.01743698120117 C 14.4618444442749 49.4658203125 14.26271343231201 50.93271636962891 14.15981388092041 52.41584396362305 L 75.15776062011719 52.41584396362305 M 75.16703796386719 53.93906021118164 L 13.88330459594727 53.93906021118164 C 13.62327194213867 53.93906021118164 13.37813663482666 53.9000129699707 13.15753078460693 53.82942199707031 C 12.93696212768555 53.75884628295898 12.74094581604004 53.65674209594727 12.57908344268799 53.53060150146484 C 12.41726970672607 53.40449905395508 12.28960990905762 53.25438690185547 12.20567607879639 53.0877571105957 C 12.12177753448486 52.92120361328125 12.08157920837402 52.73815536499023 12.09462738037109 52.54609298706055 C 12.52200126647949 46.25646209716797 14.63470363616943 40.35033416748047 18.05939674377441 35.04961776733398 C 21.44111824035645 29.81541061401367 26.11107635498047 25.1576042175293 31.72528076171875 21.28616523742676 C 37.28700256347656 17.45092010498047 43.79573440551758 14.37337207794189 50.93598175048828 12.26007270812988 C 58.03924560546875 10.1577262878418 65.80063629150391 8.999844551086426 73.92974853515625 8.999844551086426 L 131.9855041503906 8.999844551086426 C 132.2318267822266 8.999844551086426 132.4692077636719 9.034882545471191 132.6875915527344 9.098252296447754 C 132.906005859375 9.161633491516113 133.1054229736328 9.253363609313965 133.2757873535156 9.366744995117188 C 133.4461822509766 9.480157852172852 133.5875396728516 9.61524486541748 133.6896820068359 9.765302658081055 C 133.7919006347656 9.915416717529297 133.8549194335938 10.08052349090576 133.8685913085938 10.25390720367432 C 134.3235473632813 16.01747512817383 133.0898742675781 21.5850830078125 130.4397888183594 26.71556091308594 C 127.7563400268555 31.91057395935059 123.626953125 36.64522552490234 118.3489303588867 40.66331100463867 C 113.019905090332 44.72021484375 106.5391006469727 48.0320930480957 99.23442840576172 50.33607482910156 C 91.88993835449219 52.65262222290039 83.74813079833984 53.93906021118164 75.16703796386719 53.93906021118164 Z"/></g></g><g class="g" transform="matrix(1, 0, 0, 1, 624, 2930)"><g class="d" transform="translate(0)"><path class="e" d="M73.93,9h58.056a2.526,2.526,0,0,1,.7.1,2.14,2.14,0,0,1,.588.268,1.5,1.5,0,0,1,.414.4,1.007,1.007,0,0,1,.179.489h0a30.336,30.336,0,0,1-3.429,16.462,42.049,42.049,0,0,1-12.091,13.948,62.673,62.673,0,0,1-19.115,9.673,80.2,80.2,0,0,1-24.067,3.6H13.883a2.385,2.385,0,0,1-.726-.11,1.864,1.864,0,0,1-.578-.3,1.321,1.321,0,0,1-.373-.443,1.037,1.037,0,0,1-.111-.542,36.681,36.681,0,0,1,5.965-17.5A49.734,49.734,0,0,1,31.725,21.286,67.728,67.728,0,0,1,50.936,12.26,81.155,81.155,0,0,1,73.93,9Z"/><path class="f" d="M 75.15797424316406 52.41608810424805 C 77.18260192871094 52.41608810424805 79.19123840332031 52.34280776977539 81.17994689941406 52.19679260253906 C 83.16798400878906 52.05082321166992 85.13542175292969 51.83221817016602 87.07840728759766 51.54161071777344 C 89.02006530761719 51.25118637084961 90.93663024902344 50.88894653320313 92.82425689697266 50.45558547973633 C 94.7099609375 50.02265930175781 96.56616973876953 49.51889801025391 98.38906860351563 48.94505310058594 C 99.26438140869141 48.66950988769531 100.1306991577148 48.37778091430664 100.9865188598633 48.07048797607422 C 101.8417282104492 47.76342391967773 102.686408996582 47.44084167480469 103.51904296875 47.10336303710938 C 104.3510360717773 46.76616287231445 105.1709442138672 46.41411590576172 105.9773178100586 46.0478515625 C 106.7829895019531 45.68190765380859 107.5750961303711 45.30179595947266 108.3521347045898 44.90813446044922 C 109.121208190918 44.51851654052734 109.8771743774414 44.11481094360352 110.618766784668 43.69784545898438 C 111.3596115112305 43.28129196166992 112.0860595703125 42.85152435302734 112.7968673706055 42.40935516357422 C 113.5069122314453 41.96765518188477 114.2012939453125 41.51360702514648 114.878776550293 41.04802322387695 C 115.5555114746094 40.58295822143555 116.2153091430664 40.10640716552734 116.8569946289063 39.61917877197266 C 117.4979095458984 39.13250732421875 118.1220169067383 38.63423156738281 118.7282943725586 38.12529373168945 C 119.3338470458984 37.61697769165039 119.9215698242188 37.09805297851563 120.4905319213867 36.56950378417969 C 121.0587463378906 36.04161834716797 121.6082000732422 35.50414657592773 122.1379089355469 34.95804214477539 C 122.6669235229492 34.41266250610352 123.1762237548828 33.85869598388672 123.6648330688477 33.29710006713867 C 124.1573715209961 32.73097991943359 124.6299591064453 32.15589141845703 125.0818862915039 31.57290649414063 C 125.5331878662109 30.99074172973633 125.9638671875 30.40073394775391 126.3732376098633 29.80395698547363 C 126.7820205688477 29.20804214477539 127.1695327758789 28.60539627075195 127.5351181030273 27.99709701538086 C 127.9001617431641 27.38969039916992 128.2433471679688 26.77666282653809 128.5639953613281 26.15907287597656 C 129.2246856689453 24.88642883300781 129.7901916503906 23.59806251525879 130.2604064941406 22.29644775390625 C 130.7291412353516 20.99894332885742 131.1031494140625 19.68836784362793 131.3824157714844 18.36714172363281 C 131.6607513427734 17.05017280578613 131.8449401855469 15.72270679473877 131.9349365234375 14.38712215423584 C 132.0246734619141 13.05591106414795 132.0207824707031 11.71670055389404 131.9233093261719 10.37182807922363 L 73.93649291992188 10.37182807922363 C 72.01181030273438 10.37182807922363 70.10160064697266 10.438063621521 68.20863342285156 10.57010841369629 C 66.31504821777344 10.70219421386719 64.43810272216797 10.90017604827881 62.58060455322266 11.16368675231934 C 60.72188949584961 11.4273681640625 58.88205337524414 11.75675201416016 57.06391525268555 12.15153217315674 C 55.24399948120117 12.54669857025146 53.44524383544922 13.00751781463623 51.6705207824707 13.5337495803833 C 50.81666564941406 13.78692531585693 49.96943664550781 14.05532646179199 49.13021469116211 14.33843326568604 C 48.29041290283203 14.62174034118652 47.45857238769531 14.91979694366455 46.63609313964844 15.23208618164063 C 45.81298828125 15.54461669921875 44.99920654296875 15.87142562866211 44.19615936279297 16.21200180053711 C 43.39243698120117 16.55285835266113 42.59941482543945 16.90752983093262 41.81850433349609 17.2754955291748 C 41.04419708251953 17.64035987854004 40.28005599975586 18.01910781860352 39.52734756469727 18.41105270385742 C 38.7739143371582 18.80337142944336 38.03186798095703 19.20893478393555 37.30248641967773 19.62705612182617 C 36.57234954833984 20.04560089111328 35.8548583984375 20.47675132751465 35.1512565612793 20.91980934143066 C 34.4468994140625 21.36334991455078 33.75643539428711 21.81884956359863 33.08114624023438 22.28561592102051 C 32.40508270263672 22.75291061401367 31.74281311035156 23.23247909545898 31.09539413452148 23.72346687316895 C 30.44720268249512 24.21504592895508 29.81386375427246 24.71809196472168 29.19646263122559 25.23176002502441 C 28.57828712463379 25.74606513977051 27.97606468200684 26.27103996276855 27.39087677001953 26.80582046508789 C 26.804931640625 27.34129333496094 26.23603820800781 27.88662147521973 25.6853084564209 28.44094276428223 C 25.12864112854004 29.00123405456543 24.58928298950195 29.57196807861328 24.06809997558594 30.15214538574219 C 23.54619216918945 30.73313903808594 23.04247856140137 31.32362174987793 22.55784034729004 31.92258644104004 C 22.07250213623047 32.52241897583008 21.60627365112305 33.13077926635742 21.1600341796875 33.74665451049805 C 20.71313285827637 34.36344146728516 20.28626823425293 34.98778533935547 19.88032531738281 35.61865997314453 C 19.03994560241699 36.9246940612793 18.28905296325684 38.25516510009766 17.62882995605469 39.60787963867188 C 16.96647262573242 40.9649772644043 16.39530754089355 42.3445930480957 15.91657543182373 43.74452209472656 C 15.43624591827393 45.14910125732422 15.04892349243164 46.57424545288086 14.75588703155518 48.01768493652344 C 14.46184921264648 49.466064453125 14.26271820068359 50.93296051025391 14.15981864929199 52.41608810424805 L 75.15797424316406 52.41608810424805 M 75.16724395751953 53.93930816650391 L 13.88330841064453 53.93930816650391 C 13.62327671051025 53.93930816650391 13.37814331054688 53.9002685546875 13.15753746032715 53.82967376708984 C 12.93696689605713 53.75909805297852 12.7409496307373 53.6569938659668 12.57908821105957 53.53085327148438 C 12.41727352142334 53.40475082397461 12.28961372375488 53.25464248657227 12.20568084716797 53.08800888061523 C 12.12178230285645 52.92145538330078 12.08158302307129 52.7384147644043 12.09463310241699 52.54635620117188 C 12.52200508117676 46.25671768188477 14.63470935821533 40.35059356689453 18.05940437316895 35.04986953735352 C 21.44112586975098 29.81566047668457 26.111083984375 25.15785026550293 31.72528839111328 21.28641128540039 C 37.28701782226563 17.45116233825684 43.79574966430664 14.37361240386963 50.93600845336914 12.2603120803833 C 58.03927612304688 10.15796375274658 65.80067443847656 9.000082015991211 73.92977905273438 9.000082015991211 L 131.9857177734375 9.000082015991211 C 132.2320556640625 9.000082015991211 132.4694519042969 9.035120010375977 132.6878204345703 9.098491668701172 C 132.90625 9.161873817443848 133.1056518554688 9.253604888916016 133.2760009765625 9.366986274719238 C 133.4464263916016 9.480400085449219 133.5877532958984 9.615488052368164 133.6899108886719 9.765544891357422 C 133.7921447753906 9.915657997131348 133.8551635742188 10.0807638168335 133.8688354492188 10.2541446685791 C 134.3237762451172 16.01771354675293 133.0901031494141 21.58532333374023 130.4400177001953 26.7158031463623 C 127.7565841674805 31.91081619262695 123.6272048950195 36.64547348022461 118.3491668701172 40.66355895996094 C 113.020133972168 44.720458984375 106.5393295288086 48.0323371887207 99.23466491699219 50.33631896972656 C 91.89015197753906 52.65286636352539 83.74834442138672 53.93930816650391 75.16724395751953 53.93930816650391 Z"/></g></g></g></svg>