<?xml version="1.0" encoding="utf-8"?>
<!-- Generator: Adobe Illustrator 27.0.0, SVG Export Plug-In . SVG Version: 6.00 Build 0)  -->
<svg version="1.1" id="Layer_1" xmlns="http://www.w3.org/2000/svg" xmlns:xlink="http://www.w3.org/1999/xlink" x="0px" y="0px"
	 viewBox="0 0 300 300" style="enable-background:new 0 0 300 300;" xml:space="preserve">
<style type="text/css">
	.st0{fill:#FFFFFF;}
	.st1{fill:#0BA797;}
	.st2{fill:#FFC94D;}
	.st3{fill:#FF0053;}
	.st4{fill:none;stroke:#062D4E;stroke-width:7;stroke-linecap:round;stroke-linejoin:round;stroke-miterlimit:10;}
	.st5{fill:#062D4E;}
	.st6{fill:#3D5CCE;}
	.st7{fill:none;stroke:#062D4E;stroke-width:7;stroke-linejoin:round;stroke-miterlimit:10;}
	.st8{fill:#A191E7;}
</style>
<circle class="st0" cx="150" cy="150" r="150"/>
<circle class="st0" cx="150" cy="150" r="150"/>
<g>
	<path class="st8" d="M103.4,170.6l71.2,0c12.3,0,22.2,10,22.2,22.2c0,12.3-10,22.2-22.2,22.2l-71.2,0c-12.3,0-22.2-10-22.2-22.2
		C81.2,180.5,91.1,170.6,103.4,170.6z"/>
	<g>
		<path class="st4" d="M74.6,191.3v-85.5l-0.7-1.2h-7.2V86.4h28.9v104.9H74.6z"/>
		<path class="st4" d="M108.6,111.2c0-8.8,2.1-15.4,6.2-19.7c4.1-4.3,11-6.5,20.5-6.5c9.6,0,16.6,2.2,21,6.7
			c4.4,4.4,6.6,11,6.6,19.6v3c0,3-0.4,5.8-1.2,8.3c-0.8,2.5-1.8,4.7-3.1,6.6c-1.3,1.8-2.8,3.3-4.5,4.4c-1.7,1.1-3.4,1.7-5.2,1.9v1.3
			c1.9,0.1,3.7,0.7,5.4,1.7c1.7,1,3.2,2.6,4.5,4.6c1.3,2,2.3,4.5,3.1,7.6c0.8,3,1.2,6.7,1.2,10.9v3.9c0,9.2-2.2,16.1-6.7,20.6
			c-4.4,4.5-11.5,6.8-21,6.8c-9.5,0-16.3-2.2-20.5-6.7c-4.2-4.5-6.3-11.4-6.3-20.7v-3.9c0-8,1.2-14,3.7-18.1
			c2.5-4.1,5.6-6.3,9.3-6.6v-1.5c-3.7-0.4-6.8-2.5-9.2-6.3c-2.4-3.8-3.7-8.7-3.7-14.8V111.2z M129.5,166.9c0,2.9,0.6,4.9,1.9,6.1
			c1.2,1.1,2.7,1.7,4.4,1.7c1.7,0,3.2-0.6,4.4-1.7c1.2-1.1,1.9-3.2,1.9-6.1v-14.1c0-5.1-2.1-7.6-6.3-7.6c-4.2,0-6.3,2.5-6.3,7.6
			V166.9z M129.6,119.7c0,2.6,0.6,4.4,1.9,5.5c1.2,1.1,2.7,1.6,4.3,1.6c1.6,0,3-0.5,4.3-1.6c1.2-1.1,1.9-2.9,1.9-5.5v-8.8
			c0-2.9-0.6-4.9-1.8-6c-1.2-1.1-2.6-1.6-4.3-1.6c-1.7,0-3.1,0.6-4.3,1.6c-1.2,1.1-1.8,3.1-1.8,6V119.7z"/>
		<path class="st4" d="M233.3,148.2h-21.9v22.3h-16.5v-22.3h-21.7v-15.4h21.7v-22.3h16.5v22.3h21.9V148.2z"/>
	</g>
</g>
</svg>
