<?xml version="1.0" encoding="utf-8"?>
<!-- Generator: Adobe Illustrator 27.0.0, SVG Export Plug-In . SVG Version: 6.00 Build 0)  -->
<svg version="1.1" id="Layer_1" xmlns="http://www.w3.org/2000/svg" xmlns:xlink="http://www.w3.org/1999/xlink" x="0px" y="0px"
	 viewBox="0 0 300 300" style="enable-background:new 0 0 300 300;" xml:space="preserve">
<style type="text/css">
	.st0{fill:#FFFFFF;}
	.st1{fill:#0BA797;}
	.st2{fill:#FFC94D;}
	.st3{fill:#FF0053;}
	.st4{fill:none;stroke:#062D4E;stroke-width:7;stroke-linecap:round;stroke-linejoin:round;stroke-miterlimit:10;}
	.st5{fill:#062D4E;}
	.st6{fill:#3D5CCE;}
	.st7{fill:none;stroke:#062D4E;stroke-width:7;stroke-linejoin:round;stroke-miterlimit:10;}
	.st8{fill:#A191E7;}
</style>
<circle class="st0" cx="150" cy="150" r="150"/>
<circle class="st1" cx="99.4" cy="186.5" r="52.1"/>
<ellipse class="st4" cx="222.4" cy="129.1" rx="27" ry="12"/>
<path class="st4" d="M249.4,147.1c0,6.6-12.1,12-27,12c-14.9,0-27-5.4-27-12"/>
<path class="st4" d="M219.4,177.1c1,0.1,2,0.1,3,0.1c14.9,0,27-5.4,27-12"/>
<polyline class="st4" points="195.4,129.1 195.4,147.1 195.4,160.1 "/>
<path class="st4" d="M219.4,195.1c1,0.1,2,0.1,3,0.1c14.9,0,27-5.4,27-12v-18v-18v-18"/>
<line class="st4" x1="196.6" y1="192.7" x2="196.6" y2="192.7"/>
<ellipse class="st4" cx="180.4" cy="183.1" rx="27" ry="12"/>
<path class="st4" d="M207.4,201.1c0,6.6-12.1,12-27,12c-14.9,0-27-5.4-27-12"/>
<path class="st4" d="M207.4,183.1v36c0,6.6-12.1,12-27,12c-14.9,0-27-5.4-27-12v-36"/>
<polyline class="st4" points="195.4,105.1 195.4,63.1 135.4,63.1 "/>
<polyline class="st4" points="99.4,99.1 99.4,207.1 141.1,207.1 "/>
<polygon class="st4" points="135.4,99.1 99.4,99.1 135.4,63.1 "/>
<line class="st4" x1="123.4" y1="171.1" x2="123.4" y2="147.1"/>
<line class="st4" x1="141.4" y1="171.1" x2="141.4" y2="135.1"/>
<line class="st4" x1="159.4" y1="159.1" x2="159.4" y2="123.1"/>
<line class="st4" x1="177.4" y1="159.1" x2="177.4" y2="111.1"/>
<line class="st4" x1="111.4" y1="138.1" x2="177.4" y2="84.1"/>
<polyline class="st4" points="162.4,84.1 177.4,84.1 174.4,99.1 "/>
<line class="st4" x1="111.4" y1="189.1" x2="141.4" y2="189.1"/>
</svg>
