<?xml version="1.0" encoding="utf-8"?>
<!-- Generator: Adobe Illustrator 27.0.0, SVG Export Plug-In . SVG Version: 6.00 Build 0)  -->
<svg version="1.1" id="Layer_1" xmlns="http://www.w3.org/2000/svg" xmlns:xlink="http://www.w3.org/1999/xlink" x="0px" y="0px"
	 viewBox="0 0 300 300" style="enable-background:new 0 0 300 300;" xml:space="preserve">
<style type="text/css">
	.st0{fill:#FFFFFF;}
	.st1{fill:#0BA797;}
	.st2{fill:#FFC94D;}
	.st3{fill:#FF0053;}
	.st4{fill:none;stroke:#062D4E;stroke-width:7;stroke-linecap:round;stroke-linejoin:round;stroke-miterlimit:10;}
	.st5{fill:#062D4E;}
	.st6{fill:#3D5CCE;}
	.st7{fill:none;stroke:#062D4E;stroke-width:7;stroke-linejoin:round;stroke-miterlimit:10;}
	.st8{fill:#A191E7;}
</style>
<circle class="st0" cx="150" cy="150" r="150"/>
<circle class="st2" cx="189.3" cy="202.1" r="52.1"/>
<path class="st4" d="M93.8,145h-21c-3.6,0-6.5-2.9-6.5-6.5V81.3c0-3.6,2.9-6.5,6.5-6.5h143.1c3.6,0,6.5,2.9,6.5,6.5v57.2
	c0,3.6-2.9,6.5-6.5,6.5h-21.1"/>
<path class="st4" d="M184.1,107.4v114.1c0,2.1-1.7,3.7-3.7,3.7h-72.2c-2.1,0-3.7-1.7-3.7-3.7V107.4"/>
<line class="st4" x1="164.2" y1="107.3" x2="164.2" y2="225.1"/>
<line class="st4" x1="149" y1="107.3" x2="149" y2="225.1"/>
<line class="st4" x1="126.8" y1="190.6" x2="126.8" y2="210.2"/>
<path class="st4" d="M194.6,123c6.1-1.3,10.7-6.7,10.7-13.2c0-7.4-6-13.4-13.4-13.4h-95c-7.4,0-13.4,6-13.4,13.4
	c0,6.4,4.5,11.7,10.4,13.1"/>
<circle class="st4" cx="126.8" cy="170.5" r="7.6"/>
</svg>
