<?xml version="1.0" encoding="utf-8"?>
<!-- Generator: Adobe Illustrator 27.0.0, SVG Export Plug-In . SVG Version: 6.00 Build 0)  -->
<svg version="1.1" id="Layer_1" xmlns="http://www.w3.org/2000/svg" xmlns:xlink="http://www.w3.org/1999/xlink" x="0px" y="0px"
	 viewBox="0 0 300 300" style="enable-background:new 0 0 300 300;" xml:space="preserve">
<style type="text/css">
	.st0{fill:#FFFFFF;}
	.st1{fill:#0BA797;}
	.st2{fill:#FFC94D;}
	.st3{fill:#FF0053;}
	.st4{fill:none;stroke:#062D4E;stroke-width:7;stroke-linecap:round;stroke-linejoin:round;stroke-miterlimit:10;}
	.st5{fill:#062D4E;}
	.st6{fill:#3D5CCE;}
	.st7{fill:none;stroke:#062D4E;stroke-width:7;stroke-linejoin:round;stroke-miterlimit:10;}
	.st8{fill:#A191E7;}
</style>
<circle class="st0" cx="150" cy="150" r="150"/>
<g>
	<path class="st3" d="M74.8,164.2V93c0-12.3,10-22.2,22.2-22.2s22.2,10,22.2,22.2v71.2c0,12.3-10,22.2-22.2,22.2
		S74.8,176.5,74.8,164.2z"/>
	<path class="st4" d="M252.7,180.5l-167.9,59c-6.3,2.2-13.2-1.1-15.5-7.4l-29.5-83.7c-2.2-6.3,1.1-13.2,7.4-15.5l167.9-59
		c6.3-2.2,13.2,1.1,15.5,7.4l29.5,83.7C262.3,171.4,259,178.3,252.7,180.5z"/>
	<g>
		<path class="st5" d="M210.1,174.4l-24.3,8.6c-2.3,0.8-4.8-0.4-5.6-2.7s0.4-4.8,2.7-5.6l24.3-8.6c2.3-0.8,4.8,0.4,5.6,2.7
			C213.5,171.1,212.3,173.6,210.1,174.4z"/>
		<path class="st5" d="M207.7,157.1c-0.5,0.2-1.1,0.3-1.7,0.2l-25.8-1.6c-2.4-0.2-4.2-2.2-4.1-4.6c0.2-2.4,2.2-4.2,4.6-4.1l25.8,1.6
			c2.4,0.2,4.2,2.2,4.1,4.6C210.5,155.1,209.3,156.6,207.7,157.1z"/>
		<path class="st5" d="M222.4,127.1c-1.6,0.6-3.5,0.1-4.7-1.2l-17-19.4c-1.6-1.8-1.4-4.6,0.4-6.2c1.8-1.6,4.6-1.4,6.2,0.4l17,19.4
			c1.6,1.8,1.4,4.6-0.4,6.2C223.4,126.6,222.9,126.9,222.4,127.1z"/>
		<path class="st5" d="M201.4,135.8c-1.1,0.4-2.3,0.3-3.3-0.2l-12.6-6.1c-2.2-1-3.1-3.7-2.1-5.8c1-2.2,3.7-3.1,5.8-2.1l12.6,6.1
			c2.2,1,3.1,3.7,2.1,5.8C203.3,134.6,202.4,135.4,201.4,135.8z"/>
		<path class="st5" d="M212,140.9c-1.1,0.4-2.3,0.3-3.3-0.2c-0.3-0.1-0.5-0.3-0.7-0.4c-0.2-0.2-0.4-0.4-0.6-0.6
			c-0.2-0.2-0.4-0.4-0.5-0.7c-0.1-0.2-0.3-0.5-0.4-0.8c-0.1-0.3-0.2-0.5-0.2-0.8c0-0.3-0.1-0.6,0-0.9c0-0.3,0.1-0.6,0.1-0.8
			c0.1-0.3,0.2-0.6,0.3-0.8c0.5-1,1.4-1.9,2.5-2.2c1.1-0.4,2.3-0.3,3.3,0.2c0.3,0.1,0.5,0.3,0.7,0.4c0.2,0.2,0.4,0.4,0.6,0.6
			c0.2,0.2,0.4,0.4,0.5,0.7c0.1,0.2,0.3,0.5,0.4,0.8c0.4,1.1,0.3,2.3-0.2,3.3c-0.1,0.3-0.3,0.5-0.4,0.7c-0.2,0.2-0.4,0.4-0.6,0.6
			c-0.2,0.2-0.4,0.4-0.7,0.5C212.5,140.6,212.3,140.8,212,140.9z"/>
	</g>
</g>
</svg>
