<svg width="254" height="13" viewBox="0 0 254 13" fill="none" xmlns="http://www.w3.org/2000/svg">
<path d="M252.852 6.22013C251.899 5.37107 250.434 4.80503 248.851 4.66667C246.305 4.43396 243.739 4.22642 241.193 4.01887L235.039 3.50314C233.643 3.38365 232.247 3.26415 230.851 3.15094C228.118 2.92453 225.385 2.71069 222.652 2.50314C221.61 2.42138 220.558 2.35849 219.507 2.2956L218.032 2.20755C217.098 2.15094 216.164 2.10692 215.23 2.06289L214.345 2.01887C211.809 1.89937 209.283 1.80503 206.746 1.71069L205.93 1.67925C204.22 1.61635 202.509 1.56604 200.808 1.50943L198.223 1.42767C196.335 1.36478 194.458 1.30818 192.57 1.25157L189.769 1.16352C183.949 0.981132 179.486 0.855346 175.288 0.754717L172.594 0.685535C170.825 0.641509 169.065 0.591195 167.296 0.559748L157.455 0.36478C153.69 0.289308 149.915 0.232704 146.15 0.18239L141.834 0.119497C140.261 0.0943396 138.688 0.0880503 137.115 0.081761L126.292 0C125.741 0 125.191 0 124.64 0L112.401 0.0440252C111.84 0.0440252 111.29 0.0440252 110.73 0.0503145L106.778 0.106918C103.052 0.157233 99.3358 0.213836 95.6197 0.27044C94.44 0.289308 93.2604 0.320755 92.0807 0.352201L82.132 0.603774C79.2221 0.679245 76.2827 0.786164 73.4416 0.893082L70.2958 1.01258C68.3493 1.08176 66.4028 1.15094 64.4563 1.24528L54.0653 1.73585C52.4039 1.81132 50.7523 1.91824 49.1008 2.02516L45.1488 2.26415C43.4776 2.36478 41.8162 2.45912 40.1548 2.57862L30.3929 3.28302C28.5644 3.41509 26.7359 3.55975 24.8975 3.7044L22.5086 3.89308C20.7588 4.03145 18.9991 4.16981 17.2492 4.30818L14.998 4.48428C14.1132 4.55346 13.2383 4.63522 12.3535 4.71069L11.0559 4.8239C10.584 4.86792 10.1121 4.91195 9.64023 4.95598C8.98157 5.01887 8.35241 5.08176 7.7429 5.12579C7.29069 5.04402 6.82865 4.99371 6.35677 4.98113C3.03399 4.90566 0.163414 6.58491 0.00612287 8.72956C-0.0921844 10.1509 0.999026 11.5157 2.86686 12.2893C4.39063 12.912 5.92422 12.9686 6.66152 13H6.75983C6.8778 13 7.0056 13 7.12357 13C7.63476 13 8.08698 12.9686 8.45071 12.9434C8.77513 12.9245 9.09954 12.8994 9.39446 12.8679C9.96465 12.8176 10.525 12.7673 11.0853 12.7107C11.5769 12.6667 12.0684 12.6164 12.56 12.5723C14.88 12.3711 17.2001 12.1698 19.5299 11.9874L22.1449 11.7799C25.3596 11.522 28.5742 11.2642 31.7889 11.0314L41.5704 10.327C43.1925 10.2075 44.8244 10.1132 46.4563 10.0189L50.4279 9.77987C52.0008 9.67924 53.5737 9.57862 55.1565 9.50943L65.5967 9.01258C67.4056 8.92453 69.2242 8.86164 71.0331 8.79874L81.1292 8.43396C82.6628 8.37736 84.1964 8.34591 85.73 8.30818C86.4772 8.28931 87.2243 8.27673 87.9714 8.25786L94.4106 8.09434C94.8923 8.08176 95.374 8.06918 95.836 8.0566L99.8863 8C103.543 7.94969 107.21 7.89308 110.789 7.83648C112.696 7.83019 114.613 7.8239 116.52 7.81761L124.66 7.78616C125.112 7.78616 125.574 7.77987 126.026 7.78616L136.761 7.86164C138.315 7.86792 139.858 7.87421 141.401 7.89937L145.786 7.96226C149.472 8.01258 153.149 8.06918 156.826 8.13836L166.775 8.33962C168.554 8.37736 170.343 8.42138 172.122 8.46541L174.56 8.5283C179.869 8.66038 185.099 8.81761 189.051 8.93711L192.069 9.03145C193.907 9.08805 195.746 9.14465 197.584 9.20126L200.209 9.28302C201.86 9.33333 203.512 9.38365 205.163 9.44654L206.353 9.49057C208.663 9.57862 210.973 9.66038 213.284 9.77358L214.316 9.8239C215.161 9.86164 215.997 9.89937 216.833 9.95597L221.158 10.2264C225.513 10.5597 229.947 10.9245 233.761 11.2453C235.216 11.3648 236.671 11.4843 238.136 11.6101C241.085 11.8553 244.044 12.0943 246.983 12.3585C248.576 12.5031 250.159 12.2704 251.417 11.6918C252.715 11.1069 253.629 10.195 253.904 9.20126C254.199 8.16352 253.806 7.07547 252.823 6.20755L252.852 6.22013Z" fill="#FF0053"/>
</svg>
