<svg xmlns="http://www.w3.org/2000/svg" xmlns:xlink="http://www.w3.org/1999/xlink" width="149.317" height="164.939" viewBox="0 0 149.317 164.939"><defs><style>.a{fill:#cf71a0;}.a,.b,.c,.d{stroke-linecap:round;stroke-linejoin:round;}.b{fill:#bb427e;}.c{fill:#b11965;}.d{fill:#87114c;}.e,.f{stroke:none;}.f{fill:#fff;}.g{filter:url(#g);}.h{filter:url(#e);}.i{filter:url(#c);}.j{filter:url(#a);}</style><filter id="a" x="0" y="96" width="149.317" height="68.94" filterUnits="userSpaceOnUse"><feOffset dy="3" input="SourceAlpha"/><feGaussianBlur stdDeviation="4" result="b"/><feFlood flood-opacity="0.149"/><feComposite operator="in" in2="b"/><feComposite in="SourceGraphic"/></filter><filter id="c" x="0.001" y="64" width="149.317" height="68.939" filterUnits="userSpaceOnUse"><feOffset dy="3" input="SourceAlpha"/><feGaussianBlur stdDeviation="4" result="d"/><feFlood flood-opacity="0.149"/><feComposite operator="in" in2="d"/><feComposite in="SourceGraphic"/></filter><filter id="e" x="0" y="32" width="149.317" height="68.939" filterUnits="userSpaceOnUse"><feOffset dy="3" input="SourceAlpha"/><feGaussianBlur stdDeviation="4" result="f"/><feFlood flood-opacity="0.149"/><feComposite operator="in" in2="f"/><feComposite in="SourceGraphic"/></filter><filter id="g" x="0" y="0" width="149.317" height="68.939" filterUnits="userSpaceOnUse"><feOffset dy="3" input="SourceAlpha"/><feGaussianBlur stdDeviation="4" result="h"/><feFlood flood-opacity="0.149"/><feComposite operator="in" in2="h"/><feComposite in="SourceGraphic"/></filter></defs><g transform="translate(-1408.023 -2930)"><g class="j" transform="matrix(1, 0, 0, 1, 1408.02, 2930)"><g class="a" transform="translate(0 96)"><path class="e" d="M73.93,9h58.055a2.526,2.526,0,0,1,.7.1,2.14,2.14,0,0,1,.588.268,1.505,1.505,0,0,1,.414.4,1.007,1.007,0,0,1,.179.489h0a30.336,30.336,0,0,1-3.429,16.462,42.05,42.05,0,0,1-12.091,13.948,62.673,62.673,0,0,1-19.115,9.673,80.2,80.2,0,0,1-24.068,3.6H13.883a2.385,2.385,0,0,1-.726-.11,1.864,1.864,0,0,1-.578-.3,1.321,1.321,0,0,1-.373-.443,1.037,1.037,0,0,1-.111-.542,36.681,36.681,0,0,1,5.965-17.5A49.734,49.734,0,0,1,31.725,21.286,67.728,67.728,0,0,1,50.936,12.26,81.155,81.155,0,0,1,73.93,9Z"/><path class="f" d="M 75.15724182128906 52.41640090942383 C 77.18189239501953 52.41640090942383 79.19054412841797 52.34311676025391 81.17926025390625 52.19709777832031 C 83.16731262207031 52.05112838745117 85.13477325439453 51.8325309753418 87.07777404785156 51.54191207885742 C 89.01943206787109 51.25149154663086 90.93601989746094 50.88924789428711 92.82365417480469 50.45587539672852 C 94.70937347412109 50.02294921875 96.56558227539063 49.51918411254883 98.38848876953125 48.94532775878906 C 99.26380920410156 48.66978454589844 100.1301116943359 48.37804794311523 100.985954284668 48.07075881958008 C 101.8411712646484 47.76369476318359 102.6858520507813 47.44110488891602 103.5185089111328 47.10363006591797 C 104.3504943847656 46.76642227172852 105.17041015625 46.41437149047852 105.976806640625 46.04811096191406 C 106.782470703125 45.68215942382813 107.5745697021484 45.30204010009766 108.3516311645508 44.90838241577148 C 109.1207122802734 44.51875686645508 109.8766860961914 44.11505889892578 110.6182632446289 43.69808578491211 C 111.3591156005859 43.28152847290039 112.085563659668 42.85175704956055 112.7963714599609 42.40958786010742 C 113.5064315795898 41.9678840637207 114.200813293457 41.51382827758789 114.8782958984375 41.04824447631836 C 115.5550384521484 40.58317184448242 116.21484375 40.10661315917969 116.8565292358398 39.61938858032227 C 117.4974517822266 39.13272094726563 118.1215591430664 38.63443374633789 118.7278366088867 38.12548828125 C 119.3333969116211 37.61716842651367 119.9211349487305 37.09825134277344 120.4900970458984 36.56969833374023 C 121.0583114624023 36.04180908203125 121.6077651977539 35.50432968139648 122.1374740600586 34.95822906494141 C 122.6664962768555 34.412841796875 123.1757888793945 33.85886383056641 123.664421081543 33.29727172851563 C 124.1569671630859 32.73114395141602 124.6295700073242 32.15604782104492 125.0814819335938 31.57305908203125 C 125.5327758789063 30.99088859558105 125.9634552001953 30.40087699890137 126.3728256225586 29.80409812927246 C 126.781608581543 29.20817756652832 127.1691284179688 28.60552597045898 127.5347213745117 27.99722480773926 C 127.899787902832 27.38981628417969 128.2429351806641 26.77678298950195 128.5635986328125 26.15918922424316 C 129.2242889404297 24.88653945922852 129.7898101806641 23.59816551208496 130.2600402832031 22.29653930664063 C 130.7287750244141 20.99902725219727 131.102783203125 19.68843650817871 131.3820343017578 18.36720085144043 C 131.660400390625 17.05022048950195 131.8445739746094 15.72274112701416 131.9345855712891 14.38714599609375 C 132.0242614746094 13.05592346191406 132.0204010009766 11.71670246124268 131.9229278564453 10.37182140350342 L 73.93691253662109 10.37182140350342 C 72.01221466064453 10.37182140350342 70.10198974609375 10.43805599212646 68.20901489257813 10.57010173797607 C 66.31541442871094 10.70218944549561 64.43846893310547 10.90017127990723 62.58095169067383 11.16368293762207 C 60.72222518920898 11.42736530303955 58.88238143920898 11.75675201416016 57.06422805786133 12.151535987854 C 55.24431228637695 12.54670524597168 53.4455451965332 13.00752830505371 51.67081069946289 13.533766746521 C 50.81695556640625 13.78694438934326 49.9697151184082 14.05534744262695 49.1304931640625 14.33845806121826 C 48.29068374633789 14.62176609039307 47.45884323120117 14.91982364654541 46.63636016845703 15.23211574554443 C 45.81324768066406 15.54464912414551 44.99945831298828 15.87145805358887 44.1963996887207 16.21203422546387 C 43.39267730712891 16.55289649963379 42.59964752197266 16.90756988525391 41.8187370300293 17.27553749084473 C 41.04441833496094 17.64040184020996 40.2802734375 18.01914978027344 39.52755737304688 18.41109657287598 C 38.77411270141602 18.80341911315918 38.03206634521484 19.20898818969727 37.30267715454102 19.62711143493652 C 36.57254028320313 20.04566192626953 35.85504150390625 20.47681427001953 35.15144348144531 20.91987800598145 C 34.44708633422852 21.36342239379883 33.75661849975586 21.81892395019531 33.08132553100586 22.28569221496582 C 32.40526580810547 22.75299072265625 31.74298667907715 23.2325611114502 31.09556198120117 23.72355079650879 C 30.44736480712891 24.21512985229492 29.81402397155762 24.71818351745605 29.19661903381348 25.23185348510742 C 28.57843971252441 25.74615859985352 27.97620964050293 26.27113723754883 27.39102172851563 26.80592155456543 C 26.8050708770752 27.34140014648438 26.23617935180664 27.88673210144043 25.68544769287109 28.44105911254883 C 25.12877655029297 29.0013542175293 24.58942031860352 29.57209587097168 24.06823539733887 30.15227699279785 C 23.54631805419922 30.7332706451416 23.04260444641113 31.32375717163086 22.55796432495117 31.92272758483887 C 22.07262802124023 32.52256393432617 21.60639381408691 33.13092422485352 21.16015243530273 33.74680709838867 C 20.71325302124023 34.36360168457031 20.28638458251953 34.98794937133789 19.88043785095215 35.61883163452148 C 19.04004859924316 36.92487716674805 18.28914833068848 38.25534820556641 17.6289234161377 39.60808181762695 C 16.96656036376953 40.96518325805664 16.39539527893066 42.34481430053711 15.91666126251221 43.74474716186523 C 15.43633079528809 45.14934539794922 15.0490083694458 46.57450866699219 14.75597095489502 48.0179557800293 C 14.46193408966064 49.46635055541992 14.26280498504639 50.93326568603516 14.15990352630615 52.41640090942383 L 75.15724182128906 52.41640090942383 M 75.16651916503906 53.93961715698242 L 13.8834114074707 53.93961715698242 C 13.62337589263916 53.93961715698242 13.3782377243042 53.90056991577148 13.15762996673584 53.82998275756836 C 12.93705749511719 53.75940322875977 12.74103927612305 53.65729141235352 12.579176902771 53.53115081787109 C 12.41736125946045 53.40504837036133 12.28970050811768 53.25493621826172 12.20576763153076 53.08831405639648 C 12.12186717987061 52.9217529296875 12.08166790008545 52.73870468139648 12.09471893310547 52.54664993286133 C 12.52208709716797 46.25696182250977 14.63479804992676 40.35078811645508 18.05950927734375 35.0500373840332 C 21.44124794006348 29.8157901763916 26.11122703552246 25.15794944763184 31.72546768188477 21.28648376464844 C 37.28722381591797 17.45121192932129 43.79598999023438 14.37363910675049 50.93628692626953 12.26032543182373 C 58.03959274291992 10.15796279907227 65.801025390625 9.00007438659668 73.93019104003906 9.00007438659668 L 131.9853363037109 9.00007438659668 C 132.231689453125 9.00007438659668 132.4690704345703 9.035112380981445 132.6874389648438 9.098484039306641 C 132.9058532714844 9.161866188049316 133.1052703857422 9.253598213195801 133.275634765625 9.36698055267334 C 133.446044921875 9.480395317077637 133.5873718261719 9.615484237670898 133.6895446777344 9.765542984008789 C 133.791748046875 9.915657997131348 133.8547668457031 10.08076477050781 133.8684692382813 10.25414848327637 C 134.3233947753906 16.01775550842285 133.0897216796875 21.58540344238281 130.4396209716797 26.71591758728027 C 127.7561798095703 31.91097068786621 123.6267700195313 36.64565277099609 118.3487014770508 40.66377258300781 C 113.0196533203125 44.72070693969727 106.5388107299805 48.03260803222656 99.23409271240234 50.33660888671875 C 91.88954925537109 52.65317535400391 83.74767303466797 53.93961715698242 75.16651916503906 53.93961715698242 Z"/></g></g><g class="i" transform="matrix(1, 0, 0, 1, 1408.02, 2930)"><g class="b" transform="translate(0 64)"><path class="e" d="M73.93,9h58.055a2.526,2.526,0,0,1,.7.1,2.14,2.14,0,0,1,.588.268,1.5,1.5,0,0,1,.414.4,1.007,1.007,0,0,1,.179.489h0a30.336,30.336,0,0,1-3.429,16.462,42.05,42.05,0,0,1-12.091,13.948,62.673,62.673,0,0,1-19.115,9.673,80.2,80.2,0,0,1-24.067,3.6H13.883a2.385,2.385,0,0,1-.726-.11,1.864,1.864,0,0,1-.578-.3,1.321,1.321,0,0,1-.373-.443,1.037,1.037,0,0,1-.111-.542,36.681,36.681,0,0,1,5.965-17.5A49.734,49.734,0,0,1,31.725,21.286,67.728,67.728,0,0,1,50.936,12.26,81.155,81.155,0,0,1,73.93,9Z"/><path class="f" d="M 75.15740203857422 52.41623687744141 C 77.18202972412109 52.41623687744141 79.190673828125 52.34295654296875 81.17937469482422 52.19693374633789 C 83.16741180419922 52.05096817016602 85.13486480712891 51.83236694335938 87.07785797119141 51.541748046875 C 89.01950836181641 51.25132751464844 90.93608856201172 50.88908767700195 92.82372283935547 50.45571899414063 C 94.70942687988281 50.02279281616211 96.56562805175781 49.5190315246582 98.38852691650391 48.94518280029297 C 99.26383209228516 48.66963958740234 100.1301498413086 48.37791061401367 100.9859771728516 48.07061767578125 C 101.8412017822266 47.76355361938477 102.6858749389648 47.44097137451172 103.5185165405273 47.10348892211914 C 104.3505249023438 46.76628494262695 105.1704330444336 46.41423416137695 105.976806640625 46.0479736328125 C 106.7824783325195 45.6820182800293 107.5745849609375 45.30191421508789 108.3516311645508 44.90824890136719 C 109.120719909668 44.51863098144531 109.8766708374023 44.11492538452148 110.6182632446289 43.69795989990234 C 111.3591156005859 43.28140258789063 112.085563659668 42.85163497924805 112.7963638305664 42.40946960449219 C 113.5064086914063 41.96776580810547 114.200798034668 41.51371765136719 114.8782806396484 41.04813766479492 C 115.5550079345703 40.58306884765625 116.2148208618164 40.10651016235352 116.8564758300781 39.6192741394043 C 117.4974212646484 39.13261413574219 118.1215133666992 38.63432312011719 118.7278137207031 38.12538909912109 C 119.3333587646484 37.6170654296875 119.9210891723633 37.09814453125 120.4900360107422 36.56959533691406 C 121.0582656860352 36.04170989990234 121.6077194213867 35.50423049926758 122.1374206542969 34.95813369750977 C 122.6664428710938 34.41275024414063 123.1757202148438 33.85877990722656 123.6643447875977 33.29718017578125 C 124.1568984985352 32.73106002807617 124.6294937133789 32.15596389770508 125.0814056396484 31.57297706604004 C 125.53271484375 30.99081420898438 125.96337890625 30.40080070495605 126.3727493286133 29.80402565002441 C 126.7815322875977 29.20810890197754 127.1690444946289 28.60545921325684 127.5346527099609 27.99716377258301 C 127.8997116088867 27.3897533416748 128.2428741455078 26.77672386169434 128.5635070800781 26.15913581848145 C 129.2241973876953 24.88648414611816 129.7897033691406 23.59811592102051 130.2599182128906 22.29649543762207 C 130.7286682128906 20.99898529052734 131.1026763916016 19.68840217590332 131.3819274902344 18.36717224121094 C 131.6602783203125 17.05019760131836 131.8444671630859 15.7227258682251 131.9344787597656 14.38713932037354 C 132.024169921875 13.05592155456543 132.0202941894531 11.71670627593994 131.9228363037109 10.37182998657227 L 73.93654632568359 10.37182998657227 C 72.01187133789063 10.37182998657227 70.10164642333984 10.43806552886963 68.20867919921875 10.57011032104492 C 66.31508636474609 10.70219802856445 64.43814849853516 10.90017795562744 62.58064270019531 11.16368961334229 C 60.72192764282227 11.42737197875977 58.88208770751953 11.75675487518311 57.06394195556641 12.151535987854 C 55.24402618408203 12.54670143127441 53.44527435302734 13.0075216293335 51.67054748535156 13.53375434875488 C 50.81669235229492 13.78693294525146 49.96945953369141 14.05533599853516 49.1302375793457 14.33844566345215 C 48.29042816162109 14.62175559997559 47.45859146118164 14.9198112487793 46.63611221313477 15.23210430145264 C 45.81300354003906 15.54463577270508 44.99921798706055 15.87144565582275 44.1961669921875 16.21202278137207 C 43.39245223999023 16.55288505554199 42.59942245483398 16.90755653381348 41.81851196289063 17.27552604675293 C 41.04419708251953 17.64038848876953 40.28005599975586 18.01913642883301 39.52733993530273 18.41107940673828 C 38.77390670776367 18.80339813232422 38.0318603515625 19.20896148681641 37.30247116088867 19.62708282470703 C 36.57233810424805 20.04562950134277 35.85484313964844 20.47677993774414 35.1512451171875 20.91984176635742 C 34.4468879699707 21.36338043212891 33.75642776489258 21.81888389587402 33.08113479614258 22.28564834594727 C 32.40507507324219 22.7529468536377 31.74280166625977 23.23251724243164 31.09538269042969 23.72350883483887 C 30.44718742370605 24.21508598327637 29.8138484954834 24.7181339263916 29.19644737243652 25.23180198669434 C 28.57827758789063 25.74610900878906 27.97605133056641 26.27108573913574 27.3908634185791 26.80586242675781 C 26.8049201965332 27.34133720397949 26.23603057861328 27.88666915893555 25.68530654907227 28.44099235534668 C 25.12863349914551 29.00128746032715 24.58927726745605 29.5720272064209 24.06809234619141 30.15220642089844 C 23.54617881774902 30.73319816589355 23.04246520996094 31.32368278503418 22.55782508850098 31.92264938354492 C 22.07248497009277 32.52248001098633 21.60625457763672 33.1308479309082 21.16001510620117 33.74672317504883 C 20.71311378479004 34.3635139465332 20.28624534606934 34.98786544799805 19.88029861450195 35.61874389648438 C 19.03992080688477 36.92477416992188 18.28902626037598 38.2552490234375 17.62880706787109 39.60797500610352 C 16.9664478302002 40.96507263183594 16.39528656005859 42.34469985961914 15.9165563583374 43.74462890625 C 15.4362268447876 45.14921569824219 15.04890632629395 46.57436752319336 14.75587177276611 48.01781463623047 C 14.46183490753174 49.46619415283203 14.26270580291748 50.93310546875 14.15980529785156 52.41623687744141 L 75.15740203857422 52.41623687744141 M 75.16667175292969 53.939453125 L 13.88329792022705 53.939453125 C 13.62326526641846 53.939453125 13.37813282012939 53.90041351318359 13.15752601623535 53.8298225402832 C 12.93695640563965 53.75924301147461 12.74093818664551 53.65713119506836 12.57907772064209 53.5309944152832 C 12.41726303100586 53.40488815307617 12.2896032333374 53.25477600097656 12.20567035675049 53.08815383911133 C 12.12177085876465 52.92158889770508 12.08157157897949 52.73854827880859 12.0946216583252 52.54648590087891 C 12.52198696136475 46.25682830810547 14.63468742370605 40.35068130493164 18.05938339233398 35.04994201660156 C 21.44110870361328 29.81572341918945 26.1110668182373 25.15789604187012 31.72527694702148 21.28644561767578 C 37.28701019287109 17.45118713378906 43.79575347900391 14.37362766265869 50.9360237121582 12.26032066345215 C 58.03930282592773 10.15796756744385 65.80070495605469 9.000082969665527 73.92984008789063 9.000082969665527 L 131.9852294921875 9.000082969665527 C 132.2315826416016 9.000082969665527 132.4689483642578 9.035121917724609 132.6873168945313 9.098492622375488 C 132.90576171875 9.161874771118164 133.1051788330078 9.253605842590332 133.2755279541016 9.366988182067871 C 133.4459533691406 9.480401992797852 133.5872650146484 9.61548900604248 133.6894378662109 9.765546798706055 C 133.7916564941406 9.915660858154297 133.8546752929688 10.08076572418213 133.8683624267578 10.25414657592773 C 134.3232879638672 16.01773452758789 133.0896453857422 21.58536148071289 130.4395446777344 26.71585845947266 C 127.756103515625 31.910888671875 123.6266937255859 36.64555740356445 118.3486633300781 40.66365814208984 C 113.0196304321289 44.72057342529297 106.538818359375 48.03246307373047 99.23413848876953 50.33645629882813 C 91.88961791992188 52.65301132202148 83.74779510498047 53.939453125 75.16667175292969 53.939453125 Z"/></g></g><g class="h" transform="matrix(1, 0, 0, 1, 1408.02, 2930)"><g class="c" transform="translate(0 32)"><path class="e" d="M73.93,9h58.056a2.526,2.526,0,0,1,.7.1,2.141,2.141,0,0,1,.588.268,1.5,1.5,0,0,1,.414.4,1.007,1.007,0,0,1,.179.489,30.336,30.336,0,0,1-3.429,16.462,42.05,42.05,0,0,1-12.091,13.948,62.673,62.673,0,0,1-19.114,9.673,80.2,80.2,0,0,1-24.067,3.6H13.883a2.385,2.385,0,0,1-.726-.11,1.864,1.864,0,0,1-.578-.3,1.321,1.321,0,0,1-.373-.443,1.037,1.037,0,0,1-.111-.542,36.681,36.681,0,0,1,5.965-17.5A49.734,49.734,0,0,1,31.725,21.286,67.728,67.728,0,0,1,50.936,12.26,81.155,81.155,0,0,1,73.93,9Z"/><path class="f" d="M 75.15780639648438 52.41584396362305 C 77.18244171142578 52.41584396362305 79.19106292724609 52.34255599975586 81.17977142333984 52.19654083251953 C 83.16781616210938 52.05057525634766 85.13524627685547 51.83197021484375 87.07823181152344 51.54135131835938 C 89.01988220214844 51.25093841552734 90.93645477294922 50.88870239257813 92.82407379150391 50.45532989501953 C 94.70978546142578 50.02241516113281 96.56597900390625 49.51864242553711 98.38889312744141 48.94480133056641 C 99.26419067382813 48.66926193237305 100.1305084228516 48.37753295898438 100.9863357543945 48.07024002075195 C 101.8415374755859 47.76317596435547 102.6862182617188 47.44059371948242 103.5188522338867 47.10311508178711 C 104.3508224487305 46.76590728759766 105.1707611083984 46.41386795043945 105.9771270751953 46.047607421875 C 106.7827987670898 45.68165588378906 107.5749206542969 45.30155181884766 108.3519515991211 44.90788650512695 C 109.1210403442383 44.51826858520508 109.8769989013672 44.11456298828125 110.6185836791992 43.69760131835938 C 111.3594360351563 43.28104400634766 112.0858764648438 42.85127258300781 112.7966766357422 42.40910720825195 C 113.5067291259766 41.9674072265625 114.2011032104492 41.51335906982422 114.8785934448242 41.04777526855469 C 115.5553207397461 40.58271026611328 116.2151336669922 40.10615921020508 116.8568115234375 39.61893081665039 C 117.4977111816406 39.13225936889648 118.121826171875 38.63398361206055 118.7280960083008 38.12504577636719 C 119.3336563110352 37.61672973632813 119.9213790893555 37.09781265258789 120.4903411865234 36.56926345825195 C 121.0585632324219 36.04137420654297 121.608024597168 35.50390625 122.1377182006836 34.95780944824219 C 122.6667327880859 34.41242218017578 123.1760406494141 33.85845947265625 123.6646499633789 33.2968635559082 C 124.1571884155273 32.73073959350586 124.6297760009766 32.15564346313477 125.0817108154297 31.57266235351563 C 125.5330047607422 30.99049758911133 125.9636840820313 30.40048980712891 126.3730545043945 29.80371284484863 C 126.7818374633789 29.20779609680176 127.1693572998047 28.60515213012695 127.5349426269531 27.99685478210449 C 127.8999938964844 27.38945007324219 128.2431793212891 26.77642250061035 128.5638122558594 26.15883636474609 C 129.2245025634766 24.88619232177734 129.7900085449219 23.59782791137695 130.26025390625 22.29621124267578 C 130.7289733886719 20.99870491027832 131.1029968261719 19.6881275177002 131.3822326660156 18.36690139770508 C 131.6605987548828 17.04993057250977 131.8447723388672 15.7224645614624 131.9347686767578 14.38687992095947 C 132.0244903564453 13.0556697845459 132.0205993652344 11.71646118164063 131.9231262207031 10.37159061431885 L 73.93651580810547 10.37159061431885 C 72.0118408203125 10.37159061431885 70.10163116455078 10.43782615661621 68.20866394042969 10.5698709487915 C 66.31507873535156 10.70195770263672 64.43814086914063 10.89993858337402 62.58064270019531 11.16345024108887 C 60.72193145751953 11.42713069915771 58.88209533691406 11.75651550292969 57.06394958496094 12.15129470825195 C 55.24404144287109 12.54646110534668 53.44528961181641 13.00728034973145 51.67055892944336 13.53351211547852 C 50.81670761108398 13.78668880462646 49.96947860717773 14.05508899688721 49.13025665283203 14.33819770812988 C 48.29045486450195 14.62150382995605 47.45861053466797 14.91956043243408 46.63613510131836 15.23184871673584 C 45.81303024291992 15.54438018798828 44.99924468994141 15.87118911743164 44.19619750976563 16.21176338195801 C 43.39247512817383 16.55262184143066 42.59944915771484 16.90729141235352 41.81854248046875 17.2752571105957 C 41.04423522949219 17.64012145996094 40.28009414672852 18.01886558532715 39.52738189697266 18.41081047058105 C 38.77395248413086 18.80313110351563 38.03190612792969 19.20869445800781 37.30252456665039 19.62681770324707 C 36.57239151000977 20.04536056518555 35.85489654541016 20.47651481628418 35.15129852294922 20.9195728302002 C 34.44694519042969 21.36311149597168 33.75648498535156 21.81861305236816 33.08119964599609 22.28537750244141 C 32.40513610839844 22.75267601013184 31.74286460876465 23.23224067687988 31.09544372558594 23.72323036193848 C 30.44724655151367 24.21480751037598 29.81390953063965 24.71785354614258 29.19650840759277 25.23151779174805 C 28.57833290100098 25.74581909179688 27.97610855102539 26.27079200744629 27.39092063903809 26.80557441711426 C 26.80497741699219 27.34104537963867 26.23608779907227 27.88637351989746 25.68535995483398 28.44069480895996 C 25.12869262695313 29.00098609924316 24.58933258056641 29.57172012329102 24.06815338134766 30.15189743041992 C 23.54623985290527 30.73288726806641 23.04253196716309 31.32337188720703 22.55789375305176 31.92233848571777 C 22.07255363464355 32.52217102050781 21.60632514953613 33.13052749633789 21.16008567810059 33.74640274047852 C 20.71318626403809 34.36319351196289 20.28631782531738 34.9875373840332 19.88037490844727 35.61841583251953 C 19.03999519348145 36.92444229125977 18.28910255432129 38.25490951538086 17.62887763977051 39.60763168334961 C 16.96651840209961 40.96472549438477 16.39535522460938 42.34434509277344 15.91662216186523 43.7442741394043 C 15.43629264831543 45.14885330200195 15.04896926879883 46.57400131225586 14.75593185424805 48.01743698120117 C 14.46189308166504 49.4658203125 14.26276302337646 50.93271636962891 14.15986156463623 52.41584396362305 L 75.15780639648438 52.41584396362305 M 75.16708374023438 53.93906021118164 L 13.88335132598877 53.93906021118164 C 13.62331962585449 53.93906021118164 13.37818431854248 53.9000129699707 13.15757751464844 53.82942199707031 C 12.93700981140137 53.75884628295898 12.74099254608154 53.65674209594727 12.57913112640381 53.53060150146484 C 12.41731739044189 53.40449905395508 12.28965759277344 53.25438690185547 12.20572471618652 53.0877571105957 C 12.121826171875 52.92120361328125 12.08162784576416 52.73815536499023 12.09467601776123 52.54609298706055 C 12.52205085754395 46.25646209716797 14.6347541809082 40.35033416748047 18.05945014953613 35.04961776733398 C 21.4411735534668 29.81541061401367 26.11112785339355 25.1576042175293 31.72533416748047 21.28616523742676 C 37.28705978393555 17.45092010498047 43.79579162597656 14.37337207794189 50.93604278564453 12.26007270812988 C 58.039306640625 10.1577262878418 65.80069732666016 8.999844551086426 73.9298095703125 8.999844551086426 L 131.9855651855469 8.999844551086426 C 132.2318878173828 8.999844551086426 132.4692687988281 9.034882545471191 132.6876525878906 9.098252296447754 C 132.9060668945313 9.161633491516113 133.1054840087891 9.253363609313965 133.2758483886719 9.366744995117188 C 133.4462432861328 9.480157852172852 133.5876007080078 9.61524486541748 133.6897430419922 9.765302658081055 C 133.7919616699219 9.915416717529297 133.85498046875 10.08052349090576 133.86865234375 10.25390720367432 C 134.3235931396484 16.01747512817383 133.0899353027344 21.5850830078125 130.4398345947266 26.71556091308594 C 127.7563934326172 31.91057395935059 123.6270141601563 36.64522552490234 118.3489761352539 40.66331100463867 C 113.0199584960938 44.72021484375 106.5391464233398 48.0320930480957 99.23448181152344 50.33607482910156 C 91.88998413085938 52.65262222290039 83.74817657470703 53.93906021118164 75.16708374023438 53.93906021118164 Z"/></g></g><g class="g" transform="matrix(1, 0, 0, 1, 1408.02, 2930)"><g class="d"><path class="e" d="M73.93,9h58.056a2.526,2.526,0,0,1,.7.1,2.14,2.14,0,0,1,.588.268,1.5,1.5,0,0,1,.414.4,1.007,1.007,0,0,1,.179.489h0a30.336,30.336,0,0,1-3.429,16.462,42.049,42.049,0,0,1-12.091,13.948,62.673,62.673,0,0,1-19.115,9.673,80.2,80.2,0,0,1-24.067,3.6H13.883a2.385,2.385,0,0,1-.726-.11,1.864,1.864,0,0,1-.578-.3,1.321,1.321,0,0,1-.373-.443,1.037,1.037,0,0,1-.111-.542,36.681,36.681,0,0,1,5.965-17.5A49.734,49.734,0,0,1,31.725,21.286,67.728,67.728,0,0,1,50.936,12.26,81.155,81.155,0,0,1,73.93,9Z"/><path class="f" d="M 75.15801239013672 52.41608810424805 C 77.18264770507813 52.41608810424805 79.19127655029297 52.34280776977539 81.17999267578125 52.19679260253906 C 83.16802978515625 52.05082321166992 85.13546752929688 51.83221817016602 87.07846069335938 51.54161071777344 C 89.02011108398438 51.25118637084961 90.93668365478516 50.88894653320313 92.82430267333984 50.45558547973633 C 94.71000671386719 50.02265930175781 96.56621551513672 49.51889801025391 98.38911437988281 48.94505310058594 C 99.26442718505859 48.66950988769531 100.130744934082 48.37778091430664 100.9865570068359 48.07048797607422 C 101.8417739868164 47.76342391967773 102.6864547729492 47.44084167480469 103.5190887451172 47.10336303710938 C 104.3510818481445 46.76616287231445 105.1709899902344 46.41411590576172 105.9773635864258 46.0478515625 C 106.7830352783203 45.68190765380859 107.5751419067383 45.30179595947266 108.352180480957 44.90813446044922 C 109.1212539672852 44.51851654052734 109.8772277832031 44.11481094360352 110.6188125610352 43.69784545898438 C 111.3596649169922 43.28129196166992 112.0861053466797 42.85152435302734 112.7969131469727 42.40935516357422 C 113.5069580078125 41.96765518188477 114.2013397216797 41.51360702514648 114.8788223266602 41.04802322387695 C 115.5555572509766 40.58295822143555 116.2153625488281 40.10640716552734 116.8570404052734 39.61917877197266 C 117.4979629516602 39.13250732421875 118.1220703125 38.63423156738281 118.7283401489258 38.12529373168945 C 119.3339004516602 37.61697769165039 119.9216232299805 37.09805297851563 120.4905853271484 36.56950378417969 C 121.0587997436523 36.04161834716797 121.6082534790039 35.50414657592773 122.1379547119141 34.95804214477539 C 122.6669769287109 34.41266250610352 123.1762771606445 33.85869598388672 123.6648864746094 33.29710006713867 C 124.1574249267578 32.73097991943359 124.630012512207 32.15589141845703 125.0819396972656 31.57290649414063 C 125.5332336425781 30.99074172973633 125.9639205932617 30.40073394775391 126.373291015625 29.80395698547363 C 126.7820739746094 29.20804214477539 127.1695785522461 28.60539627075195 127.5351715087891 27.99709701538086 C 127.9002227783203 27.38969039916992 128.2433929443359 26.77666282653809 128.5640411376953 26.15907287597656 C 129.2247467041016 24.88642883300781 129.7902526855469 23.59806251525879 130.2604675292969 22.29644775390625 C 130.7291870117188 20.99894332885742 131.1032104492188 19.68836784362793 131.3824768066406 18.36714172363281 C 131.6608123779297 17.05017280578613 131.8450012207031 15.72270679473877 131.9349975585938 14.38712215423584 C 132.0247344970703 13.05591106414795 132.0208435058594 11.71670055389404 131.9233703613281 10.37182807922363 L 73.93655395507813 10.37182807922363 C 72.01187133789063 10.37182807922363 70.10166168212891 10.438063621521 68.20869445800781 10.57010841369629 C 66.31510162353516 10.70219421386719 64.43815612792969 10.90017604827881 62.58066558837891 11.16368675231934 C 60.72195053100586 11.4273681640625 58.88211441040039 11.75675201416016 57.06397247314453 12.15153217315674 C 55.24406051635742 12.54669857025146 53.44530487060547 13.00751781463623 51.67057800292969 13.5337495803833 C 50.81672286987305 13.78692531585693 49.9694938659668 14.05532646179199 49.13026809692383 14.33843326568604 C 48.29047012329102 14.62174034118652 47.45862579345703 14.91979694366455 46.63615036010742 15.23208618164063 C 45.81304931640625 15.54461669921875 44.99926376342773 15.87142562866211 44.19621658325195 16.21200180053711 C 43.39249420166016 16.55285835266113 42.59946823120117 16.90752983093262 41.81856155395508 17.2754955291748 C 41.04425430297852 17.64035987854004 40.28011703491211 18.01910781860352 39.52740478515625 18.41105270385742 C 38.77397155761719 18.80337142944336 38.03192901611328 19.20893478393555 37.30253982543945 19.62705612182617 C 36.57240676879883 20.04560089111328 35.85491180419922 20.47675132751465 35.15130996704102 20.91980934143066 C 34.44695281982422 21.36334991455078 33.75649261474609 21.81884956359863 33.08119964599609 22.28561592102051 C 32.4051399230957 22.75291061401367 31.74286842346191 23.23247909545898 31.0954475402832 23.72346687316895 C 30.4472541809082 24.21504592895508 29.81391716003418 24.71809196472168 29.1965160369873 25.23176002502441 C 28.57834053039551 25.74606513977051 27.97611808776855 26.27103996276855 27.39093017578125 26.80582046508789 C 26.80498504638672 27.34129333496094 26.23609161376953 27.88662147521973 25.68536186218262 28.44094276428223 C 25.12869453430176 29.00123405456543 24.58933448791504 29.57196807861328 24.06815338134766 30.15214538574219 C 23.54624176025391 30.73313903808594 23.04253005981445 31.32362174987793 22.55789184570313 31.92258644104004 C 22.07255363464355 32.52241897583008 21.60632514953613 33.13077926635742 21.16008567810059 33.74665451049805 C 20.71318626403809 34.36344146728516 20.28631782531738 34.98778533935547 19.88037490844727 35.61865997314453 C 19.03999519348145 36.9246940612793 18.28910255432129 38.25516510009766 17.62887763977051 39.60787963867188 C 16.96652030944824 40.9649772644043 16.39535713195801 42.3445930480957 15.91662311553955 43.74452209472656 C 15.43629360198975 45.14910125732422 15.04897022247314 46.57424545288086 14.75593185424805 48.01768493652344 C 14.46189403533936 49.466064453125 14.26276397705078 50.93296051025391 14.15986251831055 52.41608810424805 L 75.15801239013672 52.41608810424805 M 75.16728973388672 53.93930816650391 L 13.88335132598877 53.93930816650391 C 13.62331962585449 53.93930816650391 13.37818717956543 53.9002685546875 13.15758037567139 53.82967376708984 C 12.93700981140137 53.75909805297852 12.74099254608154 53.6569938659668 12.57913208007813 53.53085327148438 C 12.41731834411621 53.40475082397461 12.28965759277344 53.25464248657227 12.20572471618652 53.08800888061523 C 12.12182521820068 52.92145538330078 12.08162784576416 52.7384147644043 12.09467697143555 52.54635620117188 C 12.52205085754395 46.25671768188477 14.63475799560547 40.35059356689453 18.05945587158203 35.04986953735352 C 21.44117736816406 29.81566047668457 26.11113739013672 25.15785026550293 31.72534561157227 21.28641128540039 C 37.28707885742188 17.45116233825684 43.79581069946289 14.37361240386963 50.93606948852539 12.2603120803833 C 58.03933334350586 10.15796375274658 65.80072784423828 9.000082015991211 73.92984008789063 9.000082015991211 L 131.9857788085938 9.000082015991211 C 132.2321166992188 9.000082015991211 132.4695129394531 9.035120010375977 132.6878814697266 9.098491668701172 C 132.9063110351563 9.161873817443848 133.105712890625 9.253604888916016 133.2760467529297 9.366986274719238 C 133.4464874267578 9.480400085449219 133.5877990722656 9.615488052368164 133.6899719238281 9.765544891357422 C 133.7922058105469 9.915657997131348 133.8552093505859 10.0807638168335 133.868896484375 10.2541446685791 C 134.3238372802734 16.01771354675293 133.0901489257813 21.58532333374023 130.4400634765625 26.7158031463623 C 127.7566375732422 31.91081619262695 123.6272583007813 36.64547348022461 118.3492126464844 40.66355895996094 C 113.0201797485352 44.720458984375 106.5393829345703 48.0323371887207 99.23471069335938 50.33631896972656 C 91.89020538330078 52.65286636352539 83.74839019775391 53.93930816650391 75.16728973388672 53.93930816650391 Z"/></g></g></g></svg>