<svg xmlns="http://www.w3.org/2000/svg" width="109.78" height="119.808" viewBox="0 0 109.78 119.808"><defs><style>.a{fill:none;}.a,.b,.c{stroke:#002581;stroke-miterlimit:10;stroke-width:2.5px;}.b{fill:#d3eef6;}.c{fill:#fff;}</style></defs><g transform="translate(-187.283 -1.274)"><path class="a" d="M281.731,41.738V5.288c0-1.527-.919-2.764-2.053-2.764h-75.01c-1.134,0-2.053,1.237-2.053,2.764v36.45Z"/><path class="b" d="M294.731,79.59V62.428a4.516,4.516,0,0,0-1.084-2.95c-1.336-1.792-12.653-17.629-12.653-17.629H203.487s-11.318,15.837-12.654,17.629a4.516,4.516,0,0,0-1.084,2.95V79.59"/><rect class="a" width="107.28" height="13.862" rx="1.213" transform="translate(188.533 79.434)"/><path class="c" d="M197.476,93.568,197,118.7a1.1,1.1,0,0,1-1.033,1.136h-3.311a1.1,1.1,0,0,1-1.033-1.136l-.479-25.128"/><path class="c" d="M293.2,93.568l-.479,25.128a1.1,1.1,0,0,1-1.033,1.136h-3.311a1.1,1.1,0,0,1-1.033-1.136l-.479-25.128"/><path class="a" d="M240.3,41.738V36.269c0-3.02-1.826-5.468-4.079-5.468H210.6c-2.252,0-4.078,2.448-4.078,5.468v5.469"/><path class="a" d="M277.819,41.738V36.269c0-3.02-1.826-5.468-4.078-5.468H248.127c-2.253,0-4.079,2.448-4.079,5.468v5.469"/><line class="a" x2="104.982" transform="translate(189.749 62.428)"/></g></svg>