<svg xmlns="http://www.w3.org/2000/svg" width="143.12" height="119.808" viewBox="0 0 143.12 119.808"><defs><style>.a{fill:none;}.a,.b,.c{stroke:#002581;stroke-miterlimit:10;stroke-width:2.5px;}.b{fill:#d3eef6;}.c{fill:#fff;}</style></defs><g transform="translate(-506.844 -1.274)"><path class="a" d="M630.255,41.738V5.288a2.728,2.728,0,0,0-2.691-2.764H529.243a2.728,2.728,0,0,0-2.691,2.764v36.45Z"/><path class="b" d="M647.3,76.828V60.922s.2-1.2-1.421-2.734c-1.751-1.661-16.586-16.339-16.586-16.339H527.7S512.86,56.527,511.109,58.188c-1.62,1.536-1.421,2.734-1.421,2.734V76.828"/><rect class="a" width="140.62" height="18.807" rx="1.213" transform="translate(508.094 76.684)"/><path class="c" d="M517.118,95.49l-.484,23.289a1.059,1.059,0,0,1-1.042,1.053h-3.341a1.059,1.059,0,0,1-1.042-1.053l-.484-23.289"/><path class="c" d="M646.082,95.49l-.484,23.289a1.059,1.059,0,0,1-1.042,1.053h-3.341a1.059,1.059,0,0,1-1.042-1.053l-.484-23.289"/><path class="a" d="M575.46,41.738V34.88c0-3.787-2.371-6.857-5.3-6.857H536.906c-2.924,0-5.295,3.07-5.295,6.857v6.858"/><path class="a" d="M625.2,41.738V34.88c0-3.787-2.371-6.857-5.295-6.857H586.643c-2.925,0-5.3,3.07-5.3,6.857v6.858"/><line class="a" x2="137.608" transform="translate(509.688 60.922)"/></g></svg>