<svg xmlns="http://www.w3.org/2000/svg" width="161.889" height="123.138" viewBox="0 0 161.889 123.138"><defs><style>.a{fill:none;}.a,.b,.c{stroke:#002581;stroke-miterlimit:10;stroke-width:2.5px;}.b{fill:#d3eef6;}.c{fill:#fff;}</style></defs><g transform="translate(-676.298 0.391)"><path class="a" d="M816.014,41.477V3.721A2.96,2.96,0,0,0,812.965.859H701.52a2.96,2.96,0,0,0-3.049,2.862V41.477Z"/><path class="b" d="M835.329,77.824V61.349s.226-1.241-1.61-2.832c-1.985-1.721-18.8-16.925-18.8-16.925H699.765s-16.815,15.2-18.8,16.925c-1.836,1.591-1.611,2.832-1.611,2.832V77.824"/><rect class="a" width="159.389" height="19.48" rx="1.213" transform="translate(677.548 77.675)"/><path class="c" d="M687.777,97.155l-.548,23.289a1.136,1.136,0,0,1-1.181,1.053h-3.787a1.136,1.136,0,0,1-1.182-1.053l-.548-23.289"/><path class="c" d="M833.954,97.155l-.549,23.289a1.134,1.134,0,0,1-1.181,1.053h-3.787a1.136,1.136,0,0,1-1.181-1.053l-.549-23.289"/><path class="a" d="M753.906,41.477v-7.1c0-3.923-2.687-7.1-6-7.1h-37.7c-3.315,0-6,3.18-6,7.1v7.1"/><path class="a" d="M741.466,41.477V37.926a3.31,3.31,0,0,0-3-3.552H719.642a3.31,3.31,0,0,0-3,3.552v3.551"/><path class="a" d="M797.84,41.477V37.926a3.31,3.31,0,0,0-3-3.552H776.017a3.31,3.31,0,0,0-3,3.552v3.551"/><path class="a" d="M810.28,41.477v-7.1c0-3.923-2.687-7.1-6-7.1h-37.7c-3.315,0-6,3.18-6,7.1v7.1"/><line class="a" x2="155.974" transform="translate(679.355 61.349)"/></g></svg>