<svg xmlns="http://www.w3.org/2000/svg" xmlns:xlink="http://www.w3.org/1999/xlink" width="149.317" height="164.939" viewBox="0 0 149.317 164.939"><defs><style>.a{fill:#b2b2b2;}.a,.b,.c,.d{stroke-linecap:round;stroke-linejoin:round;}.b{fill:#8e8e8e;}.c{fill:#7c7c7c;}.d{fill:#4e4e4e;}.e,.f{stroke:none;}.f{fill:#fff;}.g{filter:url(#g);}.h{filter:url(#e);}.i{filter:url(#c);}.j{filter:url(#a);}</style><filter id="a" x="0" y="96" width="149.317" height="68.94" filterUnits="userSpaceOnUse"><feOffset dy="3" input="SourceAlpha"/><feGaussianBlur stdDeviation="4" result="b"/><feFlood flood-opacity="0.149"/><feComposite operator="in" in2="b"/><feComposite in="SourceGraphic"/></filter><filter id="c" x="0.001" y="64" width="149.317" height="68.939" filterUnits="userSpaceOnUse"><feOffset dy="3" input="SourceAlpha"/><feGaussianBlur stdDeviation="4" result="d"/><feFlood flood-opacity="0.149"/><feComposite operator="in" in2="d"/><feComposite in="SourceGraphic"/></filter><filter id="e" x="0" y="32" width="149.317" height="68.939" filterUnits="userSpaceOnUse"><feOffset dy="3" input="SourceAlpha"/><feGaussianBlur stdDeviation="4" result="f"/><feFlood flood-opacity="0.149"/><feComposite operator="in" in2="f"/><feComposite in="SourceGraphic"/></filter><filter id="g" x="0" y="0" width="149.317" height="68.939" filterUnits="userSpaceOnUse"><feOffset dy="3" input="SourceAlpha"/><feGaussianBlur stdDeviation="4" result="h"/><feFlood flood-opacity="0.149"/><feComposite operator="in" in2="h"/><feComposite in="SourceGraphic"/></filter></defs><g transform="translate(-885.341 -2930)"><g class="j" transform="matrix(1, 0, 0, 1, 885.34, 2930)"><g class="a" transform="translate(0 96)"><path class="e" d="M73.93,9h58.055a2.526,2.526,0,0,1,.7.1,2.14,2.14,0,0,1,.588.268,1.5,1.5,0,0,1,.414.4,1.007,1.007,0,0,1,.179.489h0a30.336,30.336,0,0,1-3.429,16.462,42.05,42.05,0,0,1-12.091,13.948,62.673,62.673,0,0,1-19.115,9.673,80.2,80.2,0,0,1-24.068,3.6H13.883a2.385,2.385,0,0,1-.726-.11,1.864,1.864,0,0,1-.578-.3,1.321,1.321,0,0,1-.373-.443,1.037,1.037,0,0,1-.111-.542,36.681,36.681,0,0,1,5.965-17.5A49.734,49.734,0,0,1,31.725,21.286,67.728,67.728,0,0,1,50.936,12.26,81.155,81.155,0,0,1,73.93,9Z"/><path class="f" d="M 75.15718841552734 52.41640090942383 C 77.18183898925781 52.41640090942383 79.19048309326172 52.34311676025391 81.17920684814453 52.19709777832031 C 83.16725921630859 52.05112838745117 85.13471984863281 51.8325309753418 87.07772064208984 51.54191207885742 C 89.01937866210938 51.25149154663086 90.93596649169922 50.88924789428711 92.82359313964844 50.45587539672852 C 94.70932006835938 50.02294921875 96.56552124023438 49.51918411254883 98.38843536376953 48.94532775878906 C 99.26374816894531 48.66978454589844 100.1300582885742 48.37804794311523 100.9858932495117 48.07075881958008 C 101.8411178588867 47.76369476318359 102.6857986450195 47.44110488891602 103.5184555053711 47.10363006591797 C 104.3504409790039 46.76642227172852 105.1703567504883 46.41437149047852 105.9767456054688 46.04811096191406 C 106.7824172973633 45.68215942382813 107.5745162963867 45.30204010009766 108.3515701293945 44.90838241577148 C 109.1206512451172 44.51875686645508 109.8766326904297 44.11505889892578 110.6182022094727 43.69808578491211 C 111.3590621948242 43.28152847290039 112.0855102539063 42.85175704956055 112.7963104248047 42.40958786010742 C 113.5063705444336 41.9678840637207 114.2007522583008 41.51382827758789 114.8782424926758 41.04824447631836 C 115.5549697875977 40.58317184448242 116.2147903442383 40.10661315917969 116.8564682006836 39.61938858032227 C 117.4973983764648 39.13272094726563 118.1214981079102 38.63443374633789 118.727783203125 38.12548828125 C 119.3333358764648 37.61716842651367 119.9210739135742 37.09825134277344 120.4900360107422 36.56969833374023 C 121.0582504272461 36.04180908203125 121.6077117919922 35.50432968139648 122.1374130249023 34.95822906494141 C 122.6664428710938 34.412841796875 123.1757278442383 33.85886383056641 123.6643600463867 33.29727172851563 C 124.1569137573242 32.73114395141602 124.629508972168 32.15604782104492 125.081428527832 31.57305908203125 C 125.53271484375 30.99088859558105 125.9633941650391 30.40087699890137 126.3727722167969 29.80409812927246 C 126.7815551757813 29.20817756652832 127.1690673828125 28.60552597045898 127.53466796875 27.99722480773926 C 127.8997421264648 27.38981628417969 128.2428894042969 26.77678298950195 128.5635375976563 26.15918922424316 C 129.2242431640625 24.88653945922852 129.7897491455078 23.59816551208496 130.2599792480469 22.29653930664063 C 130.7287139892578 20.99902725219727 131.1027221679688 19.68843650817871 131.3819732666016 18.36720085144043 C 131.6603393554688 17.05022048950195 131.8445129394531 15.72274112701416 131.9345245361328 14.38714599609375 C 132.0242004394531 13.05592346191406 132.0203399658203 11.71670246124268 131.9228668212891 10.37182140350342 L 73.93685150146484 10.37182140350342 C 72.01216125488281 10.37182140350342 70.1019287109375 10.43805599212646 68.20895385742188 10.57010173797607 C 66.31535339355469 10.70218944549561 64.43840789794922 10.90017127990723 62.58089065551758 11.16368293762207 C 60.72216796875 11.42736530303955 58.88232040405273 11.75675201416016 57.06417083740234 12.151535987854 C 55.2442512512207 12.54670524597168 53.44548416137695 13.00752830505371 51.67074966430664 13.533766746521 C 50.81689834594727 13.78694438934326 49.96965789794922 14.05534744262695 49.13043594360352 14.33845806121826 C 48.29062271118164 14.62176609039307 47.45878219604492 14.91982364654541 46.63629913330078 15.23211574554443 C 45.81319046020508 15.54464912414551 44.99939727783203 15.87145805358887 44.19633865356445 16.21203422546387 C 43.39261627197266 16.55289649963379 42.59959030151367 16.90756988525391 41.81867980957031 17.27553749084473 C 41.04435729980469 17.64040184020996 40.28022003173828 18.01914978027344 39.52749633789063 18.41109657287598 C 38.77405166625977 18.80341911315918 38.03201293945313 19.20898818969727 37.30261993408203 19.62711143493652 C 36.57248306274414 20.04566192626953 35.85498046875 20.47681427001953 35.15138626098633 20.91987800598145 C 34.44702911376953 21.36342239379883 33.75656509399414 21.81892395019531 33.08126831054688 22.28569221496582 C 32.40520858764648 22.75299072265625 31.74292755126953 23.2325611114502 31.09550285339355 23.72355079650879 C 30.44730567932129 24.21512985229492 29.81396675109863 24.71818351745605 29.19656181335449 25.23185348510742 C 28.57838249206543 25.74615859985352 27.97615242004395 26.27113723754883 27.39096260070801 26.80592155456543 C 26.80501556396484 27.34140014648438 26.23612022399902 27.88673210144043 25.68539047241211 28.44105911254883 C 25.12871932983398 29.0013542175293 24.58936309814453 29.57209587097168 24.06817817687988 30.15227699279785 C 23.54626083374023 30.7332706451416 23.04254722595215 31.32375717163086 22.55790710449219 31.92272758483887 C 22.07256889343262 32.52256393432617 21.60633659362793 33.13092422485352 21.16009712219238 33.74680709838867 C 20.71319580078125 34.36360168457031 20.28632545471191 34.98794937133789 19.88037872314453 35.61883163452148 C 19.03999137878418 36.92487716674805 18.28909301757813 38.25534820556641 17.62886619567871 39.60808181762695 C 16.96650505065918 40.96518325805664 16.39533805847168 42.34481430053711 15.91660499572754 43.74474716186523 C 15.43627548217773 45.14934539794922 15.04895210266113 46.57450866699219 14.75591468811035 48.0179557800293 C 14.46187686920166 49.46635055541992 14.26274871826172 50.93326568603516 14.1598482131958 52.41640090942383 L 75.15718841552734 52.41640090942383 M 75.16646575927734 53.93961715698242 L 13.88335704803467 53.93961715698242 C 13.62332153320313 53.93961715698242 13.37818241119385 53.90056991577148 13.1575756072998 53.82998275756836 C 12.93700313568115 53.75940322875977 12.7409839630127 53.65729141235352 12.57912063598633 53.53115081787109 C 12.4173059463501 53.40504837036133 12.28964519500732 53.25493621826172 12.20571327209473 53.08831405639648 C 12.12181186676025 52.9217529296875 12.0816125869751 52.73870468139648 12.0946626663208 52.54664993286133 C 12.52202987670898 46.25696182250977 14.63474082946777 40.35078811645508 18.05945205688477 35.0500373840332 C 21.44119071960449 29.8157901763916 26.11116981506348 25.15794944763184 31.72541046142578 21.28648376464844 C 37.28716659545898 17.45121192932129 43.79593276977539 14.37363910675049 50.93622589111328 12.26032543182373 C 58.03953170776367 10.15796279907227 65.80097198486328 9.00007438659668 73.93013000488281 9.00007438659668 L 131.9852752685547 9.00007438659668 C 132.2316284179688 9.00007438659668 132.4690093994141 9.035112380981445 132.6873779296875 9.098484039306641 C 132.9057922363281 9.161866188049316 133.105224609375 9.253598213195801 133.2755737304688 9.36698055267334 C 133.4459991455078 9.480395317077637 133.5873107910156 9.615484237670898 133.6894836425781 9.765542984008789 C 133.7916870117188 9.915657997131348 133.8547210693359 10.08076477050781 133.868408203125 10.25414848327637 C 134.3233337402344 16.01775550842285 133.0896606445313 21.58540344238281 130.4395751953125 26.71591758728027 C 127.7561264038086 31.91097068786621 123.626708984375 36.64565277099609 118.3486480712891 40.66377258300781 C 113.0195999145508 44.72070693969727 106.5387573242188 48.03260803222656 99.23403930664063 50.33660888671875 C 91.88949584960938 52.65317535400391 83.74761962890625 53.93961715698242 75.16646575927734 53.93961715698242 Z"/></g></g><g class="i" transform="matrix(1, 0, 0, 1, 885.34, 2930)"><g class="b" transform="translate(0 64)"><path class="e" d="M73.93,9h58.055a2.526,2.526,0,0,1,.7.1,2.14,2.14,0,0,1,.588.268,1.5,1.5,0,0,1,.414.4,1.007,1.007,0,0,1,.179.489h0a30.336,30.336,0,0,1-3.429,16.462,42.05,42.05,0,0,1-12.091,13.948,62.673,62.673,0,0,1-19.115,9.673,80.2,80.2,0,0,1-24.067,3.6H13.883a2.385,2.385,0,0,1-.726-.11,1.864,1.864,0,0,1-.578-.3,1.321,1.321,0,0,1-.373-.443,1.037,1.037,0,0,1-.111-.542,36.681,36.681,0,0,1,5.965-17.5A49.734,49.734,0,0,1,31.725,21.286,67.728,67.728,0,0,1,50.936,12.26,81.155,81.155,0,0,1,73.93,9Z"/><path class="f" d="M 75.15740203857422 52.41623687744141 C 77.18202972412109 52.41623687744141 79.190673828125 52.34295654296875 81.17937469482422 52.19693374633789 C 83.16741180419922 52.05096817016602 85.13486480712891 51.83236694335938 87.07785797119141 51.541748046875 C 89.01950836181641 51.25132751464844 90.93608856201172 50.88908767700195 92.82372283935547 50.45571899414063 C 94.70942687988281 50.02279281616211 96.56562805175781 49.5190315246582 98.38852691650391 48.94518280029297 C 99.26383209228516 48.66963958740234 100.1301498413086 48.37791061401367 100.9859771728516 48.07061767578125 C 101.8412017822266 47.76355361938477 102.6858749389648 47.44097137451172 103.5185165405273 47.10348892211914 C 104.3505249023438 46.76628494262695 105.1704330444336 46.41423416137695 105.976806640625 46.0479736328125 C 106.7824783325195 45.6820182800293 107.5745849609375 45.30191421508789 108.3516311645508 44.90824890136719 C 109.120719909668 44.51863098144531 109.8766708374023 44.11492538452148 110.6182632446289 43.69795989990234 C 111.3591156005859 43.28140258789063 112.085563659668 42.85163497924805 112.7963638305664 42.40946960449219 C 113.5064086914063 41.96776580810547 114.200798034668 41.51371765136719 114.8782806396484 41.04813766479492 C 115.5550079345703 40.58306884765625 116.2148208618164 40.10651016235352 116.8564758300781 39.6192741394043 C 117.4974212646484 39.13261413574219 118.1215133666992 38.63432312011719 118.7278137207031 38.12538909912109 C 119.3333587646484 37.6170654296875 119.9210891723633 37.09814453125 120.4900360107422 36.56959533691406 C 121.0582656860352 36.04170989990234 121.6077194213867 35.50423049926758 122.1374206542969 34.95813369750977 C 122.6664428710938 34.41275024414063 123.1757202148438 33.85877990722656 123.6643447875977 33.29718017578125 C 124.1568984985352 32.73106002807617 124.6294937133789 32.15596389770508 125.0814056396484 31.57297706604004 C 125.53271484375 30.99081420898438 125.96337890625 30.40080070495605 126.3727493286133 29.80402565002441 C 126.7815322875977 29.20810890197754 127.1690444946289 28.60545921325684 127.5346527099609 27.99716377258301 C 127.8997116088867 27.3897533416748 128.2428741455078 26.77672386169434 128.5635070800781 26.15913581848145 C 129.2241973876953 24.88648414611816 129.7897033691406 23.59811592102051 130.2599182128906 22.29649543762207 C 130.7286682128906 20.99898529052734 131.1026763916016 19.68840217590332 131.3819274902344 18.36717224121094 C 131.6602783203125 17.05019760131836 131.8444671630859 15.7227258682251 131.9344787597656 14.38713932037354 C 132.024169921875 13.05592155456543 132.0202941894531 11.71670627593994 131.9228363037109 10.37182998657227 L 73.93654632568359 10.37182998657227 C 72.01187133789063 10.37182998657227 70.10164642333984 10.43806552886963 68.20867919921875 10.57011032104492 C 66.31508636474609 10.70219802856445 64.43814849853516 10.90017795562744 62.58064270019531 11.16368961334229 C 60.72192764282227 11.42737197875977 58.88208770751953 11.75675487518311 57.06394195556641 12.151535987854 C 55.24402618408203 12.54670143127441 53.44527435302734 13.0075216293335 51.67054748535156 13.53375434875488 C 50.81669235229492 13.78693294525146 49.96945953369141 14.05533599853516 49.1302375793457 14.33844566345215 C 48.29042816162109 14.62175559997559 47.45859146118164 14.9198112487793 46.63611221313477 15.23210430145264 C 45.81300354003906 15.54463577270508 44.99921798706055 15.87144565582275 44.1961669921875 16.21202278137207 C 43.39245223999023 16.55288505554199 42.59942245483398 16.90755653381348 41.81851196289063 17.27552604675293 C 41.04419708251953 17.64038848876953 40.28005599975586 18.01913642883301 39.52733993530273 18.41107940673828 C 38.77390670776367 18.80339813232422 38.0318603515625 19.20896148681641 37.30247116088867 19.62708282470703 C 36.57233810424805 20.04562950134277 35.85484313964844 20.47677993774414 35.1512451171875 20.91984176635742 C 34.4468879699707 21.36338043212891 33.75642776489258 21.81888389587402 33.08113479614258 22.28564834594727 C 32.40507507324219 22.7529468536377 31.74280166625977 23.23251724243164 31.09538269042969 23.72350883483887 C 30.44718742370605 24.21508598327637 29.8138484954834 24.7181339263916 29.19644737243652 25.23180198669434 C 28.57827758789063 25.74610900878906 27.97605133056641 26.27108573913574 27.3908634185791 26.80586242675781 C 26.8049201965332 27.34133720397949 26.23603057861328 27.88666915893555 25.68530654907227 28.44099235534668 C 25.12863349914551 29.00128746032715 24.58927726745605 29.5720272064209 24.06809234619141 30.15220642089844 C 23.54617881774902 30.73319816589355 23.04246520996094 31.32368278503418 22.55782508850098 31.92264938354492 C 22.07248497009277 32.52248001098633 21.60625457763672 33.1308479309082 21.16001510620117 33.74672317504883 C 20.71311378479004 34.3635139465332 20.28624534606934 34.98786544799805 19.88029861450195 35.61874389648438 C 19.03992080688477 36.92477416992188 18.28902626037598 38.2552490234375 17.62880706787109 39.60797500610352 C 16.9664478302002 40.96507263183594 16.39528656005859 42.34469985961914 15.9165563583374 43.74462890625 C 15.4362268447876 45.14921569824219 15.04890632629395 46.57436752319336 14.75587177276611 48.01781463623047 C 14.46183490753174 49.46619415283203 14.26270580291748 50.93310546875 14.15980529785156 52.41623687744141 L 75.15740203857422 52.41623687744141 M 75.16667175292969 53.939453125 L 13.88329792022705 53.939453125 C 13.62326526641846 53.939453125 13.37813282012939 53.90041351318359 13.15752601623535 53.8298225402832 C 12.93695640563965 53.75924301147461 12.74093818664551 53.65713119506836 12.57907772064209 53.5309944152832 C 12.41726303100586 53.40488815307617 12.2896032333374 53.25477600097656 12.20567035675049 53.08815383911133 C 12.12177085876465 52.92158889770508 12.08157157897949 52.73854827880859 12.0946216583252 52.54648590087891 C 12.52198696136475 46.25682830810547 14.63468742370605 40.35068130493164 18.05938339233398 35.04994201660156 C 21.44110870361328 29.81572341918945 26.1110668182373 25.15789604187012 31.72527694702148 21.28644561767578 C 37.28701019287109 17.45118713378906 43.79575347900391 14.37362766265869 50.9360237121582 12.26032066345215 C 58.03930282592773 10.15796756744385 65.80070495605469 9.000082969665527 73.92984008789063 9.000082969665527 L 131.9852294921875 9.000082969665527 C 132.2315826416016 9.000082969665527 132.4689483642578 9.035121917724609 132.6873168945313 9.098492622375488 C 132.90576171875 9.161874771118164 133.1051788330078 9.253605842590332 133.2755279541016 9.366988182067871 C 133.4459533691406 9.480401992797852 133.5872650146484 9.61548900604248 133.6894378662109 9.765546798706055 C 133.7916564941406 9.915660858154297 133.8546752929688 10.08076572418213 133.8683624267578 10.25414657592773 C 134.3232879638672 16.01773452758789 133.0896453857422 21.58536148071289 130.4395446777344 26.71585845947266 C 127.756103515625 31.910888671875 123.6266937255859 36.64555740356445 118.3486633300781 40.66365814208984 C 113.0196304321289 44.72057342529297 106.538818359375 48.03246307373047 99.23413848876953 50.33645629882813 C 91.88961791992188 52.65301132202148 83.74779510498047 53.939453125 75.16667175292969 53.939453125 Z"/></g></g><g class="h" transform="matrix(1, 0, 0, 1, 885.34, 2930)"><g class="c" transform="translate(0 32)"><path class="e" d="M73.93,9h58.056a2.526,2.526,0,0,1,.7.1,2.141,2.141,0,0,1,.588.268,1.5,1.5,0,0,1,.414.4,1.007,1.007,0,0,1,.179.489,30.336,30.336,0,0,1-3.429,16.462,42.05,42.05,0,0,1-12.091,13.948,62.673,62.673,0,0,1-19.114,9.673,80.2,80.2,0,0,1-24.067,3.6H13.883a2.385,2.385,0,0,1-.726-.11,1.864,1.864,0,0,1-.578-.3,1.321,1.321,0,0,1-.373-.443,1.037,1.037,0,0,1-.111-.542,36.681,36.681,0,0,1,5.965-17.5A49.734,49.734,0,0,1,31.725,21.286,67.728,67.728,0,0,1,50.936,12.26,81.155,81.155,0,0,1,73.93,9Z"/><path class="f" d="M 75.15782165527344 52.41584396362305 C 77.18245697021484 52.41584396362305 79.19107818603516 52.34255599975586 81.17978668212891 52.19654083251953 C 83.16783142089844 52.05057525634766 85.13526153564453 51.83197021484375 87.0782470703125 51.54135131835938 C 89.0198974609375 51.25093841552734 90.93647003173828 50.88870239257813 92.82408905029297 50.45532989501953 C 94.70980072021484 50.02241516113281 96.56599426269531 49.51864242553711 98.38890075683594 48.94480133056641 C 99.26419830322266 48.66926193237305 100.1305160522461 48.37753295898438 100.9863433837891 48.07024002075195 C 101.841552734375 47.76317596435547 102.6862335205078 47.44059371948242 103.5188674926758 47.10311508178711 C 104.3508453369141 46.76590728759766 105.1707763671875 46.41386795043945 105.9771423339844 46.047607421875 C 106.7828140258789 45.68165588378906 107.5749282836914 45.30155181884766 108.3519668579102 44.90788650512695 C 109.1210556030273 44.51826858520508 109.8770065307617 44.11456298828125 110.6185989379883 43.69760131835938 C 111.3594436645508 43.28104400634766 112.0858917236328 42.85127258300781 112.7966995239258 42.40910720825195 C 113.5067443847656 41.9674072265625 114.2011108398438 41.51335906982422 114.8786087036133 41.04777526855469 C 115.5553359985352 40.58271026611328 116.2151412963867 40.10615921020508 116.856819152832 39.61893081665039 C 117.4977264404297 39.13225936889648 118.1218338012695 38.63398361206055 118.7281112670898 38.12504577636719 C 119.3336639404297 37.61672973632813 119.92138671875 37.09781265258789 120.490348815918 36.56926345825195 C 121.0585708618164 36.04137420654297 121.6080322265625 35.50390625 122.1377258300781 34.95780944824219 C 122.6667404174805 34.41242218017578 123.1760482788086 33.85845947265625 123.6646575927734 33.2968635559082 C 124.1571960449219 32.73073959350586 124.6297836303711 32.15564346313477 125.0817184448242 31.57266235351563 C 125.5330123901367 30.99049758911133 125.9636917114258 30.40048980712891 126.3730621337891 29.80371284484863 C 126.7818450927734 29.20779609680176 127.1693572998047 28.60515213012695 127.5349502563477 27.99685478210449 C 127.9000091552734 27.38945007324219 128.2431793212891 26.77642250061035 128.5638122558594 26.15883636474609 C 129.2245178222656 24.88619232177734 129.7900238037109 23.59782791137695 130.26025390625 22.29621124267578 C 130.7289733886719 20.99870491027832 131.1029968261719 19.6881275177002 131.3822326660156 18.36690139770508 C 131.6605987548828 17.04993057250977 131.8447723388672 15.7224645614624 131.9347686767578 14.38687992095947 C 132.0244903564453 13.0556697845459 132.0205993652344 11.71646118164063 131.9231262207031 10.37159061431885 L 73.93651580810547 10.37159061431885 C 72.0118408203125 10.37159061431885 70.10163116455078 10.43782615661621 68.20866394042969 10.5698709487915 C 66.31507873535156 10.70195770263672 64.43814086914063 10.89993858337402 62.58064270019531 11.16345024108887 C 60.72193145751953 11.42713069915771 58.88209533691406 11.75651550292969 57.0639533996582 12.15129470825195 C 55.24404144287109 12.54646110534668 53.44528961181641 13.00728034973145 51.67056274414063 13.53351211547852 C 50.81671142578125 13.78668880462646 49.969482421875 14.05508899688721 49.1302604675293 14.33819770812988 C 48.29045486450195 14.62150382995605 47.45861434936523 14.91956043243408 46.63613510131836 15.23184871673584 C 45.81303405761719 15.54438018798828 44.99924468994141 15.87118911743164 44.19620132446289 16.21176338195801 C 43.39247512817383 16.55262184143066 42.59945297241211 16.90729141235352 41.81854248046875 17.2752571105957 C 41.04423904418945 17.64012145996094 40.28010177612305 18.01886558532715 39.52738571166992 18.41081047058105 C 38.77395629882813 18.80313110351563 38.03191375732422 19.20869445800781 37.30252838134766 19.62681770324707 C 36.57239532470703 20.04536056518555 35.85490417480469 20.47651481628418 35.15130233764648 20.9195728302002 C 34.44694900512695 21.36311149597168 33.75649261474609 21.81861305236816 33.08119964599609 22.28537750244141 C 32.40514373779297 22.75267601013184 31.74286842346191 23.23224067687988 31.0954475402832 23.72323036193848 C 30.44725227355957 24.21480751037598 29.81391334533691 24.71785354614258 29.19651222229004 25.23151779174805 C 28.57833671569824 25.74581909179688 27.97611427307129 26.27079200744629 27.39092636108398 26.80557441711426 C 26.80498313903809 27.34104537963867 26.23609352111816 27.88637351989746 25.68536758422852 28.44069480895996 C 25.12869834899902 29.00098609924316 24.58934020996094 29.57172012329102 24.06816101074219 30.15189743041992 C 23.5462474822998 30.73288726806641 23.04253768920898 31.32337188720703 22.55790138244629 31.92233848571777 C 22.07256126403809 32.52217102050781 21.60633277893066 33.13052749633789 21.16009330749512 33.74640274047852 C 20.71319389343262 34.36319351196289 20.28632736206055 34.9875373840332 19.88038444519043 35.61841583251953 C 19.04000473022461 36.92444229125977 18.28911209106445 38.25490951538086 17.62888717651367 39.60763168334961 C 16.96652984619141 40.96472549438477 16.39536666870117 42.34434509277344 15.91663360595703 43.7442741394043 C 15.43630504608154 45.14885330200195 15.04898166656494 46.57400131225586 14.75594425201416 48.01743698120117 C 14.46190738677979 49.4658203125 14.26277637481689 50.93271636962891 14.15987682342529 52.41584396362305 L 75.15782165527344 52.41584396362305 M 75.16709899902344 53.93906021118164 L 13.88336753845215 53.93906021118164 C 13.62333488464355 53.93906021118164 13.37819957733154 53.9000129699707 13.15759372711182 53.82942199707031 C 12.93702507019043 53.75884628295898 12.74100875854492 53.65674209594727 12.57914638519287 53.53060150146484 C 12.41733264923096 53.40449905395508 12.2896728515625 53.25438690185547 12.20573902130127 53.0877571105957 C 12.12184047698975 52.92120361328125 12.08164215087891 52.73815536499023 12.09469032287598 52.54609298706055 C 12.52206420898438 46.25646209716797 14.634765625 40.35033416748047 18.05945777893066 35.04961776733398 C 21.4411792755127 29.81541061401367 26.11113548278809 25.1576042175293 31.725341796875 21.28616523742676 C 37.28706359863281 17.45092010498047 43.79579544067383 14.37337207794189 50.93604278564453 12.26007270812988 C 58.039306640625 10.1577262878418 65.80069732666016 8.999844551086426 73.9298095703125 8.999844551086426 L 131.9855651855469 8.999844551086426 C 132.2318878173828 8.999844551086426 132.4692687988281 9.034882545471191 132.6876525878906 9.098252296447754 C 132.9060668945313 9.161633491516113 133.1054840087891 9.253363609313965 133.2758483886719 9.366744995117188 C 133.4462432861328 9.480157852172852 133.5876007080078 9.61524486541748 133.6897430419922 9.765302658081055 C 133.7919616699219 9.915416717529297 133.85498046875 10.08052349090576 133.86865234375 10.25390720367432 C 134.3236083984375 16.01747512817383 133.0899353027344 21.5850830078125 130.4398498535156 26.71556091308594 C 127.7564010620117 31.91057395935059 123.6270217895508 36.64522552490234 118.348991394043 40.66331100463867 C 113.0199661254883 44.72021484375 106.5391616821289 48.0320930480957 99.2344970703125 50.33607482910156 C 91.88999938964844 52.65262222290039 83.74819183349609 53.93906021118164 75.16709899902344 53.93906021118164 Z"/></g></g><g class="g" transform="matrix(1, 0, 0, 1, 885.34, 2930)"><g class="d"><path class="e" d="M73.93,9h58.056a2.526,2.526,0,0,1,.7.1,2.14,2.14,0,0,1,.588.268,1.5,1.5,0,0,1,.414.4,1.007,1.007,0,0,1,.179.489h0a30.336,30.336,0,0,1-3.429,16.462,42.049,42.049,0,0,1-12.091,13.948,62.673,62.673,0,0,1-19.114,9.673,80.2,80.2,0,0,1-24.067,3.6H13.883a2.385,2.385,0,0,1-.726-.11,1.864,1.864,0,0,1-.578-.3,1.321,1.321,0,0,1-.373-.443,1.037,1.037,0,0,1-.111-.542,36.681,36.681,0,0,1,5.965-17.5A49.734,49.734,0,0,1,31.725,21.286,67.728,67.728,0,0,1,50.936,12.26,81.155,81.155,0,0,1,73.93,9Z"/><path class="f" d="M 75.15802764892578 52.41608810424805 C 77.18267059326172 52.41608810424805 79.19129180908203 52.34280776977539 81.18000793457031 52.19679260253906 C 83.16804504394531 52.05082321166992 85.13548278808594 51.83221817016602 87.07846832275391 51.54161071777344 C 89.02012634277344 51.25118637084961 90.93669891357422 50.88894653320313 92.82431793212891 50.45558547973633 C 94.71002197265625 50.02265930175781 96.56623077392578 49.51889801025391 98.38912200927734 48.94505310058594 C 99.26443481445313 48.66950988769531 100.1307525634766 48.37778091430664 100.986572265625 48.07048797607422 C 101.8417892456055 47.76342391967773 102.6864700317383 47.44084167480469 103.5191116333008 47.10336303710938 C 104.3510971069336 46.76616287231445 105.1710052490234 46.41411590576172 105.9773788452148 46.0478515625 C 106.7830505371094 45.68190765380859 107.5751495361328 45.30179595947266 108.3521881103516 44.90813446044922 C 109.1212692260742 44.51851654052734 109.8772354125977 44.11481094360352 110.6188278198242 43.69784545898438 C 111.3596725463867 43.28129196166992 112.0861206054688 42.85152435302734 112.7969207763672 42.40935516357422 C 113.5069732666016 41.96765518188477 114.2013473510742 41.51360702514648 114.8788299560547 41.04802322387695 C 115.5555725097656 40.58295822143555 116.2153701782227 40.10640716552734 116.8570556640625 39.61917877197266 C 117.4979782104492 39.13250732421875 118.1220779418945 38.63423156738281 118.7283554077148 38.12529373168945 C 119.3339080810547 37.61697769165039 119.921630859375 37.09805297851563 120.490592956543 36.56950378417969 C 121.0588073730469 36.04161834716797 121.6082611083984 35.50414657592773 122.1379623413086 34.95804214477539 C 122.6669845581055 34.41266250610352 123.1762847900391 33.85869598388672 123.6648941040039 33.29710006713867 C 124.1574325561523 32.73097991943359 124.6300201416016 32.15589141845703 125.0819473266602 31.57290649414063 C 125.5332412719727 30.99074172973633 125.9639282226563 30.40073394775391 126.3732986450195 29.80395698547363 C 126.7820816040039 29.20804214477539 127.1695861816406 28.60539627075195 127.5351791381836 27.99709701538086 C 127.9002227783203 27.38969039916992 128.2433929443359 26.77666282653809 128.5640563964844 26.15907287597656 C 129.2247467041016 24.88642883300781 129.7902526855469 23.59806251525879 130.2604675292969 22.29644775390625 C 130.7292022705078 20.99894332885742 131.1032104492188 19.68836784362793 131.3824768066406 18.36714172363281 C 131.6608123779297 17.05017280578613 131.8450012207031 15.72270679473877 131.9349975585938 14.38712215423584 C 132.0247344970703 13.05591106414795 132.0208435058594 11.71670055389404 131.9233703613281 10.37182807922363 L 73.93655395507813 10.37182807922363 C 72.01187133789063 10.37182807922363 70.10166168212891 10.438063621521 68.20869445800781 10.57010841369629 C 66.31510162353516 10.70219421386719 64.43815612792969 10.90017604827881 62.58066558837891 11.16368675231934 C 60.72195053100586 11.4273681640625 58.88211441040039 11.75675201416016 57.0639762878418 12.15153217315674 C 55.24406051635742 12.54669857025146 53.44530487060547 13.00751781463623 51.67058181762695 13.5337495803833 C 50.81672668457031 13.78692531585693 49.96949768066406 14.05532646179199 49.13027191162109 14.33843326568604 C 48.29047012329102 14.62174034118652 47.4586296081543 14.91979694366455 46.63615417480469 15.23208618164063 C 45.81304931640625 15.54461669921875 44.999267578125 15.87142562866211 44.19621658325195 16.21200180053711 C 43.39249801635742 16.55285835266113 42.59947204589844 16.90752983093262 41.81856536865234 17.2754955291748 C 41.04425811767578 17.64035987854004 40.28011703491211 18.01910781860352 39.52740859985352 18.41105270385742 C 38.77397537231445 18.80337142944336 38.03192901611328 19.20893478393555 37.30254745483398 19.62705612182617 C 36.57241058349609 20.04560089111328 35.85491561889648 20.47675132751465 35.15131759643555 20.91980934143066 C 34.44696044921875 21.36334991455078 33.75649642944336 21.81884956359863 33.08120346069336 22.28561592102051 C 32.40514373779297 22.75291061401367 31.74287223815918 23.23247909545898 31.09544944763184 23.72346687316895 C 30.4472599029541 24.21504592895508 29.81392288208008 24.71809196472168 29.1965217590332 25.23176002502441 C 28.57834815979004 25.74606513977051 27.97612380981445 26.27103996276855 27.39093589782715 26.80582046508789 C 26.80499267578125 27.34129333496094 26.23609924316406 27.88662147521973 25.68536758422852 28.44094276428223 C 25.12870025634766 29.00123405456543 24.58934211730957 29.57196807861328 24.06816101074219 30.15214538574219 C 23.54624938964844 30.73313903808594 23.04253768920898 31.32362174987793 22.55789947509766 31.92258644104004 C 22.07256126403809 32.52241897583008 21.60633277893066 33.13077926635742 21.16009330749512 33.74665451049805 C 20.71319389343262 34.36344146728516 20.28632736206055 34.98778533935547 19.88038444519043 35.61865997314453 C 19.04000473022461 36.9246940612793 18.28911209106445 38.25516510009766 17.6288890838623 39.60787963867188 C 16.96652984619141 40.9649772644043 16.39536666870117 42.3445930480957 15.91663455963135 43.74452209472656 C 15.43630504608154 45.14910125732422 15.04898262023926 46.57424545288086 14.75594520568848 48.01768493652344 C 14.4619083404541 49.466064453125 14.26277732849121 50.93296051025391 14.15987777709961 52.41608810424805 L 75.15802764892578 52.41608810424805 M 75.16730499267578 53.93930816650391 L 13.88336753845215 53.93930816650391 C 13.62333583831787 53.93930816650391 13.37820148468018 53.9002685546875 13.15759563446045 53.82967376708984 C 12.93702507019043 53.75909805297852 12.74100875854492 53.6569938659668 12.57914638519287 53.53085327148438 C 12.41733360290527 53.40475082397461 12.2896728515625 53.25464248657227 12.20573902130127 53.08800888061523 C 12.12184047698975 52.92145538330078 12.08164215087891 52.7384147644043 12.09469127655029 52.54635620117188 C 12.52206420898438 46.25671768188477 14.63476753234863 40.35059356689453 18.05946350097656 35.04986953735352 C 21.44118499755859 29.81566047668457 26.11114311218262 25.15785026550293 31.72534942626953 21.28641128540039 C 37.28707885742188 17.45116233825684 43.79581069946289 14.37361240386963 50.93606948852539 12.2603120803833 C 58.03933334350586 10.15796375274658 65.80072784423828 9.000082015991211 73.92984008789063 9.000082015991211 L 131.9857788085938 9.000082015991211 C 132.2321166992188 9.000082015991211 132.4695129394531 9.035120010375977 132.6878814697266 9.098491668701172 C 132.9063110351563 9.161873817443848 133.105712890625 9.253604888916016 133.2760467529297 9.366986274719238 C 133.4464874267578 9.480400085449219 133.5877990722656 9.615488052368164 133.6899719238281 9.765544891357422 C 133.7922058105469 9.915657997131348 133.855224609375 10.0807638168335 133.868896484375 10.2541446685791 C 134.3238372802734 16.01771354675293 133.0901641845703 21.58532333374023 130.4400787353516 26.7158031463623 C 127.7566452026367 31.91081619262695 123.6272659301758 36.64547348022461 118.3492202758789 40.66355895996094 C 113.0201950073242 44.720458984375 106.5393981933594 48.0323371887207 99.23472595214844 50.33631896972656 C 91.89022064208984 52.65286636352539 83.74840545654297 53.93930816650391 75.16730499267578 53.93930816650391 Z"/></g></g></g></svg>