<?xml version="1.0" encoding="UTF-8"?><svg xmlns="http://www.w3.org/2000/svg" xmlns:xlink="http://www.w3.org/1999/xlink" viewBox="0 0 38.77 20.4"><defs><style>.e{fill:none;}.f{fill:#0e3f70;}.g{clip-path:url(#d);}</style><clipPath id="d"><rect class="e" width="38.77" height="20.4"/></clipPath></defs><g id="a"/><g id="b"><g id="c"><g class="g"><g><path class="f" d="M14.87,6.38h15.16c.58-.02,1.16,0,1.74,.06,.88,.13,1.73,.45,2.47,.94,.68,.45,1.27,1.03,1.72,1.7,1.9,2.8,1.16,6.61-1.64,8.51-1.05,.71-2.29,1.08-3.56,1.05H.85c-.49,.02-.86,.44-.84,.92,.02,.45,.38,.82,.84,.84H30.55c.8,.01,1.6-.07,2.37-.26,4.21-1.12,6.71-5.45,5.59-9.66-.93-3.48-4.09-5.89-7.69-5.86H14.87c-.49,.02-.86,.44-.84,.92,.02,.45,.38,.82,.84,.84"/><path class="f" d="M19.02,9.49l-4.04-4.04-.57-.57v1.25l4.04-4.04,.57-.57c.33-.36,.3-.92-.06-1.25-.34-.31-.85-.31-1.19,0l-4.04,4.04-.57,.57c-.33,.35-.33,.9,0,1.25l4.04,4.04,.57,.57c.36,.33,.92,.3,1.25-.06,.31-.34,.31-.85,0-1.19"/></g></g></g></g></svg>