<?xml version="1.0" encoding="UTF-8"?><svg xmlns="http://www.w3.org/2000/svg" xmlns:xlink="http://www.w3.org/1999/xlink" viewBox="0 0 27 27"><defs><style>.e{fill:none;}.f{fill:#0e3f70;}.g{clip-path:url(#d);}</style><clipPath id="d"><rect class="e" width="27" height="27"/></clipPath></defs><g id="a"/><g id="b"><g id="c"><g class="g"><path class="f" d="M13.5,0C6.04,0,0,6.04,0,13.5s6.04,13.5,13.5,13.5,13.5-6.04,13.5-13.5S20.96,0,13.5,0m3.92,18.45l-1.09-1.09-2.82-2.82-.92,.92-3,3c-.29,.28-.75,.26-1.03-.03-.27-.28-.27-.72,0-1l1.09-1.09,2.83-2.83-.92-.92-3-3c-.28-.29-.26-.76,.03-1.03,.28-.27,.72-.26,1,0l1.09,1.09,2.82,2.82,.92-.92,3-3c.29-.28,.75-.26,1.03,.03,.27,.28,.27,.72,0,1l-1.09,1.09-2.83,2.83,.92,.92,3,3c.28,.29,.26,.75-.03,1.03-.28,.27-.72,.27-1,0"/></g></g></g></svg>