<svg xmlns="http://www.w3.org/2000/svg" width="35.035" height="32.34" viewBox="0 0 35.035 32.34">
  <path id="Icon_ionic-md-heart-empty" data-name="Icon ionic-md-heart-empty" d="M28.775,4.5a10.363,10.363,0,0,0-7.883,3.7A10.363,10.363,0,0,0,13.01,4.5a9.525,9.525,0,0,0-9.635,9.694c0,6.7,5.954,12.069,14.974,20.356l2.543,2.291,2.543-2.291c9.02-8.287,14.974-13.66,14.974-20.356A9.525,9.525,0,0,0,28.775,4.5Zm-6.8,27.733-.354.328-.724.657-.724-.657-.354-.328A107.047,107.047,0,0,1,9.481,21.959c-2.358-2.922-3.4-5.314-3.4-7.765a7.005,7.005,0,0,1,2-4.994,6.854,6.854,0,0,1,4.935-2,7.724,7.724,0,0,1,5.82,2.737l2.063,2.451,2.063-2.451A7.7,7.7,0,0,1,28.775,7.2a6.888,6.888,0,0,1,4.944,2,7.019,7.019,0,0,1,2,4.994c0,2.442-1.053,4.843-3.4,7.765A107.264,107.264,0,0,1,21.971,32.233Z" transform="translate(-3.375 -4.5)"/>
</svg>
