<svg xmlns="http://www.w3.org/2000/svg" width="104.632" height="119.808" viewBox="0 0 104.632 119.808"><defs><style>.a{fill:none;}.a,.b,.c{stroke:#002581;stroke-miterlimit:10;stroke-width:2.5px;}.b{fill:#d3eef6;}.c{fill:#fff;}</style></defs><g transform="translate(-21.742 -1.274)"><path class="a" d="M111.717,41.738V5.288c0-1.527-.875-2.764-1.954-2.764H38.352c-1.079,0-1.954,1.237-1.954,2.764v36.45Z"/><path class="b" d="M124.094,79.59V62.428a4.679,4.679,0,0,0-1.032-2.95c-1.272-1.792-12.047-17.629-12.047-17.629H37.228S26.453,57.686,25.182,59.478a4.671,4.671,0,0,0-1.032,2.95V79.59"/><rect class="a" width="102.132" height="13.862" rx="1.213" transform="translate(22.992 79.434)"/><path class="c" d="M32.312,93.568l-.5,25.128a1.12,1.12,0,0,1-1.076,1.136H27.285a1.12,1.12,0,0,1-1.076-1.136l-.5-25.128"/><path class="c" d="M122.406,93.568l-.5,25.128a1.118,1.118,0,0,1-1.076,1.136h-3.45A1.118,1.118,0,0,1,116.3,118.7l-.5-25.128"/><path class="a" d="M96.7,41.738V36.269A5.468,5.468,0,0,0,91.23,30.8H56.885a5.469,5.469,0,0,0-5.469,5.468v5.469"/><line class="a" x2="99.944" transform="translate(24.15 62.428)"/></g></svg>