<?xml version="1.0" encoding="UTF-8"?><svg xmlns="http://www.w3.org/2000/svg" xmlns:xlink="http://www.w3.org/1999/xlink" viewBox="0 0 25.31 30"><defs><style>.e{fill:none;}.f{fill:#0e3f70;}.g{clip-path:url(#d);}</style><clipPath id="d"><rect class="e" width="25.31" height="30"/></clipPath></defs><g id="a"/><g id="b"><g id="c"><g class="g"><path class="f" d="M24.15,10.33h-2.53v-1.36C21.62,4.02,17.61,0,12.66,0S3.69,4.02,3.69,8.97v1.36H1.16c-.64,0-1.16,.52-1.16,1.16V28.84c0,.64,.52,1.16,1.16,1.16H24.15c.64,0,1.16-.52,1.16-1.16V11.49c0-.64-.52-1.16-1.16-1.16m-9.53,13.67c.02,.13-.06,.25-.18,.27-.02,0-.03,0-.05,0h-3.46c-.13,0-.23-.1-.23-.23,0-.02,0-.03,0-.05l.79-4.09c-1.14-.65-1.54-2.09-.89-3.23,.65-1.14,2.09-1.54,3.23-.89s1.54,2.09,.89,3.23c-.21,.37-.52,.68-.89,.89l.79,4.09Zm3.76-13.67H6.94v-1.36c0-3.16,2.56-5.71,5.71-5.71s5.71,2.56,5.71,5.71v1.36Z"/></g></g></g></svg>