<svg xmlns="http://www.w3.org/2000/svg" width="85.745" height="65.376" viewBox="0 0 85.745 65.376">
  <g id="Group_688" data-name="Group 688" transform="translate(2408.511 -170.12)">
    <rect id="Rectangle_377" data-name="Rectangle 377" width="83.745" height="38.24" rx="2" transform="translate(-2407.511 171.12)" fill="#dff2f0" stroke="#00325d" stroke-width="2"/>
    <path id="Rectangle_378" data-name="Rectangle 378" d="M0,0H3.774a0,0,0,0,1,0,0V23.119a1.887,1.887,0,0,1-1.887,1.887h0A1.887,1.887,0,0,1,0,23.119V0A0,0,0,0,1,0,0Z" transform="translate(-2397.771 209.49)" fill="none" stroke="#00325d" stroke-width="2"/>
    <rect id="Rectangle_379" data-name="Rectangle 379" width="3.774" height="13.73" transform="translate(-2397.771 208.379)" fill="#00325d"/>
    <path id="Rectangle_380" data-name="Rectangle 380" d="M0,0H3.774a0,0,0,0,1,0,0V23.119a1.887,1.887,0,0,1-1.887,1.887h0A1.887,1.887,0,0,1,0,23.119V0A0,0,0,0,1,0,0Z" transform="translate(-2336.426 209.49)" fill="none" stroke="#00325d" stroke-width="2"/>
    <rect id="Rectangle_381" data-name="Rectangle 381" width="3.774" height="13.73" transform="translate(-2336.427 208.379)" fill="#00325d"/>
    <line id="Line_332" data-name="Line 332" y1="38.24" transform="translate(-2366.012 171.12)" fill="none" stroke="#00325d" stroke-width="2"/>
    <line id="Line_333" data-name="Line 333" y2="38.24" transform="translate(-2387.012 171.12)" fill="none" stroke="#00325d" stroke-width="2"/>
    <line id="Line_334" data-name="Line 334" y1="38.24" transform="translate(-2345.012 171.12)" fill="none" stroke="#00325d" stroke-width="2"/>
  </g>
</svg>
