<svg xmlns="http://www.w3.org/2000/svg" width="136.676" height="63.482" viewBox="0 0 136.676 63.482">
  <g id="Group_687" data-name="Group 687" transform="translate(0.995 1)">
    <path id="Path_262" data-name="Path 262" d="M4226.64,1124.834s3.138.265,4.111.487a19.967,19.967,0,0,1,2.376.937s1.537.645,2.149.9,3.312,1.224,4.05,1.667a5.223,5.223,0,0,1,2,1.75,21.11,21.11,0,0,1,2.13,4.873,20.73,20.73,0,0,1,.886,7.13,26.451,26.451,0,0,1-1.6,8.079,42.61,42.61,0,0,1-3.249,6.624c-1.118,1.667-2.409,3.481-3.206,4.43a16.665,16.665,0,0,1-2.911,3.143,4.791,4.791,0,0,1-2.552.928H4123.213a4.791,4.791,0,0,1-2.552-.928,16.669,16.669,0,0,1-2.911-3.143c-.8-.948-2.088-2.763-3.206-4.43a42.605,42.605,0,0,1-3.249-6.624,26.451,26.451,0,0,1-1.6-8.079,20.756,20.756,0,0,1,.886-7.13,21.11,21.11,0,0,1,2.13-4.873,5.229,5.229,0,0,1,2-1.75c.738-.443,3.438-1.414,4.05-1.667s2.149-.9,2.149-.9a19.983,19.983,0,0,1,2.376-.937c.973-.221,4.11-.487,4.11-.487" transform="translate(-4109.677 -1117.627)" fill="none" stroke="#0e3f70" stroke-width="2"/>
    <path id="Path_263" data-name="Path 263" d="M4258.744,1127.236h1.646s1.266-.28,1.213-1.329-1-16.321-1-16.321-.221-4.983-5.027-6.3a8.008,8.008,0,0,0-2.119-.261h-84.915a8.008,8.008,0,0,0-2.119.261c-4.807,1.315-5.027,6.3-5.027,6.3s-.944,15.272-1,16.321,1.213,1.329,1.213,1.329h1.645" transform="translate(-4143.638 -1103.025)" fill="none" stroke="#0e3f70" stroke-width="2"/>
    <path id="Path_264" data-name="Path 264" d="M4454.805,1248.732l3.37,13.331h1.852l-1.883-13.331" transform="translate(-4340.75 -1200.582)" fill="none" stroke="#0e3f70" stroke-width="2"/>
    <path id="Path_265" data-name="Path 265" d="M4443.459,1248.732l.9,4.838h1.661l-.427-4.838" transform="translate(-4333.153 -1200.582)" fill="none" stroke="#0e3f70" stroke-width="2"/>
    <path id="Path_266" data-name="Path 266" d="M4161.6,1248.732l-3.37,13.331h-1.851l1.883-13.331" transform="translate(-4140.943 -1200.582)" fill="none" stroke="#0e3f70" stroke-width="2"/>
    <path id="Path_267" data-name="Path 267" d="M4178.327,1248.732l-.9,4.838h-1.661l.427-4.838" transform="translate(-4153.924 -1200.582)" fill="none" stroke="#0e3f70" stroke-width="2"/>
    <g id="Group_681" data-name="Group 681" transform="translate(84.848 24.209)">
      <path id="Path_268" data-name="Path 268" d="M4366.523,1177.385s1.867,2.8,2.177,3.422a6.13,6.13,0,0,1,.789,2.2c.083.871,0,6.512,0,6.512s.05,2.1,1.929,2.177c2.011.083,8.15,0,8.15,0h19.609a6.111,6.111,0,0,0,5.275-3.274,6.812,6.812,0,0,0,.729-3.148V1183.8a4.387,4.387,0,0,0-.4-1.943,36.543,36.543,0,0,0-4.075-4.759,3.474,3.474,0,0,0-1.928-.809h-31.73A.73.73,0,0,0,4366.523,1177.385Z" transform="translate(-4366.424 -1176.286)" fill="none" stroke="#0e3f70" stroke-width="2"/>
      <line id="Line_329" data-name="Line 329" x1="35.562" transform="translate(2.949 5.916)" fill="none" stroke="#0e3f70" stroke-width="2"/>
    </g>
    <g id="Group_682" data-name="Group 682" transform="translate(11.126 24.209)">
      <path id="Path_269" data-name="Path 269" d="M4182,1177.385s-1.867,2.8-2.178,3.422a6.139,6.139,0,0,0-.788,2.2c-.083.871,0,6.512,0,6.512s-.05,2.1-1.929,2.177c-2.012.083-8.15,0-8.15,0h-19.608a6.112,6.112,0,0,1-5.275-3.274,6.812,6.812,0,0,1-.729-3.148V1183.8a4.383,4.383,0,0,1,.4-1.943,36.5,36.5,0,0,1,4.075-4.759,3.477,3.477,0,0,1,1.929-.809h31.73A.73.73,0,0,1,4182,1177.385Z" transform="translate(-4143.343 -1176.286)" fill="none" stroke="#0e3f70" stroke-width="2"/>
      <line id="Line_330" data-name="Line 330" x1="35.562" transform="translate(0.325 5.916)" fill="none" stroke="#0e3f70" stroke-width="2"/>
    </g>
    <g id="Group_683" data-name="Group 683" transform="translate(48.889 24.209)">
      <path id="Path_270" data-name="Path 270" d="M4291.4,1191.812c.634-.016,1.133-.042,1.422-.08,1.763-.233,1.722-2.387,1.722-2.387v-.242s.041-5.828,0-6.416a4.908,4.908,0,0,0-.457-1.423l-.933-1.535a21.82,21.82,0,0,0-2.011-2.862,2.961,2.961,0,0,0-1.618-.581h-26.877a2.962,2.962,0,0,0-1.618.581,21.854,21.854,0,0,0-2.011,2.862l-.934,1.535a4.9,4.9,0,0,0-.456,1.423c-.042.589,0,6.416,0,6.416v.242s-.042,2.155,1.722,2.387c.252.033.666.057,1.189.073C4263.675,1191.9,4288.169,1191.894,4291.4,1191.812Z" transform="translate(-4257.613 -1176.286)" fill="none" stroke="#0e3f70" stroke-width="2"/>
      <line id="Line_331" data-name="Line 331" x1="36.841" transform="translate(0 5.916)" fill="none" stroke="#0e3f70" stroke-width="2"/>
    </g>
    <path id="Path_271" data-name="Path 271" d="M4400.4,1135.562s9.309,1.109,12.234,1.582c2.127.344,7.974,1.688,7.974,1.688s1.118.485,1.122-.422a19.688,19.688,0,0,1,.234-2.353,34.662,34.662,0,0,1,1.256-6.288c.409-1.368.435-1.449,1.268-3.966a41.247,41.247,0,0,1,2.554-5.505c.163-.417.815-1.1,1-1.648.072-.616-.8-.67-.8-.67l-6.5.086s-7.746-.267-13.252-2.352c-1.057-.5-1.288-.152-1.347.171a86.954,86.954,0,0,1-2.324,9.743,40.828,40.828,0,0,1-3.923,8.564S4398.883,1135.562,4400.4,1135.562Z" transform="translate(-4303.766 -1111.354)" fill="#fff" stroke="#0e3f70" stroke-width="2"/>
    <path id="Path_272" data-name="Path 272" d="M4427.667,1123.308a7.953,7.953,0,0,0-.446.674c-.253.422-1.2,1.73-1.477,2.3s-1.013,1.856-1.477,2.637-1.223,1.856-1.582,2.489a15.96,15.96,0,0,1-1.268,1.712,14.636,14.636,0,0,1-3.141,3.245c-1.646,1.1-2.194,2.11-8.016,2.954-6.582.464-8.817.548-10.589.8" transform="translate(-4303.837 -1116.605)" fill="none" stroke="#0e3f70" stroke-width="1"/>
  </g>
</svg>
