<svg xmlns="http://www.w3.org/2000/svg" width="83.595" height="83.595" viewBox="0 0 83.595 83.595"><defs><style>.a{fill:#fff;}.b,.c,.d,.f{fill:none;stroke:#1e196c;stroke-width:2px;}.c,.d{stroke-linecap:round;}.d,.f{stroke-linejoin:round;}.e{fill:#00b2bd;}.g,.h{stroke:none;}.h{fill:#1e196c;}</style></defs><g class="a" transform="translate(0 0)"><path class="g" d="M 43.37223052978516 82.14044952392578 C 43.31667327880859 82.14044952392578 43.23735046386719 82.12375640869141 43.17488479614258 82.04427337646484 C 42.84061813354492 81.61887359619141 42.33859634399414 81.37488555908203 41.79757308959961 81.37488555908203 C 41.25656509399414 81.37488555908203 40.75455093383789 81.61885833740234 40.42028427124023 82.04425048828125 C 40.35781860351562 82.12374877929688 40.2784423828125 82.14043426513672 40.22285079956055 82.14044952392578 C 40.17236328125 82.14044952392578 40.07795333862305 82.12588500976562 40.0129508972168 82.02827453613281 C 39.68733978271484 81.53933715820312 39.14198684692383 81.2474365234375 38.55409622192383 81.2474365234375 C 38.06670761108398 81.2474365234375 37.59751892089844 81.4532470703125 37.26683044433594 81.81210327148438 C 37.20496368408203 81.87924957275391 37.13278579711914 81.89334869384766 37.0831413269043 81.89334869384766 C 37.0383186340332 81.89335632324219 36.92702865600586 81.88078308105469 36.86199569702148 81.76423645019531 C 36.55279541015625 81.21012878417969 35.9660758972168 80.86590576171875 35.33077621459961 80.86590576171875 C 34.88872909545898 80.86590576171875 34.46628570556641 81.03189086914062 34.14127349853516 81.33329010009766 C 34.09307479858398 81.37798309326172 34.03620910644531 81.40065765380859 33.97226333618164 81.40065765380859 C 33.93394088745117 81.40065765380859 33.80403137207031 81.39006805419922 33.74145126342773 81.25376892089844 C 33.4566535949707 80.63346862792969 32.83103942871094 80.23267364501953 32.14761734008789 80.23267364501953 C 31.75070762634277 80.23267364501953 31.37562942504883 80.36339569091797 31.06294059753418 80.61069488525391 C 31.01704025268555 80.64700317382812 30.96533012390137 80.6654052734375 30.90921974182129 80.6654052734375 C 30.82714080810547 80.6654052734375 30.71539688110352 80.62210083007812 30.67058563232422 80.50006103515625 C 30.41840744018555 79.81317138671875 29.7568531036377 79.35166168212891 29.02438545227051 79.35166168212891 C 28.67741966247559 79.35166168212891 28.34076309204102 79.45441436767578 28.05080795288086 79.64881896972656 C 28.00800704956055 79.67750549316406 27.96156311035156 79.69206237792969 27.91275215148926 79.69206237792969 C 27.81681823730469 79.69207000732422 27.70402908325195 79.63507843017578 27.6683292388916 79.50773620605469 C 27.45715141296387 78.75444030761719 26.76300811767578 78.22831726074219 25.98029708862305 78.22831726074219 C 25.68187522888184 78.22831726074219 25.38556289672852 78.30620574951172 25.1234073638916 78.45355224609375 C 25.08439636230469 78.47547912597656 25.04339599609375 78.48659515380859 25.00151824951172 78.48659515380859 C 24.89808464050293 78.48660278320312 24.77957534790039 78.41664123535156 24.7531852722168 78.28291320800781 C 24.59161949157715 77.46400451660156 23.8686408996582 76.86963653564453 23.03410720825195 76.86963653564453 C 22.7794075012207 76.86963653564453 22.53203010559082 76.92436981201172 22.29885292053223 77.03230285644531 C 22.26426315307617 77.04831695556641 22.22878646850586 77.05643463134766 22.19338607788086 77.05643463134766 C 22.08470726013184 77.05643463134766 21.96006393432617 76.97819519042969 21.94311904907227 76.83314514160156 C 21.84000778198242 75.94999694824219 21.09228515625 75.28400421142578 20.2038516998291 75.28400421142578 C 19.99610710144043 75.28400421142578 19.79107475280762 75.32096862792969 19.59445190429688 75.39385986328125 C 19.5649528503418 75.40479278564453 19.53515243530273 75.41034698486328 19.50594139099121 75.41034698486328 C 19.38989639282227 75.41036224365234 19.26114082336426 75.31747436523438 19.25547409057617 75.16739654541016 C 19.21982955932617 74.22186279296875 18.45167350769043 73.48119354248047 17.5067195892334 73.48119354248047 C 17.34519577026367 73.48119354248047 17.18378639221191 73.50376129150391 17.02696418762207 73.54824829101562 C 17.00301933288574 73.55503845214844 16.97915267944336 73.55847930908203 16.95602989196777 73.55847930908203 C 16.88957405090332 73.55849456787109 16.82375144958496 73.52962493896484 16.77545166015625 73.47931671142578 C 16.74213027954102 73.44461822509766 16.70317459106445 73.38461303710938 16.70680809020996 73.29589080810547 C 16.72646331787109 72.81479644775391 16.55394172668457 72.35884094238281 16.22100830078125 72.01202392578125 C 15.8917407989502 71.66903686523438 15.43176364898682 71.47231292724609 14.95901870727539 71.47231292724609 C 14.84329700469971 71.47231292724609 14.72661876678467 71.48394775390625 14.61223030090332 71.50688171386719 C 14.59439659118652 71.51045989990234 14.57670783996582 71.51226806640625 14.55965232849121 71.51226806640625 C 14.4898853302002 71.51226806640625 14.42205238342285 71.48092651367188 14.3735523223877 71.42626953125 C 14.33969688415527 71.38811492919922 14.30168533325195 71.32311248779297 14.31282997131348 71.23019409179688 C 14.37244129180908 70.73320770263672 14.21628570556641 70.23361206054688 13.88438510894775 69.85951232910156 C 13.55183029174805 69.48469543457031 13.07497406005859 69.26971435546875 12.576096534729 69.26971435546875 C 12.50603008270264 69.26971435546875 12.43502998352051 69.27397155761719 12.36504077911377 69.28235626220703 C 12.35395240783691 69.28369140625 12.34279632568359 69.28437042236328 12.33198547363281 69.28437042236328 C 12.23107433319092 69.28438568115234 12.16830730438232 69.22617340087891 12.13986301422119 69.19146728515625 C 12.10565185546875 69.14971160888672 12.06891918182373 69.07965087890625 12.08829689025879 68.98302459716797 C 12.19192981719971 68.46626281738281 12.05984115600586 67.93612670898438 11.72590732574463 67.52857208251953 C 11.39177417755127 67.12078094482422 10.89834117889404 66.88689422607422 10.37214088439941 66.88689422607422 C 10.34799671173096 66.88689422607422 10.32372951507568 66.88739013671875 10.29934120178223 66.88838195800781 L 10.28744125366211 66.88862609863281 C 10.17984104156494 66.88864135742188 10.11636352539062 66.82591247558594 10.08810806274414 66.78852844238281 C 10.05996322631836 66.75128173828125 10.01718521118164 66.67314910888672 10.04694080352783 66.56824493408203 C 10.19461917877197 66.04773712158203 10.0969295501709 65.4981689453125 9.778907775878906 65.06047058105469 C 9.460907936096191 64.62279510498047 8.968462944030762 64.36006927490234 8.427829742431641 64.33969116210938 C 8.316129684448242 64.33547973632812 8.254730224609375 64.26792907714844 8.228063583374023 64.22802734375 C 8.201407432556152 64.18814086914062 8.162496566772461 64.10556030273438 8.201352119445801 64.00074005126953 C 8.389396667480469 63.49346160888672 8.335129737854004 62.93793869018555 8.052452087402344 62.47663879394531 C 7.769785404205322 62.01535034179688 7.299474239349365 61.71480560302734 6.762118816375732 61.65205001831055 C 6.651041030883789 61.63907241821289 6.595118999481201 61.5669059753418 6.571674346923828 61.52502822875977 C 6.548230171203613 61.48316955566406 6.515918731689453 61.3978157043457 6.562874317169189 61.29638290405273 C 6.790152072906494 60.80538177490234 6.779630184173584 60.2473258972168 6.534018993377686 59.7652702331543 C 6.288407802581787 59.28323745727539 5.843130111694336 58.94670486450195 5.312352180480957 58.84198379516602 C 5.202641010284424 58.82033920288086 5.152563095092773 58.74399185180664 5.132474422454834 58.7004280090332 C 5.112385749816895 58.6568489074707 5.08686351776123 58.5692138671875 5.141641139984131 58.47178268432617 C 5.406730175018311 58.00013732910156 5.440030097961426 57.44297027587891 5.232996463775635 56.94313812255859 C 5.025952339172363 56.44330596923828 4.608452320098877 56.07288360595703 4.087518692016602 55.92683792114258 C 3.979863405227661 55.89665985107422 3.935930013656616 55.8166389465332 3.919318914413452 55.77161407470703 C 3.902718782424927 55.72660446166992 3.884152173995972 55.63723754882812 3.946396589279175 55.54439163208008 C 4.247685432434082 55.09502792358398 4.324596881866455 54.54218292236328 4.157418727874756 54.02763748168945 C 3.990241050720215 53.51310348510742 3.603085517883301 53.11106109619141 3.095218896865845 52.92460250854492 C 2.990241050720215 52.88605880737305 2.95271897315979 52.80282592773438 2.939696550369263 52.75663757324219 C 2.926674365997314 52.7104606628418 2.91517448425293 52.61991500854492 2.98450779914856 52.53224945068359 C 3.320129871368408 52.10788345336914 3.440185546875 51.56278228759766 3.313896656036377 51.03670501708984 C 3.187596559524536 50.51063919067383 2.833174467086792 50.07946014404297 2.34150767326355 49.85372543334961 C 2.239885568618774 49.80707168579102 2.209007740020752 49.72114944458008 2.199640989303589 49.67409133911133 C 2.190285444259644 49.62703704833984 2.185930013656616 49.53585815429688 2.261929988861084 49.45389175415039 C 2.629818916320801 49.05715942382812 2.792274475097656 48.52313613891602 2.707629919052124 47.98876953125 C 2.62299656867981 47.45442581176758 2.303496599197388 46.99678039550781 1.831052184104919 46.73318099975586 C 1.733418822288513 46.67870330810547 1.709385514259338 46.59062576293945 1.703741073608398 46.54297256469727 C 1.698107719421387 46.49533843994141 1.700918912887573 46.40410614013672 1.783118844032288 46.32836151123047 C 2.180985450744629 45.96171569824219 2.384829998016357 45.44211578369141 2.342385530471802 44.90275955200195 C 2.299930095672607 44.3634147644043 2.017329931259155 43.88210296630859 1.56702995300293 43.58223724365234 C 1.473963260650635 43.52025985717773 1.456907749176025 43.43057250976562 1.455018877983093 43.38261413574219 C 1.453141093254089 43.33468246459961 1.463096618652344 43.24394989013672 1.55098557472229 43.17488098144531 C 1.976396679878235 42.84058380126953 2.220385551452637 42.33855819702148 2.220385551452637 41.79753875732422 C 2.220374345779419 41.25653839111328 1.976407766342163 40.75453948974609 1.551018834114075 40.42026138305664 C 1.463107705116272 40.35118103027344 1.453152179718018 40.26043701171875 1.455029964447021 40.21248245239258 C 1.456918835639954 40.16454696655273 1.473963260650635 40.07487106323242 1.567007780075073 40.01291656494141 C 2.017318964004517 39.71304702758789 2.299941062927246 39.23173904418945 2.342385530471802 38.6923828125 C 2.384841203689575 38.15302658081055 2.180996656417847 37.63342666625977 1.783141136169434 37.26680374145508 C 1.700929999351501 37.19104766845703 1.698107719421387 37.09979248046875 1.703752160072327 37.05214691162109 C 1.709385514259338 37.00449371337891 1.733418822288513 36.91643905639648 1.831041097640991 36.86197280883789 C 2.303496599197388 36.59835052490234 2.623018980026245 36.14068222045898 2.70765209197998 35.60631561279297 C 2.792285442352295 35.07197189331055 2.629852294921875 34.53798294067383 2.261985540390015 34.14126968383789 C 2.18596339225769 34.05928039550781 2.190318822860718 33.96810531616211 2.199674367904663 33.92103576660156 C 2.209041118621826 33.87398147583008 2.239907741546631 33.78808212280273 2.341485500335693 33.74144744873047 C 2.833196640014648 33.51568222045898 3.187641143798828 33.08448028564453 3.313930034637451 32.55840301513672 C 3.440218925476074 32.0323486328125 3.3201744556427 31.48728179931641 2.984585523605347 31.06293678283691 C 2.915218830108643 30.97524833679199 2.926718950271606 30.88468170166016 2.939741134643555 30.83850479125977 C 2.952763319015503 30.79232597351074 2.990274429321289 30.70911598205566 3.095196723937988 30.67059326171875 C 3.603096723556519 30.48411560058594 3.990274429321289 30.08205986022949 4.15745210647583 29.56752586364746 C 4.324629783630371 29.05299377441406 4.247729778289795 28.50017166137695 3.946463346481323 28.05080413818359 C 3.884196758270264 27.95792579650879 3.902763366699219 27.86853790283203 3.919363260269165 27.82352638244629 C 3.935974359512329 27.77851486206055 3.979896545410156 27.69849395751953 4.087530136108398 27.66831588745117 C 4.608474254608154 27.52228164672852 5.026007652282715 27.15184783935547 5.233052253723145 26.65201568603516 C 5.440085411071777 26.15218162536621 5.406796455383301 25.59502601623535 5.141707897186279 25.12340354919434 C 5.086918830871582 25.02593803405762 5.112441062927246 24.93828201293945 5.132530212402344 24.89470481872559 C 5.152618885040283 24.85113716125488 5.202685356140137 24.77481460571289 5.312352180480957 24.75318145751953 C 5.84316349029541 24.6484489440918 6.288474559783936 24.31190490722656 6.534085750579834 23.82984924316406 C 6.779696464538574 23.34780502319336 6.790218830108643 22.78976058959961 6.562941074371338 22.29880332946777 C 6.515974521636963 22.19734954833984 6.548296451568604 22.11195945739746 6.571752071380615 22.07009315490723 C 6.59518575668335 22.02823829650879 6.651096820831299 21.95608139038086 6.762107849121094 21.9431266784668 C 7.299507617950439 21.88037109375 7.769841194152832 21.57980346679688 8.052530288696289 21.11850357055664 C 8.335196495056152 20.6572151184082 8.389474868774414 20.10170364379883 8.201418876647949 19.59443855285645 C 8.162563323974609 19.48960494995117 8.201474189758301 19.40701484680176 8.228140830993652 19.36711502075195 C 8.254796981811523 19.32722663879395 8.31618595123291 19.25967025756836 8.427874565124512 19.25546073913574 C 8.96852970123291 19.23507118225098 9.461008071899414 18.97233772277832 9.779018402099609 18.53463745117188 C 10.09700775146484 18.09696006774902 10.1947078704834 17.54743766784668 10.04704093933105 17.0269718170166 C 10.01728534698486 16.92209243774414 10.06005191802979 16.84395980834961 10.08819675445557 16.80671501159668 C 10.11647415161133 16.76931571960449 10.17996311187744 16.7065601348877 10.28758525848389 16.7065601348877 L 10.2993745803833 16.7068042755127 C 10.3238410949707 16.70779228210449 10.34818553924561 16.70829391479492 10.37221908569336 16.70829391479492 C 10.89845180511475 16.70829391479492 11.39189624786377 16.47441482543945 11.72601890563965 16.06662559509277 C 12.05995178222656 15.65908241271973 12.19202995300293 15.12895965576172 12.08839702606201 14.61219310760498 C 12.06902980804443 14.51561546325684 12.10575199127197 14.44555950164795 12.13997459411621 14.40379333496094 C 12.16843032836914 14.3690710067749 12.23122978210449 14.31081581115723 12.33215236663818 14.31081581115723 C 12.34302997589111 14.31081581115723 12.35380744934082 14.3114709854126 12.36509704589844 14.31282615661621 C 12.4351634979248 14.32121562957764 12.50615215301514 14.32547092437744 12.57618522644043 14.32547092437744 C 13.07508563995361 14.32547092437744 13.55193042755127 14.11050415039062 13.88448524475098 13.73569297790527 C 14.21637439727783 13.36162662506104 14.37252998352051 12.8620491027832 14.3129301071167 12.3650484085083 C 14.30178546905518 12.27211570739746 14.33980751037598 12.20711517333984 14.3736743927002 12.16894912719727 C 14.42217445373535 12.11427116394043 14.48999691009521 12.08292675018311 14.55975246429443 12.08292675018311 C 14.57705211639404 12.08292675018311 14.59421920776367 12.08468246459961 14.61226367950439 12.08829307556152 C 14.72671890258789 12.11124897003174 14.84339618682861 12.12287139892578 14.95911884307861 12.12287139892578 C 15.43188571929932 12.12287139892578 15.89187431335449 11.92617130279541 16.22111892700195 11.5831823348999 C 16.55404090881348 11.23639297485352 16.72655296325684 10.78044891357422 16.70689582824707 10.29933738708496 C 16.70327377319336 10.21062660217285 16.74222946166992 10.15061569213867 16.77555274963379 10.11590385437012 C 16.82387351989746 10.06557083129883 16.88968467712402 10.03671550750732 16.95612907409668 10.03671550750732 C 16.97925186157227 10.03671550750732 17.00310707092285 10.04014873504639 17.02702903747559 10.04693794250488 C 17.18387413024902 10.09143733978271 17.34529685974121 10.11400413513184 17.50680732727051 10.11400413513184 C 18.45176315307617 10.11400413513184 19.21990776062012 9.373349189758301 19.25557518005371 8.427837371826172 C 19.2612419128418 8.277749061584473 19.39001846313477 8.184848785400391 19.5060863494873 8.184848785400391 C 19.53525161743164 8.184848785400391 19.56499671936035 8.190393447875977 19.59451866149902 8.201337814331055 C 19.79114151000977 8.274237632751465 19.99619674682617 8.311203956604004 20.20394134521484 8.311203956604004 C 21.09236335754395 8.311203956604004 21.84008598327637 7.645237445831299 21.94321823120117 6.762104511260986 C 21.96016311645508 6.617026329040527 22.08482933044434 6.538759708404541 22.19354057312012 6.538759708404541 C 22.22889709472656 6.538759708404541 22.26434135437012 6.546870708465576 22.29888534545898 6.562860012054443 C 22.53209686279297 6.670826435089111 22.77950859069824 6.725571155548096 23.03422927856445 6.725571155548096 C 23.8687629699707 6.725571155548096 24.59173011779785 6.131215572357178 24.7532958984375 5.312326431274414 C 24.7796745300293 5.178582191467285 24.89819717407227 5.108604431152344 25.00165176391602 5.108604431152344 C 25.04349708557129 5.108604431152344 25.08449745178223 5.119715213775635 25.12347412109375 5.141637802124023 C 25.38569641113281 5.289004325866699 25.6820068359375 5.366893291473389 25.98041915893555 5.366893291473389 C 26.76311874389648 5.366893291473389 27.4572639465332 4.840793132781982 27.66844177246094 4.087515354156494 C 27.70414161682129 3.960159778594971 27.81696319580078 3.903159856796265 27.91294097900391 3.903159856796265 C 27.96168518066406 3.903159856796265 28.00809669494629 3.917715311050415 28.0508861541748 3.946393251419067 C 28.34088516235352 4.140815258026123 28.67755126953125 4.243559837341309 29.02449607849121 4.243559837341309 C 29.7569522857666 4.243559837341309 30.41850852966309 3.782070875167847 30.67068481445312 3.09520435333252 C 30.71550750732422 2.973148822784424 30.82726287841797 2.929837703704834 30.90935134887695 2.929837703704834 C 30.96545219421387 2.929837703704834 31.01716423034668 2.948237657546997 31.06304168701172 2.984515428543091 C 31.37574195861816 3.231837511062622 31.75082969665527 3.362559795379639 32.14775085449219 3.362559795379639 C 32.83116149902344 3.362559795379639 33.4567756652832 2.961771011352539 33.74155044555664 2.341504335403442 C 33.80414199829102 2.205170869827271 33.93407440185547 2.194581985473633 33.97240829467773 2.194581985473633 C 34.03631973266602 2.194581985473633 34.09316253662109 2.217237710952759 34.14137268066406 2.261937618255615 C 34.46640777587891 2.563348770141602 34.88885116577148 2.729337692260742 35.33089828491211 2.729337692260742 C 35.96620941162109 2.729337692260742 36.55291748046875 2.385137557983398 36.86208724975586 1.831059813499451 C 36.92712020874023 1.714493155479431 37.03847503662109 1.701904296875 37.08332061767578 1.701904296875 C 37.13294219970703 1.701904296875 37.20506286621094 1.715993165969849 37.26691818237305 1.783126473426819 C 37.59760665893555 2.141993045806885 38.06680679321289 2.347815275192261 38.55420684814453 2.347815275192261 C 39.14209747314453 2.347815275192261 39.68745040893555 2.055926561355591 40.01303100585938 1.567015409469604 C 40.07804107666016 1.469382047653198 40.17250823974609 1.454804301261902 40.22303009033203 1.454804301261902 C 40.27858734130859 1.454804301261902 40.35790634155273 1.471493124961853 40.42037582397461 1.550981998443604 C 40.75466156005859 1.97638201713562 41.25667572021484 2.220359802246094 41.79768371582031 2.220359802246094 C 42.33871841430664 2.220359802246094 42.84072875976562 1.97638201713562 43.17500686645508 1.550970911979675 C 43.23743057250977 1.471526503562927 43.31674194335938 1.454848766326904 43.37229537963867 1.454848766326904 C 43.42281723022461 1.454848766326904 43.51728439331055 1.469426512718201 43.582275390625 1.567026495933533 C 43.90785217285156 2.055937528610229 44.45320892333984 2.347826480865479 45.04109573364258 2.347826480865479 C 45.52849578857422 2.347826480865479 45.99768447875977 2.14201545715332 46.32837295532227 1.783159852027893 C 46.39025115966797 1.716015338897705 46.46237564086914 1.701915383338928 46.5119743347168 1.701915383338928 C 46.55683135986328 1.701915383338928 46.66818618774414 1.714504241943359 46.73320770263672 1.831037640571594 C 47.04237365722656 2.385137557983398 47.62909698486328 2.729348659515381 48.26440811157227 2.729348659515381 C 48.70645141601562 2.729348659515381 49.12888717651367 2.563370943069458 49.45390701293945 2.261981964111328 C 49.50212860107422 2.217270851135254 49.55898666381836 2.194593191146851 49.62289810180664 2.194593191146851 C 49.66122817993164 2.194593191146851 49.79117584228516 2.205182075500488 49.85374069213867 2.341470956802368 C 50.13854217529297 2.961771011352539 50.76415252685547 3.362581968307495 51.44757461547852 3.362581968307495 C 51.84447479248047 3.362581968307495 52.21955108642578 3.231870889663696 52.53225326538086 2.984570980072021 C 52.57816314697266 2.948259830474854 52.62988662719727 2.929848670959473 52.68598556518555 2.929848670959473 C 52.76806259155273 2.929848670959473 52.87981796264648 2.973148822784424 52.92462921142578 3.095181941986084 C 53.17680740356445 3.782082080841064 53.83837509155273 4.243593215942383 54.57083129882812 4.243593215942383 C 54.91779708862305 4.243593215942383 55.25445175170898 4.140837669372559 55.54440689086914 3.94643759727478 C 55.58720779418945 3.917748689651489 55.63362884521484 3.903193235397339 55.6823844909668 3.903193235397339 C 55.77835083007812 3.903193235397339 55.89117431640625 3.960193157196045 55.92687606811523 4.087515354156494 C 56.13804244995117 4.840804100036621 56.83218383789062 5.366915225982666 57.61489486694336 5.366915225982666 C 57.913330078125 5.366915225982666 58.20964050292969 5.289026260375977 58.47178649902344 5.141682147979736 C 58.51079559326172 5.119748592376709 58.55179595947266 5.108637809753418 58.59365081787109 5.108637809753418 C 58.69709777832031 5.108637809753418 58.81563186645508 5.178604125976562 58.84201812744141 5.312326431274414 C 59.00357437133789 6.131226539611816 59.72653961181641 6.725604057312012 60.56107330322266 6.725604057312012 C 60.8157958984375 6.725604057312012 61.06318664550781 6.670870780944824 61.29638671875 6.562915325164795 C 61.33095169067383 6.546915531158447 61.36642074584961 6.538804054260254 61.40177536010742 6.538804054260254 C 61.51047515869141 6.538804054260254 61.63513946533203 6.617059707641602 61.65208435058594 6.762093067169189 C 61.75519561767578 7.645248889923096 62.5029296875 8.311237335205078 63.39136505126953 8.311237335205078 C 63.59909820556641 8.311237335205078 63.80411911010742 8.274282455444336 64.00074005126953 8.201404571533203 C 64.03028869628906 8.190448760986328 64.06006622314453 8.184893608093262 64.0892333984375 8.184893608093262 C 64.20529937744141 8.184893608093262 64.33407592773438 8.277782440185547 64.33974456787109 8.427848815917969 C 64.37540435791016 9.373381614685059 65.1435546875 10.11405944824219 66.08850860595703 10.11405944824219 C 66.25001525878906 10.11405944824219 66.41141510009766 10.09149360656738 66.5682373046875 10.04700469970703 C 66.59219360351562 10.04020404815674 66.61606597900391 10.03675937652588 66.63917541503906 10.03675937652588 C 66.70564270019531 10.03675937652588 66.77146148681641 10.06562614440918 66.81977081298828 10.11593723297119 C 66.85308837890625 10.15063762664795 66.89204406738281 10.21063804626465 66.88840484619141 10.29934883117676 C 66.86875152587891 10.7804594039917 67.04128265380859 11.23641490936279 67.37420654296875 11.58322620391846 C 67.70346069335938 11.92621517181396 68.16344451904297 12.12292671203613 68.63618469238281 12.12292671203613 C 68.75193023681641 12.12292671203613 68.86862182617188 12.11129283905029 68.9830322265625 12.08834838867188 C 69.00080871582031 12.08478164672852 69.01847076416016 12.08298206329346 69.03553009033203 12.08298206329346 C 69.10530853271484 12.08298206329346 69.17314147949219 12.11432647705078 69.22164154052734 12.16899299621582 C 69.2554931640625 12.20714855194092 69.29351806640625 12.27213764190674 69.28236389160156 12.3650598526001 C 69.22275543212891 12.8620491027832 69.37890625 13.36163806915283 69.71080780029297 13.73572635650635 C 70.04336547851562 14.11055946350098 70.52021789550781 14.32553768157959 71.01910400390625 14.32553768157959 C 71.08916473388672 14.32553768157959 71.16016387939453 14.32128238677979 71.23014068603516 14.31289291381836 C 71.24135589599609 14.31154918670654 71.25244140625 14.31087112426758 71.26316070556641 14.31087112426758 C 71.36410522460938 14.31087112426758 71.42691040039062 14.36911582946777 71.45536041259766 14.40383720397949 C 71.48957061767578 14.44559288024902 71.52629852294922 14.51563739776611 71.50692749023438 14.61221504211426 C 71.40329742431641 15.128981590271 71.53538513183594 15.6591157913208 71.86933135986328 16.06667137145996 C 72.20346069335938 16.4744701385498 72.6968994140625 16.70836067199707 73.22310638427734 16.70836067199707 C 73.24725341796875 16.70836067199707 73.27147674560547 16.70785903930664 73.29587554931641 16.70687103271484 L 73.30767822265625 16.70661544799805 C 73.41535186767578 16.70661544799805 73.47885131835938 16.76937103271484 73.50713348388672 16.80678176879883 C 73.53526306152344 16.84401512145996 73.57801818847656 16.92212677001953 73.54826354980469 17.02699279785156 C 73.40058898925781 17.54747009277344 73.49827575683594 18.09701538085938 73.81627655029297 18.53471565246582 C 74.13427734375 18.97241592407227 74.62671661376953 19.23514938354492 75.16736602783203 19.25553703308105 C 75.27909851074219 19.2597484588623 75.34050750732422 19.32731628417969 75.36716461181641 19.36721611022949 C 75.39382171630859 19.4071044921875 75.43273162841797 19.48967170715332 75.39388275146484 19.5944709777832 C 75.20583343505859 20.10178184509277 75.26009368896484 20.65730476379395 75.54278564453125 21.11860466003418 C 75.82546234130859 21.57989311218262 76.2957763671875 21.88043785095215 76.8331298828125 21.94318199157715 C 76.94419860839844 21.9561595916748 77.00010681152344 22.0283260345459 77.02355194091797 22.07019233703613 C 77.0469970703125 22.1120491027832 77.07930755615234 22.19741630554199 77.0323486328125 22.29886054992676 C 76.80508422851562 22.78983688354492 76.81559753417969 23.34790420532227 77.06121826171875 23.82995986938477 C 77.30683135986328 24.31200408935547 77.75210571289062 24.64852714538574 78.28289794921875 24.75324821472168 C 78.39258575439453 24.77488136291504 78.44267272949219 24.85122680664062 78.46276092529297 24.8947925567627 C 78.48284912109375 24.9383716583252 78.50837707519531 25.02601623535156 78.45360565185547 25.12346076965332 C 78.18850708007812 25.59506034851074 78.15519714355469 26.1522274017334 78.36222839355469 26.65207099914551 C 78.56925964355469 27.15190505981445 78.98677062988281 27.52233695983887 79.50770568847656 27.66838264465332 C 79.61537170410156 27.69857025146484 79.65930938720703 27.77859306335449 79.67591857910156 27.82361602783203 C 79.69252014160156 27.86862564086914 79.71108245849609 27.95799255371094 79.64884185791016 28.05082702636719 C 79.34754180908203 28.5002269744873 79.2706298828125 29.05307006835938 79.43782043457031 29.5676155090332 C 79.60501098632812 30.08213806152344 79.99216461181641 30.48418235778809 80.50003051757812 30.6706371307373 C 80.60498809814453 30.70918273925781 80.64250946044922 30.79240417480469 80.65554046630859 30.83859252929688 C 80.66854858398438 30.8847713470459 80.6800537109375 30.97531509399414 80.6107177734375 31.0629825592041 C 80.27509307861328 31.48733711242676 80.15504455566406 32.03242492675781 80.28132629394531 32.55850601196289 C 80.40763092041016 33.0845832824707 80.76205444335938 33.5157585144043 81.25373077392578 33.74150466918945 C 81.35535430908203 33.78815841674805 81.38623809814453 33.87408065795898 81.39559936523438 33.92115020751953 C 81.40495300292969 33.96820449829102 81.40930938720703 34.05937194824219 81.33330535888672 34.14132690429688 C 80.96543121337891 34.53807067871094 80.80298614501953 35.07208251953125 80.88762664794922 35.60644912719727 C 80.97225952148438 36.14079284667969 81.29176330566406 36.59843826293945 81.76420593261719 36.86203765869141 C 81.86183166503906 36.9165153503418 81.88587188720703 37.00458145141602 81.89151000976562 37.05223846435547 C 81.89715576171875 37.09988021850586 81.89434051513672 37.19111633300781 81.81214141845703 37.26686096191406 C 81.41426086425781 37.63350296020508 81.21041870117188 38.15312576293945 81.25287628173828 38.6924934387207 C 81.29531860351562 39.23182678222656 81.57792663574219 39.71312713623047 82.02822875976562 40.01299285888672 C 82.12128448486328 40.07495880126953 82.13834381103516 40.16464996337891 82.14022827148438 40.21260452270508 C 82.14210510253906 40.26053619384766 82.13214111328125 40.35128021240234 82.04426574707031 40.42033767700195 C 81.61885070800781 40.7546272277832 81.37486267089844 41.25663757324219 81.37486267089844 41.79766082763672 C 81.37486267089844 42.33867263793945 81.61884307861328 42.84067153930664 82.04422760009766 43.17494964599609 C 82.13214111328125 43.24402618408203 82.14210510253906 43.33477020263672 82.14022064208984 43.38271713256836 C 82.13834381103516 43.43066024780273 82.12128448486328 43.52032470703125 82.02825164794922 43.58228302001953 C 81.57791900634766 43.88217163085938 81.29529571533203 44.36350250244141 81.25285339355469 44.90287017822266 C 81.21041107177734 45.44220352172852 81.41425323486328 45.9617919921875 81.81209564208984 46.32840347290039 C 81.89431762695312 46.40417098999023 81.89713287353516 46.49542617797852 81.89149475097656 46.54308319091797 C 81.88584899902344 46.59071350097656 81.86181640625 46.67877197265625 81.76422119140625 46.73323822021484 C 81.29174041748047 46.99686050415039 80.97222900390625 47.45452499389648 80.88759613037109 47.9888916015625 C 80.80296325683594 48.52325057983398 80.96540832519531 49.05723571777344 81.33325958251953 49.45393753051758 C 81.40929412841797 49.53592681884766 81.40495300292969 49.62712478637695 81.39558410644531 49.6741828918457 C 81.38623046875 49.72123718261719 81.35536193847656 49.80713653564453 81.25377655029297 49.8537712097168 C 80.76207733154297 50.07952499389648 80.40763092041016 50.51072692871094 80.28132629394531 51.03680419921875 C 80.15504455566406 51.56287002563477 80.27508544921875 52.10794830322266 80.61069488525391 52.53228378295898 C 80.6800537109375 52.61997222900391 80.66854858398438 52.71053695678711 80.65553283691406 52.7567138671875 C 80.64250946044922 52.80289459228516 80.60499572753906 52.88611602783203 80.50006103515625 52.92464828491211 C 79.99216461181641 53.11112594604492 79.60498809814453 53.51318359375 79.43780517578125 54.02773666381836 C 79.2706298828125 54.54225921630859 79.34754180908203 55.0950813293457 79.64881896972656 55.54443740844727 C 79.7110595703125 55.63728332519531 79.69249725341797 55.72666931152344 79.67588806152344 55.77168273925781 C 79.65928649902344 55.81670379638672 79.61534881591797 55.8967170715332 79.50772094726562 55.9268913269043 C 78.98677062988281 56.07292556762695 78.56925201416016 56.443359375 78.36220550537109 56.94319152832031 C 78.15517425537109 57.44302749633789 78.18846130371094 58.00017166137695 78.45355224609375 58.47179412841797 C 78.50833892822266 58.56928253173828 78.48281860351562 58.65694808959961 78.46273040771484 58.70052719116211 C 78.44264221191406 58.74409484863281 78.392578125 58.82041549682617 78.28292846679688 58.84203720092773 C 77.75210571289062 58.94676971435547 77.30680847167969 59.28330612182617 77.06118774414062 59.76535797119141 C 76.81557464599609 60.24739456176758 76.8050537109375 60.80543899536133 77.03231048583984 61.29640579223633 C 77.07928466796875 61.39786911010742 77.04696655273438 61.48326110839844 77.02352142333984 61.52511596679688 C 77.00007629394531 61.56698226928711 76.94417572021484 61.63913726806641 76.83315277099609 61.65209197998047 C 76.29575347900391 61.71484756469727 75.82541656494141 62.01541519165039 75.54273986816406 62.47671508789062 C 75.26006317138672 62.93800354003906 75.20578765869141 63.49350357055664 75.39384460449219 64.00078582763672 C 75.43270874023438 64.10562896728516 75.39378356933594 64.18820190429688 75.36711883544922 64.22810363769531 C 75.34047698974609 64.26799011230469 75.27908325195312 64.33554077148438 75.16739654541016 64.33975219726562 C 74.62671661376953 64.36014556884766 74.13425445556641 64.62289428710938 73.81625366210938 65.06059265136719 C 73.49825286865234 65.49828338623047 73.40057373046875 66.04781341552734 73.54824066162109 66.56826782226562 C 73.57798767089844 66.67312622070312 73.53521728515625 66.75125122070312 73.50708770751953 66.78848266601562 C 73.47880554199219 66.82590484619141 73.415283203125 66.88867950439453 73.30764007568359 66.88867950439453 L 73.29587554931641 66.88843536376953 C 73.27177429199219 66.88743591308594 73.24729919433594 66.88694000244141 73.22307586669922 66.88694000244141 C 72.69683837890625 66.88694000244141 72.20339965820312 67.12082672119141 71.8692626953125 67.52861785888672 C 71.53533172607422 67.9361572265625 71.40325164794922 68.46627044677734 71.50688934326172 68.98303985595703 C 71.52623748779297 69.07958221435547 71.48953247070312 69.14962768554688 71.45532989501953 69.19136810302734 C 71.42686462402344 69.22611236572266 71.36402893066406 69.28440093994141 71.26305389404297 69.28441619873047 C 71.26296234130859 69.28441619873047 71.26287841796875 69.28441619873047 71.26278686523438 69.28441619873047 C 71.25205230712891 69.28441619873047 71.24139404296875 69.28375244140625 71.23018646240234 69.28240203857422 C 71.16011810302734 69.27401733398438 71.08911895751953 69.26976013183594 71.01909637451172 69.26976013183594 C 70.52019500732422 69.26976013183594 70.04334259033203 69.48472595214844 69.71078491210938 69.85953521728516 C 69.37889862060547 70.23360443115234 69.22274017333984 70.73318481445312 69.28234100341797 71.23017883300781 C 69.29348754882812 71.32310485839844 69.25547790527344 71.38809204101562 69.22161865234375 71.42626190185547 C 69.173095703125 71.48094940185547 69.10523986816406 71.5123291015625 69.03543090820312 71.5123291015625 C 69.03537750244141 71.5123291015625 69.03532409667969 71.5123291015625 69.03527069091797 71.5123291015625 C 69.01809692382812 71.5123291015625 69.00099945068359 71.51055908203125 68.98300933837891 71.5069580078125 C 68.86857604980469 71.48401641845703 68.75188446044922 71.47238159179688 68.63616180419922 71.47238159179688 C 68.16338348388672 71.47238159179688 67.70339965820312 71.66908264160156 67.37413787841797 72.01206970214844 C 67.04122924804688 72.35885620117188 66.86872100830078 72.81479644775391 66.88837432861328 73.29590606689453 C 66.89199829101562 73.38459014892578 66.85305023193359 73.444580078125 66.81973266601562 73.47927856445312 C 66.77140045166016 73.52964019775391 66.70554351806641 73.55852508544922 66.63905334472656 73.55852508544922 C 66.61598205566406 73.55854034423828 66.5921630859375 73.55509185791016 66.56822967529297 73.54830169677734 C 66.41147613525391 73.50380706787109 66.25001525878906 73.48122406005859 66.08846282958984 73.48122406005859 C 65.14350891113281 73.48122406005859 64.3753662109375 74.22188568115234 64.33969879150391 75.16739654541016 C 64.33403015136719 75.31748199462891 64.20523071289062 75.41040802001953 64.08914184570312 75.41040802001953 C 64.06002044677734 75.41040802001953 64.0302734375 75.40486145019531 64.00075531005859 75.39391326904297 C 63.80407333374023 75.32101440429688 63.59905242919922 75.2840576171875 63.39133071899414 75.2840576171875 C 62.5029182434082 75.2840576171875 61.75519561767578 75.95002746582031 61.65206146240234 76.83314514160156 C 61.6351203918457 76.97821807861328 61.51042938232422 77.05649566650391 61.40170669555664 77.05649566650391 C 61.36637496948242 77.05649566650391 61.33094024658203 77.04839324951172 61.29638671875 77.03239440917969 C 61.06321716308594 76.92442321777344 60.8157844543457 76.86968231201172 60.56104278564453 76.86968231201172 C 59.72652053833008 76.86968231201172 59.0035514831543 77.46401214599609 58.84198379516602 78.28289031982422 C 58.81558609008789 78.41665649414062 58.69702911376953 78.48664855957031 58.59355163574219 78.48665618896484 C 58.55174255371094 78.48665618896484 58.51077270507812 78.47554779052734 58.47178649902344 78.45362854003906 C 58.20964050292969 78.3062744140625 57.9133186340332 78.22837066650391 57.61486434936523 78.22837066650391 C 56.8321533203125 78.22837066650391 56.13800811767578 78.75447082519531 55.92685317993164 79.50775146484375 C 55.89115142822266 79.63507843017578 55.7783203125 79.69208526611328 55.68234252929688 79.69209289550781 C 55.63359832763672 79.69209289550781 55.58718490600586 79.67755126953125 55.54439544677734 79.64885711669922 C 55.25439834594727 79.45443725585938 54.91773986816406 79.35169219970703 54.57078552246094 79.35169219970703 C 53.83831787109375 79.35169219970703 53.17677307128906 79.81317901611328 52.92459487915039 80.50004577636719 C 52.87978363037109 80.62209320068359 52.76798629760742 80.66541290283203 52.68586349487305 80.66542816162109 C 52.62981796264648 80.66542816162109 52.57812881469727 80.64702606201172 52.53224182128906 80.61074066162109 C 52.21955108642578 80.36342620849609 51.84446334838867 80.23269653320312 51.44755172729492 80.23269653320312 C 50.76411819458008 80.23269653320312 50.13850784301758 80.63349151611328 49.85374069213867 81.25376892089844 C 49.79115295410156 81.39009094238281 49.66116333007812 81.40069580078125 49.62280654907227 81.40069580078125 C 49.55894088745117 81.40070343017578 49.50211715698242 81.37803649902344 49.45391845703125 81.33333587646484 C 49.12886428833008 81.03191375732422 48.7064094543457 80.86591339111328 48.26437377929688 80.86591339111328 C 47.62906265258789 80.86591339111328 47.04233932495117 81.21011352539062 46.73318481445312 81.76420593261719 C 46.66815185546875 81.88076019287109 46.55678558349609 81.89334106445312 46.51192855834961 81.89334106445312 C 46.46231842041016 81.89334106445312 46.39020919799805 81.87924957275391 46.32836151123047 81.81214141845703 C 45.99766159057617 81.45326232910156 45.52846145629883 81.2474365234375 45.04106521606445 81.2474365234375 C 44.45317459106445 81.2474365234375 43.90782928466797 81.53932952880859 43.58225250244141 82.02822875976562 C 43.51723098754883 82.12586975097656 43.42275238037109 82.14044952392578 43.37223052978516 82.14044952392578 Z"/><path class="h" d="M 40.25069808959961 2.435966491699219 C 39.79407119750977 2.857437133789062 39.19164657592773 3.097816467285156 38.55420684814453 3.097816467285156 C 38.05805587768555 3.097816467285156 37.57518768310547 2.9486083984375 37.16769027709961 2.677391052246094 C 36.69989395141602 3.181922912597656 36.03635025024414 3.479331970214844 35.33090209960938 3.479331970214844 C 34.89958572387695 3.479331970214844 34.48142623901367 3.368850708007812 34.11176681518555 3.161766052246094 C 33.6432991027832 3.752616882324219 32.92147827148438 4.112556457519531 32.14774703979492 4.112556457519531 C 31.78723907470703 4.112556457519531 31.4304084777832 4.032920837402344 31.10446166992188 3.883132934570312 C 30.64633941650391 4.564308166503906 29.86833190917969 4.993553161621094 29.02449035644531 4.993553161621094 C 28.72798538208008 4.993553161621094 28.43690872192383 4.941192626953125 28.16230773925781 4.839828491210938 C 27.72597885131836 5.613029479980469 26.89558410644531 6.11688232421875 25.98043060302734 6.11688232421875 C 25.75202941894531 6.11688232421875 25.52458572387695 6.085052490234375 25.30519104003906 6.02325439453125 C 24.90293884277344 6.890815734863281 24.02349472045898 7.475570678710938 23.03421783447266 7.475570678710938 C 22.87015533447266 7.475570678710938 22.70832824707031 7.459739685058594 22.54959106445312 7.428260803222656 C 22.19379425048828 8.390289306640625 21.26975631713867 9.061187744140625 20.20394897460938 9.061187744140625 C 20.10653305053711 9.061187744140625 20.00956344604492 9.055519104003906 19.91336059570312 9.044242858886719 C 19.61747741699219 10.10121917724609 18.65322875976562 10.86400604248047 17.50680541992188 10.86400604248047 C 17.47486877441406 10.86400604248047 17.44292449951172 10.86338806152344 17.41102600097656 10.86215972900391 C 17.31965637207031 11.32513427734375 17.09805297851562 11.752685546875 16.76216888427734 12.10256958007812 C 16.31509399414062 12.56829833984375 15.69853973388672 12.84506225585938 15.05760192871094 12.87088775634766 C 14.99750518798828 13.37235260009766 14.786376953125 13.84923553466797 14.44550323486328 14.23345184326172 C 14.03668212890625 14.69422912597656 13.47475433349609 14.98579406738281 12.87115478515625 15.05790710449219 C 12.85004425048828 15.59560394287109 12.65538024902344 16.11569213867188 12.30613708496094 16.54193115234375 C 11.93461608886719 16.99536895751953 11.42507934570312 17.2982177734375 10.86273956298828 17.41008758544922 C 10.88499450683594 17.9649658203125 10.72119903564453 18.51380157470703 10.38575744628906 18.97548675537109 C 10.05039215087891 19.43706512451172 9.57916259765625 19.76240921020508 9.044723510742188 19.91275024414062 C 9.110336303710938 20.46403884887695 8.990104675292969 21.02391815185547 8.692008972167969 21.51037979125977 C 8.393890380859375 21.99684906005859 7.949630737304688 22.35816192626953 7.428619384765625 22.54998397827148 C 7.53729248046875 23.09442901611328 7.461349487304688 23.66200256347656 7.202339172363281 24.17035675048828 C 6.943313598632812 24.67871475219727 6.528762817382812 25.07377243041992 6.0244140625 25.30587768554688 C 6.175460815429688 25.84010696411133 6.144294738769531 26.41190338134766 5.925956726074219 26.93900299072266 C 5.707626342773438 27.46611022949219 5.325363159179688 27.89247512817383 4.840766906738281 28.16344451904297 C 5.033294677734375 28.6842155456543 5.04705810546875 29.25664901733398 4.870735168457031 29.79929733276367 C 4.694435119628906 30.34190368652344 4.346786499023438 30.79693984985352 3.884963989257812 31.10508346557617 C 4.117721557617188 31.60911178588867 4.176383972167969 32.17874908447266 4.043197631835938 32.7335090637207 C 3.910003662109375 33.28828430175781 3.599151611328125 33.76919555664062 3.162918090820312 34.11263656616211 C 3.43450927734375 34.59684753417969 3.537673950195312 35.16011047363281 3.448432922363281 35.72361373901367 C 3.359169006347656 36.28713989257812 3.08697509765625 36.79097747802734 2.679039001464844 37.16758346557617 C 2.987785339355469 37.62899780273438 3.134834289550781 38.18244934082031 3.090065002441406 38.75122833251953 C 3.045303344726562 39.32000732421875 2.813499450683594 39.84361267089844 2.436370849609375 40.25104904174805 C 2.780364990234375 40.68680953979492 2.970382690429688 41.22700881958008 2.970382690429688 41.79754257202148 C 2.970375061035156 42.36808776855469 2.780364990234375 42.90828323364258 2.436355590820312 43.34406280517578 C 2.813529968261719 43.75151443481445 3.045303344726562 44.27511978149414 3.090065002441406 44.84394454956055 C 3.134819030761719 45.41272354125977 2.98779296875 45.96614074707031 2.679039001464844 46.42755508422852 C 3.086967468261719 46.80413818359375 3.359138488769531 47.30794525146484 3.448394775390625 47.8714485168457 C 3.53765869140625 48.43497467041016 3.434486389160156 48.99826049804688 3.162879943847656 49.48249816894531 C 3.599143981933594 49.825927734375 3.909965515136719 50.30680084228516 4.043159484863281 50.86160278320312 C 4.176353454589844 51.41637802124023 4.117698669433594 51.98600769042969 3.884925842285156 52.49006652832031 C 4.34674072265625 52.79820251464844 4.69439697265625 53.25325012207031 4.870704650878906 53.79586029052734 C 5.047004699707031 54.33848571777344 5.033233642578125 54.91094207763672 4.840728759765625 55.43169403076172 C 5.325294494628906 55.70265197753906 5.70758056640625 56.12902450561523 5.925910949707031 56.65613174438477 C 6.144233703613281 57.1832389831543 6.1754150390625 57.75502014160156 6.024360656738281 58.28926086425781 C 6.52874755859375 58.52136993408203 6.943260192871094 58.91641998291016 7.202285766601562 59.42481231689453 C 7.461296081542969 59.93316650390625 7.5372314453125 60.50072479248047 7.428558349609375 61.045166015625 C 7.949592590332031 61.23697662353516 8.393814086914062 61.59828186035156 8.691940307617188 62.08477783203125 C 8.990036010742188 62.57123947143555 9.110275268554688 63.1310920715332 9.044654846191406 63.68239212036133 C 9.579086303710938 63.83273315429688 10.05031585693359 64.15806579589844 10.38566589355469 64.61963653564453 C 10.72111511230469 65.08132934570312 10.88491821289062 65.63018798828125 10.86266326904297 66.18508911132812 C 11.42499542236328 66.29695892333984 11.93451690673828 66.59981536865234 12.30604553222656 67.05325317382812 C 12.65529632568359 67.4794921875 12.84996795654297 67.99957275390625 12.87106323242188 68.53726959228516 C 13.47463989257812 68.60939025878906 14.03656005859375 68.90095520019531 14.44538116455078 69.36174011230469 C 14.78628540039062 69.74596405029297 14.99742126464844 70.22282409667969 15.05751800537109 70.72430419921875 C 15.69843292236328 70.75012969970703 16.31497192382812 71.02690887451172 16.76206970214844 71.49265289306641 C 17.09795379638672 71.84254455566406 17.31956481933594 72.27005767822266 17.41093444824219 72.73303985595703 C 17.44284057617188 72.7318115234375 17.47476959228516 72.73119354248047 17.5067138671875 72.73119354248047 C 18.65315246582031 72.73119354248047 19.61740112304688 73.49397277832031 19.91326904296875 74.55095672607422 C 20.00946807861328 74.5396728515625 20.1064338684082 74.53400421142578 20.20384216308594 74.53400421142578 C 21.26967239379883 74.53400421142578 22.19371795654297 75.20491790771484 22.54950332641602 76.16693878173828 C 22.70822525024414 76.13547515869141 22.87008285522461 76.11963653564453 23.03412628173828 76.11963653564453 C 24.02335357666016 76.11963653564453 24.90278625488281 76.70436859130859 25.30506896972656 77.57194519042969 C 25.52447509765625 77.5101318359375 25.75188446044922 77.47830963134766 25.98030090332031 77.47830963134766 C 26.89544677734375 77.47830963134766 27.72584915161133 77.982177734375 28.16219329833984 78.75538635253906 C 28.43679046630859 78.65402221679688 28.72786712646484 78.60166168212891 29.02437210083008 78.60166168212891 C 29.86823654174805 78.60166168212891 30.64624404907227 79.03091430664062 31.10435104370117 79.71208953857422 C 31.43029022216797 79.56230926513672 31.78711700439453 79.48267364501953 32.14761734008789 79.48267364501953 C 32.92127227783203 79.48267364501953 33.64314651489258 79.84268188476562 34.11163330078125 80.43346405029297 C 34.48125076293945 80.22640228271484 34.89944839477539 80.11590576171875 35.33077239990234 80.11590576171875 C 36.03622055053711 80.11590576171875 36.69976806640625 80.41332244873047 37.16757202148438 80.91786193847656 C 37.57505035400391 80.64666748046875 38.05795669555664 80.49742889404297 38.55410003662109 80.49742889404297 C 39.1915397644043 80.49742889404297 39.79396057128906 80.73780822753906 40.25057601928711 81.15927886962891 C 40.68643569946289 80.81501770019531 41.22680282592773 80.62487030029297 41.79757308959961 80.62487030029297 C 42.36833953857422 80.62487030029297 42.9087028503418 80.81501007080078 43.34458160400391 81.15928649902344 C 43.80120086669922 80.73783111572266 44.40364456176758 80.4974365234375 45.04106521606445 80.4974365234375 C 45.53721618652344 80.4974365234375 46.02008438110352 80.64665222167969 46.42757415771484 80.91785430908203 C 46.8953742980957 80.413330078125 47.55892562866211 80.11592102050781 48.26436996459961 80.11592102050781 C 48.6956787109375 80.11592102050781 49.11384963989258 80.22640991210938 49.48351287841797 80.43350219726562 C 49.95198059082031 79.8426513671875 50.6738166809082 79.48269653320312 51.44754791259766 79.48269653320312 C 51.80806732177734 79.48269653320312 52.16487884521484 79.56233215332031 52.49081420898438 79.71212005615234 C 52.94893646240234 79.03093719482422 53.72695159912109 78.6016845703125 54.57078552246094 78.6016845703125 C 54.8673095703125 78.6016845703125 55.15838241577148 78.65404510498047 55.4329833984375 78.75540924072266 C 55.86931610107422 77.98220825195312 56.69971084594727 77.47837066650391 57.6148681640625 77.47837066650391 C 57.84326934814453 77.47837066650391 58.07068634033203 77.51019287109375 58.29007339477539 77.57199096679688 C 58.69234848022461 76.70446014404297 59.57181549072266 76.11967468261719 60.56104278564453 76.11967468261719 C 60.72509765625 76.11967468261719 60.88694763183594 76.13551330566406 61.04568481445312 76.16697692871094 C 61.40148544311523 75.20497131347656 62.32551574707031 74.5340576171875 63.39132690429688 74.5340576171875 C 63.48874282836914 74.5340576171875 63.58568954467773 74.53972625732422 63.6818962097168 74.55101013183594 C 63.977783203125 73.49403381347656 64.94204711914062 72.73122406005859 66.08847045898438 72.73122406005859 C 66.12039947509766 72.73122406005859 66.15234375 72.73184204101562 66.18424224853516 72.73307037353516 C 66.27561950683594 72.27009582519531 66.49723815917969 71.84253692626953 66.83311462402344 71.49266052246094 C 67.28019714355469 71.02694702148438 67.896728515625 70.75017547607422 68.53765869140625 70.72434997558594 C 68.59774780273438 70.22289276123047 68.80888366699219 69.74599456787109 69.14975738525391 69.36179351806641 C 69.55857849121094 68.9010009765625 70.12051391601562 68.60943603515625 70.72412109375 68.53732299804688 C 70.74522399902344 67.99961090087891 70.93989562988281 67.47948455810547 71.28913879394531 67.05326080322266 C 71.66062927246094 66.59988403320312 72.17023468017578 66.29701995849609 72.73252105712891 66.18513488769531 C 72.71026611328125 65.63026428222656 72.87405395507812 65.08145141601562 73.20948028564453 64.61976623535156 C 73.54482269287109 64.15818786621094 74.01607513427734 63.83283233642578 74.550537109375 63.68247222900391 C 74.48490905761719 63.13117980957031 74.60514831542969 62.57131958007812 74.90324401855469 62.0848503112793 C 75.20134735107422 61.59837341308594 75.64561462402344 61.23705291748047 76.16663360595703 61.04523086547852 C 76.05796813964844 60.50078964233398 76.1339111328125 59.93320083618164 76.39292144775391 59.42485046386719 C 76.65195465087891 58.91649627685547 77.06649780273438 58.52144622802734 77.57084655761719 58.28934478759766 C 77.41976165771484 57.75506591796875 77.45095062255859 57.18331146240234 77.6693115234375 56.65616607666016 C 77.88764953613281 56.12905883789062 78.26992034912109 55.70270538330078 78.75449371337891 55.43175506591797 C 78.56200408935547 54.91101837158203 78.5482177734375 54.33854675292969 78.72451019287109 53.79594421386719 C 78.90082550048828 53.25333023071289 79.24846649169922 52.79829406738281 79.71029663085938 52.49014663696289 C 79.4775390625 51.98611450195312 79.41886901855469 51.41648864746094 79.55205535888672 50.86172103881836 C 79.68524169921875 50.30693817138672 79.99610900878906 49.82601928710938 80.43235015869141 49.48257827758789 C 80.16075134277344 48.99837112426758 80.05757904052734 48.43510818481445 80.14682769775391 47.87160110473633 C 80.23607635498047 47.30807113647461 80.50824737548828 46.80424499511719 80.91619110107422 46.42763519287109 C 80.60746002197266 45.96622848510742 80.46040344238281 45.41278076171875 80.50515747070312 44.84400177001953 C 80.5499267578125 44.27522277832031 80.78173828125 43.7515983581543 81.15887451171875 43.34415054321289 C 80.81482696533203 42.90835952758789 80.62485504150391 42.36820602416992 80.62486267089844 41.79762649536133 C 80.6248779296875 41.22709274291992 80.81487274169922 40.68691635131836 81.15887451171875 40.25115203857422 C 80.78175354003906 39.84371566772461 80.54993438720703 39.3200798034668 80.50517272949219 38.75130844116211 C 80.46041870117188 38.18252944946289 80.60746765136719 37.62908172607422 80.91621398925781 37.16766738891602 C 80.50828552246094 36.79108047485352 80.23611450195312 36.28727340698242 80.1468505859375 35.7237663269043 C 80.05759429931641 35.16024398803711 80.16075897216797 34.59697341918945 80.43235778808594 34.11273574829102 C 79.99608612060547 33.76930999755859 79.68526458740234 33.2884407043457 79.55206298828125 32.73362731933594 C 79.41887664794922 32.17884063720703 79.47752380371094 31.60921478271484 79.71029663085938 31.10516357421875 C 79.24848937988281 30.79703140258789 78.90084838867188 30.34200668334961 78.72453308105469 29.79940414428711 C 78.54822540283203 29.25679016113281 78.56200408935547 28.68430328369141 78.75450897216797 28.16353225708008 C 78.26988983154297 27.89257431030273 77.88767242431641 27.46623992919922 77.66932678222656 26.9390983581543 C 77.45098876953125 26.41197967529297 77.41981506347656 25.84020233154297 77.57086944580078 25.30596160888672 C 77.06654357910156 25.0738639831543 76.65198516845703 24.67880630493164 76.39297485351562 24.17046356201172 C 76.13394927978516 23.662109375 76.05800628662109 23.09452438354492 76.16667175292969 22.55006408691406 C 75.6456298828125 22.3582649230957 75.20143127441406 21.99697875976562 74.90330505371094 21.5104866027832 C 74.60519409179688 21.02401733398438 74.48495483398438 20.46413803100586 74.55057525634766 19.91283416748047 C 74.01608276367188 19.76250457763672 73.54489898681641 19.43717193603516 73.20951080322266 18.97555541992188 C 72.87406921386719 18.51386260986328 72.71027374267578 17.96504211425781 72.7325439453125 17.41014862060547 C 72.17025756835938 17.29825592041016 71.66066741943359 16.99539184570312 71.28916931152344 16.5419921875 C 70.93991851806641 16.11574554443359 70.74525451660156 15.59568023681641 70.72415161132812 15.05797576904297 C 70.12055969238281 14.98585510253906 69.55860900878906 14.69427490234375 69.1497802734375 14.23348236083984 C 68.80889892578125 13.84925842285156 68.5977783203125 13.37240600585938 68.53768157958984 12.87093353271484 C 67.89676666259766 12.84510803222656 67.28024291992188 12.56832885742188 66.83314514160156 12.10259246826172 C 66.49726104736328 11.75270080566406 66.27565002441406 11.32518768310547 66.18428039550781 10.86220550537109 C 66.15237426757812 10.86343383789062 66.12043762207031 10.86405181884766 66.0885009765625 10.86405181884766 C 64.94206237792969 10.86405181884766 63.97782135009766 10.10128021240234 63.68195343017578 9.044288635253906 C 63.58573150634766 9.055572509765625 63.48878860473633 9.061241149902344 63.391357421875 9.061241149902344 C 62.32553100585938 9.061241149902344 61.4014892578125 8.39031982421875 61.04570007324219 7.428298950195312 C 60.88697052001953 7.459770202636719 60.72512817382812 7.475601196289062 60.56107711791992 7.475601196289062 C 59.57184982299805 7.475601196289062 58.69239807128906 6.890830993652344 58.29012298583984 6.023277282714844 C 58.07071685791016 6.0850830078125 57.84330749511719 6.116905212402344 57.61489105224609 6.116905212402344 C 56.69973754882812 6.116905212402344 55.86933135986328 5.613052368164062 55.43300247192383 4.839859008789062 C 55.15840911865234 4.94122314453125 54.86734771728516 4.993576049804688 54.57084274291992 4.993576049804688 C 53.72701644897461 4.993576049804688 52.94901275634766 4.564346313476562 52.49087142944336 3.883148193359375 C 52.16490936279297 4.032958984375 51.80810546875 4.112579345703125 51.44757080078125 4.112579345703125 C 50.67391967773438 4.112579345703125 49.95204925537109 3.7525634765625 49.48355865478516 3.161781311035156 C 49.11392211914062 3.368865966796875 48.69575881958008 3.479347229003906 48.26441955566406 3.479347229003906 C 47.5589599609375 3.479347229003906 46.89541244506836 3.181930541992188 46.42761993408203 2.677398681640625 C 46.02013778686523 2.948593139648438 45.5372428894043 3.097824096679688 45.04109954833984 3.097824096679688 C 44.40367889404297 3.097824096679688 43.80126190185547 2.857460021972656 43.34463882446289 2.435997009277344 C 42.90879058837891 2.78021240234375 42.36841583251953 2.970352172851562 41.79767608642578 2.970352172851562 C 41.22689819335938 2.970352172851562 40.68655776977539 2.780235290527344 40.25069808959961 2.435966491699219 M 40.22303009033203 0.704803466796875 C 40.51544570922852 0.704803466796875 40.80860900878906 0.8311843872070312 41.01008987426758 1.087577819824219 L 41.01010131835938 1.087600708007812 C 41.41115570068359 1.597969055175781 42.18426132202148 1.597953796386719 42.58527755737305 1.087577819824219 L 42.58522033691406 1.087646484375 C 43.00647735595703 0.5515365600585938 43.82861709594727 0.583831787109375 44.20653533935547 1.151329040527344 C 44.5662956237793 1.691566467285156 45.33700180053711 1.752220153808594 45.77682876586914 1.274909973144531 L 45.77685546875 1.274887084960938 C 46.23888778686523 0.7735061645507812 47.05594253540039 0.8702011108398438 47.38816070556641 1.465606689453125 L 47.3881721496582 1.465614318847656 C 47.70442962646484 2.032424926757812 48.46800994873047 2.153358459472656 48.94393539428711 1.7120361328125 L 48.94398498535156 1.711990356445312 C 49.44390106201172 1.2484130859375 50.25086212158203 1.408905029296875 50.53533554077148 2.028533935546875 L 50.53537368774414 2.028594970703125 C 50.80619430541992 2.618476867675781 51.55791473388672 2.798942565917969 52.06700897216797 2.396293640136719 L 52.06704330444336 2.396270751953125 C 52.6018180847168 1.97332763671875 53.39369201660156 2.196662902832031 53.62866592407227 2.836700439453125 L 53.62868881225586 2.83673095703125 C 53.85239410400391 3.446044921875 54.587646484375 3.684928894042969 55.12674713134766 3.323486328125 L 55.12677001953125 3.323471069335938 C 55.69307708740234 2.943778991699219 56.46498489379883 3.228569030761719 56.64903259277344 3.885063171386719 L 56.64904022216797 3.885093688964844 C 56.82424163818359 4.51007080078125 57.53848648071289 4.805877685546875 58.10430145263672 4.487876892089844 L 58.10432434082031 4.487861633300781 C 58.69867706298828 4.153778076171875 59.44585418701172 4.498237609863281 59.57783126831055 5.167144775390625 L 59.57784271240234 5.167205810546875 C 59.70347595214844 5.803993225097656 60.39229583740234 6.154960632324219 60.98131561279297 5.882308959960938 L 60.98134613037109 5.882293701171875 C 61.60008239746094 5.59588623046875 62.31793975830078 5.997894287109375 62.39701843261719 6.675094604492188 L 62.39701843261719 6.675132751464844 C 62.4723014831543 7.31982421875 63.13145446777344 7.7237548828125 63.74006652832031 7.498153686523438 L 63.7401123046875 7.498130798339844 C 64.37940216064453 7.26116943359375 65.06349945068359 7.718246459960938 65.08920288085938 8.399566650390625 L 65.08920288085938 8.399627685546875 C 65.11366271972656 9.048225402832031 65.73911285400391 9.50262451171875 66.36354064941406 9.325469970703125 L 66.36357116699219 9.325462341308594 C 67.01948547363281 9.13934326171875 67.66561889648438 9.648727416992188 67.63778686523438 10.32997131347656 L 67.63778686523438 10.33000183105469 C 67.61128234863281 10.97853088378906 68.19914245605469 11.48065185546875 68.83554840087891 11.35298919677734 L 68.83555603027344 11.35298919677734 C 69.50405120849609 11.21894836425781 70.10823059082031 11.77743530273438 70.02703094482422 12.45437622070312 L 70.02701568603516 12.45441436767578 C 69.94972229003906 13.09886932373047 70.49637603759766 13.64556121826172 71.14083099365234 13.56821441650391 L 71.14089965820312 13.56821441650391 C 71.81786346435547 13.48693084716797 72.37633514404297 14.09120178222656 72.24227905273438 14.75968170166016 L 72.24227905273438 14.75971984863281 C 72.11463928222656 15.3961181640625 72.61676788330078 15.98358917236328 73.26525115966797 15.95748901367188 L 73.26528930664062 15.95748901367188 C 73.94651794433594 15.92943572998047 74.45588684082031 16.57578277587891 74.26978302001953 17.23171234130859 L 74.26978302001953 17.23171997070312 C 74.09260559082031 17.85614776611328 74.54701995849609 18.48160552978516 75.19563293457031 18.50606536865234 L 75.1956787109375 18.50606536865234 C 75.87699890136719 18.53176879882812 76.33409881591797 19.21585845947266 76.09712219238281 19.85515594482422 L 76.09709930419922 19.85520172119141 C 75.87149810791016 20.46380233764648 76.27542877197266 21.12296676635742 76.92011260986328 21.19824981689453 L 76.92015838623047 21.19824981689453 C 77.59735870361328 21.2773323059082 77.99938201904297 21.99517822265625 77.71297454833984 22.61391067504883 L 77.71295928955078 22.61395645141602 C 77.44029998779297 23.20296859741211 77.79126739501953 23.89179229736328 78.42806243896484 24.01742553710938 L 78.42811584472656 24.01743698120117 C 79.09701538085938 24.1494026184082 79.44146728515625 24.89659118652344 79.10740661621094 25.49093246459961 L 79.10736846923828 25.490966796875 C 78.78934478759766 26.05677795410156 79.08518218994141 26.77101516723633 79.71015930175781 26.94622802734375 L 79.71019744873047 26.94623947143555 C 80.36669158935547 27.13027191162109 80.65145111083984 27.90217971801758 80.27178192138672 28.46847534179688 L 80.27175140380859 28.46853256225586 C 79.91031646728516 29.00764846801758 80.14921569824219 29.74289703369141 80.75851440429688 29.96659088134766 L 80.758544921875 29.96660232543945 C 81.39858245849609 30.20159149169922 81.62191009521484 30.99347305297852 81.19895935058594 31.52823638916016 L 81.19895172119141 31.52825164794922 C 80.79631042480469 32.03735733032227 80.97678375244141 32.78908538818359 81.566650390625 33.05989837646484 L 81.56671142578125 33.05993270874023 C 82.18634033203125 33.34440231323242 82.34683990478516 34.1513557434082 81.88325500488281 34.65128707885742 L 81.88321685791016 34.65132141113281 C 81.44188690185547 35.12726211547852 81.56282806396484 35.89083862304688 82.129638671875 36.20709609985352 L 82.12966918945312 36.20710754394531 C 82.72505187988281 36.53931045532227 82.82176208496094 37.35636901855469 82.32038116455078 37.81840133666992 L 82.32032775878906 37.81843948364258 C 81.843017578125 38.25828552246094 81.90367889404297 39.02898025512695 82.44392395019531 39.38874435424805 L 82.44394683837891 39.38876724243164 C 83.01144409179688 39.76666259765625 83.04374694824219 40.58877944946289 82.50765228271484 41.01005172729492 L 82.50762176513672 41.01007461547852 C 81.99726867675781 41.41110992431641 81.99727630615234 42.1841926574707 82.50762939453125 42.58523941040039 L 82.50765228271484 42.58525085449219 C 83.04373931884766 43.00650787353516 83.01144409179688 43.8286247253418 82.44394683837891 44.2065315246582 L 82.44391632080078 44.20656585693359 C 81.90366363525391 44.56632232666016 81.843017578125 45.3370246887207 82.32032775878906 45.77686309814453 L 82.32035827636719 45.77688598632812 C 82.82174682617188 46.23891067504883 82.72504425048828 47.05598068237305 82.12965393066406 47.38817977905273 L 82.12961578369141 47.38820266723633 C 81.56282043457031 47.70446014404297 81.44186401367188 48.46803665161133 81.88320922851562 48.94396591186523 L 81.88323974609375 48.94400405883789 C 82.34683990478516 49.44394302368164 82.18632507324219 50.25089645385742 81.56671142578125 50.53536605834961 L 81.56666564941406 50.53539276123047 C 80.97678375244141 50.80621337890625 80.79631042480469 51.55794525146484 81.19895172119141 52.06703948974609 L 81.198974609375 52.06706237792969 C 81.62191009521484 52.60182571411133 81.39858245849609 53.39370727539062 80.758544921875 53.62869644165039 L 80.75849914550781 53.62870788574219 C 80.14920806884766 53.8524169921875 79.91031646728516 54.58765029907227 80.27175903320312 55.12677001953125 L 80.27177429199219 55.12679290771484 C 80.65144348144531 55.69309616088867 80.36666870117188 56.46500396728516 79.71017456054688 56.6490478515625 L 79.71015167236328 56.64906311035156 C 79.08515930175781 56.82426452636719 78.78932189941406 57.53849792480469 79.10734558105469 58.10430908203125 L 79.10738372802734 58.1043701171875 C 79.44145202636719 58.69872283935547 79.09698486328125 59.44589614868164 78.42809295654297 59.57786178588867 L 78.42803955078125 59.57787322998047 C 77.79124450683594 59.70349884033203 77.44026947021484 60.39231872558594 77.71292114257812 60.98134613037109 L 77.71295166015625 60.98139190673828 C 77.99935913085938 61.60012054443359 77.59732818603516 62.31797027587891 76.92012786865234 62.39703750610352 L 76.92010498046875 62.39704895019531 C 76.27540588378906 62.47232055664062 75.87145233154297 63.13148498535156 76.09707641601562 63.74008560180664 L 76.09709167480469 63.74013519287109 C 76.33406829833984 64.37942504882812 75.87696838378906 65.06352233886719 75.19564056396484 65.08921813964844 L 75.19561767578125 65.08922576904297 C 74.54700469970703 65.11369323730469 74.09259796142578 65.7391357421875 74.26976013183594 66.36355590820312 L 74.269775390625 66.36360168457031 C 74.45586395263672 67.01950836181641 73.94650268554688 67.66561889648438 73.26527404785156 67.63780212402344 L 73.26520538330078 67.63780212402344 C 72.61670684814453 67.61132049560547 72.11461639404297 68.19916534423828 72.24224090576172 68.8355712890625 L 72.24224090576172 68.83559417724609 C 72.37631225585938 69.50409698486328 71.81780242919922 70.10826110839844 71.14085388183594 70.02706146240234 L 71.14081573486328 70.02706146240234 C 70.49638366699219 69.94976806640625 69.94971466064453 70.49641418457031 70.02700805664062 71.14086151123047 L 70.02701568603516 71.14093017578125 C 70.10821533203125 71.81787109375 69.5040283203125 72.37636566162109 68.83554077148438 72.2423095703125 L 68.83552551269531 72.2423095703125 C 68.19911956787109 72.11466979980469 67.61125183105469 72.61675262451172 67.63774871826172 73.26528930664062 L 67.63774871826172 73.26531982421875 C 67.66558074951172 73.94654083251953 67.01943969726562 74.45592498779297 66.36354064941406 74.26981353759766 L 66.36348724365234 74.26980590820312 C 65.73908233642578 74.09263610839844 65.11363220214844 74.54705047607422 65.08915710449219 75.19566345214844 L 65.08915710449219 75.19572448730469 C 65.06346893310547 75.87703704833984 64.37935638427734 76.33412933349609 63.74006652832031 76.09715270996094 L 63.74004364013672 76.09714508056641 C 63.13144683837891 75.87153625488281 62.47227478027344 76.27545928955078 62.39699554443359 76.92014312744141 L 62.3969841003418 76.92018890380859 C 62.31791687011719 77.59740447998047 61.60004425048828 77.99942016601562 60.98131561279297 77.71298980712891 L 60.98128890991211 77.71298217773438 C 60.39228057861328 77.44031524658203 59.70344161987305 77.79127502441406 59.57779693603516 78.42807006835938 L 59.57778167724609 78.42814636230469 C 59.44580841064453 79.0970458984375 58.69863128662109 79.44149780273438 58.10429000854492 79.10741424560547 L 58.10426330566406 79.10740661621094 C 57.53844451904297 78.78936767578125 56.8242073059082 79.08521270751953 56.64900970458984 79.71018981933594 L 56.64899444580078 79.71021270751953 C 56.46494293212891 80.36670684814453 55.69303894042969 80.65148162841797 55.12673568725586 80.27180480957031 L 55.12671279907227 80.27178955078125 C 54.58759307861328 79.91033172607422 53.85234832763672 80.14922332763672 53.62864303588867 80.75852966308594 L 53.62861633300781 80.75858306884766 C 53.39363098144531 81.39859771728516 52.60176467895508 81.62193298339844 52.06699371337891 81.19898986816406 L 52.06698608398438 81.19896697998047 C 51.55789184570312 80.79634857177734 50.80614471435547 80.97681427001953 50.53533554077148 81.56668853759766 L 50.53531265258789 81.56673431396484 C 50.25084686279297 82.18635559082031 49.44388961791992 82.34687805175781 48.94394683837891 81.88327026367188 L 48.94388961791992 81.88322448730469 C 48.46796035766602 81.44189453125 47.70438385009766 81.56283569335938 47.38812637329102 82.129638671875 L 47.38811111450195 82.12967681884766 C 47.05590057373047 82.72505187988281 46.23884201049805 82.82175445556641 45.77681732177734 82.32036590576172 L 45.77680587768555 82.32035827636719 C 45.33695220947266 81.84303283691406 44.56626510620117 81.90370178222656 44.20650100708008 82.44393157958984 L 44.20646667480469 82.44397735595703 C 43.82857131958008 83.01145935058594 43.00645065307617 83.04375457763672 42.5851936340332 82.50768280029297 L 42.58514785766602 82.50762939453125 C 42.18409729003906 81.99729156494141 41.41103363037109 81.99728393554688 41.01000595092773 82.50763702392578 L 41.00997161865234 82.50767517089844 C 40.58871078491211 83.04375457763672 39.76660537719727 83.01145935058594 39.38869094848633 82.44397735595703 L 39.38866424560547 82.44392395019531 C 39.02890396118164 81.90370178222656 38.25821304321289 81.84302520751953 37.8183708190918 82.32034301757812 L 37.81833648681641 82.32038116455078 C 37.35631561279297 82.82176971435547 36.53926467895508 82.72505950927734 36.2070426940918 82.12967681884766 L 36.20700836181641 82.12962341308594 C 35.89074325561523 81.56281280517578 35.12716674804688 81.44187927246094 34.65124130249023 81.88322448730469 L 34.65121841430664 81.88323974609375 C 34.15127182006836 82.34683227539062 33.34432601928711 82.18631744384766 33.05985260009766 81.56669616699219 L 33.05982971191406 81.56666564941406 C 32.78901290893555 80.97679138183594 32.03728485107422 80.79630279541016 31.52818298339844 81.19895935058594 L 31.52817153930664 81.19896697998047 C 30.99339294433594 81.62191009521484 30.20151901245117 81.39857482910156 29.96653747558594 80.758544921875 L 29.96652603149414 80.75850677490234 C 29.74282836914062 80.14920043945312 29.007568359375 79.91030883789062 28.46845245361328 80.27175903320312 L 28.46842956542969 80.27178192138672 C 27.90212249755859 80.65145874023438 27.13021850585938 80.36668395996094 26.94617080688477 79.71018981933594 L 26.94615936279297 79.71012878417969 C 26.77094650268555 79.08515167236328 26.05669784545898 78.789306640625 25.49090194702148 79.10734558105469 L 25.49086761474609 79.10735321044922 C 24.89653396606445 79.44143676757812 24.14933776855469 79.09698486328125 24.01737213134766 78.42807006835938 L 24.01736068725586 78.42803955078125 C 23.8917236328125 77.79123687744141 23.20292282104492 77.44026947021484 22.61388778686523 77.71293640136719 L 22.61384201049805 77.71295928955078 C 21.99513244628906 77.99935150146484 21.27726745605469 77.59733581542969 21.19818496704102 76.92013549804688 L 21.19818496704102 76.92010498046875 C 21.12290191650391 76.27541351318359 20.46372604370117 75.87147521972656 19.85513687133789 76.09708404541016 L 19.8551139831543 76.09708404541016 C 19.21578979492188 76.33407592773438 18.53171539306641 75.87697601318359 18.50600433349609 75.19564819335938 L 18.50600433349609 75.19562530517578 C 18.48154449462891 74.54701232910156 17.85610198974609 74.09260559082031 17.23167419433594 74.26976776123047 L 17.23164367675781 74.269775390625 C 16.57571411132812 74.45587158203125 15.92959594726562 73.94651031494141 15.95742797851562 73.26527404785156 L 15.95742797851562 73.26523590087891 C 15.98393249511719 72.61671447753906 15.3961181640625 72.11463165283203 14.75967407226562 72.24224853515625 L 14.75962829589844 72.24226379394531 C 14.09117889404297 72.37631225585938 13.48697662353516 71.81782531738281 13.56816864013672 71.14087677001953 L 13.56816864013672 71.14082336425781 C 13.64546966552734 70.49637603759766 13.09877014160156 69.94972991943359 12.45436859130859 70.02702331542969 L 12.45432281494141 70.02702331542969 C 11.77740478515625 70.10821533203125 11.21887969970703 69.50404357910156 11.35293579101562 68.83555603027344 L 11.35295104980469 68.83551788330078 C 11.48057556152344 68.19911193847656 10.97841644287109 67.61122894287109 10.32996368408203 67.63775634765625 L 10.32993316650391 67.63775634765625 C 9.648872375488281 67.66554260253906 9.139320373535156 67.01947784423828 9.325416564941406 66.36354064941406 L 9.325439453125 66.36348724365234 C 9.502593994140625 65.73905944824219 9.048187255859375 65.11361694335938 8.399574279785156 65.08915710449219 L 8.399551391601562 65.08915710449219 C 7.718231201171875 65.06346130371094 7.261123657226562 64.37935638427734 7.498115539550781 63.74006271362305 L 7.498123168945312 63.74002838134766 C 7.723724365234375 63.13143920898438 7.319793701171875 62.47227478027344 6.67510986328125 62.39698028564453 L 6.675056457519531 62.39696502685547 C 5.997856140136719 62.31789779663086 5.595840454101562 61.60003662109375 5.882255554199219 60.98130798339844 L 5.88226318359375 60.98128509521484 C 6.154937744140625 60.39226150512695 5.803970336914062 59.70343780517578 5.16717529296875 59.57778930664062 L 5.1671142578125 59.57778930664062 C 4.498207092285156 59.44581604003906 4.153762817382812 58.69862365722656 4.487831115722656 58.10428619384766 L 4.487838745117188 58.10426330566406 C 4.805892944335938 57.53843688964844 4.510040283203125 56.82420349121094 3.885063171386719 56.64899063110352 L 3.885040283203125 56.64899063110352 C 3.228546142578125 56.46494293212891 2.943771362304688 55.69303894042969 3.323455810546875 55.12673187255859 L 3.323463439941406 55.126708984375 C 3.684913635253906 54.58760070800781 3.446022033691406 53.85234451293945 2.836723327636719 53.6286506652832 L 2.836662292480469 53.62862396240234 C 2.196640014648438 53.39363861083984 1.973312377929688 52.60176849365234 2.396255493164062 52.06700134277344 L 2.396286010742188 52.06696701049805 C 2.798912048339844 51.557861328125 2.618438720703125 50.80614471435547 2.028572082519531 50.53532028198242 L 2.028526306152344 50.53529739379883 C 1.408905029296875 50.25082778930664 1.248397827148438 49.44388580322266 1.711982727050781 48.94394302368164 L 1.712028503417969 48.94388580322266 C 2.153358459472656 48.46795654296875 2.032417297363281 47.70438003540039 1.465606689453125 47.38811874389648 L 1.465583801269531 47.38810729980469 C 0.8701934814453125 47.0558967590332 0.7734909057617188 46.23883819580078 1.274879455566406 45.77681350708008 L 1.27490234375 45.77679061889648 C 1.752220153808594 45.33695602416992 1.691558837890625 44.56624984741211 1.151321411132812 44.20648574829102 L 1.151275634765625 44.20646286010742 C 0.5837936401367188 43.82855606079102 0.5514907836914062 43.00642776489258 1.087570190429688 42.58516693115234 L 1.087615966796875 42.58513259887695 C 1.597969055175781 42.18409729003906 1.597969055175781 41.41101455688477 1.087615966796875 41.00997924804688 L 1.087593078613281 41.00995635986328 C 0.5514984130859375 40.58869552612305 0.5838088989257812 39.76656723022461 1.151298522949219 39.3886604309082 L 1.151313781738281 39.3886604309082 C 1.691558837890625 39.02889633178711 1.752220153808594 38.2581901550293 1.27490234375 37.81834411621094 L 1.274879455566406 37.81832122802734 C 0.77349853515625 37.35630798339844 0.8701934814453125 36.53924942016602 1.465583801269531 36.20702743530273 L 1.465644836425781 36.20700454711914 C 2.032440185546875 35.89073181152344 2.15338134765625 35.12716674804688 1.712043762207031 34.65122604370117 L 1.712020874023438 34.65120315551758 C 1.248428344726562 34.15126037597656 1.408935546875 33.34432220458984 2.028556823730469 33.05984878540039 L 2.028594970703125 33.0598258972168 C 2.618476867675781 32.78900146484375 2.798934936523438 32.03727340698242 2.396316528320312 31.52817916870117 L 2.396286010742188 31.52815628051758 C 1.973358154296875 30.99339294433594 2.196685791015625 30.20151901245117 2.836715698242188 29.96653366088867 L 2.836746215820312 29.96652221679688 C 3.446052551269531 29.74281311035156 3.684951782226562 29.007568359375 3.323509216308594 28.46844863891602 L 3.323486328125 28.46841430664062 C 2.943809509277344 27.90210723876953 3.228584289550781 27.13020324707031 3.885078430175781 26.9461669921875 L 3.885116577148438 26.9461555480957 C 4.510086059570312 26.77094268798828 4.805938720703125 26.05670928955078 4.487899780273438 25.49089813232422 L 4.487876892089844 25.49084854125977 C 4.153816223144531 24.89650726318359 4.498268127441406 24.14932250976562 5.167182922363281 24.01735687255859 L 5.167221069335938 24.0173454284668 C 5.80401611328125 23.89171981811523 6.154998779296875 23.20289611816406 5.88232421875 22.61387252807617 L 5.882316589355469 22.61383819580078 C 5.595901489257812 21.99510955810547 5.9979248046875 21.27724838256836 6.675125122070312 21.19818115234375 L 6.675163269042969 21.19816589355469 C 7.319854736328125 21.12289810180664 7.723793029785156 20.4637336730957 7.498184204101562 19.85513305664062 L 7.4981689453125 19.85508346557617 C 7.261184692382812 19.21578979492188 7.718292236328125 18.53170013427734 8.399604797363281 18.50598907470703 L 8.399650573730469 18.50598907470703 C 9.048255920410156 18.48152923583984 9.502662658691406 17.85608673095703 9.32550048828125 17.23165893554688 L 9.32550048828125 17.23162841796875 C 9.139419555664062 16.57571411132812 9.6485595703125 15.92983245849609 10.33000946044922 15.95741271972656 L 10.33003997802734 15.95741271972656 C 10.97906494140625 15.98412322998047 11.48065185546875 15.39605712890625 11.35302734375 14.75965881347656 L 11.35302734375 14.75961303710938 C 11.21897125244141 14.09112548828125 11.77735900878906 13.48693084716797 12.45440673828125 13.56815338134766 L 12.45444488525391 13.56815338134766 C 13.09884643554688 13.64550018310547 13.64555358886719 13.09880828857422 13.56825256347656 12.45435333251953 L 13.56825256347656 12.45430755615234 C 13.48705291748047 11.77736663818359 14.09120941162109 11.21889495849609 14.75972747802734 11.35293579101562 L 14.75975036621094 11.35294342041016 C 15.39611053466797 11.48049926757812 15.98401641845703 10.97850036621094 15.95751190185547 10.3299560546875 L 15.95751190185547 10.32991790771484 C 15.92969512939453 9.648681640625 16.57582855224609 9.139350891113281 17.23172760009766 9.325416564941406 L 17.23177337646484 9.325424194335938 C 17.85618591308594 9.502593994140625 18.48162841796875 9.048179626464844 18.506103515625 8.399566650390625 L 18.506103515625 8.3995361328125 C 18.53181457519531 7.718215942382812 19.21592712402344 7.2611083984375 19.85519409179688 7.498100280761719 L 19.85523223876953 7.49810791015625 C 20.46380996704102 7.723724365234375 21.12298965454102 7.319786071777344 21.19827651977539 6.675094604492188 L 21.19828796386719 6.675048828125 C 21.27735900878906 5.997848510742188 21.99520492553711 5.595832824707031 22.61394882202148 5.882247924804688 L 22.61399459838867 5.882270812988281 C 23.20302581787109 6.154945373535156 23.89184188842773 5.803955078125 24.0174674987793 5.167152404785156 L 24.01747894287109 5.167121887207031 C 24.14944076538086 4.498207092285156 24.89662170410156 4.153739929199219 25.49097061157227 4.487823486328125 L 25.49102020263672 4.487846374511719 C 26.05684661865234 4.805900573730469 26.77108001708984 4.510047912597656 26.9462776184082 3.885063171386719 L 26.9462890625 3.885025024414062 C 27.13032150268555 3.228530883789062 27.90222930908203 2.943771362304688 28.46854782104492 3.323448181152344 L 28.46857070922852 3.323463439941406 C 29.00769805908203 3.684906005859375 29.74293899536133 3.446022033691406 29.96664428710938 2.836708068847656 L 29.96665573120117 2.836669921875 C 30.20163726806641 2.1966552734375 30.99350738525391 1.97332763671875 31.52827835083008 2.396263122558594 L 31.52830123901367 2.396270751953125 C 32.03739929199219 2.798919677734375 32.78913497924805 2.618453979492188 33.0599479675293 2.028564453125 L 33.05997085571289 2.028518676757812 C 33.34444046020508 1.408912658691406 34.15138626098633 1.248382568359375 34.65132522583008 1.711990356445312 L 34.65137100219727 1.712013244628906 C 35.12729263305664 2.153366088867188 35.89087295532227 2.032417297363281 36.20713806152344 1.465614318847656 L 36.20714950561523 1.465576171875 C 36.53936386108398 0.8701934814453125 37.35642242431641 0.7734909057617188 37.81844329833984 1.274871826171875 L 37.81846618652344 1.274894714355469 C 38.25831604003906 1.752220153808594 39.02902603149414 1.691558837890625 39.3887825012207 1.15130615234375 L 39.3887939453125 1.151283264160156 C 39.58595275878906 0.8552093505859375 39.90404510498047 0.7048110961914062 40.22303009033203 0.704803466796875 Z"/></g><g transform="translate(20.913 21.038)"><path class="b" d="M22.6,7.767V4.237A4.237,4.237,0,0,0,18.359,0H4.237A4.237,4.237,0,0,0,0,4.237V7.767" transform="translate(9.538 33.297)"/><line class="c" x2="24.714" transform="translate(8.479 41.205)"/><path class="d" d="M-19072.773-16114.443s-9.213-.52-12.77-17.094a57.333,57.333,0,0,1-1.1-10.617h27.961s-.65,7.322-1.3,10.617S-19064.01-16115.6-19072.773-16114.443Z" transform="translate(19093.609 16142.154)"/><path class="e" d="M-19080.18-16129.24s-4.295-.242-5.953-7.965a26.6,26.6,0,0,1-.512-4.949h13.027s-.3,3.412-.6,4.949S-19076.1-16129.779-19080.18-16129.24Z" transform="translate(19101.074 16149.022)"/><path class="f" d="M-19089.545-16138h-6.963a33.57,33.57,0,0,0,1.344,8.814c1.342,4.281,5.15,11.428,12.736,12.158" transform="translate(19096.508 16140.935)"/><path class="f" d="M-19089.389-16138h6.963a33.524,33.524,0,0,1-1.346,8.814c-1.344,4.281-5.152,11.428-12.736,12.158" transform="translate(19124.047 16140.935)"/><line class="b" y2="7.061" transform="translate(17.305 26.942)"/><line class="b" y2="7.061" transform="translate(24.367 26.942)"/></g></svg>