<svg xmlns="http://www.w3.org/2000/svg" width="83.595" height="83.595" viewBox="0 0 83.595 83.595"><defs><style>.a{fill:#fff;}.b{fill:#00b2bd;font-size:31px;font-family:SofiaPro-Bold, Sofia Pro;font-weight:700;letter-spacing:-0.02em;opacity:0.9;}.c{fill:none;stroke:#1e196c;stroke-linecap:round;stroke-linejoin:round;stroke-width:5px;}.d,.e{stroke:none;}.e{fill:#1e196c;}</style></defs><g class="a" transform="translate(0 0)"><path class="d" d="M 43.37222671508789 82.14044952392578 C 43.31668090820312 82.14044952392578 43.23735809326172 82.12377166748047 43.17489242553711 82.04428100585938 C 42.84062576293945 81.61888122558594 42.33861541748047 81.37488555908203 41.79759216308594 81.37488555908203 C 41.25657272338867 81.37488555908203 40.75457000732422 81.61885833740234 40.42029190063477 82.04425048828125 C 40.35782623291016 82.12374114990234 40.27845001220703 82.14043426513672 40.22286987304688 82.14043426513672 C 40.17238235473633 82.14044952392578 40.07797241210938 82.12588500976562 40.01296997070312 82.02827453613281 C 39.68735885620117 81.53932952880859 39.14200592041016 81.2474365234375 38.55412673950195 81.2474365234375 C 38.06673812866211 81.2474365234375 37.59754943847656 81.4532470703125 37.26686096191406 81.81210327148438 C 37.20498275756836 81.87925720214844 37.13280487060547 81.89335632324219 37.08314895629883 81.89335632324219 C 37.03832626342773 81.89337158203125 36.92702484130859 81.88079071044922 36.86199188232422 81.76423645019531 C 36.55282592773438 81.21013641357422 35.96609497070312 80.86591339111328 35.33078384399414 80.86591339111328 C 34.88873672485352 80.86591339111328 34.46629333496094 81.03189086914062 34.14128112792969 81.33329010009766 C 34.09308242797852 81.37798309326172 34.03621673583984 81.40065002441406 33.97229385375977 81.40065765380859 C 33.9339599609375 81.40065765380859 33.80403900146484 81.39006805419922 33.74145889282227 81.25376129150391 C 33.45667266845703 80.63346862792969 32.83105850219727 80.23267364501953 32.14763641357422 80.23267364501953 C 31.7507266998291 80.23267364501953 31.37564849853516 80.36339569091797 31.06295967102051 80.61069488525391 C 31.01705932617188 80.64699554443359 30.9653377532959 80.6654052734375 30.90922737121582 80.6654052734375 C 30.8271484375 80.6654052734375 30.71540451049805 80.62210083007812 30.67060470581055 80.50006866455078 C 30.41841506958008 79.81317138671875 29.75684928894043 79.35166168212891 29.02438163757324 79.35166168212891 C 28.67741584777832 79.35166168212891 28.34075927734375 79.45441436767578 28.05081558227539 79.6488037109375 C 28.00801467895508 79.67750549316406 27.96157073974609 79.69204711914062 27.91275978088379 79.69206237792969 C 27.81681632995605 79.69206237792969 27.70403671264648 79.63507080078125 27.66833686828613 79.50773620605469 C 27.4571590423584 78.75444030761719 26.76301574707031 78.22831726074219 25.98030471801758 78.22831726074219 C 25.68187141418457 78.22831726074219 25.38555908203125 78.30620574951172 25.12341499328613 78.45355224609375 C 25.08440399169922 78.47547912597656 25.04340362548828 78.48659515380859 25.00153732299805 78.48659515380859 C 24.89810371398926 78.48659515380859 24.77958297729492 78.4166259765625 24.75320434570312 78.28290557861328 C 24.59162712097168 77.46400451660156 23.86864852905273 76.86963653564453 23.03411483764648 76.86963653564453 C 22.77941513061523 76.86963653564453 22.53203773498535 76.92436981201172 22.29884910583496 77.03230285644531 C 22.26424789428711 77.04831695556641 22.22878265380859 77.05643463134766 22.19338226318359 77.05643463134766 C 22.08470344543457 77.05644989013672 21.9600715637207 76.97819519042969 21.9431266784668 76.83314514160156 C 21.84001541137695 75.94999694824219 21.09228134155273 75.28400421142578 20.20383834838867 75.28400421142578 C 19.9961051940918 75.28400421142578 19.79108238220215 75.32096099853516 19.59445953369141 75.39383697509766 C 19.56491470336914 75.40479278564453 19.53513717651367 75.41034698486328 19.50593757629395 75.41034698486328 C 19.389892578125 75.41036224365234 19.26114845275879 75.31747436523438 19.2554817199707 75.16739654541016 C 19.21981620788574 74.22186279296875 18.4516716003418 73.481201171875 17.50672721862793 73.481201171875 C 17.3452033996582 73.481201171875 17.18378257751465 73.50376129150391 17.02694892883301 73.54826354980469 C 17.00305938720703 73.55503845214844 16.97917175292969 73.55849456787109 16.95602607727051 73.55849456787109 C 16.88957023620605 73.55849456787109 16.82375907897949 73.52964019775391 16.77545928955078 73.47932434082031 C 16.74213790893555 73.44461822509766 16.70318222045898 73.38462829589844 16.70681571960449 73.29589080810547 C 16.72647094726562 72.81479644775391 16.5539379119873 72.35884094238281 16.22101593017578 72.01202392578125 C 15.89174842834473 71.66903686523438 15.43177127838135 71.47231292724609 14.95901584625244 71.47231292724609 C 14.84329319000244 71.47231292724609 14.7266149520874 71.48394775390625 14.61222648620605 71.50688171386719 C 14.59439277648926 71.51045989990234 14.57670402526855 71.51226806640625 14.55965995788574 71.51226806640625 C 14.48988246917725 71.51226806640625 14.42204856872559 71.48092651367188 14.37355995178223 71.42626953125 C 14.3397045135498 71.38811492919922 14.301682472229 71.32311248779297 14.31283760070801 71.23019409179688 C 14.37244892120361 70.73320770263672 14.21629333496094 70.23361206054688 13.88439273834229 69.85951232910156 C 13.55182647705078 69.48468017578125 13.07497119903564 69.26970672607422 12.57609272003174 69.26970672607422 C 12.50603771209717 69.26970672607422 12.43503761291504 69.27395629882812 12.3650598526001 69.2823486328125 C 12.35383796691895 69.28370666503906 12.34277057647705 69.28437042236328 12.3320484161377 69.28437042236328 C 12.23112678527832 69.28438568115234 12.16832637786865 69.22612762451172 12.13988208770752 69.19141387939453 C 12.10565948486328 69.14965057373047 12.06893730163574 69.07960510253906 12.08830451965332 68.98302459716797 C 12.19193744659424 68.46627044677734 12.05984878540039 67.93613433837891 11.72591495513916 67.52857971191406 C 11.3917818069458 67.12078094482422 10.89833736419678 66.88689422607422 10.37213802337646 66.88689422607422 C 10.34799289703369 66.88689422607422 10.32372665405273 66.88739013671875 10.29933738708496 66.88838195800781 L 10.28744888305664 66.88862609863281 C 10.17984867095947 66.88864135742188 10.11637115478516 66.82591247558594 10.08810424804688 66.78851318359375 C 10.05995941162109 66.75128173828125 10.01719284057617 66.67314910888672 10.04694843292236 66.56826019287109 C 10.1946268081665 66.04775238037109 10.09693717956543 65.49818420410156 9.778915405273438 65.06048583984375 C 9.460915565490723 64.62279510498047 8.968460083007812 64.36006927490234 8.427826881408691 64.33969116210938 C 8.316126823425293 64.33547973632812 8.254726409912109 64.26791381835938 8.228071212768555 64.22802734375 C 8.201415061950684 64.18814086914062 8.162492752075195 64.10556030273438 8.201348304748535 64.00074768066406 C 8.389404296875 63.49346160888672 8.335137367248535 62.93795013427734 8.052459716796875 62.47665023803711 C 7.769793033599854 62.01535797119141 7.299470901489258 61.71480560302734 6.762115478515625 61.65205001831055 C 6.65104866027832 61.63907241821289 6.595126628875732 61.5669059753418 6.571681976318359 61.5250358581543 C 6.548237800598145 61.48316955566406 6.515915393829346 61.39780426025391 6.562881946563721 61.29636001586914 C 6.790148735046387 60.80539321899414 6.779637813568115 60.24733734130859 6.534026622772217 59.76528167724609 C 6.288426399230957 59.28323745727539 5.843148708343506 58.94670486450195 5.312359809875488 58.84198379516602 C 5.202637672424316 58.82033920288086 5.152559757232666 58.74399185180664 5.132471084594727 58.70041656494141 C 5.112381935119629 58.6568489074707 5.086871147155762 58.5692024230957 5.141637802124023 58.47178268432617 C 5.406726360321045 58.00016021728516 5.440037727355957 57.4429931640625 5.233004093170166 56.94314956665039 C 5.025959968566895 56.44331359863281 4.608448505401611 56.07288360595703 4.087515354156494 55.92683792114258 C 3.979871034622192 55.89665985107422 3.935937643051147 55.8166389465332 3.919326543807983 55.77161407470703 C 3.902715444564819 55.72660446166992 3.884159803390503 55.63722610473633 3.946404218673706 55.54438018798828 C 4.247693061828613 55.09500503540039 4.324604511260986 54.54217147827148 4.157415390014648 54.02763748168945 C 3.99022650718689 53.51309204101562 3.603070974349976 53.11106109619141 3.095193147659302 52.92459487915039 C 2.990248680114746 52.88605880737305 2.952715396881104 52.80282592773438 2.939693212509155 52.75663757324219 C 2.926671028137207 52.71047210693359 2.915182113647461 52.61991500854492 2.984515428543091 52.53224945068359 C 3.320148706436157 52.10787200927734 3.440193176269531 51.56275939941406 3.313882112503052 51.03668212890625 C 3.187582015991211 50.51061630249023 2.833159923553467 50.07944869995117 2.341493129730225 49.85372543334961 C 2.239893198013306 49.80708312988281 2.209015369415283 49.72116088867188 2.19964861869812 49.67409133911133 C 2.190293073654175 49.62703704833984 2.185937643051147 49.53585815429688 2.261937618255615 49.45389175415039 C 2.629826545715332 49.05714797973633 2.79227089881897 48.52312469482422 2.707626581192017 47.9887580871582 C 2.622993230819702 47.45441436767578 2.30349326133728 46.99678039550781 1.831048727035522 46.73318099975586 C 1.733426451683044 46.67870330810547 1.709382057189941 46.59062576293945 1.70374870300293 46.54297256469727 C 1.69810426235199 46.49533843994141 1.700915336608887 46.40409469604492 1.783115386962891 46.32836151123047 C 2.18099308013916 45.96171569824219 2.384826421737671 45.44210433959961 2.342381954193115 44.90273666381836 C 2.299926519393921 44.3634033203125 2.01731538772583 43.8820915222168 1.567015409469604 43.58222579956055 C 1.473959803581238 43.52025985717773 1.456904292106628 43.43057250976562 1.455015420913696 43.38261413574219 C 1.453137636184692 43.33468246459961 1.463093161582947 43.24394989013672 1.550981998443604 43.17488098144531 C 1.976393103599548 42.84059143066406 2.22038197517395 42.33856964111328 2.22038197517395 41.79756164550781 C 2.22038197517395 41.25654983520508 1.976415395736694 40.75454711914062 1.551037549972534 40.42027282714844 C 1.463115334510803 40.35118103027344 1.453148722648621 40.26043701171875 1.455037593841553 40.21249389648438 C 1.456915378570557 40.16454696655273 1.473970890045166 40.07487106323242 1.567004323005676 40.01291656494141 C 2.01731538772583 39.71305847167969 2.299937725067139 39.23175048828125 2.342381954193115 38.6923942565918 C 2.384837627410889 38.15303802490234 2.181004285812378 37.63342666625977 1.783137559890747 37.26680374145508 C 1.700926542282104 37.19104766845703 1.698115348815918 37.09979248046875 1.70374870300293 37.05213928222656 C 1.70939314365387 37.00449371337891 1.733426451683044 36.91643905639648 1.831037640571594 36.86197280883789 C 2.303504228591919 36.59835052490234 2.623026609420776 36.14068222045898 2.707659721374512 35.60631561279297 C 2.792293071746826 35.07197189331055 2.629859924316406 34.53798294067383 2.261993169784546 34.14126968383789 C 2.185971021652222 34.05928039550781 2.19031548500061 33.96809387207031 2.199681997299194 33.92103576660156 C 2.20903754234314 33.87398147583008 2.239904165267944 33.78807067871094 2.341504335403442 33.74142837524414 C 2.833182096481323 33.51569366455078 3.187626600265503 33.08450317382812 3.313926458358765 32.55841445922852 C 3.440215349197388 32.0323486328125 3.320170879364014 31.48727035522461 2.984570980072021 31.06293678283691 C 2.915215492248535 30.97524833679199 2.92671537399292 30.88468170166016 2.939737558364868 30.83849334716797 C 2.952759742736816 30.79232597351074 2.990270853042603 30.70910453796387 3.095193147659302 30.67059326171875 C 3.603093147277832 30.48412704467773 3.990270853042603 30.08207130432129 4.157459735870361 29.56752586364746 C 4.324637413024902 29.05299377441406 4.247726440429688 28.50016021728516 3.946448802947998 28.0507926940918 C 3.884193181991577 27.95793724060059 3.902759790420532 27.86853790283203 3.919370889663696 27.82352638244629 C 3.935971021652222 27.77850341796875 3.979904174804688 27.69849395751953 4.08753776550293 27.66831588745117 C 4.608481884002686 27.52228164672852 5.026015281677246 27.15184783935547 5.233059883117676 26.65200424194336 C 5.440093040466309 26.15217018127441 5.406793117523193 25.59501457214355 5.141704082489014 25.12340354919434 C 5.086915493011475 25.02593803405762 5.112437725067139 24.93828201293945 5.132526397705078 24.89470481872559 C 5.152615547180176 24.85113716125488 5.202682018280029 24.77481460571289 5.31234884262085 24.75318145751953 C 5.843159675598145 24.6484489440918 6.288459777832031 24.31191444396973 6.534081935882568 23.82986068725586 C 6.779693126678467 23.34782600402832 6.790215492248535 22.78978157043457 6.562959671020508 22.29881477355957 C 6.515982151031494 22.19734954833984 6.548304080963135 22.11195945739746 6.571748733520508 22.07009315490723 C 6.595193386077881 22.02823829650879 6.651093006134033 21.9560718536377 6.762115478515625 21.9431037902832 C 7.299493312835693 21.88037109375 7.769826412200928 21.57981491088867 8.052515029907227 21.11852645874023 C 8.335193634033203 20.6572380065918 8.389471054077148 20.10172653198242 8.201437950134277 19.59444808959961 C 8.162559509277344 19.48959350585938 8.201481819152832 19.40701484680176 8.228148460388184 19.36711502075195 C 8.254793167114258 19.32722663879395 8.316193580627441 19.25967025756836 8.427882194519043 19.25546073913574 C 8.968515396118164 19.23508262634277 9.460982322692871 18.97236061096191 9.778993606567383 18.53467178344727 C 10.09700393676758 18.09698295593262 10.19470405578613 17.54743766784668 10.04703807830811 17.0269603729248 C 10.01728248596191 16.92209243774414 10.06004905700684 16.84395980834961 10.0881929397583 16.80672645568848 C 10.11647129058838 16.76931571960449 10.17996025085449 16.7065601348877 10.28759288787842 16.7065601348877 L 10.29938220977783 16.7068042755127 C 10.32381534576416 16.70779228210449 10.34818172454834 16.70829391479492 10.37222671508789 16.70829391479492 C 10.8984489440918 16.70829391479492 11.39189338684082 16.47441482543945 11.72601509094238 16.06662559509277 C 12.05994892120361 15.65909290313721 12.19202613830566 15.12895965576172 12.08839321136475 14.61219310760498 C 12.06902694702148 14.51561546325684 12.1057596206665 14.44555950164795 12.13998222351074 14.40379333496094 C 12.16843795776367 14.3690710067749 12.23123741149902 14.31081581115723 12.33214855194092 14.31081581115723 C 12.34302616119385 14.31081581115723 12.35380458831787 14.3114709854126 12.36509323120117 14.31282615661621 C 12.43515968322754 14.32121562957764 12.50615978240967 14.32547092437744 12.57618236541748 14.32547092437744 C 13.07509326934814 14.32547092437744 13.55194854736328 14.11050415039062 13.88449287414551 13.73568248748779 C 14.21638202667236 13.36161518096924 14.37253761291504 12.86202621459961 14.31292629241943 12.36503791809082 C 14.30178165435791 12.27212619781494 14.33980464935303 12.20711517333984 14.37367057800293 12.16894912719727 C 14.42218208312988 12.11428165435791 14.49000453948975 12.08292675018311 14.55976009368896 12.08292675018311 C 14.57705974578857 12.08292675018311 14.59423732757568 12.08468246459961 14.61227130889893 12.08829307556152 C 14.72671508789062 12.11123752593994 14.84340381622314 12.12287139892578 14.95912647247314 12.12287139892578 C 15.43189334869385 12.12287139892578 15.89187049865723 11.92615985870361 16.22112655639648 11.5831823348999 C 16.55403709411621 11.23638248443604 16.72656059265137 10.78043746948242 16.7069034576416 10.29933738708496 C 16.70327186584473 10.21061515808105 16.74223709106445 10.15061569213867 16.77554893493652 10.11590385437012 C 16.82386016845703 10.06558227539062 16.88968276977539 10.03671550750732 16.95612716674805 10.03671550750732 C 16.979248046875 10.03671550750732 17.00310516357422 10.04016017913818 17.02702713012695 10.04694843292236 C 17.18392562866211 10.09144878387451 17.34532737731934 10.11400413513184 17.50681495666504 10.11400413513184 C 18.45175933837891 10.11400413513184 19.21990394592285 9.373349189758301 19.25557136535645 8.427837371826172 C 19.26123809814453 8.277759552001953 19.3900260925293 8.184848785400391 19.506103515625 8.184848785400391 C 19.53525924682617 8.184848785400391 19.56501579284668 8.190403938293457 19.59453773498535 8.201348304748535 C 19.7911491394043 8.274237632751465 19.9962043762207 8.311203956604004 20.20394897460938 8.311203956604004 C 21.09237098693848 8.311203956604004 21.8401050567627 7.64522647857666 21.94321632385254 6.762093067169189 C 21.96015930175781 6.617037773132324 22.08483695983887 6.538759708404541 22.19353675842285 6.538759708404541 C 22.22890472412109 6.538759708404541 22.26434898376465 6.546870708465576 22.29890441894531 6.562870979309082 C 22.5320930480957 6.670815467834473 22.77950477600098 6.725559711456299 23.03422737121582 6.725559711456299 C 23.86877059936523 6.725559711456299 24.59173774719238 6.131215572357178 24.75330352783203 5.312326431274414 C 24.77968215942383 5.178582191467285 24.8982048034668 5.108604431152344 25.00165939331055 5.108604431152344 C 25.04350471496582 5.108604431152344 25.08450508117676 5.119715213775635 25.12348175048828 5.141637802124023 C 25.38568115234375 5.289004325866699 25.68200492858887 5.366893291473389 25.98042678833008 5.366893291473389 C 26.76312637329102 5.366893291473389 27.45727157592773 4.840793132781982 27.66844940185547 4.087515354156494 C 27.70414924621582 3.960159778594971 27.81697082519531 3.903159856796265 27.91294860839844 3.903159856796265 C 27.96170425415039 3.903159856796265 28.00811576843262 3.917715311050415 28.0509033203125 3.946404218673706 C 28.34088134765625 4.140804290771484 28.67754936218262 4.243559837341309 29.02450370788574 4.243559837341309 C 29.75695991516113 4.243559837341309 30.41851615905762 3.782070875167847 30.67069244384766 3.09520435333252 C 30.71551513671875 2.973148822784424 30.8272705078125 2.929837703704834 30.90935897827148 2.929837703704834 C 30.9654598236084 2.929837703704834 31.01717185974121 2.948237657546997 31.06306076049805 2.984526395797729 C 31.3757495880127 3.231837511062622 31.75082588195801 3.362559795379639 32.14774703979492 3.362559795379639 C 32.83118057250977 3.362559795379639 33.45678329467773 2.961771011352539 33.74155044555664 2.341493129730225 C 33.80414962768555 2.205170869827271 33.9340934753418 2.194571018218994 33.97243881225586 2.194571018218994 C 34.03633880615234 2.194571018218994 34.09319305419922 2.217237710952759 34.14139175415039 2.261926412582397 C 34.46641540527344 2.563337564468384 34.88887023925781 2.729326486587524 35.33091354370117 2.729326486587524 C 35.96622467041016 2.729326486587524 36.55293655395508 2.38512659072876 36.86209487915039 1.831037640571594 C 36.92712783813477 1.714493155479431 37.03848266601562 1.701904296875 37.08333587646484 1.701904296875 C 37.13294982910156 1.701904296875 37.20507049560547 1.716004252433777 37.26692581176758 1.783126473426819 C 37.59762573242188 2.141993045806885 38.06682586669922 2.347815275192261 38.55421447753906 2.347815275192261 C 39.14210510253906 2.347815275192261 39.68745803833008 2.055937528610229 40.01303863525391 1.567026495933533 C 40.07806015014648 1.469382047653198 40.17252731323242 1.454804301261902 40.22304916381836 1.454804301261902 C 40.27859497070312 1.454804301261902 40.35792541503906 1.471493124961853 40.42039489746094 1.550981998443604 C 40.75466918945312 1.97638201713562 41.25668334960938 2.220359802246094 41.79769134521484 2.220359802246094 C 42.33872604370117 2.220359802246094 42.84074783325195 1.976370930671692 43.17501449584961 1.550948739051819 C 43.2374267578125 1.471526503562927 43.3167610168457 1.454848766326904 43.372314453125 1.454848766326904 C 43.42283630371094 1.454848766326904 43.51730346679688 1.469426512718201 43.58229446411133 1.567026495933533 C 43.90787124633789 2.055937528610229 44.45321655273438 2.347826480865479 45.04111480712891 2.347826480865479 C 45.52850341796875 2.347826480865479 45.9976921081543 2.14201545715332 46.32839202880859 1.783159852027893 C 46.3902587890625 1.716015338897705 46.46238327026367 1.701926469802856 46.51199340820312 1.701926469802856 C 46.55685043334961 1.701926469802856 46.66820526123047 1.714504241943359 46.73322677612305 1.831037640571594 C 47.04239273071289 2.385137557983398 47.62911605834961 2.729348659515381 48.26443862915039 2.729348659515381 C 48.70647048950195 2.729348659515381 49.12890243530273 2.563370943069458 49.45391464233398 2.261981964111328 C 49.50214767456055 2.217259883880615 49.55900573730469 2.194593191146851 49.62290573120117 2.194593191146851 C 49.66124725341797 2.194593191146851 49.79119491577148 2.205182075500488 49.853759765625 2.341470956802368 C 50.1385498046875 2.961771011352539 50.7641716003418 3.362581968307495 51.44759368896484 3.362581968307495 C 51.84450531005859 3.362581968307495 52.21957015991211 3.231859922409058 52.53227233886719 2.984570980072021 C 52.57817077636719 2.948259830474854 52.6298828125 2.929848670959473 52.68598175048828 2.929848670959473 C 52.76807022094727 2.929848670959473 52.87981414794922 2.973148822784424 52.92462539672852 3.095181941986084 C 53.17681503295898 3.782082080841064 53.83838272094727 4.243593215942383 54.57083892822266 4.243593215942383 C 54.91780471801758 4.243593215942383 55.25445938110352 4.140837669372559 55.54441452026367 3.94643759727478 C 55.58722686767578 3.917737722396851 55.63363647460938 3.903193235397339 55.68238067626953 3.903193235397339 C 55.77835845947266 3.903193235397339 55.89118194580078 3.960181951522827 55.92688369750977 4.087526321411133 C 56.1380500793457 4.840804100036621 56.83219146728516 5.366915225982666 57.61490249633789 5.366915225982666 C 57.91333770751953 5.366915225982666 58.20964813232422 5.289026260375977 58.47180557250977 5.141670703887939 C 58.51081466674805 5.119748592376709 58.55181503295898 5.108626365661621 58.59366989135742 5.108626365661621 C 58.69712829589844 5.108626365661621 58.81564712524414 5.178593158721924 58.84202575683594 5.312315464019775 C 59.00359344482422 6.131226539611816 59.72657012939453 6.725604057312012 60.56110382080078 6.725604057312012 C 60.81581497192383 6.725604057312012 61.06320571899414 6.670870780944824 61.29640579223633 6.562915325164795 C 61.33095932006836 6.546915531158447 61.36641693115234 6.538804054260254 61.40177154541016 6.538804054260254 C 61.51048278808594 6.538804054260254 61.63514709472656 6.617059707641602 61.65209197998047 6.762093067169189 C 61.75520324707031 7.645248889923096 62.50293731689453 8.311237335205078 63.39137268066406 8.311237335205078 C 63.59910583496094 8.311237335205078 63.80412673950195 8.274282455444336 64.00074768066406 8.201404571533203 C 64.03031158447266 8.190437316894531 64.06007385253906 8.184882164001465 64.08922576904297 8.184882164001465 C 64.20529174804688 8.184882164001465 64.33408355712891 8.277782440185547 64.33975219726562 8.427860260009766 C 64.37541198730469 9.373381614685059 65.14356994628906 10.11405944824219 66.08852386474609 10.11405944824219 C 66.25002288818359 10.11405944824219 66.41143798828125 10.09149360656738 66.56824493408203 10.04700469970703 C 66.59220123291016 10.04020404815674 66.61607360839844 10.03675937652588 66.63919067382812 10.03675937652588 C 66.70565795898438 10.03675937652588 66.771484375 10.06562614440918 66.81977844238281 10.11593723297119 C 66.85309600830078 10.15064907073975 66.89205169677734 10.21063804626465 66.88841247558594 10.29934883117676 C 66.86875915527344 10.7804594039917 67.04129028320312 11.23641490936279 67.37421417236328 11.58322620391846 C 67.70348358154297 11.92621517181396 68.16345977783203 12.12293720245361 68.63621520996094 12.12293720245361 C 68.75193786621094 12.12293720245361 68.86862945556641 12.11130428314209 68.98302459716797 12.08835983276367 C 69.00086975097656 12.08478164672852 69.01851654052734 12.08298206329346 69.03554534912109 12.08298206329346 C 69.10532379150391 12.08298206329346 69.17315673828125 12.11432647705078 69.22165679931641 12.16899299621582 C 69.25551605224609 12.20714855194092 69.29354095458984 12.27213764190674 69.28237915039062 12.3650598526001 C 69.22277069091797 12.8620491027832 69.37895202636719 13.36163806915283 69.71084594726562 13.73572635650635 C 70.04340362548828 14.11055946350098 70.52025604248047 14.32553768157959 71.01913452148438 14.32553768157959 C 71.08919525146484 14.32553768157959 71.16019439697266 14.32128238677979 71.23017120361328 14.31289291381836 C 71.24137878417969 14.31154918670654 71.25247192382812 14.31087112426758 71.26319122314453 14.31087112426758 C 71.3641357421875 14.31087112426758 71.42694091796875 14.36911582946777 71.45539093017578 14.40383720397949 C 71.48960113525391 14.44559288024902 71.52632904052734 14.51563739776611 71.5069580078125 14.61221504211426 C 71.40332794189453 15.128981590271 71.53541564941406 15.6591157913208 71.86934661865234 16.06667137145996 C 72.20348358154297 16.47446060180664 72.69691467285156 16.70834922790527 73.22311401367188 16.70834922790527 C 73.24726104736328 16.70834922790527 73.27153015136719 16.70784950256348 73.29591369628906 16.70685958862305 L 73.30771636962891 16.70661544799805 C 73.41538238525391 16.70661544799805 73.4788818359375 16.76935958862305 73.50714874267578 16.80677032470703 C 73.5352783203125 16.84399223327637 73.57804107666016 16.92211532592773 73.54827880859375 17.02698135375977 C 73.40061187744141 17.54748153686523 73.49830627441406 18.09702682495117 73.81631469726562 18.53472709655762 C 74.13431549072266 18.97241592407227 74.62676239013672 19.23514938354492 75.16739654541016 19.25553703308105 C 75.27913665771484 19.2597484588623 75.34054565429688 19.32731628417969 75.36720275878906 19.36721611022949 C 75.39385986328125 19.4071044921875 75.43276977539062 19.48967170715332 75.39391326904297 19.5944709777832 C 75.20585632324219 20.10177040100098 75.26012420654297 20.65729331970215 75.54281616210938 21.11859321594238 C 75.82549285888672 21.57989311218262 76.29581451416016 21.88043785095215 76.83319091796875 21.94319343566895 C 76.9442138671875 21.95614814758301 77.00011444091797 22.0283145904541 77.0235595703125 22.07017135620117 C 77.04700469970703 22.11203765869141 77.07932281494141 22.19741630554199 77.03235626220703 22.29886054992676 C 76.80509185791016 22.78983688354492 76.81560516357422 23.34790420532227 77.06122589111328 23.82995986938477 C 77.30683898925781 24.31200408935547 77.75211334228516 24.64852714538574 78.28290557861328 24.75324821472168 C 78.39259338378906 24.77488136291504 78.44267272949219 24.85122680664062 78.46276092529297 24.89480400085449 C 78.48284912109375 24.9383716583252 78.50836944580078 25.02601623535156 78.45360565185547 25.12344932556152 C 78.18850708007812 25.59507179260254 78.15520477294922 26.15223693847656 78.36223602294922 26.6520824432373 C 78.56926727294922 27.15191459655762 78.98677825927734 27.52233695983887 79.50771331787109 27.66838264465332 C 79.61537933349609 27.69857025146484 79.65932464599609 27.77860450744629 79.67593383789062 27.82361602783203 C 79.69253540039062 27.86862564086914 79.71110534667969 27.95800399780273 79.64885711669922 28.05083847045898 C 79.34757232666016 28.5002384185791 79.27066040039062 29.05308151245117 79.43785095214844 29.567626953125 C 79.60502624511719 30.0821590423584 79.99219512939453 30.48419380187988 80.50004577636719 30.6706485748291 C 80.60499572753906 30.70918273925781 80.64251708984375 30.79240417480469 80.65554046630859 30.83858299255371 C 80.66855621337891 30.8847599029541 80.68006134033203 30.97531509399414 80.6107177734375 31.0629940032959 C 80.27510070800781 31.48734855651855 80.15505981445312 32.03243637084961 80.28134918212891 32.55851364135742 C 80.40764617919922 33.0845832824707 80.76206970214844 33.5157585144043 81.25373840332031 33.74149322509766 C 81.35536956787109 33.78815841674805 81.38624572753906 33.87408065795898 81.39561462402344 33.92115020751953 C 81.40496826171875 33.96819305419922 81.40932464599609 34.05937194824219 81.33332824707031 34.14133834838867 C 80.96543884277344 34.53807067871094 80.80300140380859 35.07209396362305 80.88763427734375 35.60646057128906 C 80.97228240966797 36.14079284667969 81.29177856445312 36.59843826293945 81.76422882080078 36.86203765869141 C 81.86183929443359 36.91650390625 81.88587951660156 37.00458145141602 81.89151763916016 37.05223846435547 C 81.89716339111328 37.09988021850586 81.89434814453125 37.19111633300781 81.81214904785156 37.26686096191406 C 81.41426849365234 37.63350296020508 81.21042633056641 38.15312576293945 81.25288391113281 38.69248199462891 C 81.29532623291016 39.23182678222656 81.57792663574219 39.71312713623047 82.02822875976562 40.01299285888672 C 82.12129211425781 40.07497024536133 82.13835144042969 40.1646614074707 82.14023590087891 40.21261596679688 C 82.14211273193359 40.26054763793945 82.13215637207031 40.35128021240234 82.04427337646484 40.42034912109375 C 81.61887359619141 40.754638671875 81.37489318847656 41.25664901733398 81.37489318847656 41.79767227172852 C 81.37489318847656 42.33867263793945 81.61887359619141 42.84067153930664 82.04425048828125 43.1749382019043 C 82.13215637207031 43.24401473999023 82.14212799072266 43.33477020263672 82.14023590087891 43.38271713256836 C 82.13835906982422 43.43066024780273 82.12130737304688 43.52033615112305 82.02827453613281 43.58229446411133 C 81.57794952392578 43.88217163085938 81.29532623291016 44.36349487304688 81.25288391113281 44.90284729003906 C 81.21043395996094 45.44219207763672 81.41426086425781 45.9617805480957 81.81210327148438 46.32839202880859 C 81.89432525634766 46.40417098999023 81.89714813232422 46.49542617797852 81.89150238037109 46.54308319091797 C 81.88587188720703 46.59072494506836 81.86183929443359 46.67878341674805 81.76422882080078 46.73323822021484 C 81.29177093505859 46.99686050415039 80.97225952148438 47.45452499389648 80.88762664794922 47.9888916015625 C 80.80299377441406 48.52323913574219 80.96542358398438 49.05722808837891 81.33329010009766 49.45393753051758 C 81.40931701660156 49.53591537475586 81.40496063232422 49.62711715698242 81.39560699462891 49.67417144775391 C 81.38624572753906 49.72122573852539 81.35536956787109 49.80713653564453 81.25379180908203 49.8537712097168 C 80.7620849609375 50.07952499389648 80.40763854980469 50.51072692871094 80.28133392333984 51.03681564331055 C 80.15505218505859 51.56288146972656 80.27510070800781 52.10795974731445 80.61070251464844 52.53229141235352 C 80.68004608154297 52.61997222900391 80.66855621337891 52.71053695678711 80.65554046630859 52.7567253112793 C 80.64251708984375 52.80290603637695 80.60499572753906 52.88611602783203 80.50006103515625 52.92464828491211 C 79.99215698242188 53.11112594604492 79.60499572753906 53.51318359375 79.43781280517578 54.02772521972656 C 79.27063751220703 54.54225921630859 79.34754943847656 55.09506988525391 79.64882659912109 55.54443740844727 C 79.71106719970703 55.63728332519531 79.6925048828125 55.72666168212891 79.67589569091797 55.77168273925781 C 79.65929412841797 55.81669235229492 79.6153564453125 55.8967170715332 79.50772857666016 55.9268913269043 C 78.98677825927734 56.07292556762695 78.56925964355469 56.4433479309082 78.36222839355469 56.94318389892578 C 78.15518188476562 57.4430046081543 78.18846130371094 58.00016021728516 78.45353698730469 58.47179412841797 C 78.50833892822266 58.56928253173828 78.48281860351562 58.65694808959961 78.46272277832031 58.70052719116211 C 78.44264984130859 58.74409484863281 78.39257049560547 58.82041549682617 78.28290557861328 58.84206008911133 C 77.75212860107422 58.94676971435547 77.30682373046875 59.28329467773438 77.06120300292969 59.76532745361328 C 76.81558227539062 60.24737167358398 76.80504608154297 60.80541610717773 77.03230285644531 61.29639434814453 C 77.07928466796875 61.39788055419922 77.04695892333984 61.48326110839844 77.02351379394531 61.52512741088867 C 77.00006866455078 61.56699371337891 76.94416809082031 61.6391487121582 76.83314514160156 61.65211486816406 C 76.29578399658203 61.71485900878906 75.82544708251953 62.01540374755859 75.54277038574219 62.47670364379883 C 75.26009368896484 62.93800354003906 75.20581817626953 63.49350357055664 75.39386749267578 64.00078582763672 C 75.43272399902344 64.10561370849609 75.39380645751953 64.18821716308594 75.36714935302734 64.22810363769531 C 75.34049224853516 64.26799011230469 75.27910614013672 64.33554077148438 75.16742706298828 64.33975219726562 C 74.62673950195312 64.36014556884766 74.13426971435547 64.62289428710938 73.81626892089844 65.06059265136719 C 73.49826812744141 65.49828338623047 73.40059661865234 66.04781341552734 73.54826354980469 66.56826782226562 C 73.5780029296875 66.67312622070312 73.53524017333984 66.75125122070312 73.50710296630859 66.78848266601562 C 73.47882843017578 66.82590484619141 73.41530609130859 66.88867950439453 73.30766296386719 66.88867950439453 L 73.29589080810547 66.88843536376953 C 73.27187347412109 66.88743591308594 73.24733734130859 66.88694000244141 73.22310638427734 66.88694000244141 C 72.69686889648438 66.88694000244141 72.20343017578125 67.12081909179688 71.86930084228516 67.52860260009766 C 71.53536987304688 67.93614959716797 71.40328979492188 68.46627044677734 71.50692749023438 68.98303985595703 C 71.52628326416016 69.07958221435547 71.48957061767578 69.14962768554688 71.45536041259766 69.19138336181641 C 71.42689514160156 69.22612762451172 71.36407470703125 69.28441619873047 71.26309204101562 69.28441619873047 C 71.26300811767578 69.28441619873047 71.26291656494141 69.28441619873047 71.26282501220703 69.28441619873047 C 71.25209808349609 69.28441619873047 71.24143218994141 69.28375244140625 71.230224609375 69.28240203857422 C 71.16007995605469 69.27400207519531 71.08909606933594 69.26976013183594 71.01910400390625 69.26976013183594 C 70.52019500732422 69.26976013183594 70.04332733154297 69.4847412109375 69.71078491210938 69.85955810546875 C 69.37889099121094 70.23363494873047 69.22274780273438 70.73321533203125 69.28237152099609 71.23021697998047 C 69.29350280761719 71.32308959960938 69.2554931640625 71.38809204101562 69.22163391113281 71.42624664306641 C 69.17311859130859 71.48094940185547 69.10524749755859 71.5123291015625 69.03543853759766 71.5123291015625 C 69.03538513183594 71.5123291015625 69.03533172607422 71.5123291015625 69.0352783203125 71.5123291015625 C 69.01810455322266 71.5123291015625 69.00100708007812 71.51055908203125 68.98301696777344 71.5069580078125 C 68.86859130859375 71.48401641845703 68.75189208984375 71.47238159179688 68.63616943359375 71.47238159179688 C 68.16340637207031 71.47238159179688 67.70341491699219 71.66908264160156 67.37416839599609 72.01206207275391 C 67.041259765625 72.35884857177734 66.86873626708984 72.81479644775391 66.88838195800781 73.29590606689453 C 66.89200592041016 73.38460540771484 66.85305786132812 73.44459533691406 66.81974792480469 73.47929382324219 C 66.77141571044922 73.52964782714844 66.70555877685547 73.55852508544922 66.63906860351562 73.55852508544922 C 66.61600494384766 73.55854034423828 66.59217071533203 73.55509185791016 66.5682373046875 73.54830169677734 C 66.41152954101562 73.50381469726562 66.25006866455078 73.48122406005859 66.0885009765625 73.48122406005859 C 65.14352416992188 73.48122406005859 64.37535858154297 74.22189331054688 64.33971405029297 75.16741180419922 C 64.33404541015625 75.31748962402344 64.20524597167969 75.41039276123047 64.08915710449219 75.41040802001953 C 64.06002807617188 75.41040802001953 64.03029632568359 75.40486145019531 64.00077056884766 75.39391326904297 C 63.80411529541016 75.32101440429688 63.59908294677734 75.2840576171875 63.39134979248047 75.2840576171875 C 62.50291442871094 75.2840576171875 61.75519180297852 75.95002746582031 61.65206909179688 76.83316040039062 C 61.63512802124023 76.97821807861328 61.51043701171875 77.05649566650391 61.40171432495117 77.05649566650391 C 61.36638259887695 77.05649566650391 61.33094787597656 77.04839324951172 61.29639434814453 77.03239440917969 C 61.06322479248047 76.9244384765625 60.81580352783203 76.86968231201172 60.56105804443359 76.86968231201172 C 59.72652816772461 76.86968231201172 59.00355911254883 77.46403503417969 58.84199142456055 78.28291320800781 C 58.81561660766602 78.41665649414062 58.69703674316406 78.48664855957031 58.59355926513672 78.48665618896484 C 58.55176162719727 78.48665618896484 58.51079177856445 78.47554779052734 58.47180557250977 78.45362854003906 C 58.20963668823242 78.3062744140625 57.91331481933594 78.22837066650391 57.61487197875977 78.22837066650391 C 56.83216094970703 78.22837066650391 56.13801574707031 78.75447082519531 55.92686080932617 79.50775146484375 C 55.89115905761719 79.63507843017578 55.77832794189453 79.69208526611328 55.68233871459961 79.69208526611328 C 55.63359451293945 79.69208526611328 55.5871696472168 79.67753601074219 55.54438018798828 79.64884948730469 C 55.25445938110352 79.45446014404297 54.91779327392578 79.35169219970703 54.57081604003906 79.35169219970703 C 53.83834838867188 79.35169219970703 53.17679214477539 79.81317901611328 52.92460250854492 80.50006866455078 C 52.87980270385742 80.62210083007812 52.76800537109375 80.66541290283203 52.68588256835938 80.66542816162109 C 52.62982559204102 80.66543579101562 52.5781364440918 80.64704132080078 52.53224945068359 80.61074066162109 C 52.21958160400391 80.36342620849609 51.844482421875 80.23269653320312 51.44754791259766 80.23269653320312 C 50.76411437988281 80.23269653320312 50.13851547241211 80.63348388671875 49.8537483215332 81.25376129150391 C 49.79116058349609 81.39009094238281 49.66117095947266 81.40069580078125 49.6228141784668 81.40069580078125 C 49.5589485168457 81.40070343017578 49.50212478637695 81.37803649902344 49.45392608642578 81.33333587646484 C 49.12887191772461 81.03192901611328 48.70641708374023 80.86592864990234 48.2643928527832 80.86592864990234 C 47.62907028198242 80.86592864990234 47.0423469543457 81.21013641357422 46.73319244384766 81.76422882080078 C 46.66815948486328 81.88076782226562 46.55679321289062 81.89334869384766 46.51192474365234 81.89334869384766 C 46.46232604980469 81.89334869384766 46.39021682739258 81.8792724609375 46.328369140625 81.81214904785156 C 45.9976692199707 81.45326995849609 45.52846908569336 81.2474365234375 45.04107284545898 81.2474365234375 C 44.45317077636719 81.2474365234375 43.9078254699707 81.53932952880859 43.58224868774414 82.02823638916016 C 43.51723861694336 82.12586975097656 43.42276000976562 82.14044952392578 43.37222671508789 82.14044952392578 Z"/><path class="e" d="M 40.2507209777832 2.435966491699219 C 39.79409790039062 2.857429504394531 39.19165802001953 3.097816467285156 38.55422592163086 3.097816467285156 C 38.05805969238281 3.097816467285156 37.57516860961914 2.948593139648438 37.16769409179688 2.677391052246094 C 36.69990158081055 3.181938171386719 36.0363655090332 3.479331970214844 35.33090972900391 3.479331970214844 C 34.89957046508789 3.479331970214844 34.48141479492188 3.368858337402344 34.11176681518555 3.161766052246094 C 33.64329147338867 3.752601623535156 32.92145919799805 4.112556457519531 32.14775466918945 4.112556457519531 C 31.78724670410156 4.112556457519531 31.43041610717773 4.032920837402344 31.10446929931641 3.883132934570312 C 30.64634704589844 4.564308166503906 29.86833953857422 4.993553161621094 29.02449798583984 4.993553161621094 C 28.72799301147461 4.993553161621094 28.43691635131836 4.941192626953125 28.16231536865234 4.839828491210938 C 27.72598648071289 5.613029479980469 26.89559173583984 6.11688232421875 25.98043823242188 6.11688232421875 C 25.75203704833984 6.11688232421875 25.52459335327148 6.085052490234375 25.30519866943359 6.02325439453125 C 24.90294647216797 6.890815734863281 24.02350234985352 7.475570678710938 23.03422546386719 7.475570678710938 C 22.87016296386719 7.475570678710938 22.70833587646484 7.459732055664062 22.54959869384766 7.428260803222656 C 22.19379043579102 8.390281677246094 21.26975250244141 9.061187744140625 20.20394515991211 9.061187744140625 C 20.10653686523438 9.061187744140625 20.00957489013672 9.055519104003906 19.91336822509766 9.044235229492188 C 19.61748123168945 10.10121917724609 18.65322113037109 10.86400604248047 17.50680541992188 10.86400604248047 C 17.47486114501953 10.86400604248047 17.44293212890625 10.86338806152344 17.41102600097656 10.86215972900391 C 17.31965637207031 11.32513427734375 17.09803771972656 11.75270080566406 16.76215362548828 12.10257720947266 C 16.31507873535156 12.56829833984375 15.69853973388672 12.84506225585938 15.05760955810547 12.87088775634766 C 14.99751281738281 13.37235260009766 14.78638458251953 13.84922790527344 14.44551086425781 14.23345184326172 C 14.03668975830078 14.69422912597656 13.47476959228516 14.98579406738281 12.87116241455078 15.05790710449219 C 12.85005187988281 15.59560394287109 12.65538787841797 16.11569213867188 12.30614471435547 16.54193115234375 C 11.93462371826172 16.99536895751953 11.42508697509766 17.2982177734375 10.86274719238281 17.41008758544922 C 10.88500213623047 17.9649658203125 10.72120666503906 18.51380157470703 10.38576507568359 18.97548675537109 C 10.05039978027344 19.43706512451172 9.57916259765625 19.76240921020508 9.044723510742188 19.91275405883789 C 9.110336303710938 20.46405029296875 8.990097045898438 21.02393341064453 8.691978454589844 21.51040267944336 C 8.393875122070312 21.99687194824219 7.949623107910156 22.35817337036133 7.428627014160156 22.54998016357422 C 7.53729248046875 23.09442138671875 7.461349487304688 23.66201782226562 7.20233154296875 24.17036819458008 C 6.943305969238281 24.67871856689453 6.528770446777344 25.07376861572266 6.024421691894531 25.30587387084961 C 6.175498962402344 25.84015274047852 6.144302368164062 26.41189575195312 5.925941467285156 26.93903732299805 C 5.707611083984375 27.46613693237305 5.325355529785156 27.89248657226562 4.840766906738281 28.16344451904297 C 5.033302307128906 28.68421936035156 5.047065734863281 29.25662231445312 4.870742797851562 29.79927444458008 C 4.694442749023438 30.34189605712891 4.346794128417969 30.79693984985352 3.884963989257812 31.10508728027344 C 4.117729187011719 31.6091194152832 4.176383972167969 32.17874145507812 4.043205261230469 32.7335090637207 C 3.910011291503906 33.28829193115234 3.599136352539062 33.76920700073242 3.162910461425781 34.11263656616211 C 3.434501647949219 34.59685134887695 3.537673950195312 35.16012191772461 3.44842529296875 35.72363662719727 C 3.359169006347656 36.28715133666992 3.08697509765625 36.79099273681641 2.679039001464844 37.16758728027344 C 2.987785339355469 37.62900543212891 3.134841918945312 38.18246078491211 3.090072631835938 38.75123977661133 C 3.045310974121094 39.32000732421875 2.813507080078125 39.84361267089844 2.436378479003906 40.25105285644531 C 2.780372619628906 40.68682098388672 2.970390319824219 41.22702026367188 2.970382690429688 41.79754257202148 C 2.970382690429688 42.36808776855469 2.780364990234375 42.90828704833984 2.436355590820312 43.34407043457031 C 2.813491821289062 43.75150299072266 3.045295715332031 44.27511978149414 3.090065002441406 44.84389877319336 C 3.134834289550781 45.41268539428711 2.987800598144531 45.96611022949219 2.679039001464844 46.42754364013672 C 3.08697509765625 46.80412673950195 3.359153747558594 47.30794525146484 3.448402404785156 47.8714599609375 C 3.537651062011719 48.43498611450195 3.434478759765625 48.99826431274414 3.162872314453125 49.48249816894531 C 3.599151611328125 49.82593154907227 3.90997314453125 50.30681228637695 4.043167114257812 50.86162567138672 C 4.176361083984375 51.41641235351562 4.117706298828125 51.98603057861328 3.884933471679688 52.49006652832031 C 4.3468017578125 52.79821014404297 4.694389343261719 53.25322341918945 4.870712280273438 53.79587554931641 C 5.047004699707031 54.33849334716797 5.033226013183594 54.91094589233398 4.840728759765625 55.43169403076172 C 5.325294494628906 55.70265960693359 5.707588195800781 56.1290397644043 5.925918579101562 56.65615844726562 C 6.144241333007812 57.18326568603516 6.175422668457031 57.75502014160156 6.024368286132812 58.28926086425781 C 6.528739929199219 58.5213623046875 6.943252563476562 58.91640472412109 7.202285766601562 59.42478942871094 C 7.461288452148438 59.93314361572266 7.5372314453125 60.50071334838867 7.428565979003906 61.04515838623047 C 7.949600219726562 61.23696899414062 8.393829345703125 61.59828186035156 8.691947937011719 62.08477783203125 C 8.990043640136719 62.57125091552734 9.110275268554688 63.13110733032227 9.044662475585938 63.68239593505859 C 9.5791015625 63.83273315429688 10.05031585693359 64.15806579589844 10.38567352294922 64.61963653564453 C 10.72112274169922 65.08132934570312 10.88492584228516 65.63018798828125 10.8626708984375 66.18508911132812 C 11.42494964599609 66.29698181152344 11.93455505371094 66.599853515625 12.30605316162109 67.05325317382812 C 12.65530395507812 67.47949981689453 12.84996795654297 67.99957275390625 12.87107086181641 68.53727722167969 C 13.47461700439453 68.60942077636719 14.03661346435547 68.9010009765625 14.44541168212891 69.36177062988281 C 14.78630065917969 69.74600219726562 14.99742126464844 70.22285461425781 15.05751800537109 70.72430419921875 C 15.69841766357422 70.75012969970703 16.31495666503906 71.02690124511719 16.76204681396484 71.49263000488281 C 17.09793853759766 71.84252166748047 17.31955718994141 72.27005767822266 17.41093444824219 72.73304748535156 C 17.44284057617188 72.73181915283203 17.47478485107422 72.731201171875 17.50672912597656 72.731201171875 C 18.65316009521484 72.731201171875 19.61740112304688 73.49395751953125 19.91326904296875 74.55095672607422 C 20.00946807861328 74.5396728515625 20.10644149780273 74.53400421142578 20.20384979248047 74.53400421142578 C 21.26968002319336 74.53400421142578 22.19372177124023 75.20491027832031 22.54951095581055 76.16693878173828 C 22.7082405090332 76.13547515869141 22.87007904052734 76.11963653564453 23.03413391113281 76.11963653564453 C 24.02336120605469 76.11963653564453 24.90279388427734 76.70436859130859 25.30507659912109 77.57194519042969 C 25.52448272705078 77.5101318359375 25.75189208984375 77.47830963134766 25.98030853271484 77.47830963134766 C 26.89547348022461 77.47830963134766 27.72587585449219 77.98218536376953 28.16220855712891 78.75538635253906 C 28.43680572509766 78.65402221679688 28.72787475585938 78.60166168212891 29.02437973022461 78.60166168212891 C 29.86823272705078 78.60166168212891 30.646240234375 79.03090667724609 31.1043586730957 79.71209716796875 C 31.43032073974609 79.56228637695312 31.78710556030273 79.48267364501953 32.14765167236328 79.48267364501953 C 32.92132186889648 79.48267364501953 33.6431770324707 79.84268188476562 34.11164855957031 80.43345642089844 C 34.48126602172852 80.22640228271484 34.89945602416992 80.11590576171875 35.33078002929688 80.11590576171875 C 36.03623580932617 80.11590576171875 36.69979476928711 80.41333770751953 37.16758346557617 80.91786956787109 C 37.5750617980957 80.64666748046875 38.05797576904297 80.49742889404297 38.55411911010742 80.49742889404297 C 39.19154357910156 80.49742889404297 39.79396820068359 80.73780822753906 40.2505989074707 81.15927886962891 C 40.68645858764648 80.81501770019531 41.22682952880859 80.62487030029297 41.79759216308594 80.62487030029297 C 42.36835098266602 80.62487030029297 42.90871047973633 80.81501007080078 43.34458923339844 81.15928649902344 C 43.80120849609375 80.73783111572266 44.40365219116211 80.4974365234375 45.04107284545898 80.4974365234375 C 45.53721618652344 80.4974365234375 46.02009963989258 80.64665985107422 46.42758560180664 80.91786956787109 C 46.89537811279297 80.413330078125 47.55892181396484 80.11592102050781 48.26437759399414 80.11592102050781 C 48.69570922851562 80.11592102050781 49.11386871337891 80.22639465332031 49.48352432250977 80.43349456787109 C 49.95199203491211 79.84263610839844 50.67382431030273 79.48268127441406 51.44755554199219 79.48268127441406 C 51.80807495117188 79.48268127441406 52.1649169921875 79.56232452392578 52.49084854125977 79.71211242675781 C 52.94896697998047 79.03092956542969 53.72696685791016 78.6016845703125 54.57080078125 78.6016845703125 C 54.8673095703125 78.6016845703125 55.15841293334961 78.65406036376953 55.43299102783203 78.75540924072266 C 55.86932373046875 77.98220825195312 56.6997184753418 77.47837066650391 57.61487579345703 77.47837066650391 C 57.84327697753906 77.47837066650391 58.07070159912109 77.51019287109375 58.29008865356445 77.57199859619141 C 58.69235229492188 76.70444488525391 59.57181549072266 76.11968231201172 60.56106185913086 76.11968231201172 C 60.72512817382812 76.11968231201172 60.88695526123047 76.13551330566406 61.04568862915039 76.16698455810547 C 61.40149688720703 75.20497131347656 62.32553482055664 74.53404998779297 63.39134216308594 74.53404998779297 C 63.48875427246094 74.53404998779297 63.58572387695312 74.53971862792969 63.68191909790039 74.55100250244141 C 63.97778701782227 73.49400329589844 64.94203948974609 72.73122406005859 66.08848571777344 72.73122406005859 C 66.12042999267578 72.73122406005859 66.15235137939453 72.73184204101562 66.18425750732422 72.73307037353516 C 66.27561950683594 72.27009582519531 66.49723052978516 71.84255981445312 66.83310699462891 71.49267578125 C 67.28018951416016 71.02694702148438 67.896728515625 70.75017547607422 68.53767395019531 70.72434997558594 C 68.59774780273438 70.22288513183594 68.80885314941406 69.74604797363281 69.14974212646484 69.36181640625 C 69.55856323242188 68.90101623535156 70.12053680419922 68.60943603515625 70.72415161132812 68.53731536865234 C 70.74524688720703 67.99955749511719 70.93991851806641 67.47949981689453 71.28919219970703 67.05323791503906 C 71.66067504882812 66.59986877441406 72.17025756835938 66.29701995849609 72.7325439453125 66.18513488769531 C 72.71028137207031 65.63025665283203 72.87407684326172 65.08144378662109 73.20949554443359 64.61975860595703 C 73.54484558105469 64.15817260742188 74.01609802246094 63.83282470703125 74.55056762695312 63.68246841430664 C 74.48493957519531 63.13117218017578 74.60517883300781 62.57129669189453 74.90328216552734 62.0848274230957 C 75.20140075683594 61.59835815429688 75.64565277099609 61.23705291748047 76.16664123535156 61.04524230957031 C 76.05793762207031 60.50076293945312 76.13389587402344 59.93324279785156 76.39292907714844 59.42485046386719 C 76.65195465087891 58.91649627685547 77.06649017333984 58.52145004272461 77.57083892822266 58.28934478759766 C 77.41975402832031 57.75506591796875 77.45095062255859 57.18331146240234 77.6693115234375 56.65616607666016 C 77.88764953613281 56.12905883789062 78.26992034912109 55.70270538330078 78.75450134277344 55.43175506591797 C 78.56198883056641 54.91101837158203 78.5482177734375 54.33858489990234 78.72451782226562 53.79597854614258 C 78.90081787109375 53.25334930419922 79.24846649169922 52.79829406738281 79.71030426025391 52.49014282226562 C 79.4775390625 51.98611450195312 79.41887664794922 51.41648864746094 79.55206298828125 50.86172103881836 C 79.68524932861328 50.30693817138672 79.99612426757812 49.82601547241211 80.43236541748047 49.48257446289062 C 80.16077423095703 48.99836349487305 80.05760192871094 48.43508529663086 80.1468505859375 47.87157821655273 C 80.23609924316406 47.30805587768555 80.50827789306641 46.80423736572266 80.91621398925781 46.42763519287109 C 80.60743713378906 45.96620941162109 80.46043395996094 45.41283416748047 80.50518798828125 44.84402465820312 C 80.54995727539062 44.27524566650391 80.78176116943359 43.75161743164062 81.15889739990234 43.34416580200195 C 80.81485748291016 42.90838623046875 80.62488555908203 42.36824417114258 80.62488555908203 41.79767227172852 C 80.62488555908203 41.22713851928711 80.81489562988281 40.68694305419922 81.15888977050781 40.25116348266602 C 80.78172302246094 39.84371185302734 80.54994964599609 39.32011795043945 80.50518798828125 38.75130844116211 C 80.46043395996094 38.18252944946289 80.60748291015625 37.62908935546875 80.91622161865234 37.16767120361328 C 80.50829315185547 36.79108810424805 80.23612213134766 36.28728485107422 80.14687347412109 35.72377777099609 C 80.0576171875 35.16025543212891 80.16077423095703 34.59697723388672 80.43238067626953 34.11273956298828 C 79.99610137939453 33.76930999755859 79.68527221679688 33.28842544555664 79.55207061767578 32.73361587524414 C 79.41888427734375 32.17884063720703 79.47753143310547 31.60922241210938 79.71030426025391 31.10517120361328 C 79.24848937988281 30.79703140258789 78.90084075927734 30.34197998046875 78.72454071044922 29.79936599731445 C 78.54824066162109 29.25674438476562 78.56201934814453 28.68428421020508 78.75452423095703 28.16353607177734 C 78.26990509033203 27.892578125 77.88768768310547 27.46623992919922 77.66934204101562 26.9390983581543 C 77.45101165771484 26.41199111938477 77.41983032226562 25.84020614624023 77.57087707519531 25.30596160888672 C 77.06655120849609 25.07386016845703 76.65199279785156 24.67880630493164 76.39298248291016 24.17046356201172 C 76.13395690917969 23.662109375 76.05801391601562 23.09451675415039 76.16667938232422 22.55005645751953 C 75.64568328857422 22.35823822021484 75.20143127441406 21.99692916870117 74.90333557128906 21.51045989990234 C 74.605224609375 21.02399444580078 74.4849853515625 20.46413421630859 74.55060577392578 19.91283416748047 C 74.01617431640625 19.76249313354492 73.54491424560547 19.43714904785156 73.20955657958984 18.97557830810547 C 72.87410736083984 18.51388549804688 72.71031188964844 17.96505737304688 72.73256683349609 17.41014862060547 C 72.17029571533203 17.29826354980469 71.66072082519531 16.99540710449219 71.28923034667969 16.54201507568359 C 70.93997192382812 16.11577606201172 70.74530029296875 15.59568786621094 70.72418975830078 15.05797576904297 C 70.12059783935547 14.98585510253906 69.55863952636719 14.69427490234375 69.14980316162109 14.23347473144531 C 68.80891418457031 13.8492431640625 68.59779357910156 13.37240600585938 68.53770446777344 12.87093353271484 C 67.89678955078125 12.84510803222656 67.28025054931641 12.56832885742188 66.83316040039062 12.10259246826172 C 66.49726867675781 11.75270080566406 66.27566528320312 11.3251953125 66.18429565429688 10.86220550537109 C 66.15238952636719 10.86343383789062 66.12045288085938 10.86405181884766 66.08850860595703 10.86405181884766 C 64.94209289550781 10.86405181884766 63.97784805297852 10.10128021240234 63.68196487426758 9.044281005859375 C 63.58574676513672 9.055572509765625 63.48878479003906 9.061241149902344 63.391357421875 9.061241149902344 C 62.32552719116211 9.061241149902344 61.4014892578125 8.390312194824219 61.04570770263672 7.428291320800781 C 60.88697814941406 7.459762573242188 60.72515106201172 7.475593566894531 60.56109619140625 7.475593566894531 C 59.57186126708984 7.475593566894531 58.69242477416992 6.890853881835938 58.29014205932617 6.023277282714844 C 58.07073974609375 6.0850830078125 57.84331893920898 6.116905212402344 57.61489868164062 6.116905212402344 C 56.69974517822266 6.116905212402344 55.86933898925781 5.613044738769531 55.43300628662109 4.839859008789062 C 55.15840911865234 4.941215515136719 54.86734008789062 4.993576049804688 54.57083892822266 4.993576049804688 C 53.72699356079102 4.993576049804688 52.94900512695312 4.564346313476562 52.49087524414062 3.883155822753906 C 52.16491317749023 4.032966613769531 51.80812835693359 4.112579345703125 51.44758987426758 4.112579345703125 C 50.67393112182617 4.112579345703125 49.95205307006836 3.7525634765625 49.48357391357422 3.161781311035156 C 49.11393737792969 3.368850708007812 48.69575881958008 3.479347229003906 48.26442718505859 3.479347229003906 C 47.55895233154297 3.479347229003906 46.89540481567383 3.181930541992188 46.42762756347656 2.677406311035156 C 46.02014923095703 2.948600769042969 45.53726577758789 3.097824096679688 45.04112243652344 3.097824096679688 C 44.4036979675293 3.097824096679688 43.8012809753418 2.857460021972656 43.34465026855469 2.435997009277344 C 42.90880584716797 2.78021240234375 42.36843872070312 2.970352172851562 41.79769897460938 2.970352172851562 C 41.22693634033203 2.970352172851562 40.68660354614258 2.780242919921875 40.2507209777832 2.435966491699219 M 40.22304916381836 0.704803466796875 C 40.51546096801758 0.704803466796875 40.80862045288086 0.8311843872070312 41.01009750366211 1.087577819824219 L 41.0101203918457 1.087600708007812 C 41.41115188598633 1.597953796386719 42.18425750732422 1.59796142578125 42.58529663085938 1.087577819824219 L 42.58523941040039 1.087646484375 C 43.00648498535156 0.5515289306640625 43.82863616943359 0.5838241577148438 44.20654296875 1.151329040527344 C 44.56630706787109 1.691566467285156 45.33700561523438 1.752220153808594 45.77685165405273 1.274909973144531 L 45.77687454223633 1.274887084960938 C 46.2389030456543 0.7735061645507812 47.05596160888672 0.8701934814453125 47.38817977905273 1.465606689453125 L 47.38817977905273 1.465614318847656 C 47.70443725585938 2.032424926757812 48.46801376342773 2.153358459472656 48.94395446777344 1.7120361328125 L 48.94399261474609 1.711990356445312 C 49.44393157958984 1.248390197753906 50.25088119506836 1.408920288085938 50.53535461425781 2.028541564941406 L 50.53538131713867 2.028594970703125 C 50.80619812011719 2.618453979492188 51.55792617797852 2.798927307128906 52.06702423095703 2.396293640136719 L 52.06705093383789 2.396270751953125 C 52.60181427001953 1.973350524902344 53.39369964599609 2.196670532226562 53.6286735534668 2.836700439453125 L 53.62869644165039 2.83673095703125 C 53.85239410400391 3.446044921875 54.587646484375 3.684928894042969 55.12675476074219 3.323486328125 L 55.12677764892578 3.323471069335938 C 55.69308471679688 2.943778991699219 56.46499252319336 3.228569030761719 56.64904022216797 3.885063171386719 L 56.64904022216797 3.885093688964844 C 56.82424926757812 4.510078430175781 57.53849029541016 4.805931091308594 58.10429763793945 4.487884521484375 L 58.10434341430664 4.487861633300781 C 58.69869995117188 4.153778076171875 59.44587326049805 4.498237609863281 59.57783889770508 5.167144775390625 L 59.57786178588867 5.167190551757812 C 59.70348739624023 5.803993225097656 60.39232635498047 6.154975891113281 60.98133087158203 5.882293701171875 L 60.98135375976562 5.882293701171875 C 61.60009002685547 5.59588623046875 62.31794738769531 5.997894287109375 62.39702606201172 6.675094604492188 L 62.39702606201172 6.675132751464844 C 62.47231292724609 7.319831848144531 63.1314582824707 7.723762512207031 63.74006271362305 7.498153686523438 L 63.74011993408203 7.498130798339844 C 64.37940979003906 7.26116943359375 65.06350708007812 7.71826171875 65.08921813964844 8.399566650390625 L 65.08921813964844 8.399612426757812 C 65.11368560791016 9.048225402832031 65.73912811279297 9.502639770507812 66.36354064941406 9.325469970703125 L 66.36359405517578 9.325469970703125 C 67.01950073242188 9.139411926269531 67.66563415527344 9.648750305175781 67.63779449462891 10.32997894287109 L 67.63779449462891 10.33000183105469 C 67.61128234863281 10.97853088378906 68.19915008544922 11.48065185546875 68.83555603027344 11.35298919677734 L 68.8355712890625 11.35298919677734 C 69.50408172607422 11.21890258789062 70.10825347900391 11.77742767333984 70.02705383300781 12.45437622070312 L 70.02703857421875 12.45441436767578 C 69.94974517822266 13.09886169433594 70.49640655517578 13.64558410644531 71.14085388183594 13.56821441650391 L 71.14093017578125 13.56821441650391 C 71.81789398193359 13.48696136474609 72.37636566162109 14.09119415283203 72.2423095703125 14.75968170166016 L 72.2423095703125 14.75971984863281 C 72.11468505859375 15.3961181640625 72.61673736572266 15.98358917236328 73.26528930664062 15.95748901367188 L 73.26530456542969 15.95748901367188 C 73.94660949707031 15.92971038818359 74.45591735839844 16.57577514648438 74.26980590820312 17.23171234130859 L 74.26980590820312 17.23173522949219 C 74.09263610839844 17.85614776611328 74.54705047607422 18.48160552978516 75.19566345214844 18.50606536865234 L 75.19570922851562 18.50606536865234 C 75.87703704833984 18.53175354003906 76.33414459228516 19.21587371826172 76.09715270996094 19.85516738891602 L 76.09714508056641 19.85519027709961 C 75.87153625488281 20.46379089355469 76.27545928955078 21.12296676635742 76.920166015625 21.19824981689453 C 77.59738159179688 21.27732086181641 77.9993896484375 21.99517822265625 77.71298217773438 22.61391067504883 L 77.71296691894531 22.61394500732422 C 77.4403076171875 23.20296859741211 77.79127502441406 23.89179229736328 78.42807006835938 24.01742553710938 L 78.42810821533203 24.01743698120117 C 79.09701538085938 24.1494026184082 79.44145965576172 24.89659118652344 79.10740661621094 25.49093246459961 L 79.10737609863281 25.490966796875 C 78.78935241699219 26.05677795410156 79.085205078125 26.77101516723633 79.71016693115234 26.94622802734375 L 79.71021270751953 26.94623947143555 C 80.36670684814453 27.13027191162109 80.65148162841797 27.90219116210938 80.27180480957031 28.46849822998047 L 80.27178192138672 28.46853256225586 C 79.91033172607422 29.00763702392578 80.14922332763672 29.74289703369141 80.75852966308594 29.96660232543945 L 80.75855255126953 29.96660232543945 C 81.39859008789062 30.20159149169922 81.62191772460938 30.99347305297852 81.19896697998047 31.52823638916016 L 81.19896697998047 31.52825164794922 C 80.79631805419922 32.03735733032227 80.976806640625 32.78908538818359 81.56667327880859 33.05989837646484 L 81.56671905517578 33.05993270874023 C 82.18634033203125 33.34440231323242 82.34686279296875 34.1513557434082 81.88327026367188 34.65128707885742 L 81.88323974609375 34.65133285522461 C 81.44190979003906 35.12726211547852 81.56283569335938 35.89083862304688 82.12964630126953 36.20709609985352 L 82.12967681884766 36.20710754394531 C 82.72505950927734 36.53931045532227 82.82176971435547 37.35636901855469 82.32038879394531 37.81840133666992 L 82.32034301757812 37.81843948364258 C 81.84304046630859 38.25828552246094 81.90369415283203 39.02898025512695 82.44392395019531 39.38874435424805 L 82.44397735595703 39.38876724243164 C 83.01145172119141 39.76667404174805 83.04375457763672 40.58877944946289 82.50767517089844 41.01005172729492 L 82.50763702392578 41.01007461547852 C 81.99729919433594 41.4111213684082 81.99729919433594 42.1841926574707 82.50763702392578 42.58522796630859 L 82.50767517089844 42.58525085449219 C 83.04375457763672 43.00651931762695 83.01145935058594 43.8286247253418 82.44397735595703 44.2065315246582 L 82.44393157958984 44.20656585693359 C 81.90369415283203 44.56633377075195 81.84304809570312 45.3370246887207 82.32034301757812 45.77686309814453 L 82.32038116455078 45.77689743041992 C 82.82175445556641 46.23892211914062 82.72505950927734 47.05596923828125 82.12967681884766 47.38817977905273 L 82.12964630126953 47.38820266723633 C 81.56283569335938 47.70446014404297 81.44189453125 48.46803665161133 81.88322448730469 48.94396591186523 L 81.88327026367188 48.94400405883789 C 82.34686279296875 49.44394302368164 82.18634033203125 50.25089645385742 81.56671905517578 50.53536605834961 L 81.56666564941406 50.53539276123047 C 80.97679138183594 50.80621337890625 80.79631805419922 51.55794525146484 81.19895935058594 52.06703948974609 L 81.19896697998047 52.06706237792969 C 81.62191772460938 52.60182571411133 81.39859008789062 53.39370727539062 80.75855255126953 53.62869644165039 L 80.75850677490234 53.62870788574219 C 80.14921569824219 53.8524169921875 79.91030883789062 54.58766174316406 80.27176666259766 55.12677764892578 L 80.27176666259766 55.12679290771484 C 80.65145111083984 55.69309616088867 80.36668395996094 56.46500396728516 79.71016693115234 56.6490478515625 L 79.71014404296875 56.6490478515625 C 79.08516693115234 56.82426452636719 78.78932189941406 57.53849792480469 79.10734558105469 58.10432052612305 L 79.10737609863281 58.1043701171875 C 79.44145202636719 58.69870758056641 79.09699249267578 59.44589614868164 78.42808532714844 59.57786178588867 L 78.42803955078125 59.57787322998047 C 77.79125213623047 59.70349884033203 77.44027709960938 60.39231872558594 77.71293640136719 60.98134613037109 L 77.71295928955078 60.98139190673828 C 77.99935913085938 61.60012054443359 77.59733581542969 62.31797027587891 76.92013549804688 62.39704895019531 L 76.92012023925781 62.39703750610352 C 76.27543640136719 62.47232055664062 75.87148284912109 63.13148498535156 76.09710693359375 63.74009704589844 L 76.09710693359375 63.74013519287109 C 76.33408355712891 64.37942504882812 75.87700653076172 65.06352233886719 75.19567108154297 65.08921813964844 L 75.19562530517578 65.08922576904297 C 74.54701232910156 65.11369323730469 74.09261322021484 65.7391357421875 74.269775390625 66.36357116699219 L 74.26979064941406 66.36359405517578 C 74.45588684082031 67.01950073242188 73.94651794433594 67.66561889648438 73.26528930664062 67.63780212402344 L 73.2652587890625 67.63780212402344 C 72.61676025390625 67.61127471923828 72.11466217041016 68.19916534423828 72.24227142333984 68.8355712890625 L 72.24228668212891 68.83560180664062 C 72.3763427734375 69.50411224365234 71.81784057617188 70.1082763671875 71.14089965820312 70.02706146240234 L 71.14082336425781 70.02706146240234 C 70.49639129638672 69.94977569580078 69.94970703125 70.49641418457031 70.02702331542969 71.14087677001953 L 70.02702331542969 71.14092254638672 C 70.10823059082031 71.81787109375 69.50403594970703 72.37636566162109 68.83554077148438 72.2423095703125 C 68.19913482666016 72.11467742919922 67.61125946044922 72.61676025390625 67.63777160644531 73.26528930664062 L 67.63777160644531 73.26531982421875 C 67.66558837890625 73.94655609130859 67.01947021484375 74.45592498779297 66.36354064941406 74.26981353759766 L 66.36351776123047 74.26980590820312 C 65.73908996582031 74.09263610839844 65.11363983154297 74.54705810546875 65.08917999267578 75.19567108154297 L 65.08917236328125 75.19570922851562 C 65.0634765625 75.87702941894531 64.37935638427734 76.33412933349609 63.74008560180664 76.09715270996094 L 63.74005126953125 76.09712982177734 C 63.1314582824707 75.87153625488281 62.47228622436523 76.27545928955078 62.39700317382812 76.92014312744141 L 62.39699172973633 76.92018890380859 C 62.31791687011719 77.59740447998047 61.60005950927734 77.99942016601562 60.9813232421875 77.71298980712891 L 60.98129653930664 77.71298217773438 C 60.39228820800781 77.4403076171875 59.70345306396484 77.79129028320312 59.57781219482422 78.42808532714844 L 59.57780456542969 78.42813110351562 C 59.44582748413086 79.09703826904297 58.69864654541016 79.44149780273438 58.10429763793945 79.10741424560547 L 58.10427093505859 79.10740661621094 C 57.53846740722656 78.78936767578125 56.82421875 79.08521270751953 56.64901733398438 79.71018981933594 L 56.64900207519531 79.71021270751953 C 56.4649543762207 80.36670684814453 55.69303512573242 80.65147399902344 55.12674331665039 80.27180480957031 L 55.12673187255859 80.27178955078125 C 54.58761215209961 79.91033172607422 53.85235595703125 80.14922332763672 53.628662109375 80.758544921875 L 53.6286506652832 80.75858306884766 C 53.39366149902344 81.39860534667969 52.60179138183594 81.62193298339844 52.0670166015625 81.19898986816406 L 52.06699371337891 81.19896697998047 C 51.55788803100586 80.79632568359375 50.80615615844727 80.976806640625 50.53534317016602 81.56668853759766 L 50.53532028198242 81.56673431396484 C 50.2508544921875 82.18635559082031 49.44390106201172 82.34687805175781 48.94395446777344 81.88327026367188 L 48.94390869140625 81.88323974609375 C 48.46797180175781 81.44189453125 47.70438766479492 81.56284332275391 47.38813400268555 82.12964630126953 L 47.38813400268555 82.12966156005859 C 47.05591583251953 82.72505950927734 46.23886108398438 82.82176971435547 45.77683639526367 82.32038879394531 L 45.77680206298828 82.32034301757812 C 45.33695602416992 81.84304046630859 44.56626129150391 81.90369415283203 44.20650863647461 82.44393157958984 L 44.20647430419922 82.44397735595703 C 43.82857513427734 83.01145935058594 43.00646209716797 83.04375457763672 42.58520126342773 82.50768280029297 L 42.58515548706055 82.50762939453125 C 42.18412399291992 81.99728393554688 41.41104507446289 81.99729919433594 41.01001358032227 82.50763702392578 L 41.00999069213867 82.50765991210938 C 40.5887336730957 83.04374694824219 39.7666130065918 83.01144409179688 39.38871002197266 82.44395446777344 L 39.38868713378906 82.44392395019531 C 39.0289306640625 81.90370178222656 38.25823974609375 81.84302520751953 37.81838989257812 82.32034301757812 L 37.81833267211914 82.32038879394531 C 37.3563117980957 82.82177734375 36.53925704956055 82.72506713867188 36.20705032348633 82.12968444824219 L 36.20702743530273 82.12962341308594 C 35.89075088500977 81.56281280517578 35.12717819213867 81.44187164306641 34.65124893188477 81.88322448730469 L 34.65123748779297 81.88323974609375 C 34.15129852294922 82.34683990478516 33.34433746337891 82.18632507324219 33.05986022949219 81.56669616699219 L 33.05984878540039 81.56666564941406 C 32.78903198242188 80.97678375244141 32.03730773925781 80.79630279541016 31.52820205688477 81.19895935058594 L 31.52817916870117 81.19896697998047 C 30.9933967590332 81.62191772460938 30.20151901245117 81.39858245849609 29.96654510498047 80.758544921875 L 29.96653366088867 80.75850677490234 C 29.74283599853516 80.14921569824219 29.0075798034668 79.91031646728516 28.46846008300781 80.27175903320312 L 28.46843719482422 80.27176666259766 C 27.90214920043945 80.65144348144531 27.13022613525391 80.36668395996094 26.9461784362793 79.71018981933594 L 26.9461669921875 79.71012878417969 C 26.77096557617188 79.08516693115234 26.05672073364258 78.789306640625 25.49090957641602 79.10734558105469 L 25.49087524414062 79.10736846923828 C 24.89651107788086 79.44144439697266 24.14934158325195 79.09697723388672 24.01737976074219 78.42807006835938 L 24.01736831665039 78.42803955078125 C 23.89172744750977 77.79123687744141 23.20291519165039 77.44027709960938 22.61389541625977 77.71293640136719 L 22.61384963989258 77.71295928955078 C 21.99512481689453 77.99935913085938 21.27727508544922 77.59734344482422 21.19819259643555 76.92013549804688 L 21.19819259643555 76.92010498046875 C 21.12290954589844 76.27541351318359 20.46372222900391 75.87147521972656 19.85514450073242 76.09708404541016 L 19.85511016845703 76.09708404541016 C 19.21581268310547 76.33409118652344 18.53171539306641 75.87697601318359 18.50601196289062 75.19564819335938 L 18.50601196289062 75.19562530517578 C 18.48155975341797 74.54701995849609 17.85610961914062 74.09259796142578 17.23168182373047 74.269775390625 L 17.23165130615234 74.269775390625 C 16.57572937011719 74.45587158203125 15.92960357666016 73.94651031494141 15.95743560791016 73.26527404785156 L 15.95743560791016 73.26523590087891 C 15.98392486572266 72.61671447753906 15.39608764648438 72.11461639404297 14.75968170166016 72.24224853515625 L 14.75962829589844 72.24226379394531 C 14.09111785888672 72.37631225585938 13.48698425292969 71.81782531738281 13.56816864013672 71.14086151123047 L 13.56817626953125 71.14082336425781 C 13.64547729492188 70.49637603759766 13.09873962402344 69.94972229003906 12.45436859130859 70.02701568603516 L 12.45433044433594 70.02702331542969 C 11.77738189697266 70.10823822021484 11.21888732910156 69.50404357910156 11.35294342041016 68.83555603027344 L 11.35294342041016 68.83551788330078 C 11.48058319091797 68.19912719726562 10.97843170166016 67.61122894287109 10.32997131347656 67.63775634765625 L 10.32993316650391 67.63775634765625 C 9.648353576660156 67.66553497314453 9.139328002929688 67.01947021484375 9.325424194335938 66.36354064941406 L 9.325439453125 66.36349487304688 C 9.502601623535156 65.73905944824219 9.048194885253906 65.11361694335938 8.399566650390625 65.08915710449219 L 8.399559020996094 65.08915710449219 C 7.718238830566406 65.06346130371094 7.261131286621094 64.37935638427734 7.49810791015625 63.74006271362305 L 7.498123168945312 63.74002838134766 C 7.723731994628906 63.13142395019531 7.319801330566406 62.47227478027344 6.675117492675781 62.39698028564453 L 6.675048828125 62.39698028564453 C 5.997848510742188 62.31789779663086 5.595848083496094 61.60003662109375 5.88226318359375 60.98130798339844 L 5.882270812988281 60.98128509521484 C 6.154930114746094 60.39226150512695 5.803970336914062 59.70343780517578 5.167182922363281 59.57778930664062 L 5.167121887207031 59.57778930664062 C 4.498214721679688 59.44581604003906 4.153755187988281 58.69862365722656 4.487838745117188 58.10428619384766 L 4.487846374511719 58.10426330566406 C 4.805900573730469 57.5384521484375 4.510040283203125 56.82420349121094 3.885063171386719 56.64899063110352 L 3.885040283203125 56.64899063110352 C 3.228546142578125 56.46494293212891 2.943771362304688 55.69303894042969 3.323448181152344 55.12673187255859 L 3.323463439941406 55.1267204284668 C 3.684906005859375 54.58760070800781 3.446014404296875 53.85234451293945 2.836723327636719 53.62863922119141 L 2.836669921875 53.62862396240234 C 2.196640014648438 53.39363861083984 1.973320007324219 52.60176849365234 2.396247863769531 52.06700134277344 L 2.396286010742188 52.06696701049805 C 2.798919677734375 51.5578727722168 2.618446350097656 50.80614471435547 2.028564453125 50.53532028198242 L 2.028518676757812 50.53529739379883 C 1.408912658691406 50.25082778930664 1.248390197753906 49.44387435913086 1.711982727050781 48.94394302368164 L 1.712028503417969 48.94389724731445 C 2.153366088867188 48.46795654296875 2.032424926757812 47.70438003540039 1.465614318847656 47.38811874389648 L 1.465591430664062 47.38810729980469 C 0.8701934814453125 47.0558967590332 0.7734832763671875 46.23882675170898 1.274871826171875 45.77681350708008 L 1.274894714355469 45.77679061889648 C 1.752212524414062 45.33695602416992 1.691566467285156 44.56623840332031 1.15130615234375 44.20648574829102 L 1.151283264160156 44.20646286010742 C 0.5837936401367188 43.82855606079102 0.551483154296875 43.00642776489258 1.087577819824219 42.58516693115234 L 1.087623596191406 42.58513259887695 C 1.597976684570312 42.18409729003906 1.597976684570312 41.41101455688477 1.087615966796875 41.00996780395508 L 1.087600708007812 41.00996780395508 C 0.5515060424804688 40.58869552612305 0.58380126953125 39.76656723022461 1.15130615234375 39.3886604309082 C 1.691566467285156 39.02889633178711 1.752212524414062 38.2581901550293 1.274894714355469 37.81834411621094 L 1.274887084960938 37.81833267211914 C 0.77349853515625 37.35630798339844 0.8702011108398438 36.53924942016602 1.465576171875 36.20702743530273 L 1.46563720703125 36.20700454711914 C 2.032447814941406 35.89073181152344 2.15338134765625 35.12716674804688 1.7120361328125 34.65122604370117 L 1.712013244628906 34.65120315551758 C 1.248428344726562 34.15127182006836 1.408935546875 33.34432220458984 2.028556823730469 33.05983734130859 L 2.028602600097656 33.0598258972168 C 2.618476867675781 32.78900146484375 2.798942565917969 32.03727340698242 2.396308898925781 31.52817916870117 L 2.396293640136719 31.52815628051758 C 1.973358154296875 30.99339294433594 2.196685791015625 30.20151901245117 2.836723327636719 29.96653366088867 L 2.836753845214844 29.96652221679688 C 3.446060180664062 29.74281311035156 3.684959411621094 29.007568359375 3.323509216308594 28.46844863891602 L 3.323486328125 28.46842575073242 C 2.943801879882812 27.90210723876953 3.22857666015625 27.13020324707031 3.88507080078125 26.9461669921875 L 3.885124206542969 26.9461555480957 C 4.510093688964844 26.77094268798828 4.805931091308594 26.05670928955078 4.487907409667969 25.49088668823242 L 4.487884521484375 25.49084854125977 C 4.153816223144531 24.89650726318359 4.498260498046875 24.14932250976562 5.167182922363281 24.01735687255859 L 5.167213439941406 24.0173454284668 C 5.80401611328125 23.89171981811523 6.154991149902344 23.20289611816406 5.882331848144531 22.61387252807617 L 5.88232421875 22.61383819580078 C 5.595909118652344 21.99510955810547 5.997917175292969 21.27724838256836 6.675132751464844 21.19816589355469 L 6.6751708984375 21.19816589355469 C 7.319847106933594 21.12289810180664 7.723793029785156 20.46372222900391 7.498176574707031 19.85512161254883 L 7.498176574707031 19.85508346557617 C 7.261192321777344 19.21578979492188 7.718284606933594 18.53170013427734 8.399612426757812 18.50598907470703 L 8.399650573730469 18.50598907470703 C 9.048263549804688 18.48152923583984 9.502670288085938 17.85608673095703 9.325508117675781 17.23165893554688 L 9.32550048828125 17.23162841796875 C 9.139411926269531 16.57570648193359 9.648971557617188 15.92967987060547 10.33000183105469 15.95741271972656 L 10.33004760742188 15.95741271972656 C 10.97872924804688 15.98412322998047 11.48065948486328 15.39605712890625 11.35303497314453 14.75965881347656 L 11.35302734375 14.75961303710938 C 11.21896362304688 14.09112548828125 11.77748870849609 13.48698425292969 12.45441436767578 13.56815338134766 L 12.45443725585938 13.56815338134766 C 13.09886169433594 13.64550018310547 13.64556121826172 13.09880828857422 13.56826019287109 12.45435333251953 L 13.56826019287109 12.45432281494141 C 13.487060546875 11.77736663818359 14.09122467041016 11.21889495849609 14.75973510742188 11.35293579101562 L 14.75975799560547 11.35294342041016 C 15.39617156982422 11.48052215576172 15.98401641845703 10.97849273681641 15.95751953125 10.3299560546875 L 15.95751953125 10.32991790771484 C 15.92967987060547 9.648681640625 16.57584381103516 9.139350891113281 17.23173522949219 9.325416564941406 L 17.23176574707031 9.325424194335938 C 17.856201171875 9.502601623535156 18.48163604736328 9.048179626464844 18.50611114501953 8.399566650390625 L 18.50611114501953 8.399543762207031 C 18.53181457519531 7.718208312988281 19.21593475341797 7.261116027832031 19.85520172119141 7.49810791015625 L 19.85523986816406 7.49810791015625 C 20.46384048461914 7.723739624023438 21.12299728393555 7.319770812988281 21.19828414916992 6.675094604492188 L 21.19828414916992 6.675048828125 C 21.27736663818359 5.997848510742188 21.99522018432617 5.595832824707031 22.61395645141602 5.882247924804688 L 22.61399078369141 5.882270812988281 C 23.20302963256836 6.154937744140625 23.89185333251953 5.803955078125 24.01747512817383 5.167152404785156 L 24.01748657226562 5.167129516601562 C 24.14944458007812 4.498207092285156 24.89663696289062 4.153739929199219 25.4909782409668 4.487823486328125 L 25.49102783203125 4.487846374511719 C 26.05686187744141 4.805900573730469 26.77108764648438 4.510047912597656 26.94628524780273 3.885063171386719 L 26.94629669189453 3.885040283203125 C 27.13034439086914 3.228530883789062 27.90224838256836 2.943763732910156 28.46855545043945 3.323448181152344 L 28.46857833862305 3.323463439941406 C 29.00770568847656 3.684906005859375 29.74295425415039 3.446022033691406 29.96665191650391 2.836708068847656 L 29.9666633605957 2.836685180664062 C 30.2016487121582 2.1966552734375 30.99351119995117 1.97332763671875 31.52828598022461 2.396263122558594 L 31.5283088684082 2.396270751953125 C 32.03740692138672 2.798927307128906 32.78913116455078 2.618453979492188 33.05995559692383 2.028564453125 L 33.05997848510742 2.028518676757812 C 33.34445571899414 1.408912658691406 34.15140914916992 1.248390197753906 34.65134429931641 1.711982727050781 L 34.6513786315918 1.712013244628906 C 35.12732315063477 2.153366088867188 35.89089584350586 2.03240966796875 36.20715713500977 1.465606689453125 L 36.20715713500977 1.465591430664062 C 36.53936767578125 0.8702011108398438 37.35642623901367 0.7734909057617188 37.81846237182617 1.274871826171875 L 37.81848526000977 1.274894714355469 C 38.25831604003906 1.752220153808594 39.02903366088867 1.691581726074219 39.38879013061523 1.151321411132812 L 39.38881301879883 1.151283264160156 C 39.58597183227539 0.8552093505859375 39.9040641784668 0.7048110961914062 40.22304916381836 0.704803466796875 Z"/></g><text class="b" transform="translate(54.471 54.964)"><tspan x="-10.726" y="0">%</tspan></text><path class="c" d="M39.243,3.436a9.792,9.792,0,0,1,2.606,6.694A10.3,10.3,0,0,1,31.386,20.266H10.462A10.3,10.3,0,0,1,0,10.13,10.331,10.331,0,0,1,10.076,0" transform="translate(49.831 19.574) rotate(90)"/></svg>