<svg xmlns="http://www.w3.org/2000/svg" width="148.84" height="57.242" viewBox="0 0 148.84 57.242">
  <g id="Group_686" data-name="Group 686" transform="translate(11524.656 18626.881)">
    <path id="Path_252" data-name="Path 252" d="M5570.464,1235.063s-.913,4.535.381,6.632c1.037,1.68,2.179,2.853,6.4,3.25,4.711.443,28.351.263,28.351.263s37.945-.15,50.592,0c13.824.164,41.622.989,55.3-.013,1.976-.145,5.983-1.427,5.736-5.659a42.909,42.909,0,0,0-.85-6.6" transform="translate(-17093.914 -19815.781)" fill="#0e3f70" stroke="#0e3f70" stroke-width="1"/>
    <path id="Path_253" data-name="Path 253" d="M5571.858,1221.791v5.639a15.32,15.32,0,0,0,.353,3.343c.008.034.015.068.023.1a5.688,5.688,0,0,0,2.515,3.567,8.228,8.228,0,0,0,3.611,1.023c3.713.235,39.54-.041,52.956-.041,18.784,0,56.35.648,75.131.373.949-.014,2.94-.106,3.792-.174,2.088-.167,5.327-.235,6.818-2.842,1.045-1.827.823-2.774.654-4.915a14.851,14.851,0,0,1,.625-6.244c.556-1.9-5.012,2.278-5.012,2.278l-70.5-.633-66.446-2.14Z" transform="translate(-17095.055 -19807.873)" fill="#dff2f0"/>
    <path id="Path_254" data-name="Path 254" d="M5585.465,1107.35s1.423-4.012,6.75-4.388c0,0,3.163-.253,5.695-.253s95.232.085,95.232.085,6.736.063,8.508,3.164c1.455,3.1,15.377,33.349,15.377,33.349s2.215,5.063-6.138,5.885c-9.492.3-35.881,0-35.881,0h-97.222s-9.366-.591-6.876-6.117S5585.465,1107.35,5585.465,1107.35Z" transform="translate(-17094.139 -19728.59)" fill="#fdfdfd" stroke="#0e3f70" stroke-width="2"/>
    <g id="Group_611" data-name="Group 611" transform="translate(-11511.416 -18592.215)">
      <line id="Line_185" data-name="Line 185" x2="3.736" y2="2.646" transform="translate(0.735 0.018)" fill="none" stroke="#ccc" stroke-width="1"/>
      <line id="Line_186" data-name="Line 186" x1="5.231" y2="2.531" transform="translate(0 0)" fill="none" stroke="#ccc" stroke-width="1"/>
    </g>
    <g id="Group_612" data-name="Group 612" transform="translate(-11509.093 -18598.201)">
      <line id="Line_187" data-name="Line 187" x2="3.736" y2="2.646" transform="translate(0.735 0.018)" fill="none" stroke="#ccc" stroke-width="1"/>
      <line id="Line_188" data-name="Line 188" x1="5.231" y2="2.531" transform="translate(0)" fill="none" stroke="#ccc" stroke-width="1"/>
    </g>
    <g id="Group_613" data-name="Group 613" transform="translate(-11506.996 -18603.809)">
      <line id="Line_189" data-name="Line 189" x2="3.736" y2="2.646" transform="translate(0.735 0.018)" fill="none" stroke="#ccc" stroke-width="1"/>
      <line id="Line_190" data-name="Line 190" x1="5.231" y2="2.531" transform="translate(0 0)" fill="none" stroke="#ccc" stroke-width="1"/>
    </g>
    <g id="Group_614" data-name="Group 614" transform="translate(-11505.018 -18608.871)">
      <line id="Line_191" data-name="Line 191" x2="3.736" y2="2.646" transform="translate(0.735 0.018)" fill="none" stroke="#ccc" stroke-width="1"/>
      <line id="Line_192" data-name="Line 192" x1="5.231" y2="2.531" transform="translate(0 0)" fill="none" stroke="#ccc" stroke-width="1"/>
    </g>
    <g id="Group_615" data-name="Group 615" transform="translate(-11503.294 -18613.648)">
      <line id="Line_193" data-name="Line 193" x2="3.736" y2="2.646" transform="translate(0.735 0.018)" fill="none" stroke="#ccc" stroke-width="1"/>
      <line id="Line_194" data-name="Line 194" x1="5.231" y2="2.531" transform="translate(0 0)" fill="none" stroke="#ccc" stroke-width="1"/>
    </g>
    <g id="Group_616" data-name="Group 616" transform="translate(-11501.696 -18618.258)">
      <line id="Line_195" data-name="Line 195" x2="3.736" y2="2.646" transform="translate(0.735 0.018)" fill="none" stroke="#ccc" stroke-width="1"/>
      <line id="Line_196" data-name="Line 196" x1="5.231" y2="2.531" transform="translate(0 0)" fill="none" stroke="#ccc" stroke-width="1"/>
    </g>
    <g id="Group_617" data-name="Group 617" transform="translate(-11499.955 -18622.328)">
      <line id="Line_197" data-name="Line 197" x2="3.736" y2="2.646" transform="translate(0.735 0.018)" fill="none" stroke="#ccc" stroke-width="1"/>
      <line id="Line_198" data-name="Line 198" x1="5.231" y2="2.531" transform="translate(0 0)" fill="none" stroke="#ccc" stroke-width="1"/>
    </g>
    <g id="Group_618" data-name="Group 618" transform="translate(-11498.545 -18592.207)">
      <line id="Line_199" data-name="Line 199" x2="3.736" y2="2.646" transform="translate(0.735 0.018)" fill="none" stroke="#ccc" stroke-width="1"/>
      <line id="Line_200" data-name="Line 200" x1="5.231" y2="2.531" transform="translate(0 0)" fill="none" stroke="#ccc" stroke-width="1"/>
    </g>
    <g id="Group_619" data-name="Group 619" transform="translate(-11496.443 -18598.193)">
      <line id="Line_201" data-name="Line 201" x2="3.736" y2="2.646" transform="translate(0.735 0.018)" fill="none" stroke="#ccc" stroke-width="1"/>
      <line id="Line_202" data-name="Line 202" x1="5.231" y2="2.531" transform="translate(0 0)" fill="none" stroke="#ccc" stroke-width="1"/>
    </g>
    <g id="Group_620" data-name="Group 620" transform="translate(-11494.972 -18603.59)">
      <line id="Line_203" data-name="Line 203" x2="3.736" y2="2.646" transform="translate(0.735 0.018)" fill="none" stroke="#ccc" stroke-width="1"/>
      <line id="Line_204" data-name="Line 204" x1="5.231" y2="2.531" transform="translate(0 0)" fill="none" stroke="#ccc" stroke-width="1"/>
    </g>
    <g id="Group_621" data-name="Group 621" transform="translate(-11493.5 -18609.055)">
      <line id="Line_205" data-name="Line 205" x2="3.736" y2="2.646" transform="translate(0.735 0.018)" fill="none" stroke="#ccc" stroke-width="1"/>
      <line id="Line_206" data-name="Line 206" x1="5.231" y2="2.531" transform="translate(0 0)" fill="none" stroke="#ccc" stroke-width="1"/>
    </g>
    <g id="Group_622" data-name="Group 622" transform="translate(-11492.203 -18613.715)">
      <line id="Line_207" data-name="Line 207" x2="3.736" y2="2.646" transform="translate(0.735 0.018)" fill="none" stroke="#ccc" stroke-width="1"/>
      <line id="Line_208" data-name="Line 208" x1="5.231" y2="2.531" transform="translate(0 0)" fill="none" stroke="#ccc" stroke-width="1"/>
    </g>
    <g id="Group_623" data-name="Group 623" transform="translate(-11490.985 -18618.365)">
      <line id="Line_209" data-name="Line 209" x2="3.736" y2="2.646" transform="translate(0.735 0.018)" fill="none" stroke="#ccc" stroke-width="1"/>
      <line id="Line_210" data-name="Line 210" x1="5.231" y2="2.531" transform="translate(0)" fill="none" stroke="#ccc" stroke-width="1"/>
    </g>
    <g id="Group_624" data-name="Group 624" transform="translate(-11489.768 -18622.512)">
      <line id="Line_211" data-name="Line 211" x2="3.736" y2="2.646" transform="translate(0.735 0.018)" fill="none" stroke="#ccc" stroke-width="1"/>
      <line id="Line_212" data-name="Line 212" x1="5.231" y2="2.531" transform="translate(0)" fill="none" stroke="#ccc" stroke-width="1"/>
    </g>
    <g id="Group_625" data-name="Group 625" transform="translate(-11485.348 -18592.271)">
      <line id="Line_213" data-name="Line 213" x2="3.736" y2="2.646" transform="translate(0.735 0.018)" fill="none" stroke="#ccc" stroke-width="1"/>
      <line id="Line_214" data-name="Line 214" x1="5.231" y2="2.531" transform="translate(0 0)" fill="none" stroke="#ccc" stroke-width="1"/>
    </g>
    <g id="Group_626" data-name="Group 626" transform="translate(-11483.977 -18598.184)">
      <line id="Line_215" data-name="Line 215" x2="3.736" y2="2.646" transform="translate(0.735 0.018)" fill="none" stroke="#ccc" stroke-width="1"/>
      <line id="Line_216" data-name="Line 216" x1="5.231" y2="2.531" transform="translate(0)" fill="none" stroke="#ccc" stroke-width="1"/>
    </g>
    <g id="Group_627" data-name="Group 627" transform="translate(-11484.248 -18603.59)">
      <line id="Line_217" data-name="Line 217" x2="3.736" y2="2.646" transform="translate(0.735 0.018)" fill="none" stroke="#ccc" stroke-width="1"/>
      <line id="Line_218" data-name="Line 218" x1="5.231" y2="2.531" transform="translate(0 0)" fill="none" stroke="#ccc" stroke-width="1"/>
    </g>
    <g id="Group_628" data-name="Group 628" transform="translate(-11481.809 -18608.896)">
      <line id="Line_219" data-name="Line 219" x2="3.736" y2="2.646" transform="translate(0.735 0.018)" fill="none" stroke="#ccc" stroke-width="1"/>
      <line id="Line_220" data-name="Line 220" x1="5.231" y2="2.531" transform="translate(0 0)" fill="none" stroke="#ccc" stroke-width="1"/>
    </g>
    <g id="Group_629" data-name="Group 629" transform="translate(-11481.018 -18613.631)">
      <line id="Line_221" data-name="Line 221" x2="3.736" y2="2.646" transform="translate(0.735 0.018)" fill="none" stroke="#ccc" stroke-width="1"/>
      <line id="Line_222" data-name="Line 222" x1="5.231" y2="2.531" transform="translate(0 0)" fill="none" stroke="#ccc" stroke-width="1"/>
    </g>
    <g id="Group_630" data-name="Group 630" transform="translate(-11480.028 -18618.182)">
      <line id="Line_223" data-name="Line 223" x2="3.736" y2="2.646" transform="translate(0.735 0.018)" fill="none" stroke="#ccc" stroke-width="1"/>
      <line id="Line_224" data-name="Line 224" x1="5.231" y2="2.531" transform="translate(0 0)" fill="none" stroke="#ccc" stroke-width="1"/>
    </g>
    <g id="Group_631" data-name="Group 631" transform="translate(-11479.199 -18622.504)">
      <line id="Line_225" data-name="Line 225" x2="3.736" y2="2.646" transform="translate(0.735 0.018)" fill="none" stroke="#ccc" stroke-width="1"/>
      <line id="Line_226" data-name="Line 226" x1="5.231" y2="2.531" transform="translate(0 0)" fill="none" stroke="#ccc" stroke-width="1"/>
    </g>
    <g id="Group_632" data-name="Group 632" transform="translate(-11472.13 -18592.264)">
      <line id="Line_227" data-name="Line 227" x2="3.736" y2="2.646" transform="translate(0.735 0.018)" fill="none" stroke="#ccc" stroke-width="1"/>
      <line id="Line_228" data-name="Line 228" x1="5.231" y2="2.531" transform="translate(0 0)" fill="none" stroke="#ccc" stroke-width="1"/>
    </g>
    <g id="Group_633" data-name="Group 633" transform="translate(-11471.284 -18598.25)">
      <line id="Line_229" data-name="Line 229" x2="3.736" y2="2.646" transform="translate(0.735 0.018)" fill="none" stroke="#ccc" stroke-width="1"/>
      <line id="Line_230" data-name="Line 230" x1="5.231" y2="2.531" transform="translate(0 0)" fill="none" stroke="#ccc" stroke-width="1"/>
    </g>
    <g id="Group_634" data-name="Group 634" transform="translate(-11470.995 -18603.77)">
      <line id="Line_231" data-name="Line 231" x2="3.736" y2="2.646" transform="translate(0.735 0.018)" fill="none" stroke="#ccc" stroke-width="1"/>
      <line id="Line_232" data-name="Line 232" x1="5.231" y2="2.531" transform="translate(0 0)" fill="none" stroke="#ccc" stroke-width="1"/>
    </g>
    <g id="Group_635" data-name="Group 635" transform="translate(-11470.361 -18608.99)">
      <line id="Line_233" data-name="Line 233" x2="3.736" y2="2.646" transform="translate(0.735 0.018)" fill="none" stroke="#ccc" stroke-width="1"/>
      <line id="Line_234" data-name="Line 234" x1="5.231" y2="2.531" transform="translate(0 0)" fill="none" stroke="#ccc" stroke-width="1"/>
    </g>
    <g id="Group_636" data-name="Group 636" transform="translate(-11469.736 -18613.74)">
      <line id="Line_235" data-name="Line 235" x2="3.736" y2="2.646" transform="translate(0.735 0.018)" fill="none" stroke="#ccc" stroke-width="1"/>
      <line id="Line_236" data-name="Line 236" x1="5.231" y2="2.531" transform="translate(0 0)" fill="none" stroke="#ccc" stroke-width="1"/>
    </g>
    <g id="Group_637" data-name="Group 637" transform="translate(-11468.989 -18618.174)">
      <line id="Line_237" data-name="Line 237" x2="3.736" y2="2.646" transform="translate(0.735 0.018)" fill="none" stroke="#ccc" stroke-width="1"/>
      <line id="Line_238" data-name="Line 238" x1="5.231" y2="2.531" transform="translate(0)" fill="none" stroke="#ccc" stroke-width="1"/>
    </g>
    <g id="Group_638" data-name="Group 638" transform="translate(-11468.461 -18622.221)">
      <line id="Line_239" data-name="Line 239" x2="3.736" y2="2.646" transform="translate(0.735 0.018)" fill="none" stroke="#ccc" stroke-width="1"/>
      <line id="Line_240" data-name="Line 240" x1="5.231" y2="2.531" transform="translate(0)" fill="none" stroke="#ccc" stroke-width="1"/>
    </g>
    <g id="Group_639" data-name="Group 639" transform="translate(-11459.276 -18592.109)">
      <line id="Line_241" data-name="Line 241" x2="3.736" y2="2.646" transform="translate(0.735 0.018)" fill="none" stroke="#ccc" stroke-width="1"/>
      <line id="Line_242" data-name="Line 242" x1="5.231" y2="2.531" transform="translate(0 0)" fill="none" stroke="#ccc" stroke-width="1"/>
    </g>
    <g id="Group_640" data-name="Group 640" transform="translate(-11459.016 -18598.176)">
      <line id="Line_243" data-name="Line 243" x2="3.736" y2="2.646" transform="translate(0.735 0.018)" fill="none" stroke="#ccc" stroke-width="1"/>
      <line id="Line_244" data-name="Line 244" x1="5.231" y2="2.531" transform="translate(0 0)" fill="none" stroke="#ccc" stroke-width="1"/>
    </g>
    <g id="Group_641" data-name="Group 641" transform="translate(-11458.717 -18603.828)">
      <line id="Line_245" data-name="Line 245" x2="3.736" y2="2.646" transform="translate(0.735 0.018)" fill="none" stroke="#ccc" stroke-width="1"/>
      <line id="Line_246" data-name="Line 246" x1="5.231" y2="2.531" fill="none" stroke="#ccc" stroke-width="1"/>
    </g>
    <g id="Group_642" data-name="Group 642" transform="translate(-11458.308 -18608.963)">
      <line id="Line_247" data-name="Line 247" x2="3.736" y2="2.646" transform="translate(0.735 0.018)" fill="none" stroke="#ccc" stroke-width="1"/>
      <line id="Line_248" data-name="Line 248" x1="5.231" y2="2.531" transform="translate(0 0)" fill="none" stroke="#ccc" stroke-width="1"/>
    </g>
    <g id="Group_643" data-name="Group 643" transform="translate(-11458.209 -18613.623)">
      <line id="Line_249" data-name="Line 249" x2="3.736" y2="2.646" transform="translate(0.735 0.018)" fill="none" stroke="#ccc" stroke-width="1"/>
      <line id="Line_250" data-name="Line 250" x1="5.231" y2="2.531" transform="translate(0 0)" fill="none" stroke="#ccc" stroke-width="1"/>
    </g>
    <g id="Group_644" data-name="Group 644" transform="translate(-11458.209 -18618.248)">
      <line id="Line_251" data-name="Line 251" x2="3.736" y2="2.646" transform="translate(0.735 0.018)" fill="none" stroke="#ccc" stroke-width="1"/>
      <line id="Line_252" data-name="Line 252" x1="5.231" y2="2.531" transform="translate(0)" fill="none" stroke="#ccc" stroke-width="1"/>
    </g>
    <g id="Group_645" data-name="Group 645" transform="translate(-11458.078 -18622.414)">
      <line id="Line_253" data-name="Line 253" x2="3.736" y2="2.646" transform="translate(0.735 0.018)" fill="none" stroke="#ccc" stroke-width="1"/>
      <line id="Line_254" data-name="Line 254" x1="5.231" y2="2.531" fill="none" stroke="#ccc" stroke-width="1"/>
    </g>
    <g id="Group_646" data-name="Group 646" transform="translate(-11446.258 -18592.186)">
      <line id="Line_255" data-name="Line 255" x2="3.736" y2="2.646" transform="translate(0.735 0.018)" fill="none" stroke="#ccc" stroke-width="1"/>
      <line id="Line_256" data-name="Line 256" x1="5.231" y2="2.531" transform="translate(0)" fill="none" stroke="#ccc" stroke-width="1"/>
    </g>
    <g id="Group_647" data-name="Group 647" transform="translate(-11446.398 -18598.25)">
      <line id="Line_257" data-name="Line 257" x2="3.736" y2="2.646" transform="translate(0.735 0.018)" fill="none" stroke="#ccc" stroke-width="1"/>
      <line id="Line_258" data-name="Line 258" x1="5.231" y2="2.531" transform="translate(0 0)" fill="none" stroke="#ccc" stroke-width="1"/>
    </g>
    <g id="Group_648" data-name="Group 648" transform="translate(-11446.828 -18603.895)">
      <line id="Line_259" data-name="Line 259" x2="3.736" y2="2.646" transform="translate(0.735 0.018)" fill="none" stroke="#ccc" stroke-width="1"/>
      <line id="Line_260" data-name="Line 260" x1="5.231" y2="2.531" transform="translate(0)" fill="none" stroke="#ccc" stroke-width="1"/>
    </g>
    <g id="Group_649" data-name="Group 649" transform="translate(-11447.027 -18609.029)">
      <line id="Line_261" data-name="Line 261" x2="3.736" y2="2.646" transform="translate(0.735 0.018)" fill="none" stroke="#ccc" stroke-width="1"/>
      <line id="Line_262" data-name="Line 262" x1="5.231" y2="2.531" transform="translate(0 0)" fill="none" stroke="#ccc" stroke-width="1"/>
    </g>
    <g id="Group_650" data-name="Group 650" transform="translate(-11447.207 -18613.908)">
      <line id="Line_263" data-name="Line 263" x2="3.736" y2="2.646" transform="translate(0.735 0.018)" fill="none" stroke="#ccc" stroke-width="1"/>
      <line id="Line_264" data-name="Line 264" x1="5.231" y2="2.531" transform="translate(0 0)" fill="none" stroke="#ccc" stroke-width="1"/>
    </g>
    <g id="Group_651" data-name="Group 651" transform="translate(-11447.542 -18618.172)">
      <line id="Line_265" data-name="Line 265" x2="3.736" y2="2.646" transform="translate(0.735 0.018)" fill="none" stroke="#ccc" stroke-width="1"/>
      <line id="Line_266" data-name="Line 266" x1="5.231" y2="2.531" transform="translate(0 0)" fill="none" stroke="#ccc" stroke-width="1"/>
    </g>
    <g id="Group_652" data-name="Group 652" transform="translate(-11447.418 -18622.254)">
      <line id="Line_267" data-name="Line 267" x2="3.736" y2="2.646" transform="translate(0.735 0.018)" fill="none" stroke="#ccc" stroke-width="1"/>
      <line id="Line_268" data-name="Line 268" x1="5.231" y2="2.531" transform="translate(0 0)" fill="none" stroke="#ccc" stroke-width="1"/>
    </g>
    <g id="Group_653" data-name="Group 653" transform="translate(-11433.244 -18592.178)">
      <line id="Line_269" data-name="Line 269" x1="3.736" y2="2.646" transform="translate(0.761 0.018)" fill="none" stroke="#ccc" stroke-width="1"/>
      <line id="Line_270" data-name="Line 270" x2="5.231" y2="2.531" transform="translate(0 0)" fill="none" stroke="#ccc" stroke-width="1"/>
    </g>
    <g id="Group_654" data-name="Group 654" transform="translate(-11434.01 -18598.25)">
      <line id="Line_271" data-name="Line 271" x1="3.736" y2="2.646" transform="translate(0.761 0.018)" fill="none" stroke="#ccc" stroke-width="1"/>
      <line id="Line_272" data-name="Line 272" x2="5.231" y2="2.531" transform="translate(0)" fill="none" stroke="#ccc" stroke-width="1"/>
    </g>
    <g id="Group_655" data-name="Group 655" transform="translate(-11434.837 -18603.762)">
      <line id="Line_273" data-name="Line 273" x1="3.736" y2="2.646" transform="translate(0.761 0.018)" fill="none" stroke="#ccc" stroke-width="1"/>
      <line id="Line_274" data-name="Line 274" x2="5.231" y2="2.531" transform="translate(0 0)" fill="none" stroke="#ccc" stroke-width="1"/>
    </g>
    <g id="Group_656" data-name="Group 656" transform="translate(-11435.361 -18608.99)">
      <line id="Line_275" data-name="Line 275" x1="3.736" y2="2.646" transform="translate(0.761 0.018)" fill="none" stroke="#ccc" stroke-width="1"/>
      <line id="Line_276" data-name="Line 276" x2="5.231" y2="2.531" fill="none" stroke="#ccc" stroke-width="1"/>
    </g>
    <g id="Group_657" data-name="Group 657" transform="translate(-11436.191 -18613.646)">
      <line id="Line_277" data-name="Line 277" x1="3.736" y2="2.646" transform="translate(0.761 0.018)" fill="none" stroke="#ccc" stroke-width="1"/>
      <line id="Line_278" data-name="Line 278" x2="5.231" y2="2.531" transform="translate(0 0)" fill="none" stroke="#ccc" stroke-width="1"/>
    </g>
    <g id="Group_658" data-name="Group 658" transform="translate(-11436.793 -18618.238)">
      <line id="Line_279" data-name="Line 279" x1="3.736" y2="2.646" transform="translate(0.761 0.018)" fill="none" stroke="#ccc" stroke-width="1"/>
      <line id="Line_280" data-name="Line 280" x2="5.231" y2="2.531" transform="translate(0 0)" fill="none" stroke="#ccc" stroke-width="1"/>
    </g>
    <g id="Group_659" data-name="Group 659" transform="translate(-11437.518 -18622.32)">
      <line id="Line_281" data-name="Line 281" x1="3.736" y2="2.646" transform="translate(0.761 0.018)" fill="none" stroke="#ccc" stroke-width="1"/>
      <line id="Line_282" data-name="Line 282" x2="5.231" y2="2.531" transform="translate(0 0)" fill="none" stroke="#ccc" stroke-width="1"/>
    </g>
    <g id="Group_660" data-name="Group 660" transform="translate(-11420.236 -18592.186)">
      <line id="Line_283" data-name="Line 283" x1="3.736" y2="2.646" transform="translate(0.761 0.018)" fill="none" stroke="#ccc" stroke-width="1"/>
      <line id="Line_284" data-name="Line 284" x2="5.231" y2="2.531" transform="translate(0)" fill="none" stroke="#ccc" stroke-width="1"/>
    </g>
    <g id="Group_661" data-name="Group 661" transform="translate(-11421.469 -18598.174)">
      <line id="Line_285" data-name="Line 285" x1="3.736" y2="2.646" transform="translate(0.761 0.018)" fill="none" stroke="#ccc" stroke-width="1"/>
      <line id="Line_286" data-name="Line 286" x2="5.231" y2="2.531" transform="translate(0 0)" fill="none" stroke="#ccc" stroke-width="1"/>
    </g>
    <g id="Group_662" data-name="Group 662" transform="translate(-11422.688 -18603.691)">
      <line id="Line_287" data-name="Line 287" x1="3.736" y2="2.646" transform="translate(0.761 0.018)" fill="none" stroke="#ccc" stroke-width="1"/>
      <line id="Line_288" data-name="Line 288" x2="5.231" y2="2.531" transform="translate(0 0)" fill="none" stroke="#ccc" stroke-width="1"/>
    </g>
    <g id="Group_663" data-name="Group 663" transform="translate(-11423.553 -18608.885)">
      <line id="Line_289" data-name="Line 289" x1="3.736" y2="2.646" transform="translate(0.761 0.018)" fill="none" stroke="#ccc" stroke-width="1"/>
      <line id="Line_290" data-name="Line 290" x2="5.231" y2="2.531" transform="translate(0 0)" fill="none" stroke="#ccc" stroke-width="1"/>
    </g>
    <g id="Group_664" data-name="Group 664" transform="translate(-11424.854 -18613.621)">
      <line id="Line_291" data-name="Line 291" x1="3.736" y2="2.646" transform="translate(0.761 0.018)" fill="none" stroke="#ccc" stroke-width="1"/>
      <line id="Line_292" data-name="Line 292" x2="5.231" y2="2.531" fill="none" stroke="#ccc" stroke-width="1"/>
    </g>
    <g id="Group_665" data-name="Group 665" transform="translate(-11425.602 -18618.305)">
      <line id="Line_293" data-name="Line 293" x1="3.736" y2="2.646" transform="translate(0.761 0.018)" fill="none" stroke="#ccc" stroke-width="1"/>
      <line id="Line_294" data-name="Line 294" x2="5.231" y2="2.531" transform="translate(0 0)" fill="none" stroke="#ccc" stroke-width="1"/>
    </g>
    <g id="Group_666" data-name="Group 666" transform="translate(-11426.229 -18622.492)">
      <line id="Line_295" data-name="Line 295" x1="3.736" y2="2.646" transform="translate(0.761 0.018)" fill="none" stroke="#ccc" stroke-width="1"/>
      <line id="Line_296" data-name="Line 296" x2="5.231" y2="2.531" transform="translate(0 0)" fill="none" stroke="#ccc" stroke-width="1"/>
    </g>
    <g id="Group_667" data-name="Group 667" transform="translate(-11407.261 -18592.07)">
      <line id="Line_297" data-name="Line 297" x1="3.736" y2="2.646" transform="translate(0.761 0.018)" fill="none" stroke="#ccc" stroke-width="1"/>
      <line id="Line_298" data-name="Line 298" x2="5.231" y2="2.531" transform="translate(0 0)" fill="none" stroke="#ccc" stroke-width="1"/>
    </g>
    <g id="Group_668" data-name="Group 668" transform="translate(-11408.939 -18598.174)">
      <line id="Line_299" data-name="Line 299" x1="3.736" y2="2.646" transform="translate(0.761 0.018)" fill="none" stroke="#ccc" stroke-width="1"/>
      <line id="Line_300" data-name="Line 300" x2="5.231" y2="2.531" transform="translate(0 0)" fill="none" stroke="#ccc" stroke-width="1"/>
    </g>
    <g id="Group_669" data-name="Group 669" transform="translate(-11410.627 -18603.779)">
      <line id="Line_301" data-name="Line 301" x1="3.736" y2="2.646" transform="translate(0.761 0.018)" fill="none" stroke="#ccc" stroke-width="1"/>
      <line id="Line_302" data-name="Line 302" x2="5.231" y2="2.531" transform="translate(0 0)" fill="none" stroke="#ccc" stroke-width="1"/>
    </g>
    <g id="Group_670" data-name="Group 670" transform="translate(-11412.103 -18608.951)">
      <line id="Line_303" data-name="Line 303" x1="3.736" y2="2.646" transform="translate(0.761 0.018)" fill="none" stroke="#ccc" stroke-width="1"/>
      <line id="Line_304" data-name="Line 304" x2="5.231" y2="2.531" transform="translate(0 0)" fill="none" stroke="#ccc" stroke-width="1"/>
    </g>
    <g id="Group_671" data-name="Group 671" transform="translate(-11413.521 -18613.82)">
      <line id="Line_305" data-name="Line 305" x1="3.736" y2="2.646" transform="translate(0.761 0.018)" fill="none" stroke="#ccc" stroke-width="1"/>
      <line id="Line_306" data-name="Line 306" x2="5.231" y2="2.531" fill="none" stroke="#ccc" stroke-width="1"/>
    </g>
    <g id="Group_672" data-name="Group 672" transform="translate(-11414.912 -18618.373)">
      <line id="Line_307" data-name="Line 307" x1="3.736" y2="2.646" transform="translate(0.761 0.018)" fill="none" stroke="#ccc" stroke-width="1"/>
      <line id="Line_308" data-name="Line 308" x2="5.231" y2="2.531" transform="translate(0 0)" fill="none" stroke="#ccc" stroke-width="1"/>
    </g>
    <g id="Group_673" data-name="Group 673" transform="translate(-11416.139 -18622.492)">
      <line id="Line_309" data-name="Line 309" x1="3.736" y2="2.646" transform="translate(0.761 0.018)" fill="none" stroke="#ccc" stroke-width="1"/>
      <line id="Line_310" data-name="Line 310" x2="5.231" y2="2.531" transform="translate(0 0)" fill="none" stroke="#ccc" stroke-width="1"/>
    </g>
    <g id="Group_674" data-name="Group 674" transform="translate(-11394.374 -18592.404)">
      <line id="Line_311" data-name="Line 311" x1="3.385" y2="3.082" transform="translate(1.08)" fill="none" stroke="#ccc" stroke-width="1"/>
      <line id="Line_312" data-name="Line 312" x2="5.501" y2="1.874" transform="translate(0 0.531)" fill="none" stroke="#ccc" stroke-width="1"/>
    </g>
    <g id="Group_675" data-name="Group 675" transform="translate(-11396.56 -18598.566)">
      <line id="Line_313" data-name="Line 313" x1="3.385" y2="3.082" transform="translate(1.08)" fill="none" stroke="#ccc" stroke-width="1"/>
      <line id="Line_314" data-name="Line 314" x2="5.501" y2="1.874" transform="translate(0 0.531)" fill="none" stroke="#ccc" stroke-width="1"/>
    </g>
    <g id="Group_676" data-name="Group 676" transform="translate(-11398.553 -18603.988)">
      <line id="Line_315" data-name="Line 315" x1="3.385" y2="3.082" transform="translate(1.08 0)" fill="none" stroke="#ccc" stroke-width="1"/>
      <line id="Line_316" data-name="Line 316" x2="5.501" y2="1.874" transform="translate(0 0.531)" fill="none" stroke="#ccc" stroke-width="1"/>
    </g>
    <g id="Group_677" data-name="Group 677" transform="translate(-11400.65 -18609.031)">
      <line id="Line_317" data-name="Line 317" x1="3.385" y2="3.082" transform="translate(1.08)" fill="none" stroke="#ccc" stroke-width="1"/>
      <line id="Line_318" data-name="Line 318" x2="5.501" y2="1.874" transform="translate(0 0.531)" fill="none" stroke="#ccc" stroke-width="1"/>
    </g>
    <g id="Group_678" data-name="Group 678" transform="translate(-11402.278 -18613.902)">
      <line id="Line_319" data-name="Line 319" x1="3.385" y2="3.082" transform="translate(1.08 0)" fill="none" stroke="#ccc" stroke-width="1"/>
      <line id="Line_320" data-name="Line 320" x2="5.501" y2="1.874" transform="translate(0 0.531)" fill="none" stroke="#ccc" stroke-width="1"/>
    </g>
    <g id="Group_679" data-name="Group 679" transform="translate(-11403.963 -18618.574)">
      <line id="Line_321" data-name="Line 321" x1="3.385" y2="3.082" transform="translate(1.08 0)" fill="none" stroke="#ccc" stroke-width="1"/>
      <line id="Line_322" data-name="Line 322" x2="5.501" y2="1.874" transform="translate(0 0.531)" fill="none" stroke="#ccc" stroke-width="1"/>
    </g>
    <g id="Group_680" data-name="Group 680" transform="translate(-11405.502 -18622.768)">
      <line id="Line_323" data-name="Line 323" x1="3.385" y2="3.082" transform="translate(1.08 0)" fill="none" stroke="#ccc" stroke-width="1"/>
      <line id="Line_324" data-name="Line 324" x2="5.501" y2="1.874" transform="translate(0 0.531)" fill="none" stroke="#ccc" stroke-width="1"/>
    </g>
  </g>
</svg>
