<svg xmlns="http://www.w3.org/2000/svg" width="83.595" height="83.595" viewBox="0 0 83.595 83.595"><defs><style>.a,.d,.e,.f{fill:#fff;}.b,.c,.j{fill:none;}.b,.c,.d{stroke:#222178;stroke-width:2px;}.b,.c{stroke-linecap:round;}.b{stroke-linejoin:round;}.e{stroke:#00b2bd;stroke-width:0.5px;}.e,.f{opacity:0.75;}.g{fill:#00b2bd;opacity:0.9;}.h,.i,.k,.l{stroke:none;}.i{fill:#1e196c;}.k{fill:#222178;}.l{fill:#00b2bd;}</style></defs><g class="a" transform="translate(0 0)"><path class="h" d="M 43.37221908569336 81.89044952392578 C 43.37097549438477 81.89044952392578 43.3701171875 81.89029693603516 43.36989593505859 81.89024353027344 C 42.98946380615234 81.40369415283203 42.41579818725586 81.12488555908203 41.79757308959961 81.12488555908203 C 41.17936325073242 81.12488555908203 40.60570907592773 81.40367126464844 40.22372055053711 81.88976287841797 C 39.84897613525391 81.33098602294922 39.2258186340332 80.99742889404297 38.55411911010742 80.99742889404297 C 37.99709701538086 80.99742889404297 37.46089553833008 81.23260498046875 37.0830078125 81.64266204833984 C 36.72698593139648 81.00923919677734 36.05660629272461 80.61590576171875 35.33077621459961 80.61590576171875 C 34.82548522949219 80.61590576171875 34.34267425537109 80.80558776855469 33.97128677368164 81.14998626708984 C 33.97096633911133 81.15019226074219 33.97052764892578 81.1502685546875 33.97004699707031 81.1502685546875 C 33.96894073486328 81.1502685546875 33.96761703491211 81.14984130859375 33.96701812744141 81.14952087402344 C 33.64323043823242 80.44066619873047 32.92842864990234 79.98267364501953 32.14762878417969 79.98267364501953 C 31.70034027099609 79.98267364501953 31.26005172729492 80.13606262207031 30.90786361694336 80.41461181640625 C 30.90776252746582 80.41483306884766 30.90746688842773 80.41492462158203 30.90707206726074 80.41492462158203 C 30.90607261657715 80.41492462158203 30.90443229675293 80.41433715820312 30.90365219116211 80.41383361816406 C 30.61710739135742 79.62900543212891 29.86124038696289 79.10166168212891 29.02438545227051 79.10166168212891 C 28.62766265869141 79.10166168212891 28.24286270141602 79.21906280517578 27.91158485412598 79.441162109375 C 27.91153717041016 79.44138336181641 27.91131019592285 79.44146728515625 27.91098403930664 79.44146728515625 C 27.91005516052246 79.44146728515625 27.90830230712891 79.44073486328125 27.90746307373047 79.44008636474609 C 27.6677417755127 78.57948303222656 26.87460708618164 77.97831726074219 25.98030853271484 77.97831726074219 C 25.63906288146973 77.97831726074219 25.30040740966797 78.06728363037109 25.00094032287598 78.235595703125 C 25.00089263916016 78.23578643798828 25.00070953369141 78.23587036132812 25.00044441223145 78.23587036132812 C 24.99954795837402 78.23587036132812 24.99770545959473 78.23493957519531 24.99687385559082 78.23418426513672 C 24.81387519836426 77.29879760742188 23.98774147033691 76.61964416503906 23.03413009643555 76.61964416503906 C 22.74288558959961 76.61964416503906 22.46016311645508 76.68215179443359 22.19381904602051 76.80544281005859 C 22.19375801086426 76.80560302734375 22.193603515625 76.80567169189453 22.19338607788086 76.80567169189453 C 22.19252586364746 76.80567169189453 22.19068717956543 76.8045654296875 22.18989753723145 76.80373382568359 C 22.0735969543457 75.79500579833984 21.21911811828613 75.03401184082031 20.2038631439209 75.03401184082031 C 19.96635246276855 75.03401184082031 19.73207473754883 75.07621765136719 19.50754165649414 75.15945434570312 C 19.50748062133789 75.15959167480469 19.50735092163086 75.15965270996094 19.50717353820801 75.15965270996094 C 19.5063591003418 75.15965270996094 19.50453758239746 75.15835571289062 19.50379753112793 75.15743255615234 C 19.46454048156738 74.07754516601562 18.5866641998291 73.23119354248047 17.5067081451416 73.23119354248047 C 17.32211875915527 73.23119354248047 17.13775253295898 73.25695037841797 16.95871925354004 73.30775451660156 C 16.95866203308105 73.30786895751953 16.95855331420898 73.30792236328125 16.95841026306152 73.30792236328125 C 16.9576416015625 73.30792236328125 16.95583343505859 73.30641937255859 16.95514106750488 73.305419921875 C 16.97906303405762 72.75631713867188 16.78186416625977 72.23526000976562 16.40134048461914 71.83888244628906 C 16.02518463134766 71.44705200195312 15.49948596954346 71.22232055664062 14.95903015136719 71.22232055664062 C 14.82682991027832 71.22232055664062 14.69360733032227 71.235595703125 14.563063621521 71.26177215576172 C 14.56299877166748 71.26187896728516 14.56289768218994 71.26192474365234 14.56276988983154 71.26192474365234 C 14.56200218200684 71.26192474365234 14.56027126312256 71.26024627685547 14.55965232849121 71.25916290283203 C 14.62917423248291 70.69205474853516 14.45069694519043 70.12111663818359 14.07138538360596 69.69359588623047 C 13.69143009185791 69.26532745361328 13.14641857147217 69.01970672607422 12.576096534729 69.01970672607422 C 12.49611854553223 69.01970672607422 12.41509628295898 69.02456665039062 12.3352746963501 69.03414154052734 C 12.3352108001709 69.03422546386719 12.33512210845947 69.03426361083984 12.33501434326172 69.03426361083984 C 12.33427333831787 69.03426361083984 12.33262920379639 69.03241729736328 12.33208560943604 69.03126525878906 C 12.45184135437012 68.44166564941406 12.30089664459229 67.83587646484375 11.91928577423096 67.37013244628906 C 11.53747463226318 66.90414428710938 10.97355175018311 66.63688659667969 10.37211894989014 66.63688659667969 C 10.34459686279297 66.63688659667969 10.31696319580078 66.637451171875 10.28915214538574 66.63858795166016 C 10.28908157348633 66.63866424560547 10.2889928817749 66.63870239257812 10.28889083862305 66.63870239257812 C 10.28813648223877 66.63870239257812 10.28663539886475 66.63672637939453 10.2861852645874 66.63554382324219 C 10.45619678497314 66.04170989990234 10.34456348419189 65.41371154785156 9.981174468994141 64.91354370117188 C 9.617785453796387 64.41338348388672 9.055051803588867 64.11316680908203 8.437273979187012 64.08986663818359 C 8.437213897705078 64.08992767333984 8.437142372131348 64.08995056152344 8.437061309814453 64.08995056152344 C 8.436352729797363 64.08995056152344 8.434954643249512 64.08777618408203 8.434585571289062 64.08651733398438 C 8.650651931762695 63.50795364379883 8.588641166687012 62.87315368652344 8.265619277954102 62.34601974487305 C 7.942607879638672 61.81889724731445 7.405163288116455 61.4754524230957 6.79111909866333 61.40373992919922 C 6.791059494018555 61.40378570556641 6.790994167327881 61.40380859375 6.790923595428467 61.40380859375 C 6.790189743041992 61.40380859375 6.788926124572754 61.40148544311523 6.788652420043945 61.40018463134766 C 7.049452304840088 60.84035110473633 7.037441253662109 60.20264053344727 6.756774425506592 59.65178680419922 C 6.476107597351074 59.1009407043457 5.967285633087158 58.71638488769531 5.360752105712891 58.59670639038086 C 5.360695838928223 58.59674835205078 5.360635757446289 58.59676361083984 5.360573291778564 58.59676361083984 C 5.359845638275146 58.59676361083984 5.358749389648438 58.59430313110352 5.358585357666016 58.59297561645508 C 5.6625075340271 58.05532073974609 5.700551986694336 57.41862869262695 5.463963508605957 56.84746551513672 C 5.22737455368042 56.27629852294922 4.750274658203125 55.85300827026367 4.155007839202881 55.68611907958984 C 4.15495777130127 55.68614959716797 4.154905319213867 55.68616485595703 4.154852390289307 55.68616485595703 C 4.154152393341064 55.68616485595703 4.15323543548584 55.68359375 4.153163433074951 55.6822395324707 C 4.498330116271973 55.17009735107422 4.58621883392334 54.53836441040039 4.395185470581055 53.95038604736328 C 4.204141139984131 53.36241912841797 3.761729955673218 52.90299606323242 3.181385517120361 52.68991851806641 C 3.181341171264648 52.68994140625 3.181296348571777 52.68994903564453 3.181251764297485 52.68994903564453 C 3.180525064468384 52.68994903564453 3.179788112640381 52.6872673034668 3.179830074310303 52.68589782714844 C 3.5641188621521 52.20238494873047 3.701307773590088 51.57948684692383 3.55698561668396 50.97832870483398 C 3.412663221359253 50.3771858215332 3.007652282714844 49.88447570800781 2.445818901062012 49.62651824951172 C 2.445780277252197 49.62653350830078 2.445742130279541 49.62654113769531 2.445704698562622 49.62654113769531 C 2.444973230361938 49.62654113769531 2.444437503814697 49.62377166748047 2.444585561752319 49.62239837646484 C 2.865641117095947 49.17052841186523 3.051274538040161 48.56030654907227 2.954552173614502 47.94967651367188 C 2.857841014862061 47.33906173706055 2.492741107940674 46.81609725952148 1.952874422073364 46.51486206054688 C 1.952842831611633 46.51487350463867 1.95281195640564 46.51487731933594 1.952781677246094 46.51487731933594 C 1.952057242393494 46.51487731933594 1.951729536056519 46.51202774047852 1.951985478401184 46.51066207885742 C 2.407185554504395 46.09324264526367 2.640118837356567 45.49947357177734 2.591607809066772 44.88314056396484 C 2.543107748031616 44.26681900024414 2.220163345336914 43.7168083190918 1.705585479736328 43.37414169311523 C 1.705561280250549 43.3741455078125 1.705537676811218 43.37414932250977 1.705514669418335 43.37414932250977 C 1.70476758480072 43.37414932250977 1.704663515090942 43.37124252319336 1.705029964447021 43.369873046875 C 2.191574335098267 42.98945236206055 2.470385551452637 42.41577529907227 2.470385551452637 41.79753112792969 C 2.470374345779419 41.1793098449707 2.191585540771484 40.60566329956055 1.705474376678467 40.22368621826172 C 1.705455780029297 40.22369003295898 1.705437660217285 40.22369003295898 1.705420017242432 40.22369003295898 C 1.704669117927551 40.22369003295898 1.70479679107666 40.22074508666992 1.70527446269989 40.21940994262695 C 2.220163345336914 39.87833023071289 2.543118953704834 39.32830810546875 2.591618776321411 38.71197509765625 C 2.640118837356567 38.09565353393555 2.407196760177612 37.50189590454102 1.952552199363708 37.08295440673828 C 1.952541828155518 37.08295440673828 1.952531576156616 37.08295440673828 1.952521681785583 37.08295440673828 C 1.951738834381104 37.08295440673828 1.952093124389648 37.07997894287109 1.952685475349426 37.07867431640625 C 2.492741107940674 36.7790412902832 2.857874393463135 36.25605392456055 2.954585552215576 35.64540863037109 C 3.051296710968018 35.03478622436523 2.865663290023804 34.42458724975586 2.445285558700562 33.97127532958984 C 2.44446325302124 33.97128677368164 2.445063352584839 33.96828460693359 2.445763349533081 33.96700668334961 C 3.0076744556427 33.71066284179688 3.412696599960327 33.21792984008789 3.557018756866455 32.61676406860352 C 3.701341152191162 32.01562881469727 3.564163208007812 31.39275169372559 3.180663347244263 30.90785217285156 C 3.179830074310303 30.90779685974121 3.180663347244263 30.90486335754395 3.18145227432251 30.90364074707031 C 3.761729955673218 30.69218635559082 4.204163074493408 30.23276329040527 4.395218849182129 29.64479637145996 C 4.586263179779053 29.05682945251465 4.498385429382324 28.42509651184082 4.154107570648193 27.91158676147461 C 4.153285503387451 27.91145324707031 4.154341220855713 27.9085865020752 4.155230045318604 27.90743064880371 C 4.750307559967041 27.74216270446777 5.227418899536133 27.31886291503906 5.464018821716309 26.7476863861084 C 5.700607776641846 26.1765193939209 5.662563323974609 25.53984069824219 5.359641075134277 25.00090789794922 C 5.358829975128174 25.00070762634277 5.360107898712158 24.9979305267334 5.361085414886475 24.99685287475586 C 5.967296600341797 24.87878608703613 6.476163387298584 24.49421882629395 6.756830215454102 23.94336318969727 C 7.0375075340271 23.39251899719238 7.049519062042236 22.75481986999512 6.78981876373291 22.19378662109375 C 6.789030075073242 22.19353103637695 6.790518760681152 22.19086456298828 6.791574478149414 22.18986320495605 C 7.405185699462891 22.11972999572754 7.942641258239746 21.77627563476562 8.265674591064453 21.24914169311523 C 8.58870792388916 20.72200775146484 8.650718688964844 20.08721923828125 8.435830116271973 19.50754165649414 C 8.435063362121582 19.5072193145752 8.436752319335938 19.50468635559082 8.437885284423828 19.50376319885254 C 9.055118560791016 19.48198509216309 9.617863655090332 19.1817626953125 9.981263160705566 18.68159675598145 C 10.34465217590332 18.18145179748535 10.45628547668457 17.55348587036133 10.28755187988281 16.95873069763184 C 10.28680801391602 16.95834159851074 10.2886962890625 16.95594215393066 10.28989696502686 16.95512008666992 C 10.3170747756958 16.95771980285645 10.34482955932617 16.95828628540039 10.37222957611084 16.95828628540039 C 10.97367477416992 16.95828628540039 11.53759670257568 16.69104194641113 11.91939640045166 16.22507476806641 C 12.30099678039551 15.7593412399292 12.45194149017334 15.15356349945068 12.33351898193359 14.56304168701172 C 12.33280754089355 14.56259727478027 12.33487415313721 14.56036376953125 12.33614063262939 14.55963039398193 C 12.41504096984863 14.57060813903809 12.49612998962402 14.57547473907471 12.57618522644043 14.57547473907471 C 13.14653015136719 14.57547473907471 13.69155216217041 14.32986354827881 14.07150745391846 13.90160846710205 C 14.45079708099365 13.47409725189209 14.62926292419434 12.90318584442139 14.56114101409912 12.3352632522583 C 14.56048583984375 12.33479690551758 14.56274127960205 12.33269691467285 14.56406307220459 12.33207511901855 C 14.69374084472656 12.3596076965332 14.82695198059082 12.37287521362305 14.95911884307861 12.37287521362305 C 15.49959659576416 12.37287521362305 16.02531814575195 12.14815235137939 16.40146255493164 11.7563304901123 C 16.78196334838867 11.35996341705322 16.97915267944336 10.83890819549561 16.95669746398926 10.28915214538574 C 16.95606422424316 10.28860855102539 16.95847511291504 10.28669738769531 16.95984077453613 10.28618621826172 C 17.13784027099609 10.33825206756592 17.32222938537598 10.3640079498291 17.50680732727051 10.3640079498291 C 18.58676338195801 10.3640079498291 19.46464157104492 9.517685890197754 19.50539588928223 8.437274932861328 C 19.50480842590332 8.436685562133789 19.50735282897949 8.434986114501953 19.50875282287598 8.434575080871582 C 19.73219680786133 8.518997192382812 19.96647453308105 8.56120777130127 20.20395278930664 8.56120777130127 C 21.21923065185547 8.56120777130127 22.07370758056641 7.800219058990479 22.19154167175293 6.791085720062256 C 22.19100761413574 6.790452480316162 22.19367408752441 6.788952350616455 22.19509696960449 6.788652420043945 C 22.46028518676758 6.913052558898926 22.74300765991211 6.975563526153564 23.03424072265625 6.975563526153564 C 23.98784065246582 6.975563526153564 24.81396293640137 6.296419143676758 24.99856376647949 5.360719203948975 C 24.99808502197266 5.360041618347168 25.00085258483887 5.358763694763184 25.0023078918457 5.358574867248535 C 25.30048561096191 5.527908325195312 25.63917350769043 5.616897106170654 25.98041915893555 5.616897106170654 C 26.87472915649414 5.616897106170654 27.6678524017334 5.015741348266602 27.9091625213623 4.155008316040039 C 27.90872955322266 4.154285907745361 27.91159629821777 4.1532301902771 27.91305160522461 4.153163433074951 C 28.24295234680176 4.376152515411377 28.62776374816895 4.493563652038574 29.02449607849121 4.493563652038574 C 29.86135292053223 4.493563652038574 30.61721801757812 3.966230392456055 30.90537452697754 3.181352615356445 C 30.90487480163574 3.180708169937134 30.90765190124512 3.179830312728882 30.90935134887695 3.179830312728882 C 31.26015281677246 3.459152460098267 31.70045280456543 3.612563610076904 32.14773941040039 3.612563610076904 C 32.92853927612305 3.612563610076904 33.64332962036133 3.154585838317871 33.96874237060547 2.445819139480591 C 33.9680290222168 2.445252418518066 33.97039794921875 2.44457483291626 33.97241973876953 2.44457483291626 C 34.3427848815918 2.789652585983276 34.82560729980469 2.979341506958008 35.33089828491211 2.979341506958008 C 36.0567512512207 2.979341506958008 36.72713088989258 2.586019277572632 37.08040618896484 1.952874779701233 C 37.46096420288086 2.362619161605835 37.99717330932617 2.597819089889526 38.55420684814453 2.597819089889526 C 39.22592926025391 2.597819089889526 39.84907531738281 2.264285802841187 40.22110748291016 1.705608129501343 C 40.60578536987305 2.191552639007568 41.17945098876953 2.470363616943359 41.79768371582031 2.470363616943359 C 42.41593933105469 2.470363616943359 42.98960876464844 2.191552639007568 43.37158584594727 1.705419182777405 C 43.74623107910156 2.264274835586548 44.3693733215332 2.597830295562744 45.04110717773438 2.597830295562744 C 45.59815216064453 2.597830295562744 46.13435363769531 2.362630367279053 46.51224136352539 1.952552556991577 C 46.86818695068359 2.586019277572632 47.5385627746582 2.979352474212646 48.26443099975586 2.979352474212646 C 48.76970672607422 2.979352474212646 49.25250625610352 2.789685964584351 49.62389755249023 2.445307970046997 C 49.62422943115234 2.445080518722534 49.62469482421875 2.444992065429688 49.62519836425781 2.444992065429688 C 49.62630081176758 2.444992065429688 49.62759780883789 2.44541072845459 49.6281852722168 2.445730209350586 C 49.95197296142578 3.154574871063232 50.66676330566406 3.612574815750122 51.44757461547852 3.612574815750122 C 51.89486312866211 3.612574815750122 52.33515167236328 3.459185838699341 52.68733978271484 3.180641412734985 C 52.68743515014648 3.180420875549316 52.68772125244141 3.180330514907837 52.68810653686523 3.180330514907837 C 52.68910217285156 3.180330514907837 52.69076919555664 3.180929183959961 52.69155120849609 3.181441307067871 C 52.97808456420898 3.966241359710693 53.73396301269531 4.493597030639648 54.57083129882812 4.493597030639648 C 54.9675407409668 4.493597030639648 55.35234069824219 4.37619686126709 55.68360900878906 4.154097080230713 C 55.68364334106445 4.153878688812256 55.68386459350586 4.153787136077881 55.68418884277344 4.153787136077881 C 55.68511962890625 4.153787136077881 55.68691635131836 4.154537677764893 55.68777465820312 4.155197143554688 C 55.92744064331055 5.01575231552124 56.72057342529297 5.616930484771729 57.61490631103516 5.616930484771729 C 57.95615386962891 5.616930484771729 58.29481887817383 5.527952671051025 58.59428405761719 5.359630107879639 C 58.59433364868164 5.359436988830566 58.59451675415039 5.359354972839355 58.59478378295898 5.359354972839355 C 58.59568023681641 5.359354972839355 58.5975227355957 5.360287189483643 58.59835052490234 5.36104154586792 C 58.78138732910156 6.296441555023193 59.60750961303711 6.975596904754639 60.56111907958984 6.975596904754639 C 60.85235214233398 6.975596904754639 61.13507461547852 6.9130859375 61.40142059326172 6.789796829223633 C 61.40147018432617 6.789637565612793 61.40161514282227 6.789568901062012 61.40182495117188 6.789568901062012 C 61.40266418457031 6.789568901062012 61.40452575683594 6.790684700012207 61.40531921386719 6.791530132293701 C 61.5216178894043 7.800252437591553 62.37609481811523 8.561241149902344 63.39136505126953 8.561241149902344 C 63.62885284423828 8.561241149902344 63.86311721801758 8.519041061401367 64.08763885498047 8.435819625854492 C 64.08770751953125 8.435677528381348 64.08784484863281 8.435615539550781 64.08802795410156 8.435615539550781 C 64.0888671875 8.435615539550781 64.09070587158203 8.436911582946777 64.09145355224609 8.437841415405273 C 64.13068389892578 9.517707824707031 65.00856018066406 10.36405277252197 66.08850860595703 10.36405277252197 C 66.27309417724609 10.36405277252197 66.45747375488281 10.33829689025879 66.63649749755859 10.28749656677246 C 66.63655853271484 10.28738307952881 66.63666534423828 10.28733158111572 66.63680267333984 10.28733158111572 C 66.63758087158203 10.28733158111572 66.63938903808594 10.28882789611816 66.64008331298828 10.2898416519165 C 66.61614990234375 10.8389196395874 66.81333923339844 11.35997486114502 67.19385528564453 11.75635242462158 C 67.57002258300781 12.14819717407227 68.09573364257812 12.3729305267334 68.63619995117188 12.3729305267334 C 68.76839447021484 12.3729305267334 68.90161895751953 12.35965251922607 69.03217315673828 12.33347511291504 C 69.03223419189453 12.33337497711182 69.03232574462891 12.33332920074463 69.03245544433594 12.33332920074463 C 69.03319549560547 12.33332920074463 69.03494262695312 12.33500671386719 69.03556060791016 12.33608627319336 C 68.96602630615234 12.90319728851318 69.14450836181641 13.47411918640137 69.52381134033203 13.90164184570312 C 69.90377807617188 14.32990837097168 70.44878387451172 14.57553005218506 71.01909637451172 14.57553005218506 C 71.09907531738281 14.57553005218506 71.18009948730469 14.57067489624023 71.25993347167969 14.56109714508057 C 71.25999450683594 14.56101131439209 71.26008605957031 14.56097221374512 71.26020050048828 14.56097221374512 C 71.26096343994141 14.56097221374512 71.26261138916016 14.56282997131348 71.26315307617188 14.56397438049316 C 71.14339447021484 15.15358543395996 71.29434204101562 15.75938606262207 71.67596435546875 16.22513008117676 C 72.05776214599609 16.69109725952148 72.62167358398438 16.95835304260254 73.22309875488281 16.95835304260254 C 73.25063323974609 16.95835304260254 73.27828216552734 16.95778656005859 73.30609893798828 16.95665168762207 C 73.30615997314453 16.95657730102539 73.30624389648438 16.95654487609863 73.30633544921875 16.95654487609863 C 73.30706787109375 16.95654487609863 73.30859375 16.95854187011719 73.30905151367188 16.95974159240723 C 73.13903045654297 17.55351829528809 73.25064849853516 18.18150901794434 73.61404418945312 18.68167495727539 C 73.97743225097656 19.18182945251465 74.5401611328125 19.48205184936523 75.15795135498047 19.50535202026367 C 75.15801239013672 19.50529289245605 75.1580810546875 19.5052661895752 75.15816497802734 19.5052661895752 C 75.15887451171875 19.5052661895752 75.16028594970703 19.50743865966797 75.16065216064453 19.50869750976562 C 74.94457244873047 20.0872745513916 75.00659942626953 20.72208595275879 75.32962036132812 21.24921989440918 C 75.65264129638672 21.77634048461914 76.19008636474609 22.11978530883789 76.80413818359375 22.19149780273438 C 76.80419921875 22.19144821166992 76.80426788330078 22.19142532348633 76.80433654785156 22.19142532348633 C 76.80504608154297 22.19142532348633 76.80630493164062 22.19374847412109 76.80657196044922 22.19505310058594 C 76.5457763671875 22.75487518310547 76.55780029296875 23.39259719848633 76.83846282958984 23.94345283508301 C 77.11913299560547 24.49429702758789 77.62797546386719 24.87885284423828 78.23451995849609 24.99851989746094 C 78.23457336425781 24.99847984313965 78.23462677001953 24.99846267700195 78.23468780517578 24.99846267700195 C 78.23538970947266 24.99846267700195 78.23648834228516 25.00092315673828 78.23666381835938 25.00225257873535 C 77.9327392578125 25.53989791870117 77.89468383789062 26.17658615112305 78.13127136230469 26.74776458740234 C 78.36786651611328 27.31892967224121 78.84495544433594 27.74221992492676 79.44023132324219 27.90910720825195 C 79.44027709960938 27.90907859802246 79.44033050537109 27.9090633392334 79.44038391113281 27.9090633392334 C 79.44109344482422 27.9090633392334 79.4420166015625 27.91163063049316 79.44208526611328 27.91298675537109 C 79.09691619873047 28.42515182495117 79.009033203125 29.05690765380859 79.2000732421875 29.6448860168457 C 79.39112091064453 30.23284149169922 79.83352661132812 30.69226455688477 80.41387176513672 30.90533065795898 C 80.41391754150391 30.90530776977539 80.41396331787109 30.90529632568359 80.41400909423828 30.90529632568359 C 80.41471862792969 30.90529632568359 80.41545104980469 30.90797233581543 80.4154052734375 30.90934181213379 C 80.03112030029297 31.39281845092773 79.89392852783203 32.01572036743164 80.03825378417969 32.61686325073242 C 80.18257141113281 33.218017578125 80.58757781982422 33.71073150634766 81.14942169189453 33.96868515014648 C 81.14945983886719 33.96866989135742 81.14949035644531 33.96866607666016 81.14952850341797 33.96866607666016 C 81.15027618408203 33.96866607666016 81.15080261230469 33.97144317626953 81.15065002441406 33.97283172607422 C 80.72959899902344 34.42469787597656 80.54397583007812 35.03493118286133 80.64069366455078 35.64556503295898 C 80.73741912841797 36.25617599487305 81.10251617431641 36.77914047241211 81.64241027832031 37.08036422729492 C 81.64244079589844 37.08035278320312 81.64247131347656 37.08034896850586 81.64250183105469 37.08034896850586 C 81.64320373535156 37.08034896850586 81.64353179931641 37.08319091796875 81.64326477050781 37.08456420898438 C 81.18807220458984 37.50198745727539 80.95513916015625 38.09576416015625 81.00363922119141 38.71209716796875 C 81.05215454101562 39.32840728759766 81.37508392333984 39.8784065246582 81.8896484375 40.22107315063477 C 81.88967895507812 40.2210693359375 81.88970184326172 40.22106552124023 81.88972473144531 40.22106552124023 C 81.89048004150391 40.22106552124023 81.89058685302734 40.22397232055664 81.89022064208984 40.2253303527832 C 81.40366363525391 40.60577392578125 81.12486267089844 41.17945098876953 81.12486267089844 41.79768753051758 C 81.1248779296875 42.41590881347656 81.40367126464844 42.98954010009766 81.88977813720703 43.37152099609375 C 81.88979339599609 43.37151718139648 81.88980865478516 43.37151336669922 81.88982391357422 43.37151336669922 C 81.89057922363281 43.37151336669922 81.89046478271484 43.37445831298828 81.88997650146484 43.37580871582031 C 81.37509918212891 43.71689605712891 81.05213928222656 44.26691818237305 81.00363922119141 44.88323974609375 C 80.95513153076172 45.49955368041992 81.18806457519531 46.09329605102539 81.64268493652344 46.51224136352539 C 81.64269256591797 46.51224136352539 81.6427001953125 46.51224136352539 81.64270782470703 46.51224136352539 C 81.64350891113281 46.51224136352539 81.64315795898438 46.51523208618164 81.64256286621094 46.51654052734375 C 81.10250854492188 46.816162109375 80.73739624023438 47.33915328979492 80.64068603515625 47.94977569580078 C 80.54396057128906 48.56039810180664 80.72958374023438 49.17059707641602 81.14994049072266 49.62392044067383 C 81.15079498291016 49.62393951416016 81.15020751953125 49.62693023681641 81.14950561523438 49.62820816040039 C 80.58759307861328 49.88455200195312 80.18257141113281 50.37728500366211 80.03825378417969 50.97844314575195 C 79.89392852783203 51.57957458496094 80.03109741210938 52.20245361328125 80.41458892822266 52.68735122680664 C 80.41542816162109 52.68743133544922 80.41460418701172 52.69036483764648 80.41381072998047 52.69158554077148 C 79.83352661132812 52.90304183959961 79.39108276367188 53.36246490478516 79.20004272460938 53.95044326782227 C 79.00899505615234 54.53840637207031 79.09687805175781 55.17013168334961 79.44115447998047 55.68363952636719 C 79.44197082519531 55.68376541137695 79.44091796875 55.68663024902344 79.44003295898438 55.68778610229492 C 78.84495544433594 55.85305404663086 78.36782836914062 56.27635192871094 78.13124084472656 56.84754180908203 C 77.8946533203125 57.41869735717773 77.93269348144531 58.05536270141602 78.23561859130859 58.59429550170898 C 78.23644256591797 58.59452056884766 78.23516082763672 58.59728622436523 78.23418426513672 58.59836196899414 C 77.62797546386719 58.7164306640625 77.11911773681641 59.10098648071289 76.83843994140625 59.65184020996094 C 76.55776214599609 60.20267486572266 76.54573822021484 60.84037399291992 76.80544281005859 61.40142059326172 C 76.80624389648438 61.40169525146484 76.80474853515625 61.40435409545898 76.80369567871094 61.40535354614258 C 76.19007110595703 61.47549819946289 75.65261840820312 61.81895065307617 75.32958221435547 62.34608459472656 C 75.00656127929688 62.87320709228516 74.94454193115234 63.50798416137695 75.15941619873047 64.08766174316406 C 75.16019439697266 64.08800506591797 75.15850830078125 64.09053802490234 75.15737152099609 64.09145355224609 C 74.54013061523438 64.11324310302734 73.97737121582031 64.41348266601562 73.61398315429688 64.91366577148438 C 73.25061798095703 65.413818359375 73.13898468017578 66.04177856445312 73.3077392578125 66.63650512695312 C 73.3084716796875 66.63686370849609 73.30657196044922 66.63927459716797 73.30536651611328 66.64009857177734 C 73.27816009521484 66.63750457763672 73.25045013427734 66.63694000244141 73.22307586669922 66.63694000244141 C 72.62162780761719 66.63694000244141 72.05770874023438 66.90419769287109 71.67591094970703 67.37016296386719 C 71.2943115234375 67.83588409423828 71.14336395263672 68.44167327880859 71.26178741455078 69.03218841552734 C 71.26248931884766 69.03258514404297 71.26038360595703 69.03485107421875 71.25910949707031 69.03558349609375 C 71.18013000488281 69.02460479736328 71.09907531738281 69.01975250244141 71.01908874511719 69.01975250244141 C 70.44875335693359 69.01975250244141 69.90373229980469 69.26537322998047 69.52377319335938 69.69363403320312 C 69.14447784423828 70.12113952636719 68.96601104736328 70.69205474853516 69.03412628173828 71.25997161865234 C 69.03479766845703 71.26042938232422 69.03253173828125 71.26252746582031 69.03119659423828 71.26315307617188 C 68.90155029296875 71.23564147949219 68.76833343505859 71.22237396240234 68.63615417480469 71.22237396240234 C 68.09567260742188 71.22237396240234 67.56996154785156 71.44708251953125 67.19381713867188 71.83890533447266 C 66.81331634521484 72.23526000976562 66.61612701416016 72.75630950927734 66.63857269287109 73.30606079101562 C 66.63920593261719 73.30661773681641 66.63678741455078 73.30853271484375 66.63540649414062 73.30904388427734 C 66.45736694335938 73.25698852539062 66.27301025390625 73.23123931884766 66.08843994140625 73.23123931884766 C 65.00850677490234 73.23123931884766 64.13063049316406 74.07755279541016 64.08987426757812 75.15795135498047 C 64.0904541015625 75.15856170654297 64.08789825439453 75.1602783203125 64.08649444580078 75.16068267822266 C 63.86311721801758 75.07626342773438 63.62884140014648 75.03406524658203 63.39134216308594 75.03406524658203 C 62.37607574462891 75.03406524658203 61.5215950012207 75.7950439453125 61.40375137329102 76.80415344238281 C 61.4042854309082 76.80479431152344 61.40160751342773 76.80629730224609 61.40017318725586 76.80659484863281 C 61.13505172729492 76.68220520019531 60.85231781005859 76.61968231201172 60.56106185913086 76.61968231201172 C 59.60744094848633 76.61968231201172 58.78131866455078 77.298828125 58.59671783447266 78.23452758789062 C 58.59720611572266 78.23519897460938 58.59439849853516 78.23649597167969 58.59294128417969 78.23667144775391 C 58.29478454589844 78.06734466552734 57.95610809326172 77.97836303710938 57.61486434936523 77.97836303710938 C 56.72056198120117 77.97836303710938 55.92744064331055 78.57950592041016 55.68613052368164 79.44023132324219 C 55.68656158447266 79.44096374511719 55.68369674682617 79.4420166015625 55.68222808837891 79.44208526611328 C 55.35234069824219 79.21909332275391 54.967529296875 79.1016845703125 54.57079696655273 79.1016845703125 C 53.73394012451172 79.1016845703125 52.97807312011719 79.62902069091797 52.68991851806641 80.41388702392578 C 52.6904182434082 80.41454315185547 52.68759536743164 80.41542816162109 52.68587493896484 80.41542816162109 C 52.33512878417969 80.13610076904297 51.89482879638672 79.98268890380859 51.44754028320312 79.98268890380859 C 50.66671752929688 79.98268890380859 49.95193099975586 80.44068908691406 49.62654113769531 81.14947509765625 C 49.62726211547852 81.14999389648438 49.62486267089844 81.15068817138672 49.62279510498047 81.15068817138672 C 49.25249481201172 80.80559539794922 48.76967620849609 80.61592102050781 48.26438522338867 80.61592102050781 C 47.53852844238281 80.61592102050781 46.8681640625 81.00923919677734 46.51488494873047 81.64238739013672 C 46.13431930541992 81.23264312744141 45.59809494018555 80.99744415283203 45.04107284545898 80.99744415283203 C 44.36936187744141 80.99744415283203 43.74623107910156 81.33097839355469 43.37418365478516 81.88964080810547 L 43.37221908569336 81.89044952392578 Z"/><path class="i" d="M 40.27451324462891 3.057350158691406 C 39.77774810791016 3.404678344726562 39.1800537109375 3.597816467285156 38.55420684814453 3.597816467285156 C 38.09557723999023 3.597816467285156 37.64635848999023 3.491554260253906 37.24073791503906 3.294036865234375 C 36.71123123168945 3.729751586914062 36.03859329223633 3.979331970214844 35.33089447021484 3.979331970214844 C 34.95036697387695 3.979331970214844 34.57837295532227 3.907699584960938 34.2318229675293 3.771072387695312 C 33.68114471435547 4.300315856933594 32.93692016601562 4.612556457519531 32.14774322509766 4.612556457519531 C 31.85021591186523 4.612556457519531 31.55477142333984 4.5673828125 31.2720947265625 4.480751037597656 C 30.71200561523438 5.110488891601562 29.89764022827148 5.493568420410156 29.02449417114258 5.493568420410156 C 28.80476760864258 5.493568420410156 28.58758544921875 5.469635009765625 28.3759880065918 5.422706604003906 C 27.81933975219727 6.156517028808594 26.93862152099609 6.616889953613281 25.98043060302734 6.616889953613281 C 25.84105682373047 6.616889953613281 25.7020378112793 6.607032775878906 25.56441116333008 6.587600708007812 C 25.02486038208008 7.430107116699219 24.08074569702148 7.975570678710938 23.03423309326172 7.975570678710938 C 22.97365188598633 7.975570678710938 22.91330718994141 7.973770141601562 22.853271484375 7.970184326171875 C 22.35361099243164 8.908126831054688 21.37481689453125 9.540077209472656 20.26004791259766 9.560676574707031 C 19.83545303344727 10.54313659667969 18.90467071533203 11.24523162841797 17.79653930664062 11.350341796875 C 17.65708160400391 11.75560760498047 17.42971801757812 12.12920379638672 17.12287139892578 12.44884490966797 C 16.68079376220703 12.90933990478516 16.10045623779297 13.21582794189453 15.47927093505859 13.32667541503906 C 15.36148834228516 13.78115081787109 15.13758087158203 14.20677947998047 14.81953430175781 14.56525421142578 C 14.42018890380859 15.01536560058594 13.89884948730469 15.33090972900391 13.32787322998047 15.47931671142578 C 13.23973846435547 15.97941589355469 13.02431488037109 16.45439147949219 12.69289398193359 16.85887145996094 C 12.33491516113281 17.29576110839844 11.8701171875 17.61611938476562 11.35138702392578 17.79487609863281 C 11.30099487304688 18.31993103027344 11.11103057861328 18.82789611816406 10.79026794433594 19.26937866210938 C 10.46964263916016 19.71068572998047 10.04553985595703 20.04818344116211 9.562004089355469 20.25838088989258 C 9.552848815917969 20.78554916381836 9.403327941894531 21.30654525756836 9.118316650390625 21.77164459228516 C 8.833290100097656 22.23674774169922 8.436981201171875 22.60647583007812 7.971427917480469 22.85396194458008 C 8.003654479980469 23.38021850585938 7.895477294921875 23.91133117675781 7.647834777832031 24.39735412597656 C 7.400184631347656 24.88338470458984 7.034103393554688 25.28307342529297 6.589393615722656 25.56632614135742 C 6.662811279296875 26.08842849731445 6.596633911132812 26.62641525268555 6.387893676757812 27.13036727905273 C 6.179145812988281 27.63432312011719 5.845550537109375 28.06150054931641 5.424430847167969 28.3787727355957 C 5.538597106933594 28.89350891113281 5.514839172363281 29.43499755859375 5.346282958984375 29.95378112792969 C 5.177719116210938 30.47256851196289 4.878662109375 30.92461776733398 4.483741760253906 31.27395248413086 C 4.637924194335938 31.77814483642578 4.656723022460938 32.31985855102539 4.529380798339844 32.85026931762695 C 4.402030944824219 33.38067626953125 4.139381408691406 33.85476684570312 3.773086547851562 34.23400497436523 C 3.966361999511719 34.72454071044922 4.027595520019531 35.26306533813477 3.942268371582031 35.80183029174805 C 3.856941223144531 36.34060287475586 3.63226318359375 36.83388519287109 3.296859741210938 37.24070358276367 C 3.528030395507812 37.71457290649414 3.631332397460938 38.24666595458984 3.588531494140625 38.79046630859375 C 3.545730590820312 39.33427810668945 3.3604736328125 39.8436164855957 3.058021545410156 40.27548217773438 C 3.325660705566406 40.72974395751953 3.470375061035156 41.25202560424805 3.470382690429688 41.79750442504883 C 3.470390319824219 42.34299850463867 3.325653076171875 42.86536026000977 3.058006286621094 43.31964111328125 C 3.360458374023438 43.75150680541992 3.545730590820312 44.26087951660156 3.588531494140625 44.80467987060547 C 3.631324768066406 45.34848403930664 3.528030395507812 45.88055419921875 3.296852111816406 46.35442352294922 C 3.632247924804688 46.76123046875 3.856918334960938 47.25451278686523 3.942245483398438 47.79326629638672 C 4.027572631835938 48.33203125 3.966331481933594 48.87057113647461 3.773048400878906 49.36112213134766 C 4.139328002929688 49.74036026000977 4.402015686035156 50.21449661254883 4.52935791015625 50.74490356445312 C 4.656692504882812 51.27531433105469 4.637901306152344 51.81698608398438 4.483695983886719 52.32119369506836 C 4.87860107421875 52.67052459716797 5.177665710449219 53.1225700378418 5.346229553222656 53.64134216308594 C 5.514793395996094 54.16013336181641 5.538551330566406 54.70162200927734 5.424392700195312 55.21636962890625 C 5.845497131347656 55.53364562988281 6.179115295410156 55.96084594726562 6.387855529785156 56.46480560302734 C 6.596595764160156 56.96877288818359 6.662765502929688 57.50670623779297 6.589340209960938 58.02881622314453 C 7.034034729003906 58.31206512451172 7.400131225585938 58.71176528930664 7.64776611328125 59.19778060913086 C 7.895408630371094 59.68381118774414 8.003585815429688 60.21490859985352 7.971359252929688 60.74117660522461 C 8.436897277832031 60.98866271972656 8.833236694335938 61.35841369628906 9.118240356445312 61.82350540161133 C 9.40325927734375 62.28860473632812 9.552772521972656 62.80957794189453 9.561927795410156 63.33676147460938 C 10.04546356201172 63.54695129394531 10.46954345703125 63.88443756103516 10.79016876220703 64.32572937011719 C 11.11096954345703 64.76726531982422 11.30093383789062 65.27517700195312 11.35131072998047 65.80030059814453 C 11.86996459960938 65.97907257080078 12.33483123779297 66.29946899414062 12.69279479980469 66.736328125 C 13.02421569824219 67.14081573486328 13.23963165283203 67.61575317382812 13.32776641845703 68.11585235595703 C 13.89872741699219 68.26425933837891 14.4200439453125 68.57978820800781 14.81939697265625 69.0299072265625 C 15.137451171875 69.38838195800781 15.36137390136719 69.81404113769531 15.47917175292969 70.26852416992188 C 16.10033416748047 70.37936401367188 16.68067169189453 70.68585968017578 17.12275695800781 71.14636993408203 C 17.42961120605469 71.46601867675781 17.65697479248047 71.83959197998047 17.79643249511719 72.24485778808594 C 18.90459442138672 72.34996795654297 19.83538055419922 73.05205535888672 20.25996017456055 74.03452301025391 C 21.37471771240234 74.05511474609375 22.35350799560547 74.68706512451172 22.85317230224609 75.62502288818359 C 22.91320037841797 75.62144470214844 22.97354888916016 75.61964416503906 23.03411865234375 75.61964416503906 C 24.08064270019531 75.61964416503906 25.02476119995117 76.16510009765625 25.56431198120117 77.00759887695312 C 25.70191192626953 76.98817443847656 25.84093856811523 76.97831726074219 25.98029327392578 76.97831726074219 C 26.9384765625 76.97831726074219 27.8192024230957 77.43869781494141 28.37586212158203 78.17250823974609 C 28.58743286132812 78.12560272216797 28.80467987060547 78.10165405273438 29.02437973022461 78.10165405273438 C 29.89751815795898 78.10165405273438 30.71186065673828 78.48471069335938 31.27196502685547 79.11447143554688 C 31.55465316772461 79.02783203125 31.85007858276367 78.982666015625 32.14763259887695 78.982666015625 C 32.93682479858398 78.982666015625 33.68102645874023 79.29489135742188 34.23170471191406 79.82415771484375 C 34.57825469970703 79.68753051757812 34.95023727416992 79.61590576171875 35.33076858520508 79.61590576171875 C 36.03848648071289 79.61590576171875 36.71111679077148 79.86548614501953 37.24063110351562 80.30122375488281 C 37.64627838134766 80.10367584228516 38.09546279907227 79.99742889404297 38.55410766601562 79.99742889404297 C 39.17992401123047 79.99742889404297 39.77760314941406 80.19056701660156 40.27438354492188 80.53790283203125 C 40.72891235351562 80.26985168457031 41.25165176391602 80.1248779296875 41.79758071899414 80.1248779296875 C 42.34349060058594 80.1248779296875 42.86621856689453 80.26985168457031 43.32075881958008 80.53791046142578 C 43.8175163269043 80.19058990478516 44.41522598266602 79.99744415283203 45.04106903076172 79.99744415283203 C 45.49969863891602 79.99744415283203 45.94890975952148 80.10370635986328 46.35453033447266 80.30122375488281 C 46.88404083251953 79.86549377441406 47.55667877197266 79.61592102050781 48.2643928527832 79.61592102050781 C 48.64492034912109 79.61592102050781 49.01691818237305 79.68755340576172 49.36347198486328 79.82418060302734 C 49.91414642333984 79.29490661621094 50.65834045410156 78.98269653320312 51.44754409790039 78.98269653320312 C 51.74509429931641 78.98269653320312 52.04052734375 79.02786254882812 52.32321166992188 79.11449432373047 C 52.88330078125 78.48476409912109 53.69765853881836 78.10169219970703 54.57079315185547 78.10169219970703 C 54.79051971435547 78.10169219970703 55.00770950317383 78.12562561035156 55.21930694580078 78.17254638671875 C 55.77595901489258 77.43877410888672 56.65670776367188 76.97837066650391 57.6148681640625 76.97837066650391 C 57.75421905517578 76.97837066650391 57.89326477050781 76.98822784423828 58.03086090087891 77.00765228271484 C 58.57041931152344 76.16517639160156 59.51456069946289 75.61968231201172 60.56105804443359 75.61968231201172 C 60.62163162231445 75.61968231201172 60.68197631835938 75.62147521972656 60.74200820922852 75.62506103515625 C 61.24167251586914 74.68711090087891 62.22043609619141 74.05516815185547 63.335205078125 74.03457641601562 C 63.75980377197266 73.0521240234375 64.69061279296875 72.35000610351562 65.79873657226562 72.24488830566406 C 65.93819427490234 71.83963012695312 66.16557312011719 71.46602630615234 66.47241973876953 71.14639282226562 C 66.91448974609375 70.68589019775391 67.49480438232422 70.37941741943359 68.11598205566406 70.26857757568359 C 68.23377227783203 69.81410217285156 68.45768737792969 69.38844299316406 68.77573394775391 69.02996826171875 C 69.17508697509766 68.57984924316406 69.69644927978516 68.26429748535156 70.26743316650391 68.11588287353516 C 70.35555267333984 67.61573791503906 70.57096099853516 67.14086151123047 70.90242004394531 66.73634338378906 C 71.26036071777344 66.29949188232422 71.72520446777344 65.97911834716797 72.24387359619141 65.80035400390625 C 72.29426574707031 65.27530670166016 72.48422241210938 64.76734924316406 72.80496978759766 64.32585144042969 C 73.12559509277344 63.88454818725586 73.54971313476562 63.54704284667969 74.03325653076172 63.33683776855469 C 74.04241943359375 62.80966949462891 74.19194030761719 62.28865432739258 74.47695922851562 61.82355499267578 C 74.76197814941406 61.35845565795898 75.15828704833984 60.98873138427734 75.62384033203125 60.74124908447266 C 75.59161376953125 60.21499633789062 75.69979858398438 59.68385314941406 75.94744110107422 59.19783020019531 C 76.19509124755859 58.71180725097656 76.56116485595703 58.31212997436523 77.00586700439453 58.02887725830078 C 76.93244171142578 57.50678253173828 76.99861145019531 56.96882629394531 77.20734405517578 56.46488189697266 C 77.41609191894531 55.96091079711914 77.74970245361328 55.53372192382812 78.17081451416016 55.21643829345703 C 78.05666351318359 54.70170593261719 78.08042144775391 54.16018676757812 78.24899291992188 53.64140319824219 C 78.41756439208984 53.12261962890625 78.71660614013672 52.67059326171875 79.11152648925781 52.32126617431641 C 78.95733642578125 51.81708526611328 78.93853759765625 51.27542114257812 79.06587219238281 50.74501800537109 C 79.19320678710938 50.21460342407227 79.45588684082031 49.74047088623047 79.82218170166016 49.3612174987793 C 79.62891387939453 48.87067413330078 79.56765747070312 48.33206939697266 79.65299224853516 47.79330444335938 C 79.73832702636719 47.25453567504883 79.96297454833984 46.76129913330078 80.29838562011719 46.35449600219727 C 80.06722259521484 45.88063430786133 79.96392059326172 45.34856414794922 80.00672149658203 44.80476760864258 C 80.04951477050781 44.2609748840332 80.23478698730469 43.75160980224609 80.5372314453125 43.31974029541016 C 80.26959991455078 42.865478515625 80.12487030029297 42.34316253662109 80.12487030029297 41.79769134521484 C 80.12486267089844 41.25220489501953 80.26959228515625 40.72985458374023 80.5372314453125 40.27557373046875 C 80.23479461669922 39.84371185302734 80.04952239990234 39.33433151245117 80.00672912597656 38.79054260253906 C 79.96393585205078 38.24674987792969 80.06723022460938 37.71468353271484 80.29840087890625 37.24081039428711 C 79.96298980712891 36.83400726318359 79.73833465576172 36.34075164794922 79.65300750732422 35.80197906494141 C 79.56767272949219 35.2631950378418 79.62890625 34.72464370727539 79.82218933105469 34.23409271240234 C 79.45590209960938 33.8548583984375 79.1932373046875 33.38075256347656 79.06589508056641 32.850341796875 C 78.93854522705078 32.3199348449707 78.95733642578125 31.77825164794922 79.11154174804688 31.27404022216797 C 78.71662902832031 30.92471313476562 78.41757202148438 30.4726676940918 78.24900817871094 29.95389175415039 C 78.0804443359375 29.43510437011719 78.05668640136719 28.89360809326172 78.17084503173828 28.37886047363281 C 77.74974822998047 28.06159591674805 77.41615295410156 27.63442611694336 77.20740509033203 27.1304817199707 C 76.9986572265625 26.62651062011719 76.93247985839844 26.08854293823242 77.00590515136719 25.56642532348633 C 76.56120300292969 25.28316879272461 76.19508361816406 24.88344955444336 75.94744110107422 24.39741897583008 C 75.69979858398438 23.9113883972168 75.59162902832031 23.38031387329102 75.62387084960938 22.85404968261719 C 75.15831756591797 22.6065673828125 74.76200103759766 22.2368278503418 74.47698211669922 21.771728515625 C 74.19196319580078 21.30661773681641 74.04244995117188 20.78564071655273 74.03329467773438 20.25846099853516 C 73.54976654052734 20.04825973510742 73.12564086914062 19.71074295043945 72.80501556396484 19.26943969726562 C 72.48426055908203 18.82794952392578 72.2943115234375 18.31999969482422 72.24391174316406 17.79493713378906 C 71.72525024414062 17.61616516113281 71.26038360595703 17.29576873779297 70.90243530273438 16.85889434814453 C 70.57100677490234 16.45439910888672 70.3555908203125 15.97947692871094 70.2674560546875 15.47938537597656 C 69.69650268554688 15.33098602294922 69.17515563964844 15.01544952392578 68.77580261230469 14.56534576416016 C 68.45774841308594 14.20686340332031 68.23382568359375 13.78121185302734 68.11602783203125 13.32672119140625 C 67.49485778808594 13.21587371826172 66.91453552246094 12.90939331054688 66.47245788574219 12.44888305664062 C 66.16563415527344 12.12926483154297 65.93824768066406 11.75560760498047 65.79878234863281 11.35039520263672 C 64.69071960449219 11.24528503417969 63.75990676879883 10.54306793212891 63.33527374267578 9.560714721679688 C 62.22050476074219 9.540115356445312 61.24169921875 8.908172607421875 60.74203491210938 7.970207214355469 C 60.6820068359375 7.973793029785156 60.62168884277344 7.975593566894531 60.56111907958984 7.975593566894531 C 59.51461410522461 7.975593566894531 58.57050323486328 7.430152893066406 58.03093719482422 6.587623596191406 C 57.89330291748047 6.607063293457031 57.7542839050293 6.616920471191406 57.61489105224609 6.616920471191406 C 56.65673828125 6.616920471191406 55.77602005004883 6.156539916992188 55.21935272216797 5.4227294921875 C 55.00775909423828 5.469657897949219 54.79055023193359 5.49359130859375 54.57083129882812 5.49359130859375 C 53.69770431518555 5.49359130859375 52.88333892822266 5.110511779785156 52.32323455810547 4.48077392578125 C 52.04055023193359 4.567405700683594 51.74513244628906 4.612564086914062 51.44758224487305 4.612564086914062 C 50.65840530395508 4.612564086914062 49.9141960144043 4.300346374511719 49.36350631713867 3.771080017089844 C 49.01696014404297 3.907699584960938 48.64494323730469 3.979339599609375 48.26441955566406 3.979339599609375 C 47.55671310424805 3.979339599609375 46.88409423828125 3.729774475097656 46.35457992553711 3.294044494628906 C 45.94895172119141 3.491569519042969 45.49973297119141 3.597831726074219 45.04110717773438 3.597831726074219 C 44.41526412963867 3.597831726074219 43.81759262084961 3.404701232910156 43.32083129882812 3.057365417480469 C 42.86632537841797 3.325386047363281 42.34357833862305 3.470352172851562 41.79767990112305 3.470352172851562 C 41.25174331665039 3.470352172851562 40.72904968261719 3.325416564941406 40.27451324462891 3.057350158691406 M 40.2230339050293 0.704803466796875 C 40.51544570922852 0.704803466796875 40.80861663818359 0.8311843872070312 41.01009368896484 1.087577819824219 L 41.01010513305664 1.087608337402344 C 41.41115951538086 1.59796142578125 42.18425750732422 1.597953796386719 42.58528137207031 1.087577819824219 L 42.58523178100586 1.087646484375 C 43.00649642944336 0.5515365600585938 43.82863235473633 0.5838241577148438 44.20654296875 1.151321411132812 L 44.2065315246582 1.151321411132812 C 44.56629943847656 1.691558837890625 45.33700180053711 1.752220153808594 45.7768440246582 1.27490234375 L 45.77687072753906 1.274879455566406 C 46.23888778686523 0.7734909057617188 47.05593872070312 0.8702011108398438 47.38815689086914 1.465591430664062 L 47.38817977905273 1.465629577636719 C 47.70444107055664 2.032424926757812 48.46800231933594 2.153373718261719 48.94394302368164 1.712028503417969 L 48.94399261474609 1.711990356445312 C 49.44393920898438 1.248420715332031 50.25086975097656 1.408920288085938 50.53534317016602 2.028533935546875 L 50.53538131713867 2.028594970703125 C 50.80619430541992 2.618453979492188 51.55791854858398 2.798927307128906 52.0670166015625 2.396293640136719 L 52.06703186035156 2.396278381347656 C 52.601806640625 1.973365783691406 53.39366912841797 2.196670532226562 53.62865447998047 2.836692810058594 L 53.62868118286133 2.836746215820312 C 53.85238265991211 3.446037292480469 54.58763122558594 3.6849365234375 55.12674331665039 3.323493957519531 L 55.12677001953125 3.323471069335938 C 55.69308471679688 2.943794250488281 56.46498107910156 3.228553771972656 56.64901733398438 3.885055541992188 L 56.64904403686523 3.885108947753906 C 56.82424545288086 4.510078430175781 57.53848266601562 4.805938720703125 58.10429382324219 4.487892150878906 L 58.10435485839844 4.48785400390625 C 58.69871139526367 4.153778076171875 59.44589233398438 4.498252868652344 59.57784271240234 5.167152404785156 L 59.57785797119141 5.167190551757812 C 59.7034912109375 5.803993225097656 60.39231872558594 6.154930114746094 60.98134613037109 5.882308959960938 L 60.98135375976562 5.882293701171875 C 61.60007858276367 5.595870971679688 62.31793975830078 5.997894287109375 62.39701843261719 6.675102233886719 L 62.39703369140625 6.675140380859375 C 62.47230529785156 7.319816589355469 63.13144683837891 7.7237548828125 63.74006652832031 7.498153686523438 L 63.74011993408203 7.498146057128906 C 64.37942504882812 7.261154174804688 65.06352233886719 7.71826171875 65.08921813964844 8.399566650390625 L 65.08921813964844 8.399620056152344 C 65.11367797851562 9.048233032226562 65.73912048339844 9.502670288085938 66.36354064941406 9.325477600097656 L 66.36357879638672 9.325469970703125 C 67.01949310302734 9.139358520507812 67.66561889648438 9.64874267578125 67.63777923583984 10.32997894287109 L 67.63777923583984 10.33000183105469 C 67.61128234863281 10.97854614257812 68.19914245605469 11.48067474365234 68.83554077148438 11.35298919677734 L 68.83555603027344 11.35298919677734 C 69.50405883789062 11.21895599365234 70.10823059082031 11.77742004394531 70.02703094482422 12.45436859130859 L 70.02703094482422 12.45441436767578 C 69.94972991943359 13.09886932373047 70.49639892578125 13.64556884765625 71.14083099365234 13.56821441650391 L 71.14091491699219 13.56821441650391 C 71.81787109375 13.48709869384766 72.3763427734375 14.09117889404297 72.24229431152344 14.75968170166016 L 72.24227905273438 14.75972747802734 C 72.11465454101562 15.39613342285156 72.61671447753906 15.98414611816406 73.26526641845703 15.95748901367188 L 73.26530456542969 15.95748901367188 C 73.94654083251953 15.92958831787109 74.45590209960938 16.57577514648438 74.26980590820312 17.231689453125 L 74.26979064941406 17.23172760009766 C 74.09262847900391 17.85615539550781 74.54704284667969 18.48159027099609 75.19564056396484 18.50606536865234 L 75.1956787109375 18.50606536865234 C 75.87700653076172 18.53176879882812 76.3341064453125 19.21586608886719 76.09712219238281 19.85515594482422 L 76.09710693359375 19.85520553588867 C 75.87149047851562 20.46379470825195 76.27542877197266 21.12296676635742 76.92012023925781 21.1982421875 L 76.920166015625 21.1982421875 C 77.59736633300781 21.27732849121094 77.99939727783203 21.99518203735352 77.71298217773438 22.61390686035156 L 77.71295928955078 22.61395645141602 C 77.44029235839844 23.20296859741211 77.79126739501953 23.89179229736328 78.42807006835938 24.01742935180664 L 78.42811584472656 24.01742935180664 C 79.09701538085938 24.14940643310547 79.44146728515625 24.89659118652344 79.10740661621094 25.49092864990234 L 79.10738372802734 25.490966796875 C 78.78935241699219 26.05678176879883 79.08518981933594 26.77101898193359 79.71016693115234 26.94621658325195 L 79.710205078125 26.94623184204102 C 80.36670684814453 27.13027954101562 80.65146636962891 27.90217971801758 80.27180480957031 28.46847915649414 L 80.27176666259766 28.46852874755859 C 79.91031646728516 29.00765609741211 80.14921569824219 29.74289321899414 80.75852203369141 29.96659469604492 L 80.75856018066406 29.96660614013672 C 81.39859008789062 30.20159149169922 81.62191772460938 30.99346923828125 81.19896697998047 31.52822875976562 L 81.19895935058594 31.52825546264648 C 80.79631805419922 32.037353515625 80.97679138183594 32.78908157348633 81.56666564941406 33.05989456176758 L 81.56673431396484 33.05991744995117 C 82.18634033203125 33.34439468383789 82.34684753417969 34.1513557434082 81.88325500488281 34.65129470825195 L 81.88321685791016 34.65131759643555 C 81.44187927246094 35.12725448608398 81.56282043457031 35.89084243774414 82.12963104248047 36.20709228515625 L 82.12965393066406 36.20710372924805 C 82.72505950927734 36.5393180847168 82.82176971435547 37.35636901855469 82.32038116455078 37.81840515136719 L 82.32034301757812 37.81844329833984 C 81.84303283691406 38.25829315185547 81.90369415283203 39.02898025512695 82.44391632080078 39.38874435424805 L 82.4439697265625 39.38876724243164 C 83.01145935058594 39.76666641235352 83.04374694824219 40.58877944946289 82.50765991210938 41.01004409790039 L 82.50762176513672 41.01007843017578 C 81.99726867675781 41.41111755371094 81.99726867675781 42.1841926574707 82.50762939453125 42.58523178100586 L 82.50765991210938 42.58525466918945 C 83.04374694824219 43.00651931762695 83.01144409179688 43.82862854003906 82.44395446777344 44.20654296875 L 82.44391632080078 44.20656967163086 C 81.90367889404297 44.56632995605469 81.84303283691406 45.33701705932617 82.32034301757812 45.7768669128418 L 82.32036590576172 45.77689361572266 C 82.82175445556641 46.23891830444336 82.72505950927734 47.05596923828125 82.12965393066406 47.38817977905273 L 82.12961578369141 47.38819122314453 C 81.56280517578125 47.7044563293457 81.44187927246094 48.4680290222168 81.88320922851562 48.94396591186523 L 81.88325500488281 48.94400405883789 C 82.34684753417969 49.44394302368164 82.18633270263672 50.25089263916016 81.56670379638672 50.53536605834961 L 81.56664276123047 50.53540420532227 C 80.97679138183594 50.80621719360352 80.79631805419922 51.55794143676758 81.19894409179688 52.06703186035156 L 81.19896697998047 52.06707000732422 C 81.62191009521484 52.60182952880859 81.39858245849609 53.39370727539062 80.75856018066406 53.62869262695312 L 80.75850677490234 53.62870788574219 C 80.14919281005859 53.8524055480957 79.91030883789062 54.58765411376953 80.27174377441406 55.12677001953125 L 80.27176666259766 55.12679290771484 C 80.65144348144531 55.69310760498047 80.36666870117188 56.46500396728516 79.71018218994141 56.64904022216797 L 79.71014404296875 56.64905548095703 C 79.08516693115234 56.82426834106445 78.78932189941406 57.53849029541016 79.10735321044922 58.10430526733398 L 79.10739135742188 58.1043701171875 C 79.44145965576172 58.69871520996094 79.09699249267578 59.44589233398438 78.42808532714844 59.57785797119141 L 78.42804718017578 59.57786560058594 C 77.79124450683594 59.7034912109375 77.44028472900391 60.39231872558594 77.71292877197266 60.98134231567383 L 77.71294403076172 60.98139190673828 C 77.99935913085938 61.60012054443359 77.59732818603516 62.31797027587891 76.92012786865234 62.39704132080078 L 76.92010498046875 62.39704132080078 C 76.27540588378906 62.47232055664062 75.87146759033203 63.13149261474609 76.09706878662109 63.74009323120117 L 76.09709167480469 63.74012756347656 C 76.33406829833984 64.37943267822266 75.87696838378906 65.06352233886719 75.19565582275391 65.08921813964844 L 75.19561767578125 65.0892333984375 C 74.54700469970703 65.11369323730469 74.09259033203125 65.73912811279297 74.26976013183594 66.36355590820312 L 74.26976776123047 66.36360168457031 C 74.45587158203125 67.01950073242188 73.946533203125 67.66563415527344 73.26528167724609 67.63780212402344 L 73.26522827148438 67.63780212402344 C 72.61672973632812 67.61133575439453 72.11464691162109 68.19916534423828 72.24225616455078 68.8355712890625 L 72.24225616455078 68.83561706542969 C 72.37631988525391 69.50410461425781 71.81779479980469 70.10826110839844 71.14088439941406 70.02706909179688 L 71.14080810546875 70.02705383300781 C 70.49635314941406 69.94974517822266 69.94970703125 70.49642944335938 70.02700805664062 71.140869140625 L 70.02700805664062 71.14093017578125 C 70.10821533203125 71.81787872314453 69.50403594970703 72.37636566162109 68.83554077148438 72.2423095703125 L 68.83551788330078 72.2423095703125 C 68.19911956787109 72.11467742919922 67.61125183105469 72.61675262451172 67.63774108886719 73.26526641845703 L 67.63774108886719 73.26532745361328 C 67.66556549072266 73.94657135009766 67.01943206787109 74.45591735839844 66.36353302001953 74.26982116699219 L 66.36349487304688 74.26982116699219 C 65.73907470703125 74.0926513671875 65.11363220214844 74.54704284667969 65.08915710449219 75.19565582275391 L 65.08915710449219 75.19571685791016 C 65.06345367431641 75.87702941894531 64.37934112548828 76.33412933349609 63.74005889892578 76.09715270996094 L 63.74004364013672 76.09712982177734 C 63.13144683837891 75.87152862548828 62.47228240966797 76.27546691894531 62.39699554443359 76.92015838623047 L 62.39698028564453 76.92019653320312 C 62.31790542602539 77.59740447998047 61.60004043579102 77.99942016601562 60.98131942749023 77.71298980712891 L 60.98129272460938 77.71298217773438 C 60.39228057861328 77.44032287597656 59.70344161987305 77.79127502441406 59.57780456542969 78.42807769775391 L 59.57780456542969 78.42813110351562 C 59.44583129882812 79.0970458984375 58.69865036010742 79.44149017333984 58.10430908203125 79.10741424560547 L 58.10425567626953 79.10739135742188 C 57.53845977783203 78.78936767578125 56.82421875 79.085205078125 56.64900588989258 79.71016693115234 L 56.64899444580078 79.71022033691406 C 56.46494293212891 80.36672210693359 55.69304656982422 80.65146636962891 55.12674331665039 80.27180480957031 L 55.12671661376953 80.27178955078125 C 54.58760833740234 79.91033935546875 53.85235595703125 80.14923095703125 53.62865447998047 80.75852966308594 L 53.62863159179688 80.75858306884766 C 53.39364242553711 81.39860534667969 52.60177612304688 81.62194061279297 52.06700897216797 81.19898986816406 L 52.06698226928711 81.19896697998047 C 51.55788040161133 80.79633331298828 50.80614471435547 80.976806640625 50.53534317016602 81.56669616699219 L 50.53532028198242 81.56672668457031 C 50.2508544921875 82.18635559082031 49.44389724731445 82.34685516357422 48.94395446777344 81.88327026367188 L 48.94390487670898 81.88321685791016 C 48.46798324584961 81.44188690185547 47.70440292358398 81.56283569335938 47.38814544677734 82.12964630126953 L 47.38813018798828 82.12966918945312 C 47.0559196472168 82.72505950927734 46.23885726928711 82.82176971435547 45.77683258056641 82.32039642333984 L 45.77680587768555 82.32035827636719 C 45.33695983886719 81.84304046630859 44.56626892089844 81.90369415283203 44.20650482177734 82.44391632080078 L 44.20647048950195 82.44397735595703 C 43.82856750488281 83.01145172119141 43.0064582824707 83.04376983642578 42.5851936340332 82.5076904296875 L 42.58514404296875 82.50762939453125 C 42.18411254882812 81.99729156494141 41.41103744506836 81.99729156494141 41.01000595092773 82.50764465332031 L 41.00998306274414 82.50766754150391 C 40.58871841430664 83.04375457763672 39.76660919189453 83.01145935058594 39.38870620727539 82.4439697265625 L 39.38866806030273 82.44391632080078 C 39.02890777587891 81.90367889404297 38.25822448730469 81.84304046630859 37.81838226318359 82.32032775878906 L 37.81833267211914 82.32039642333984 C 37.35630416870117 82.82177734375 36.53925704956055 82.72506713867188 36.2070426940918 82.12967681884766 L 36.20700454711914 82.12961578369141 C 35.89074325561523 81.56281280517578 35.12717056274414 81.44187927246094 34.65122985839844 81.88321685791016 L 34.65121841430664 81.88323974609375 C 34.15127944946289 82.34683227539062 33.34432983398438 82.18633270263672 33.05985641479492 81.56670379638672 L 33.05982971191406 81.56664276123047 C 32.78900146484375 80.97677612304688 32.03727722167969 80.79631805419922 31.52818298339844 81.19895172119141 L 31.52816772460938 81.19896697998047 C 30.99340438842773 81.62191772460938 30.20151519775391 81.39857482910156 29.96654510498047 80.758544921875 L 29.96652984619141 80.75851440429688 C 29.74282455444336 80.14920043945312 29.00757217407227 79.91030883789062 28.46846771240234 80.27175903320312 L 28.46842956542969 80.27176666259766 C 27.90213775634766 80.65145111083984 27.13021850585938 80.36668395996094 26.94618225097656 79.71018981933594 L 26.9461669921875 79.71014404296875 C 26.77095794677734 79.08516693115234 26.05671310424805 78.78932189941406 25.49090576171875 79.10734558105469 L 25.49086761474609 79.10736846923828 C 24.89653778076172 79.44144439697266 24.14934158325195 79.09697723388672 24.01737976074219 78.42807769775391 L 24.01736831665039 78.42803955078125 C 23.89174270629883 77.79124450683594 23.20290374755859 77.44027709960938 22.61389541625977 77.71292877197266 L 22.61384201049805 77.71295166015625 C 21.99510955810547 77.99935913085938 21.27727127075195 77.59734344482422 21.19819259643555 76.92014312744141 L 21.19819259643555 76.92010498046875 C 21.12290954589844 76.27542114257812 20.46372222900391 75.87146759033203 19.85514450073242 76.09709167480469 L 19.85510635375977 76.09709167480469 C 19.21579742431641 76.33409881591797 18.53172302246094 75.87697601318359 18.50600433349609 75.19567108154297 L 18.50600433349609 75.19563293457031 C 18.48154449462891 74.54700469970703 17.85610961914062 74.09260559082031 17.23166656494141 74.26976776123047 L 17.23165893554688 74.26976776123047 C 16.57571411132812 74.45586395263672 15.92960357666016 73.94650268554688 15.95742797851562 73.26526641845703 L 15.95742797851562 73.26522827148438 C 15.98393249511719 72.61672210693359 15.39603424072266 72.11463165283203 14.75969696044922 72.24224090576172 L 14.75962066650391 72.24226379394531 C 14.09112548828125 72.37630462646484 13.48696899414062 71.81781768798828 13.56816864013672 71.140869140625 L 13.56816864013672 71.14081573486328 C 13.64546966552734 70.49638366699219 13.098876953125 69.94971466064453 12.45436859130859 70.02701568603516 L 12.45431518554688 70.02701568603516 C 11.77748870849609 70.10823059082031 11.21888732910156 69.50405883789062 11.35294342041016 68.83555603027344 L 11.35294342041016 68.83550262451172 C 11.48057556152344 68.19911193847656 10.97837066650391 67.61123657226562 10.3299560546875 67.63775634765625 L 10.32991790771484 67.63775634765625 C 9.6488037109375 67.66553497314453 9.139328002929688 67.01946258544922 9.325416564941406 66.36355590820312 L 9.325447082519531 66.36349487304688 C 9.502593994140625 65.73905944824219 9.048179626464844 65.11361694335938 8.399566650390625 65.08915710449219 L 8.399543762207031 65.08915710449219 C 7.718231201171875 65.06345367431641 7.261116027832031 64.37935638427734 7.498115539550781 63.74006652832031 L 7.498115539550781 63.74002838134766 C 7.723731994628906 63.13143157958984 7.319793701171875 62.47226715087891 6.675117492675781 62.39698028564453 L 6.675041198730469 62.39698028564453 C 5.997856140136719 62.31789398193359 5.595840454101562 61.60002899169922 5.882255554199219 60.98131561279297 L 5.882270812988281 60.98127746582031 C 6.154930114746094 60.39225769042969 5.803970336914062 59.70344543457031 5.167167663574219 59.57780456542969 L 5.167121887207031 59.57779312133789 C 4.498207092285156 59.44580459594727 4.153755187988281 58.69863128662109 4.487831115722656 58.10427856445312 L 4.48785400390625 58.10425567626953 C 4.805892944335938 57.53844451904297 4.510040283203125 56.82420349121094 3.885055541992188 56.64899444580078 L 3.885040283203125 56.64897918701172 C 3.228530883789062 56.46494293212891 2.943771362304688 55.69303131103516 3.323440551757812 55.12673187255859 L 3.323455810546875 55.12670516967773 C 3.684906005859375 54.58759307861328 3.446022033691406 53.85234069824219 2.836715698242188 53.62864303588867 L 2.836654663085938 53.62861633300781 C 2.196647644042969 53.39364242553711 1.973304748535156 52.60176849365234 2.396255493164062 52.0670051574707 L 2.396278381347656 52.06696701049805 C 2.798919677734375 51.55786895751953 2.618446350097656 50.80614471435547 2.028572082519531 50.53531646728516 L 2.028518676757812 50.53530502319336 C 1.408905029296875 50.25081634521484 1.248390197753906 49.44388198852539 1.711982727050781 48.94394302368164 L 1.712028503417969 48.94389343261719 C 2.153366088867188 48.46794128417969 2.032417297363281 47.70439147949219 1.465621948242188 47.38811874389648 L 1.465583801269531 47.38810348510742 C 0.8701934814453125 47.05589294433594 0.7734909057617188 46.23883056640625 1.274879455566406 45.77680587768555 L 1.274909973144531 45.77679443359375 C 1.752220153808594 45.33694458007812 1.691566467285156 44.56624221801758 1.151321411132812 44.20648193359375 L 1.151268005371094 44.20645523071289 C 0.5837936401367188 43.82855606079102 0.5514907836914062 43.00643157958984 1.087577819824219 42.58516693115234 L 1.087615966796875 42.58512878417969 C 1.597984313964844 42.1840934753418 1.597984313964844 41.41100692749023 1.087615966796875 41.00997924804688 L 1.087593078613281 41.00995635986328 C 0.5515060424804688 40.58870697021484 0.5838088989257812 39.76656723022461 1.151290893554688 39.38866806030273 L 1.151321411132812 39.38865661621094 C 1.691566467285156 39.02890396118164 1.752227783203125 38.25819396972656 1.274909973144531 37.81834411621094 L 1.274879455566406 37.81832885742188 C 0.7734909057617188 37.35630416870117 0.8701934814453125 36.53925704956055 1.465583801269531 36.20703125 L 1.465644836425781 36.20700454711914 C 2.032440185546875 35.89073181152344 2.15338134765625 35.12716674804688 1.712043762207031 34.65122985839844 L 1.712020874023438 34.65120697021484 C 1.248428344726562 34.15126800537109 1.408927917480469 33.34431838989258 2.028556823730469 33.05984115600586 L 2.028602600097656 33.05981826782227 C 2.618484497070312 32.78900527954102 2.798942565917969 32.03728103637695 2.396316528320312 31.52817916870117 L 2.396293640136719 31.52815628051758 C 1.973358154296875 30.99338150024414 2.196678161621094 30.20151901245117 2.836715698242188 29.96652984619141 L 2.836753845214844 29.96651840209961 C 3.446052551269531 29.74281692504883 3.684959411621094 29.007568359375 3.323509216308594 28.46845626831055 L 3.323478698730469 28.46841812133789 C 2.943809509277344 27.90210342407227 3.228569030761719 27.13020706176758 3.88507080078125 26.9461669921875 L 3.885116577148438 26.9461555480957 C 4.510093688964844 26.77094268798828 4.805931091308594 26.05670547485352 4.487907409667969 25.49089431762695 L 4.487884521484375 25.4908561706543 C 4.15380859375 24.89650344848633 4.498268127441406 24.14931869506836 5.167167663574219 24.01735687255859 L 5.167221069335938 24.01734161376953 C 5.80401611328125 23.89171600341797 6.154991149902344 23.2028923034668 5.882331848144531 22.61386871337891 L 5.882316589355469 22.61383056640625 C 5.595893859863281 21.9951057434082 5.997917175292969 21.27725601196289 6.675117492675781 21.19816970825195 L 6.675155639648438 21.19816970825195 C 7.319854736328125 21.12289428710938 7.723793029785156 20.46372985839844 7.498184204101562 19.85512924194336 L 7.4981689453125 19.85507965087891 C 7.261184692382812 19.21578979492188 7.718292236328125 18.53169250488281 8.399604797363281 18.50598907470703 L 8.399642944335938 18.50598907470703 C 9.048255920410156 18.48152923583984 9.502670288085938 17.85609436035156 9.325508117675781 17.23166656494141 L 9.325492858886719 17.23162841796875 C 9.139396667480469 16.57571411132812 9.649063110351562 15.92957305908203 10.33000946044922 15.95742034912109 L 10.33004760742188 15.95742034912109 C 10.97853088378906 15.98371124267578 11.48065948486328 15.39607238769531 11.35303497314453 14.75965881347656 L 11.35303497314453 14.75962066650391 C 11.21897125244141 14.09112548828125 11.77743530273438 13.48697662353516 12.45442199707031 13.56815338134766 L 12.45446014404297 13.56815338134766 C 13.098876953125 13.64553070068359 13.64556121826172 13.09880065917969 13.56825256347656 12.45435333251953 L 13.56825256347656 12.45431518554688 C 13.48705291748047 11.77736663818359 14.09121704101562 11.21887969970703 14.75973510742188 11.35292816162109 L 14.75975799560547 11.35294342041016 C 15.39615631103516 11.48052978515625 15.98402404785156 10.97849273681641 15.95751953125 10.32997131347656 L 15.95751953125 10.32991790771484 C 15.92967987060547 9.648681640625 16.57582855224609 9.139289855957031 17.23172760009766 9.325416564941406 L 17.23176574707031 9.325431823730469 C 17.85618591308594 9.502555847167969 18.48162841796875 9.048179626464844 18.506103515625 8.399566650390625 L 18.506103515625 8.399528503417969 C 18.53180694580078 7.718208312988281 19.21591949462891 7.261131286621094 19.85520553588867 7.498092651367188 L 19.85524368286133 7.498115539550781 C 20.46384048461914 7.723701477050781 21.12300491333008 7.319793701171875 21.19828033447266 6.675102233886719 L 21.19829559326172 6.675041198730469 C 21.27736663818359 5.997840881347656 21.99522018432617 5.595855712890625 22.61395645141602 5.882240295410156 L 22.61399459838867 5.882270812988281 C 23.20302581787109 6.154937744140625 23.891845703125 5.803955078125 24.0174674987793 5.167152404785156 L 24.01748275756836 5.1671142578125 C 24.14944458007812 4.498214721679688 24.89664077758789 4.153778076171875 25.49098205566406 4.487831115722656 L 25.49103164672852 4.48785400390625 C 26.05684661865234 4.805908203125 26.77108383178711 4.510040283203125 26.94628143310547 3.88507080078125 L 26.94629287719727 3.885032653808594 C 27.13033294677734 3.228538513183594 27.90224456787109 2.94378662109375 28.46854400634766 3.323440551757812 L 28.46858215332031 3.323471069335938 C 29.0076904296875 3.684906005859375 29.74293899536133 3.446022033691406 29.96664428710938 2.836715698242188 L 29.96665573120117 2.836677551269531 C 30.20164489746094 2.196647644042969 30.99350357055664 1.973320007324219 31.52828216552734 2.396255493164062 L 31.52830505371094 2.396278381347656 C 32.03741455078125 2.798912048339844 32.78913116455078 2.618438720703125 33.05995559692383 2.028564453125 L 33.05996704101562 2.028533935546875 C 33.34444427490234 1.408905029296875 34.15138626098633 1.248382568359375 34.65133285522461 1.711982727050781 L 34.6513671875 1.712028503417969 C 35.1273078918457 2.153358459472656 35.89087677001953 2.032424926757812 36.20714569091797 1.465614318847656 L 36.20715713500977 1.465591430664062 C 36.53936767578125 0.8701934814453125 37.35643768310547 0.77349853515625 37.81845474243164 1.274879455566406 L 37.8184700012207 1.27490234375 C 38.25830078125 1.752227783203125 39.02901840209961 1.691566467285156 39.3887825012207 1.151321411132812 L 39.3888053894043 1.151283264160156 C 39.58596801757812 0.8552017211914062 39.90404891967773 0.704803466796875 40.2230339050293 0.704803466796875 Z"/></g><g transform="translate(14.015 25.258)"><path class="b" d="M1101.776,588.339v-1.357h31.984l3.585,11.3,9.45,3.049v12.756l-45.019-.024v-1.827" transform="translate(-1091.414 -586.983)"/><line class="c" x2="16.582" transform="translate(2.452 4.703)"/><line class="c" x2="14.807" transform="translate(6 9.77)"/><line class="c" x2="12.849" transform="translate(0.616 14.112)"/><line class="c" x2="11.136" transform="translate(4.226 19.178)"/><line class="c" x2="7.005" transform="translate(0 24.244)"/><g class="d" transform="translate(15.928 21.789)"><circle class="h" cx="5.447" cy="5.447" r="5.447"/><circle class="j" cx="5.447" cy="5.447" r="4.447"/></g><g class="e" transform="translate(18.989 24.85)"><circle class="h" cx="2.405" cy="2.405" r="2.405"/><circle class="j" cx="2.405" cy="2.405" r="2.155"/></g><g class="a" transform="translate(37.717 21.789)"><path class="h" d="M 5.447256088256836 9.894515991210938 C 2.995026111602783 9.894515991210938 0.9999960660934448 7.899486064910889 0.9999960660934448 5.447256088256836 C 0.9999960660934448 2.995026111602783 2.995026111602783 0.9999960660934448 5.447256088256836 0.9999960660934448 C 7.899486064910889 0.9999960660934448 9.894515991210938 2.995026111602783 9.894515991210938 5.447256088256836 C 9.894515991210938 7.899486064910889 7.899486064910889 9.894515991210938 5.447256088256836 9.894515991210938 Z"/><path class="k" d="M 5.447256088256836 1.999996185302734 C 3.546426296234131 1.999996185302734 1.999996185302734 3.546426296234131 1.999996185302734 5.447256088256836 C 1.999996185302734 7.348086357116699 3.546426296234131 8.894515991210938 5.447256088256836 8.894515991210938 C 7.348086357116699 8.894515991210938 8.894515991210938 7.348086357116699 8.894515991210938 5.447256088256836 C 8.894515991210938 3.546426296234131 7.348086357116699 1.999996185302734 5.447256088256836 1.999996185302734 M 5.447256088256836 -3.814697265625e-06 C 8.455696105957031 -3.814697265625e-06 10.89451599121094 2.438816070556641 10.89451599121094 5.447256088256836 C 10.89451599121094 8.455696105957031 8.455696105957031 10.89451599121094 5.447256088256836 10.89451599121094 C 2.438816070556641 10.89451599121094 -3.814697265625e-06 8.455696105957031 -3.814697265625e-06 5.447256088256836 C -3.814697265625e-06 2.438816070556641 2.438816070556641 -3.814697265625e-06 5.447256088256836 -3.814697265625e-06 Z"/></g><g class="f" transform="translate(40.727 24.799)"><path class="h" d="M 2.405293703079224 4.560583591461182 C 1.216863751411438 4.560583591461182 0.2500036954879761 3.593723773956299 0.2500036954879761 2.405293703079224 C 0.2500036954879761 1.216863751411438 1.216863751411438 0.2500036954879761 2.405293703079224 0.2500036954879761 C 3.593723773956299 0.2500036954879761 4.560583591461182 1.216863751411438 4.560583591461182 2.405293703079224 C 4.560583591461182 3.593723773956299 3.593723773956299 4.560583591461182 2.405293703079224 4.560583591461182 Z"/><path class="l" d="M 2.405293703079224 0.5000038146972656 C 1.354713678359985 0.5000038146972656 0.5000038146972656 1.354713678359985 0.5000038146972656 2.405293703079224 C 0.5000038146972656 3.455873727798462 1.354713678359985 4.310583591461182 2.405293703079224 4.310583591461182 C 3.455873727798462 4.310583591461182 4.310583591461182 3.455873727798462 4.310583591461182 2.405293703079224 C 4.310583591461182 1.354713678359985 3.455873727798462 0.5000038146972656 2.405293703079224 0.5000038146972656 M 2.405293703079224 3.814697265625e-06 C 3.73370361328125 3.814697265625e-06 4.810583591461182 1.076883792877197 4.810583591461182 2.405293703079224 C 4.810583591461182 3.73370361328125 3.73370361328125 4.810583591461182 2.405293703079224 4.810583591461182 C 1.076883792877197 4.810583591461182 3.814697265625e-06 3.73370361328125 3.814697265625e-06 2.405293703079224 C 3.814697265625e-06 1.076883792877197 1.076883792877197 3.814697265625e-06 2.405293703079224 3.814697265625e-06 Z"/></g><rect class="g" width="6.514" height="8.685" rx="2" transform="translate(32.905 4.038)"/></g></svg>